<svg width="72" height="72" viewBox="0 0 72 72" fill="none" xmlns="http://www.w3.org/2000/svg">
<g id="rocket_24dp_FILL0_wght400_GRAD0_opsz24 9">
<path id="kid_star" d="M22.1617 20.4818L30.6694 9.4923C31.2771 8.68387 31.9987 8.09019 32.8343 7.71124C33.6699 7.3323 34.5435 7.14282 35.455 7.14282C36.3665 7.14282 37.2401 7.3323 38.0757 7.71124C38.9112 8.09019 39.6329 8.68387 40.2406 9.4923L48.7482 20.4818L61.6617 24.8018C62.9783 25.206 64.0165 25.9512 64.7761 27.0376C65.5357 28.1239 65.9155 29.3239 65.9155 30.6376C65.9155 31.2439 65.8269 31.8502 65.6496 32.4565C65.4724 33.0628 65.1812 33.6439 64.7761 34.1997L56.4203 46.0228L56.7242 58.4523C56.7748 60.2207 56.1925 61.7112 54.9771 62.9239C53.7617 64.1365 52.3437 64.7428 50.7232 64.7428C50.6219 64.7428 50.0649 64.667 49.0521 64.5155L35.455 60.726L21.8579 64.5155C21.6047 64.6165 21.3262 64.6797 21.0223 64.7049C20.7185 64.7302 20.44 64.7428 20.1868 64.7428C18.5662 64.7428 17.1483 64.1365 15.9329 62.9239C14.7175 61.7112 14.1352 60.2207 14.1858 58.4523L14.4896 45.947L6.20986 34.1997C5.80473 33.6439 5.51354 33.0628 5.3363 32.4565C5.15906 31.8502 5.07043 31.2439 5.07043 30.6376C5.07043 29.3744 5.43758 28.1997 6.17187 27.1133C6.90617 26.027 7.93165 25.2565 9.24831 24.8018L22.1617 20.4818Z" fill="#FF9D30"/>
</g>
</svg>
