<svg width="65" height="58" viewBox="0 0 65 58" fill="none" xmlns="http://www.w3.org/2000/svg">
<g id="thumb_up_24dp_FILL0_wght400_GRAD0_opsz24 4" clip-path="url(#clip0_439_5202)">
<g id="diversity_3">
<mask id="mask0_439_5202" style="mask-type:alpha" maskUnits="userSpaceOnUse" x="0" y="-1" width="64" height="60">
<rect id="Bounding box" y="-0.640869" width="63.5638" height="58.7442" fill="#D9D9D9"/>
</mask>
<g mask="url(#mask0_439_5202)">
<path id="diversity_3_2" d="M3 52.125V43.5C3 41.8708 3.55189 40.5052 4.65568 39.4031C5.75947 38.301 7.08636 37.75 8.63636 37.75H17.8659C18.8053 37.75 19.6977 37.9896 20.5432 38.4688C21.3886 38.9479 22.0697 39.5948 22.5864 40.4094C23.9485 42.2781 25.6277 43.7396 27.6239 44.7938C29.6201 45.8479 31.7455 46.375 34 46.375C36.3015 46.375 38.4504 45.8479 40.4466 44.7938C42.4428 43.7396 44.0985 42.2781 45.4136 40.4094C46.0242 39.5948 46.7405 38.9479 47.5625 38.4688C48.3845 37.9896 49.2417 37.75 50.1341 37.75H59.3636C60.9606 37.75 62.2992 38.301 63.3795 39.4031C64.4599 40.5052 65 41.8708 65 43.5V52.125C65 52.9396 64.7299 53.6224 64.1898 54.1734C63.6496 54.7245 62.9803 55 62.1818 55H48.0909C47.2924 55 46.6231 54.7245 46.083 54.1734C45.5428 53.6224 45.2727 52.9396 45.2727 52.125V48.4594C43.6288 49.6573 41.8557 50.5677 39.9534 51.1906C38.0511 51.8135 36.0667 52.125 34 52.125C31.9803 52.125 30.0076 51.8016 28.0818 51.1547C26.1561 50.5078 24.3712 49.5854 22.7273 48.3875V52.125C22.7273 52.9396 22.4572 53.6224 21.917 54.1734C21.3769 54.7245 20.7076 55 19.9091 55H5.81818C5.0197 55 4.35038 54.7245 3.81023 54.1734C3.27008 53.6224 3 52.9396 3 52.125ZM34 43.5C32.2152 43.5 30.5242 43.0807 28.9273 42.2422C27.3303 41.4036 25.9917 40.2417 24.9114 38.7563C24.1129 37.5583 23.1148 36.612 21.917 35.9172C20.7193 35.2224 19.4159 34.875 18.0068 34.875C19.0402 33.1021 21.2242 31.7005 24.5591 30.6703C27.8939 29.6401 31.0409 29.125 34 29.125C36.9591 29.125 40.1061 29.6401 43.4409 30.6703C46.7758 31.7005 48.9599 33.1021 49.9932 34.875C48.6311 34.875 47.3394 35.2224 46.1182 35.9172C44.897 36.612 43.8871 37.5583 43.0886 38.7563C42.0553 40.2896 40.7402 41.4635 39.1432 42.2781C37.5462 43.0927 35.8318 43.5 34 43.5ZM11.4545 34.875C9.10606 34.875 7.10985 34.0365 5.46591 32.3594C3.82197 30.6823 3 28.6458 3 26.25C3 23.8062 3.82197 21.7578 5.46591 20.1047C7.10985 18.4516 9.10606 17.625 11.4545 17.625C13.85 17.625 15.858 18.4516 17.4784 20.1047C19.0989 21.7578 19.9091 23.8062 19.9091 26.25C19.9091 28.6458 19.0989 30.6823 17.4784 32.3594C15.858 34.0365 13.85 34.875 11.4545 34.875ZM56.5455 34.875C54.197 34.875 52.2008 34.0365 50.5568 32.3594C48.9129 30.6823 48.0909 28.6458 48.0909 26.25C48.0909 23.8062 48.9129 21.7578 50.5568 20.1047C52.2008 18.4516 54.197 17.625 56.5455 17.625C58.9409 17.625 60.9489 18.4516 62.5693 20.1047C64.1898 21.7578 65 23.8062 65 26.25C65 28.6458 64.1898 30.6823 62.5693 32.3594C60.9489 34.0365 58.9409 34.875 56.5455 34.875ZM34 26.25C31.6515 26.25 29.6553 25.4115 28.0114 23.7344C26.3674 22.0573 25.5455 20.0208 25.5455 17.625C25.5455 15.1813 26.3674 13.1328 28.0114 11.4797C29.6553 9.82656 31.6515 9 34 9C36.3955 9 38.4034 9.82656 40.0239 11.4797C41.6443 13.1328 42.4545 15.1813 42.4545 17.625C42.4545 20.0208 41.6443 22.0573 40.0239 23.7344C38.4034 25.4115 36.3955 26.25 34 26.25Z" fill="#E56C25"/>
</g>
</g>
</g>
<defs>
<clipPath id="clip0_439_5202">
<rect width="65" height="58" fill="white"/>
</clipPath>
</defs>
</svg>
