<svg width="110" height="110" viewBox="0 0 110 110" fill="none" xmlns="http://www.w3.org/2000/svg">
<mask id="mask0_624_2082" style="mask-type:alpha" maskUnits="userSpaceOnUse" x="0" y="0" width="110" height="110">
<rect width="110" height="110" fill="#D9D9D9"/>
</mask>
<g mask="url(#mask0_624_2082)">
<path d="M19.7435 93.9582C17.4282 93.9582 15.4684 93.1561 13.8643 91.5519C12.2601 89.9478 11.458 87.988 11.458 85.6726V24.327C11.458 22.0117 12.2601 20.0519 13.8643 18.4478C15.4684 16.8436 17.4282 16.0415 19.7435 16.0415H90.2558C92.5712 16.0415 94.5309 16.8436 96.1351 18.4478C97.7393 20.0519 98.5413 22.0117 98.5413 24.327V85.6726C98.5413 87.988 97.7393 89.9478 96.1351 91.5519C94.5309 93.1561 92.5712 93.9582 90.2558 93.9582H19.7435ZM19.7435 87.0832H90.2558C90.6087 87.0832 90.9319 86.9361 91.2252 86.642C91.5193 86.3487 91.6663 86.0256 91.6663 85.6726V24.327C91.6663 23.9741 91.5193 23.651 91.2252 23.3576C90.9319 23.0635 90.6087 22.9165 90.2558 22.9165H19.7435C19.3906 22.9165 19.0675 23.0635 18.7742 23.3576C18.4801 23.651 18.333 23.9741 18.333 24.327V85.6726C18.333 86.0256 18.4801 86.3487 18.7742 86.642C19.0675 86.9361 19.3906 87.0832 19.7435 87.0832ZM41.2497 76.7707C42.2252 76.7707 43.0418 76.4414 43.6995 75.783C44.3579 75.1253 44.6872 74.3087 44.6872 73.3332C44.6872 72.3577 44.3579 71.5411 43.6995 70.8834C43.0418 70.2249 42.2252 69.8957 41.2497 69.8957H27.4997C26.5242 69.8957 25.7076 70.2249 25.0499 70.8834C24.3914 71.5411 24.0622 72.3577 24.0622 73.3332C24.0622 74.3087 24.3914 75.1253 25.0499 75.783C25.7076 76.4414 26.5242 76.7707 27.4997 76.7707H41.2497ZM66.6872 57.4324L62.5713 53.3166C61.8892 52.6352 61.0841 52.2987 60.1559 52.3071C59.2278 52.3163 58.4227 52.6761 57.7405 53.3865C57.1065 54.0687 56.7849 54.8738 56.7757 55.8019C56.7673 56.73 57.1038 57.5352 57.7852 58.2173L63.7871 64.2192C64.6159 65.048 65.5826 65.4624 66.6872 65.4624C67.7918 65.4624 68.7585 65.048 69.5873 64.2192L85.3287 48.4778C86.0101 47.7956 86.3585 46.9977 86.3737 46.0841C86.3883 45.1705 86.0399 44.3581 85.3287 43.6469C84.6176 42.9365 83.801 42.5813 82.8789 42.5813C81.9562 42.5813 81.1392 42.9365 80.428 43.6469L66.6872 57.4324ZM41.2497 58.4373C42.2252 58.4373 43.0418 58.1081 43.6995 57.4496C44.3579 56.7919 44.6872 55.9753 44.6872 54.9998C44.6872 54.0243 44.3579 53.2078 43.6995 52.55C43.0418 51.8916 42.2252 51.5623 41.2497 51.5623H27.4997C26.5242 51.5623 25.7076 51.8916 25.0499 52.55C24.3914 53.2078 24.0622 54.0243 24.0622 54.9998C24.0622 55.9753 24.3914 56.7919 25.0499 57.4496C25.7076 58.1081 26.5242 58.4373 27.4997 58.4373H41.2497ZM41.2497 40.104C42.2252 40.104 43.0418 39.7748 43.6995 39.1163C44.3579 38.4586 44.6872 37.642 44.6872 36.6665C44.6872 35.691 44.3579 34.8744 43.6995 34.2167C43.0418 33.5582 42.2252 33.229 41.2497 33.229H27.4997C26.5242 33.229 25.7076 33.5582 25.0499 34.2167C24.3914 34.8744 24.0622 35.691 24.0622 36.6665C24.0622 37.642 24.3914 38.4586 25.0499 39.1163C25.7076 39.7748 26.5242 40.104 27.4997 40.104H41.2497Z" fill="#EF6C00"/>
</g>
</svg>
