<svg width="110" height="110" viewBox="0 0 110 110" fill="none" xmlns="http://www.w3.org/2000/svg">
<mask id="mask0_618_1893" style="mask-type:alpha" maskUnits="userSpaceOnUse" x="0" y="0" width="110" height="110">
<rect width="110" height="110" fill="#D9D9D9"/>
</mask>
<g mask="url(#mask0_618_1893)">
<path d="M16.042 78.4277V45.3486C16.042 43.4328 16.7474 41.8332 18.1583 40.5499C19.5685 39.2658 21.2341 38.7001 23.1553 38.8529C29.1312 39.7695 34.8058 41.5456 40.179 44.181C45.5529 46.8164 50.4934 50.176 55.0003 54.2598C59.5073 50.176 64.4477 46.8164 69.8217 44.181C75.1949 41.5456 80.8694 39.7695 86.8453 38.8529C88.7665 38.7001 90.4322 39.2658 91.8423 40.5499C93.2532 41.8332 93.9587 43.4328 93.9587 45.3486V78.4277C93.9587 80.2549 93.3548 81.8224 92.1471 83.1302C90.9394 84.4372 89.4219 85.1671 87.5947 85.3199C82.4705 86.1135 77.6095 87.3816 73.0117 89.124C68.4138 90.8657 64.0112 93.2173 59.8037 96.1789C59.081 96.7488 58.3221 97.1689 57.5269 97.4393C56.7309 97.7098 55.8876 97.845 54.9969 97.845C54.1062 97.845 53.264 97.7098 52.4703 97.4393C51.6774 97.1689 50.9196 96.7488 50.197 96.1789C45.9895 93.2173 41.5941 90.8657 37.0107 89.124C32.4274 87.3816 27.5591 86.1135 22.4059 85.3199C20.5787 85.1671 19.0613 84.4372 17.8536 83.1302C16.6458 81.8224 16.042 80.2549 16.042 78.4277ZM55.0003 91.1201C59.8128 87.5596 64.9309 84.7034 70.3545 82.5515C75.7781 80.3997 81.3545 78.9781 87.0837 78.2867V45.7806C81.3018 46.7736 75.7032 48.7422 70.288 51.6862C64.8736 54.6295 59.7777 58.4898 55.0003 63.2672C50.223 58.4898 45.1271 54.6295 39.7126 51.6862C34.2974 48.7422 28.6989 46.7736 22.917 45.7806V78.2867C28.6462 78.9781 34.2225 80.3997 39.6462 82.5515C45.0698 84.7034 50.1878 87.5596 55.0003 91.1201ZM55.0003 40.2806C50.4437 40.2806 46.5429 38.6581 43.2979 35.4131C40.0529 32.1681 38.4304 28.2669 38.4304 23.7095C38.4304 19.1529 40.0529 15.2521 43.2979 12.0071C46.5429 8.76215 50.4437 7.13965 55.0003 7.13965C59.5569 7.13965 63.4577 8.76215 66.7027 12.0071C69.9477 15.2521 71.5702 19.1529 71.5702 23.7095C71.5702 28.2669 69.9477 32.1681 66.7027 35.4131C63.4577 38.6581 59.5569 40.2806 55.0003 40.2806ZM55.0015 33.4056C57.6682 33.4056 59.9507 32.4561 61.849 30.557C63.7472 28.658 64.6964 26.3751 64.6964 23.7084C64.6964 21.0417 63.7469 18.7592 61.8478 16.8609C59.9488 14.9634 57.6659 14.0146 54.9992 14.0146C52.3324 14.0146 50.0499 14.9642 48.1517 16.8632C46.2534 18.7622 45.3043 21.0451 45.3043 23.7118C45.3043 26.3786 46.2538 28.6607 48.1528 30.5582C50.0519 32.4565 52.3347 33.4056 55.0015 33.4056Z" fill="#EF6C00"/>
</g>
</svg>
