<svg width="110" height="110" viewBox="0 0 110 110" fill="none" xmlns="http://www.w3.org/2000/svg">
<mask id="mask0_624_2085" style="mask-type:alpha" maskUnits="userSpaceOnUse" x="0" y="0" width="110" height="110">
<rect width="110" height="110" fill="#D9D9D9"/>
</mask>
<g mask="url(#mask0_624_2085)">
<path d="M25.208 79.0625C18.4995 79.0625 12.812 76.7296 8.1454 72.0638C3.47881 67.3979 1.14551 61.7111 1.14551 55.0034C1.14551 48.2965 3.47881 42.609 8.1454 37.9408C12.812 33.2719 18.4995 30.9375 25.208 30.9375C27.8793 30.9375 30.4422 31.4119 32.8966 32.3606C35.3509 33.3101 37.5654 34.6573 39.5401 36.402L48.3011 44.1238L43.1013 48.7243L34.9384 41.5147C33.5993 40.3627 32.0922 39.4575 30.417 38.7991C28.7425 38.1414 27.0051 37.8125 25.2046 37.8125C20.4585 37.8125 16.408 39.4911 13.053 42.8484C9.69801 46.205 8.02051 50.2578 8.02051 55.0069C8.02051 59.756 9.69801 63.8069 13.053 67.1596C16.408 70.5115 20.4585 72.1875 25.2046 72.1875C27.0051 72.1875 28.7425 71.8587 30.417 71.2009C32.0922 70.5425 33.5993 69.6373 34.9384 68.4853L70.4593 36.402C72.4049 34.6275 74.6095 33.2731 77.073 32.3389C79.5373 31.4046 82.1101 30.9375 84.7913 30.9375C91.4998 30.9375 97.1874 33.2704 101.854 37.9363C106.521 42.6021 108.854 48.2889 108.854 54.9966C108.854 61.7035 106.521 67.391 101.854 72.0592C97.1874 76.7281 91.4998 79.0625 84.7913 79.0625C82.1116 79.0625 79.5541 78.5805 77.1188 77.6165C74.6828 76.6532 72.4629 75.3137 70.4593 73.598L61.7864 65.8763L66.898 61.231L75.0609 68.4853C76.4 69.6724 77.9072 70.5864 79.5824 71.2273C81.2568 71.8674 82.9943 72.1875 84.7948 72.1875C89.5408 72.1875 93.5913 70.5089 96.9463 67.1516C100.301 63.795 101.979 59.7422 101.979 54.9931C101.979 50.244 100.301 46.1931 96.9463 42.8404C93.5913 39.4885 89.5408 37.8125 84.7948 37.8125C82.9943 37.8125 81.2568 38.1414 79.5824 38.7991C77.9072 39.4575 76.4 40.3627 75.0609 41.5147L39.5401 73.598C37.5945 75.3725 35.3899 76.7269 32.9263 77.6611C30.462 78.5954 27.8893 79.0625 25.208 79.0625Z" fill="#EF6C00"/>
</g>
</svg>
