<svg width="54" height="56" viewBox="0 0 54 56" fill="none" xmlns="http://www.w3.org/2000/svg">
<g id="guardian">
<path id="guardian_2" d="M26.5833 55.4645C19.0917 55.4645 12.7882 54.0043 7.67292 51.0841C2.55764 48.1638 0 44.5817 0 40.3378C0 39.1193 0.241667 37.9322 0.725 36.7767C1.20833 35.6212 1.91319 34.4972 2.83958 33.4047C3.76597 32.3123 4.90382 31.3353 6.25313 30.474C7.60243 29.6126 9.12292 28.8247 10.8146 28.1104C11.4188 27.8583 12.0128 27.8898 12.5969 28.205C13.1809 28.5201 13.5736 29.0138 13.775 29.6861C13.9764 30.3164 13.926 30.9362 13.624 31.5454C13.3219 32.1547 12.8688 32.6064 12.2646 32.9005C11.1368 33.3627 10.1198 33.8775 9.21354 34.4447C8.30729 35.012 7.53195 35.6317 6.8875 36.304C6.20278 36.9763 5.68924 37.6591 5.34688 38.3524C5.00451 39.0457 4.83333 39.7075 4.83333 40.3378C4.83333 43.027 7.00833 45.38 11.3583 47.3969C15.7083 49.4138 20.7833 50.4223 26.5833 50.4223C32.3833 50.4223 37.4583 49.4138 41.8083 47.3969C46.1583 45.38 48.3333 43.027 48.3333 40.3378C48.3333 39.7075 48.1622 39.0457 47.8198 38.3524C47.4774 37.6591 46.9639 36.9763 46.2792 36.304C45.6347 35.6317 44.8594 35.012 43.9531 34.4447C43.0469 33.8775 42.0299 33.3627 40.9021 32.9005C40.2979 32.6064 39.8448 32.1547 39.5427 31.5454C39.2406 30.9362 39.1903 30.3164 39.3917 29.6861C39.5931 29.0138 39.9858 28.5201 40.5698 28.205C41.1538 27.8898 41.7479 27.8583 42.3521 28.1104C43.8424 28.7407 45.2017 29.4445 46.4302 30.2218C47.6587 30.9992 48.7361 31.8501 49.6625 32.7745C50.8306 33.909 51.7066 35.117 52.2906 36.3986C52.8747 37.6801 53.1667 38.9932 53.1667 40.3378C53.1667 44.5817 50.609 48.1638 45.4938 51.0841C40.3785 54.0043 34.075 55.4645 26.5833 55.4645ZM21.75 45.38C21.0653 45.38 20.4913 45.1384 20.0281 44.6552C19.5649 44.172 19.3333 43.5732 19.3333 42.8589V17.6478H9.66667C8.98195 17.6478 8.40799 17.4062 7.94479 16.923C7.4816 16.4398 7.25 15.841 7.25 15.1267C7.25 14.4124 7.4816 13.8136 7.94479 13.3304C8.40799 12.8472 8.98195 12.6056 9.66667 12.6056H43.5C44.1847 12.6056 44.7587 12.8472 45.2219 13.3304C45.6851 13.8136 45.9167 14.4124 45.9167 15.1267C45.9167 15.841 45.6851 16.4398 45.2219 16.923C44.7587 17.4062 44.1847 17.6478 43.5 17.6478H33.8333V42.8589C33.8333 43.5732 33.6017 44.172 33.1385 44.6552C32.6754 45.1384 32.1014 45.38 31.4167 45.38C30.7319 45.38 30.158 45.1384 29.6948 44.6552C29.2316 44.172 29 43.5732 29 42.8589V32.7745H24.1667V42.8589C24.1667 43.5732 23.9351 44.172 23.4719 44.6552C23.0087 45.1384 22.4347 45.38 21.75 45.38ZM26.5833 10.0845C25.2542 10.0845 24.1163 9.59073 23.1698 8.6033C22.2233 7.61586 21.75 6.42884 21.75 5.04223C21.75 3.65561 22.2233 2.46859 23.1698 1.48115C24.1163 0.493718 25.2542 0 26.5833 0C27.9125 0 29.0504 0.493718 29.9969 1.48115C30.9434 2.46859 31.4167 3.65561 31.4167 5.04223C31.4167 6.42884 30.9434 7.61586 29.9969 8.6033C29.0504 9.59073 27.9125 10.0845 26.5833 10.0845Z" fill="#00B8F1"/>
</g>
</svg>
