<svg width="56" height="56" viewBox="0 0 56 56" fill="none" xmlns="http://www.w3.org/2000/svg">
<g id="thumb_up_24dp_FILL0_wght400_GRAD0_opsz24 5" clip-path="url(#clip0_706_2562)">
<path id="Vector" d="M42.3332 56.3334H12.9998V19.9334L31.6665 0.333374L34.9998 3.83337C35.311 4.16004 35.5665 4.60337 35.7665 5.16337C35.9665 5.72337 36.0665 6.26004 36.0665 6.77337V7.75337L33.1332 19.9334H50.3332C51.7554 19.9334 52.9998 20.4934 54.0665 21.6134C55.1332 22.7334 55.6665 24.04 55.6665 25.5334V31.1334C55.6665 31.46 55.6221 31.81 55.5332 32.1834C55.4443 32.5567 55.3554 32.9067 55.2665 33.2334L47.2665 52.9734C46.8665 53.9067 46.1998 54.7 45.2665 55.3534C44.3332 56.0067 43.3554 56.3334 42.3332 56.3334ZM18.3332 50.7334H42.3332L50.3332 31.1334V25.5334H26.3332L29.9332 10.1334L18.3332 22.3134V50.7334ZM12.9998 19.9334V25.5334H4.99984V50.7334H12.9998V56.3334H-0.333496V19.9334H12.9998Z" fill="#44AA68"/>
</g>
<defs>
<clipPath id="clip0_706_2562">
<rect width="56" height="56" fill="white"/>
</clipPath>
</defs>
</svg>
