<svg width="56" height="56" viewBox="0 0 56 56" fill="none" xmlns="http://www.w3.org/2000/svg">
<g id="rocket_24dp_FILL0_wght400_GRAD0_opsz24 10" clip-path="url(#clip0_706_2544)">
<path id="Vector" d="M7.3335 47.3586L14.246 45.1214C13.6627 43.7697 13.1231 42.3948 12.6272 40.9965C12.1314 39.5983 11.7377 38.2 11.446 36.8018L7.3335 39.039V47.3586ZM21.3335 44.4223H35.3335C36.3835 42.5579 37.2293 40.2858 37.871 37.6058C38.5127 34.9258 38.8335 32.1876 38.8335 29.391C38.8335 24.7768 37.871 20.4073 35.946 16.2824C34.021 12.1576 31.4835 8.97657 28.3335 6.73936C25.1835 8.97657 22.646 12.1576 20.721 16.2824C18.796 20.4073 17.8335 24.7768 17.8335 29.391C17.8335 32.1876 18.1543 34.9258 18.796 37.6058C19.4377 40.2858 20.2835 42.5579 21.3335 44.4223ZM28.3335 30.4397C26.4085 30.4397 24.7606 29.8921 23.3897 28.7968C22.0189 27.7015 21.3335 26.3848 21.3335 24.8467C21.3335 23.3087 22.0189 21.992 23.3897 20.8967C24.7606 19.8014 26.4085 19.2537 28.3335 19.2537C30.2585 19.2537 31.9064 19.8014 33.2772 20.8967C34.6481 21.992 35.3335 23.3087 35.3335 24.8467C35.3335 26.3848 34.6481 27.7015 33.2772 28.7968C31.9064 29.8921 30.2585 30.4397 28.3335 30.4397ZM49.3335 47.3586V39.039L45.221 36.8018C44.9293 38.2 44.5356 39.5983 44.0397 40.9965C43.5439 42.3948 43.0043 43.7697 42.421 45.1214L49.3335 47.3586ZM28.3335 -0.391724C34.1085 2.96408 38.4689 7.22875 41.4147 12.4023C44.3606 17.5758 45.8335 23.5883 45.8335 30.4397L53.1835 34.3548C54.1752 34.8675 54.9481 35.5434 55.5022 36.3823C56.0564 37.2213 56.3335 38.1068 56.3335 39.039V55.6083L38.921 50.0153H17.746L0.333496 55.6083V39.039C0.333496 38.1068 0.610579 37.2213 1.16475 36.3823C1.71891 35.5434 2.49183 34.8675 3.4835 34.3548L10.8335 30.4397C10.8335 23.5883 12.3064 17.5758 15.2522 12.4023C18.1981 7.22875 22.5585 2.96408 28.3335 -0.391724Z" fill="#95B334"/>
</g>
<defs>
<clipPath id="clip0_706_2544">
<rect width="56" height="56" fill="white"/>
</clipPath>
</defs>
</svg>
