<svg width="111" height="110" viewBox="0 0 111 110" fill="none" xmlns="http://www.w3.org/2000/svg">
<g id="savings">
<mask id="mask0_952_393" style="mask-type:alpha" maskUnits="userSpaceOnUse" x="0" y="0" width="111" height="110">
<rect id="Bounding box" x="0.75" width="110" height="110" fill="#D9D9D9"/>
</mask>
<g mask="url(#mask0_952_393)">
<path id="savings_2" d="M74.0834 50.4167C75.382 50.4167 76.4705 49.9775 77.349 49.099C78.2274 48.2206 78.6667 47.132 78.6667 45.8334C78.6667 44.5348 78.2274 43.4463 77.349 42.5678C76.4705 41.6893 75.382 41.2501 74.0834 41.2501C72.7847 41.2501 71.6962 41.6893 70.8177 42.5678C69.9393 43.4463 69.5 44.5348 69.5 45.8334C69.5 47.132 69.9393 48.2206 70.8177 49.099C71.6962 49.9775 72.7847 50.4167 74.0834 50.4167ZM37.4167 41.2501H60.3334V32.0834H37.4167V41.2501ZM21.375 96.2501C18.7778 87.5417 16.2188 78.8525 13.6979 70.1824C11.1771 61.5122 9.91669 52.632 9.91669 43.5417C9.91669 36.514 12.3611 30.5556 17.25 25.6667C22.1389 20.7779 28.0972 18.3334 35.125 18.3334H58.0417C60.257 15.4306 62.9497 13.1772 66.1198 11.573C69.2899 9.96883 72.7084 9.16675 76.375 9.16675C78.2847 9.16675 79.908 9.83515 81.2448 11.172C82.5816 12.5088 83.25 14.132 83.25 16.0417C83.25 16.5001 83.1927 16.9584 83.0781 17.4167C82.9636 17.8751 82.8299 18.2952 82.6771 18.6772C82.3715 19.5174 82.0851 20.3768 81.8177 21.2553C81.5504 22.1338 81.3403 23.0313 81.1875 23.948L91.6146 34.3751H101.583V66.3438L88.6354 70.5834L80.9584 96.2501H55.75V87.0834H46.5834V96.2501H21.375ZM28.25 87.0834H37.4167V77.9167H64.9167V87.0834H74.0834L81.1875 63.4793L92.4167 59.698V43.5417H87.8334L71.7917 27.5001C71.7917 25.9723 71.8872 24.5018 72.0781 23.0886C72.2691 21.6754 72.5556 20.2431 72.9375 18.7917C70.7222 19.4029 68.7743 20.4532 67.0938 21.9428C65.4132 23.4324 64.191 25.2848 63.4271 27.5001H35.125C30.6945 27.5001 26.9132 29.0661 23.7813 32.198C20.6493 35.3299 19.0834 39.1112 19.0834 43.5417C19.0834 51.0279 20.1146 58.3421 22.1771 65.4845C24.2396 72.6268 26.2639 79.8265 28.25 87.0834Z" fill="#E56C25"/>
</g>
</g>
</svg>
