<svg width="56" height="56" viewBox="0 0 56 56" fill="none" xmlns="http://www.w3.org/2000/svg">
<g id="target_24dp_FILL0_wght400_GRAD0_opsz24 3" clip-path="url(#clip0_439_5195)">
<path id="psychology_alt" d="M10.9863 58.829C10.2081 58.829 9.55575 58.5806 9.02933 58.0839C8.5029 57.5872 8.23969 56.9718 8.23969 56.2375V47.6857C5.63046 45.4398 3.60487 42.816 2.16292 39.8142C0.720973 36.8125 0 33.6487 0 30.323C0 23.8444 2.40324 18.3376 7.20973 13.8026C12.0162 9.26752 17.8527 7 24.7191 7C30.4411 7 35.5108 8.58726 39.9282 11.7618C44.3456 14.9363 47.218 19.0718 48.5455 24.1683L52.1161 37.4495C52.3449 38.2701 52.1847 39.0152 51.6354 39.6846C51.0861 40.3541 50.3537 40.6888 49.4381 40.6888H43.945V48.4632C43.945 49.8885 43.4072 51.1086 42.3314 52.1236C41.2557 53.1386 39.9625 53.6461 38.4519 53.6461H32.9588V56.2375C32.9588 56.9718 32.6956 57.5872 32.1691 58.0839C31.6427 58.5806 30.9904 58.829 30.2122 58.829H10.9863ZM24.7191 43.2803C25.4973 43.2803 26.1496 43.0319 26.676 42.5352C27.2024 42.0385 27.4656 41.4231 27.4656 40.6888C27.4656 39.9546 27.2024 39.3391 26.676 38.8424C26.1496 38.3457 25.4973 38.0974 24.7191 38.0974C23.9409 38.0974 23.2886 38.3457 22.7621 38.8424C22.2357 39.3391 21.9725 39.9546 21.9725 40.6888C21.9725 41.4231 22.2357 42.0385 22.7621 42.5352C23.2886 43.0319 23.9409 43.2803 24.7191 43.2803ZM24.7877 34.9876C25.2913 34.9876 25.7605 34.8257 26.1954 34.5017C26.6302 34.1778 26.9163 33.7351 27.0537 33.1736C27.191 32.6553 27.4084 32.1478 27.706 31.6512C28.0035 31.1545 28.4727 30.5822 29.1136 29.9343C30.5784 28.4226 31.5397 27.2781 31.9975 26.5006C32.4552 25.7232 32.6841 24.8378 32.6841 23.8444C32.6841 22.0304 31.9403 20.4971 30.4525 19.2446C28.9648 17.9921 27.1223 17.3658 24.9251 17.3658C23.4602 17.3658 22.0755 17.7005 20.7709 18.37C19.4663 19.0394 18.4249 19.9572 17.6467 21.1234C17.372 21.5553 17.3606 22.0088 17.6123 22.4839C17.8641 22.959 18.2418 23.3045 18.7453 23.5205C19.2488 23.7364 19.7409 23.7688 20.2216 23.6177C20.7022 23.4665 21.1257 23.1534 21.4919 22.6783C21.9496 22.16 22.476 21.7605 23.0711 21.4797C23.6662 21.199 24.2842 21.0586 24.9251 21.0586C25.9321 21.0586 26.7676 21.3178 27.4313 21.836C28.0951 22.3543 28.4269 23.0238 28.4269 23.8444C28.4269 24.5355 28.2324 25.1941 27.8433 25.8204C27.4542 26.4467 26.6874 27.3213 25.543 28.4442C24.6733 29.3081 24.0439 30.0747 23.6548 30.7441C23.2657 31.4136 23.0025 32.1802 22.8651 33.0441C22.7736 33.5623 22.9224 34.0158 23.3115 34.4046C23.7006 34.7933 24.1927 34.9876 24.7877 34.9876Z" fill="#95B334"/>
</g>
<defs>
<clipPath id="clip0_439_5195">
<rect width="56" height="56" fill="white"/>
</clipPath>
</defs>
</svg>
