<svg width="63" height="58" viewBox="0 0 63 58" fill="none" xmlns="http://www.w3.org/2000/svg">
<g id="target_24dp_FILL0_wght400_GRAD0_opsz24 4" clip-path="url(#clip0_706_2556)">
<path id="Vector" d="M33.25 54.8334C29.3767 54.8334 25.7367 54.0984 22.33 52.6284C18.9233 51.1584 15.96 49.1634 13.44 46.6434C10.92 44.1234 8.925 41.16 7.455 37.7534C5.985 34.3467 5.25 30.7067 5.25 26.8334C5.25 22.96 5.985 19.32 7.455 15.9134C8.925 12.5067 10.92 9.54337 13.44 7.02337C15.96 4.50337 18.9233 2.50837 22.33 1.03837C25.7367 -0.431626 29.3767 -1.16663 33.25 -1.16663C37.1233 -1.16663 40.7633 -0.431626 44.17 1.03837C47.5767 2.50837 50.54 4.50337 53.06 7.02337C55.58 9.54337 57.575 12.5067 59.045 15.9134C60.515 19.32 61.25 22.96 61.25 26.8334C61.25 30.7067 60.515 34.3467 59.045 37.7534C57.575 41.16 55.58 44.1234 53.06 46.6434C50.54 49.1634 47.5767 51.1584 44.17 52.6284C40.7633 54.0984 37.1233 54.8334 33.25 54.8334ZM33.25 49.2334C39.5033 49.2334 44.8 47.0634 49.14 42.7234C53.48 38.3834 55.65 33.0867 55.65 26.8334C55.65 20.58 53.48 15.2834 49.14 10.9434C44.8 6.60337 39.5033 4.43337 33.25 4.43337C26.9967 4.43337 21.7 6.60337 17.36 10.9434C13.02 15.2834 10.85 20.58 10.85 26.8334C10.85 33.0867 13.02 38.3834 17.36 42.7234C21.7 47.0634 26.9967 49.2334 33.25 49.2334ZM33.25 43.6334C28.5833 43.6334 24.6167 42 21.35 38.7334C18.0833 35.4667 16.45 31.5 16.45 26.8334C16.45 22.1667 18.0833 18.2 21.35 14.9334C24.6167 11.6667 28.5833 10.0334 33.25 10.0334C37.9167 10.0334 41.8833 11.6667 45.15 14.9334C48.4167 18.2 50.05 22.1667 50.05 26.8334C50.05 31.5 48.4167 35.4667 45.15 38.7334C41.8833 42 37.9167 43.6334 33.25 43.6334ZM33.25 38.0334C36.33 38.0334 38.9667 36.9367 41.16 34.7434C43.3533 32.55 44.45 29.9134 44.45 26.8334C44.45 23.7534 43.3533 21.1167 41.16 18.9234C38.9667 16.73 36.33 15.6334 33.25 15.6334C30.17 15.6334 27.5333 16.73 25.34 18.9234C23.1467 21.1167 22.05 23.7534 22.05 26.8334C22.05 29.9134 23.1467 32.55 25.34 34.7434C27.5333 36.9367 30.17 38.0334 33.25 38.0334ZM33.25 32.4334C31.71 32.4334 30.3917 31.885 29.295 30.7884C28.1983 29.6917 27.65 28.3734 27.65 26.8334C27.65 25.2934 28.1983 23.975 29.295 22.8784C30.3917 21.7817 31.71 21.2334 33.25 21.2334C34.79 21.2334 36.1083 21.7817 37.205 22.8784C38.3017 23.975 38.85 25.2934 38.85 26.8334C38.85 28.3734 38.3017 29.6917 37.205 30.7884C36.1083 31.885 34.79 32.4334 33.25 32.4334Z" fill="#FF9D30"/>
</g>
<defs>
<clipPath id="clip0_706_2556">
<rect width="63" height="58" fill="white"/>
</clipPath>
</defs>
</svg>
