<svg width="63" height="58" viewBox="0 0 63 58" fill="none" xmlns="http://www.w3.org/2000/svg">
<g id="mystery_24dp_FILL0_wght400_GRAD0_opsz24 5">
<path id="Vector" d="M29.45 46.6334C34.8633 46.6334 39.4833 44.7317 43.31 40.9284C47.1367 37.125 49.05 32.4934 49.05 27.0334C49.05 21.62 47.1367 17 43.31 13.1734C39.4833 9.34671 34.8633 7.43337 29.45 7.43337C23.99 7.43337 19.3583 9.34671 15.555 13.1734C11.7517 17 9.85 21.62 9.85 27.0334C9.85 32.4934 11.7517 37.125 15.555 40.9284C19.3583 44.7317 23.99 46.6334 29.45 46.6334ZM29.45 38.2334C25.5767 38.2334 22.135 37.195 19.125 35.1184C16.115 33.0417 13.9567 30.3467 12.65 27.0334C13.9567 23.7667 16.115 21.0834 19.125 18.9834C22.135 16.8834 25.5767 15.8334 29.45 15.8334C33.2767 15.8334 36.695 16.8834 39.705 18.9834C42.715 21.0834 44.8967 23.7667 46.25 27.0334C44.8967 30.3467 42.715 33.0417 39.705 35.1184C36.695 37.195 33.2767 38.2334 29.45 38.2334ZM29.45 34.0334C32.0167 34.0334 34.3733 33.415 36.52 32.1784C38.6667 30.9417 40.3467 29.2267 41.56 27.0334C40.3467 24.8867 38.6667 23.1834 36.52 21.9234C34.3733 20.6634 32.0167 20.0334 29.45 20.0334C26.8367 20.0334 24.4567 20.6634 22.31 21.9234C20.1633 23.1834 18.4833 24.8867 17.27 27.0334C18.4833 29.2267 20.1633 30.9417 22.31 32.1784C24.4567 33.415 26.8367 34.0334 29.45 34.0334ZM29.45 31.2334C30.6167 31.2334 31.6083 30.8367 32.425 30.0434C33.2417 29.25 33.65 28.2467 33.65 27.0334C33.65 25.8667 33.2417 24.875 32.425 24.0584C31.6083 23.2417 30.6167 22.8334 29.45 22.8334C28.2367 22.8334 27.2333 23.2417 26.44 24.0584C25.6467 24.875 25.25 25.8667 25.25 27.0334C25.25 28.2467 25.6467 29.25 26.44 30.0434C27.2333 30.8367 28.2367 31.2334 29.45 31.2334ZM29.45 52.2334C25.95 52.2334 22.6717 51.5684 19.615 50.2384C16.5583 48.9084 13.8983 47.1117 11.635 44.8484C9.37167 42.585 7.575 39.925 6.245 36.8684C4.915 33.8117 4.25 30.5334 4.25 27.0334C4.25 23.58 4.915 20.325 6.245 17.2684C7.575 14.2117 9.37167 11.54 11.635 9.25337C13.8983 6.96671 16.5583 5.15837 19.615 3.82837C22.6717 2.49837 25.95 1.83337 29.45 1.83337C32.9033 1.83337 36.1583 2.49837 39.215 3.82837C42.2717 5.15837 44.9433 6.96671 47.23 9.25337C49.5167 11.54 51.325 14.2117 52.655 17.2684C53.985 20.325 54.65 23.58 54.65 27.0334C54.65 30.02 54.16 32.8434 53.18 35.5034C52.2 38.1634 50.8467 40.59 49.12 42.7834L60.25 53.9134L56.26 57.8334L45.13 46.7734C42.9367 48.5 40.51 49.8417 37.85 50.7984C35.19 51.755 32.39 52.2334 29.45 52.2334Z" fill="#00B8F1"/>
</g>
</svg>
