<svg width="64" height="64" viewBox="0 0 64 64" fill="none" xmlns="http://www.w3.org/2000/svg">
<mask id="mask0_618_1677" style="mask-type:alpha" maskUnits="userSpaceOnUse" x="0" y="0" width="64" height="64">
<rect width="64" height="64" fill="#D9D9D9"/>
</mask>
<g mask="url(#mask0_618_1677)">
<path d="M15.2284 46.0688C17.8337 44.2376 20.5048 42.8239 23.2417 41.8274C25.9786 40.8314 28.9019 40.3334 32.0117 40.3334C35.1219 40.3334 38.0621 40.8443 40.8324 41.8661C43.603 42.8874 46.2633 44.2925 48.813 46.0814C50.5766 43.849 51.8559 41.5936 52.651 39.3154C53.4461 37.0376 53.8437 34.5992 53.8437 32.0001C53.8437 25.8632 51.7375 20.6881 47.525 16.4748C43.3126 12.2614 38.1386 10.1548 32.003 10.1548C25.867 10.1548 20.6915 12.2614 16.4764 16.4748C12.2608 20.6881 10.153 25.8632 10.153 32.0001C10.153 34.5894 10.5519 37.021 11.3497 39.2948C12.1475 41.5685 13.4404 43.8265 15.2284 46.0688ZM31.9904 34.5114C29.3166 34.5114 27.0744 33.6045 25.2637 31.7908C23.4526 29.9774 22.547 27.7394 22.547 25.0768C22.547 22.4145 23.4553 20.173 25.2717 18.3521C27.0881 16.5316 29.333 15.6214 32.0064 15.6214C34.6801 15.6214 36.9224 16.5345 38.733 18.3608C40.5441 20.1865 41.4497 22.4308 41.4497 25.0934C41.4497 27.7556 40.5415 29.991 38.725 31.7994C36.9086 33.6074 34.6637 34.5114 31.9904 34.5114ZM32.0037 59.7221C28.1984 59.7221 24.6117 58.9965 21.2437 57.5454C17.8757 56.0943 14.9315 54.1088 12.411 51.5888C9.89059 49.0688 7.90459 46.1274 6.45303 42.7648C5.00192 39.4016 4.27637 35.8085 4.27637 31.9854C4.27637 28.1805 5.0037 24.5963 6.45837 21.2328C7.91259 17.8692 9.89748 14.9299 12.413 12.4148C14.9281 9.8992 17.8675 7.91009 21.231 6.44742C24.595 4.98475 28.189 4.25342 32.013 4.25342C35.8179 4.25342 39.4021 4.98475 42.7657 6.44742C46.1293 7.91009 49.0686 9.8992 51.5837 12.4148C54.0993 14.9299 56.0884 17.8708 57.551 21.2374C59.0137 24.6041 59.745 28.1899 59.745 31.9948C59.745 35.8001 59.0137 39.3876 57.551 42.7574C56.0884 46.1276 54.0993 49.0703 51.5837 51.5854C49.0686 54.101 46.1277 56.0859 42.761 57.5401C39.3944 58.9948 35.8086 59.7221 32.0037 59.7221ZM31.9984 53.8454C34.321 53.8454 36.5413 53.5208 38.659 52.8714C40.7773 52.2221 42.8808 51.1319 44.9697 49.6008C42.847 48.1465 40.7381 47.0565 38.643 46.3308C36.5484 45.6054 34.3335 45.2428 31.9984 45.2428C29.6633 45.2428 27.4546 45.6054 25.3724 46.3308C23.2897 47.0565 21.1873 48.1465 19.065 49.6008C21.1539 51.1319 23.251 52.2221 25.3564 52.8714C27.4617 53.5208 29.6757 53.8454 31.9984 53.8454ZM31.9984 29.5768C33.305 29.5768 34.3824 29.1574 35.2304 28.3188C36.0788 27.4801 36.503 26.4023 36.503 25.0854C36.503 23.7681 36.0788 22.6839 35.2304 21.8328C34.3824 20.9812 33.305 20.5554 31.9984 20.5554C30.6917 20.5554 29.6144 20.9812 28.7664 21.8328C27.9179 22.6839 27.4937 23.7681 27.4937 25.0854C27.4937 26.4023 27.9179 27.4801 28.7664 28.3188C29.6144 29.1574 30.6917 29.5768 31.9984 29.5768Z" fill="#21643F"/>
</g>
</svg>
