<svg width="64" height="64" viewBox="0 0 64 64" fill="none" xmlns="http://www.w3.org/2000/svg">
<circle cx="31.6271" cy="31.6271" r="29.6271" fill="#CB1BA1" stroke="#801266" stroke-width="4"/>
<mask id="mask0_708_1954" style="mask-type:alpha" maskUnits="userSpaceOnUse" x="8" y="8" width="48" height="48">
<rect x="8" y="8" width="48" height="48" fill="#D9D9D9"/>
</mask>
<g mask="url(#mask0_708_1954)">
<path d="M32 52C29.2667 52 26.6833 51.475 24.25 50.425C21.8167 49.375 19.6917 47.9417 17.875 46.125C16.0583 44.3083 14.625 42.1833 13.575 39.75C12.525 37.3167 12 34.7333 12 32C12 29.2333 12.5417 26.6333 13.625 24.2C14.7083 21.7667 16.175 19.65 18.025 17.85C19.875 16.05 22.0333 14.625 24.5 13.575C26.9667 12.525 29.6 12 32.4 12C35.0667 12 37.5833 12.4583 39.95 13.375C42.3167 14.2917 44.3917 15.5583 46.175 17.175C47.9583 18.7917 49.375 20.7083 50.425 22.925C51.475 25.1417 52 27.5333 52 30.1C52 33.9333 50.8333 36.875 48.5 38.925C46.1667 40.975 43.3333 42 40 42H36.3C36 42 35.7917 42.0833 35.675 42.25C35.5583 42.4167 35.5 42.6 35.5 42.8C35.5 43.2 35.75 43.775 36.25 44.525C36.75 45.275 37 46.1333 37 47.1C37 48.7667 36.5417 50 35.625 50.8C34.7083 51.6 33.5 52 32 52ZM21 34C21.8667 34 22.5833 33.7167 23.15 33.15C23.7167 32.5833 24 31.8667 24 31C24 30.1333 23.7167 29.4167 23.15 28.85C22.5833 28.2833 21.8667 28 21 28C20.1333 28 19.4167 28.2833 18.85 28.85C18.2833 29.4167 18 30.1333 18 31C18 31.8667 18.2833 32.5833 18.85 33.15C19.4167 33.7167 20.1333 34 21 34ZM27 26C27.8667 26 28.5833 25.7167 29.15 25.15C29.7167 24.5833 30 23.8667 30 23C30 22.1333 29.7167 21.4167 29.15 20.85C28.5833 20.2833 27.8667 20 27 20C26.1333 20 25.4167 20.2833 24.85 20.85C24.2833 21.4167 24 22.1333 24 23C24 23.8667 24.2833 24.5833 24.85 25.15C25.4167 25.7167 26.1333 26 27 26ZM37 26C37.8667 26 38.5833 25.7167 39.15 25.15C39.7167 24.5833 40 23.8667 40 23C40 22.1333 39.7167 21.4167 39.15 20.85C38.5833 20.2833 37.8667 20 37 20C36.1333 20 35.4167 20.2833 34.85 20.85C34.2833 21.4167 34 22.1333 34 23C34 23.8667 34.2833 24.5833 34.85 25.15C35.4167 25.7167 36.1333 26 37 26ZM43 34C43.8667 34 44.5833 33.7167 45.15 33.15C45.7167 32.5833 46 31.8667 46 31C46 30.1333 45.7167 29.4167 45.15 28.85C44.5833 28.2833 43.8667 28 43 28C42.1333 28 41.4167 28.2833 40.85 28.85C40.2833 29.4167 40 30.1333 40 31C40 31.8667 40.2833 32.5833 40.85 33.15C41.4167 33.7167 42.1333 34 43 34Z" fill="#801266"/>
</g>
</svg>
