<svg width="64" height="64" viewBox="0 0 64 64" fill="none" xmlns="http://www.w3.org/2000/svg">
<circle cx="31.6271" cy="31.6271" r="29.6271" fill="#1AAF19" stroke="#127A12" stroke-width="4"/>
<mask id="mask0_708_1929" style="mask-type:alpha" maskUnits="userSpaceOnUse" x="8" y="8" width="48" height="48">
<rect x="8" y="8" width="48" height="48" fill="#D9D9D9"/>
</mask>
<g mask="url(#mask0_708_1929)">
<path d="M32 50C31.4333 50 30.9583 49.8083 30.575 49.425C30.1917 49.0417 30 48.5667 30 48V34.05C27.8667 34.05 25.8167 33.6417 23.85 32.825C21.8833 32.0083 20.15 30.85 18.65 29.35C17.15 27.85 16 26.1167 15.2 24.15C14.4 22.1833 14 20.1333 14 18V16C14 15.4333 14.1917 14.9583 14.575 14.575C14.9583 14.1917 15.4333 14 16 14H18C20.1 14 22.1333 14.4083 24.1 15.225C26.0667 16.0417 27.8 17.2 29.3 18.7C30.3333 19.7333 31.1917 20.8667 31.875 22.1C32.5583 23.3333 33.0833 24.65 33.45 26.05C33.6167 25.8167 33.8 25.5917 34 25.375C34.2 25.1583 34.4167 24.9333 34.65 24.7C36.15 23.2 37.8833 22.0417 39.85 21.225C41.8167 20.4083 43.8667 20 46 20H48C48.5667 20 49.0417 20.1917 49.425 20.575C49.8083 20.9583 50 21.4333 50 22V24C50 26.1333 49.5917 28.1833 48.775 30.15C47.9583 32.1167 46.8 33.85 45.3 35.35C43.8 36.85 42.075 38 40.125 38.8C38.175 39.6 36.1333 40 34 40V48C34 48.5667 33.8083 49.0417 33.425 49.425C33.0417 49.8083 32.5667 50 32 50Z" fill="#127A12"/>
</g>
</svg>
