<svg width="64" height="64" viewBox="0 0 64 64" fill="none" xmlns="http://www.w3.org/2000/svg">
<circle cx="31.6271" cy="31.6271" r="29.6271" fill="#00B8F1" stroke="#0374B5" stroke-width="4"/>
<mask id="mask0_708_1934" style="mask-type:alpha" maskUnits="userSpaceOnUse" x="8" y="8" width="48" height="48">
<rect x="8" y="8" width="48" height="48" fill="#D9D9D9"/>
</mask>
<g mask="url(#mask0_708_1934)">
<path d="M28.7 47.6L29.3 44.8C29.4 44.3667 29.6083 44.0083 29.925 43.725C30.2417 43.4417 30.6333 43.2667 31.1 43.2L37.3 42.7C37.7333 42.6333 38.1333 42.7167 38.5 42.95C38.8667 43.1833 39.1333 43.5 39.3 43.9L40.1 45.8C41.4 45.0333 42.5667 44.1083 43.6 43.025C44.6333 41.9417 45.5 40.7333 46.2 39.4L45.6 39.1C45.2333 38.8333 44.9667 38.5083 44.8 38.125C44.6333 37.7417 44.6 37.3333 44.7 36.9L46.1 30.8C46.2 30.4 46.4083 30.0667 46.725 29.8C47.0417 29.5333 47.4 29.3667 47.8 29.3C47.6333 28.4667 47.425 27.6583 47.175 26.875C46.925 26.0917 46.6 25.3333 46.2 24.6C45.9 24.7667 45.575 24.8417 45.225 24.825C44.875 24.8083 44.5667 24.7 44.3 24.5L39 21.3C38.6333 21.0667 38.3667 20.75 38.2 20.35C38.0333 19.95 38 19.5333 38.1 19.1L38.5 17.4C37.4667 16.9333 36.4083 16.5833 35.325 16.35C34.2417 16.1167 33.1333 16 32 16C31.5333 16 31.05 16.025 30.55 16.075C30.05 16.125 29.5667 16.2 29.1 16.3L30.6 19.7C30.7667 20.1 30.8083 20.5167 30.725 20.95C30.6417 21.3833 30.4333 21.7333 30.1 22L25.4 26.1C25.0667 26.4 24.675 26.5667 24.225 26.6C23.775 26.6333 23.3667 26.5333 23 26.3L18.4 23.5C17.6333 24.7667 17.0417 26.125 16.625 27.575C16.2083 29.025 16 30.5 16 32C16 32.5333 16.0667 33.4 16.2 34.6L20.6 34.2C21.0667 34.1333 21.4917 34.2083 21.875 34.425C22.2583 34.6417 22.5333 34.9667 22.7 35.4L25.1 41.1C25.2667 41.5 25.3083 41.9167 25.225 42.35C25.1417 42.7833 24.9333 43.1333 24.6 43.4L22.7 45C23.6 45.6667 24.5583 46.2167 25.575 46.65C26.5917 47.0833 27.6333 47.4 28.7 47.6ZM32.3 39C31.8667 39.0667 31.4667 38.9833 31.1 38.75C30.7333 38.5167 30.4667 38.2 30.3 37.8L27.6 31.6C27.4333 31.2 27.4083 30.7833 27.525 30.35C27.6417 29.9167 27.8667 29.5667 28.2 29.3L33.3 25C33.6 24.7 33.9667 24.5333 34.4 24.5C34.8333 24.4667 35.2333 24.5667 35.6 24.8L41.2 28.1C41.5667 28.3333 41.85 28.65 42.05 29.05C42.25 29.45 42.3 29.8667 42.2 30.3L40.6 36.8C40.5 37.2333 40.3 37.5917 40 37.875C39.7 38.1583 39.3333 38.3333 38.9 38.4L32.3 39ZM32 52C29.2333 52 26.6333 51.475 24.2 50.425C21.7667 49.375 19.65 47.95 17.85 46.15C16.05 44.35 14.625 42.2333 13.575 39.8C12.525 37.3667 12 34.7667 12 32C12 29.2333 12.525 26.6333 13.575 24.2C14.625 21.7667 16.05 19.65 17.85 17.85C19.65 16.05 21.7667 14.625 24.2 13.575C26.6333 12.525 29.2333 12 32 12C34.7667 12 37.3667 12.525 39.8 13.575C42.2333 14.625 44.35 16.05 46.15 17.85C47.95 19.65 49.375 21.7667 50.425 24.2C51.475 26.6333 52 29.2333 52 32C52 34.7667 51.475 37.3667 50.425 39.8C49.375 42.2333 47.95 44.35 46.15 46.15C44.35 47.95 42.2333 49.375 39.8 50.425C37.3667 51.475 34.7667 52 32 52Z" fill="#0374B5"/>
</g>
</svg>
