<svg width="63" height="63" viewBox="0 0 63 63" fill="none" xmlns="http://www.w3.org/2000/svg">
<circle cx="31.5" cy="31.5" r="29.5" fill="#E2EC0A" stroke="#BAC408" stroke-width="4"/>
<mask id="mask0_708_1919" style="mask-type:alpha" maskUnits="userSpaceOnUse" x="7" y="7" width="49" height="49">
<rect x="7.9834" y="7.9834" width="48" height="48" fill="#D9D9D9"/>
</mask>
<g mask="url(#mask0_708_1919)">
<path d="M43.2022 43.2022L38.922 34.8907L43.9488 29.8639L39.8179 25.733V19.9099H33.9948L29.8639 15.779L25.733 19.9099H19.9099V25.733L15.779 29.8639L19.9099 33.9948V39.8179H25.733L29.8639 43.9488L34.8409 38.9718L43.2022 43.2022ZM49.1746 49.1746C48.9092 49.4401 48.5691 49.6226 48.1544 49.7221C47.7396 49.8216 47.3166 49.7553 46.8852 49.523L35.6372 43.7995L31.2574 48.1792C30.8593 48.5774 30.3948 48.7765 29.8639 48.7765C29.333 48.7765 28.8685 48.5774 28.4703 48.1792L24.0906 43.7995H17.9191C17.355 43.7995 16.8822 43.6087 16.5006 43.2271C16.1191 42.8456 15.9283 42.3727 15.9283 41.8087V35.6372L11.5485 31.2574C11.1504 30.8593 10.9513 30.3948 10.9513 29.8639C10.9513 29.333 11.1504 28.8685 11.5485 28.4703L15.9283 24.0906V17.9191C15.9283 17.355 16.1191 16.8822 16.5006 16.5006C16.8822 16.1191 17.355 15.9283 17.9191 15.9283H24.0906L28.4703 11.5485C28.8685 11.1504 29.333 10.9513 29.8639 10.9513C30.3948 10.9513 30.8593 11.1504 31.2574 11.5485L35.6372 15.9283H41.8087C42.3727 15.9283 42.8456 16.1191 43.2271 16.5006C43.6087 16.8822 43.7995 17.355 43.7995 17.9191V24.0906L48.1792 28.4703C48.5774 28.8685 48.7765 29.333 48.7765 29.8639C48.7765 30.3948 48.5774 30.8593 48.1792 31.2574L43.7995 35.6372L49.523 46.8852C49.7553 47.3166 49.8216 47.7396 49.7221 48.1544C49.6226 48.5691 49.4401 48.9092 49.1746 49.1746Z" fill="#BAC408"/>
</g>
</svg>
