<svg width="64" height="64" viewBox="0 0 64 64" fill="none" xmlns="http://www.w3.org/2000/svg">
<circle cx="31.6271" cy="31.6271" r="29.6271" fill="#D4D4D8" stroke="#A1A1AA" stroke-width="4"/>
<mask id="mask0_735_1629" style="mask-type:alpha" maskUnits="userSpaceOnUse" x="7" y="7" width="49" height="49">
<rect x="7.9834" y="7.9834" width="48" height="48" fill="#D9D9D9"/>
</mask>
<g mask="url(#mask0_735_1629)">
<path d="M23.9834 39.9834V42.4834C23.9834 42.9167 24.1251 43.2751 24.4084 43.5584C24.6917 43.8417 25.0501 43.9834 25.4834 43.9834C25.9167 43.9834 26.2751 43.8417 26.5584 43.5584C26.8417 43.2751 26.9834 42.9167 26.9834 42.4834V39.9834H29.4834C29.9167 39.9834 30.2751 39.8417 30.5584 39.5584C30.8417 39.2751 30.9834 38.9167 30.9834 38.4834C30.9834 38.0501 30.8417 37.6917 30.5584 37.4084C30.2751 37.1251 29.9167 36.9834 29.4834 36.9834H26.9834V34.4834C26.9834 34.0501 26.8417 33.6917 26.5584 33.4084C26.2751 33.1251 25.9167 32.9834 25.4834 32.9834C25.0501 32.9834 24.6917 33.1251 24.4084 33.4084C24.1251 33.6917 23.9834 34.0501 23.9834 34.4834V36.9834H21.4834C21.0501 36.9834 20.6917 37.1251 20.4084 37.4084C20.1251 37.6917 19.9834 38.0501 19.9834 38.4834C19.9834 38.9167 20.1251 39.2751 20.4084 39.5584C20.6917 39.8417 21.0501 39.9834 21.4834 39.9834H23.9834ZM35.4834 42.4834H42.4834C42.9167 42.4834 43.2751 42.3417 43.5584 42.0584C43.8417 41.7751 43.9834 41.4167 43.9834 40.9834C43.9834 40.5501 43.8417 40.1917 43.5584 39.9084C43.2751 39.6251 42.9167 39.4834 42.4834 39.4834H35.4834C35.0501 39.4834 34.6917 39.6251 34.4084 39.9084C34.1251 40.1917 33.9834 40.5501 33.9834 40.9834C33.9834 41.4167 34.1251 41.7751 34.4084 42.0584C34.6917 42.3417 35.0501 42.4834 35.4834 42.4834ZM35.4834 37.4834H42.4834C42.9167 37.4834 43.2751 37.3417 43.5584 37.0584C43.8417 36.7751 43.9834 36.4167 43.9834 35.9834C43.9834 35.5501 43.8417 35.1917 43.5584 34.9084C43.2751 34.6251 42.9167 34.4834 42.4834 34.4834H35.4834C35.0501 34.4834 34.6917 34.6251 34.4084 34.9084C34.1251 35.1917 33.9834 35.5501 33.9834 35.9834C33.9834 36.4167 34.1251 36.7751 34.4084 37.0584C34.6917 37.3417 35.0501 37.4834 35.4834 37.4834ZM38.9834 27.0834L40.7334 28.8334C41.0334 29.1334 41.3834 29.2834 41.7834 29.2834C42.1834 29.2834 42.5334 29.1334 42.8334 28.8334C43.1001 28.5667 43.2417 28.2251 43.2584 27.8084C43.2751 27.3917 43.1501 27.0334 42.8834 26.7334L41.0834 24.8834L42.8334 23.1334C43.1334 22.8334 43.2834 22.4834 43.2834 22.0834C43.2834 21.6834 43.1334 21.3334 42.8334 21.0334C42.5334 20.7334 42.1834 20.5834 41.7834 20.5834C41.3834 20.5834 41.0334 20.7334 40.7334 21.0334L38.9834 22.7834L37.2334 21.0334C36.9334 20.7334 36.5834 20.5834 36.1834 20.5834C35.7834 20.5834 35.4334 20.7334 35.1334 21.0334C34.8334 21.3334 34.6834 21.6834 34.6834 22.0834C34.6834 22.4834 34.8334 22.8334 35.1334 23.1334L36.8834 24.8834L35.0834 26.7334C34.8167 27.0334 34.6834 27.3834 34.6834 27.7834C34.6834 28.1834 34.8334 28.5334 35.1334 28.8334C35.4334 29.1334 35.7834 29.2834 36.1834 29.2834C36.5834 29.2834 36.9334 29.1334 37.2334 28.8334L38.9834 27.0834ZM21.9834 26.3834H28.9834C29.4167 26.3834 29.7751 26.2417 30.0584 25.9584C30.3417 25.6751 30.4834 25.3167 30.4834 24.8834C30.4834 24.4501 30.3417 24.0917 30.0584 23.8084C29.7751 23.5251 29.4167 23.3834 28.9834 23.3834H21.9834C21.5501 23.3834 21.1917 23.5251 20.9084 23.8084C20.6251 24.0917 20.4834 24.4501 20.4834 24.8834C20.4834 25.3167 20.6251 25.6751 20.9084 25.9584C21.1917 26.2417 21.5501 26.3834 21.9834 26.3834ZM17.9834 49.9834C16.8834 49.9834 15.9417 49.5917 15.1584 48.8084C14.3751 48.0251 13.9834 47.0834 13.9834 45.9834V17.9834C13.9834 16.8834 14.3751 15.9417 15.1584 15.1584C15.9417 14.3751 16.8834 13.9834 17.9834 13.9834H45.9834C47.0834 13.9834 48.0251 14.3751 48.8084 15.1584C49.5917 15.9417 49.9834 16.8834 49.9834 17.9834V45.9834C49.9834 47.0834 49.5917 48.0251 48.8084 48.8084C48.0251 49.5917 47.0834 49.9834 45.9834 49.9834H17.9834Z" fill="#A1A1AA"/>
</g>
</svg>
