<svg width="64" height="64" viewBox="0 0 64 64" fill="none" xmlns="http://www.w3.org/2000/svg">
<circle cx="31.6271" cy="31.6271" r="29.6271" fill="#D4D4D8" stroke="#A1A1AA" stroke-width="4"/>
<mask id="mask0_735_1634" style="mask-type:alpha" maskUnits="userSpaceOnUse" x="8" y="8" width="48" height="48">
<rect x="8" y="8" width="48" height="48" fill="#D9D9D9"/>
</mask>
<g mask="url(#mask0_735_1634)">
<path d="M32 34C31.4333 34 30.9583 33.8083 30.575 33.425C30.1917 33.0417 30 32.5667 30 32C30 31.4333 30.1917 30.9583 30.575 30.575C30.9583 30.1917 31.4333 30 32 30C32.5667 30 33.0417 30.1917 33.425 30.575C33.8083 30.9583 34 31.4333 34 32C34 32.5667 33.8083 33.0417 33.425 33.425C33.0417 33.8083 32.5667 34 32 34ZM32 52C29.2333 52 26.6333 51.475 24.2 50.425C21.7667 49.375 19.65 47.95 17.85 46.15C16.05 44.35 14.625 42.2333 13.575 39.8C12.525 37.3667 12 34.7667 12 32C12 29.2333 12.525 26.6333 13.575 24.2C14.625 21.7667 16.05 19.65 17.85 17.85C19.65 16.05 21.7667 14.625 24.2 13.575C26.6333 12.525 29.2333 12 32 12C34.7667 12 37.3667 12.525 39.8 13.575C42.2333 14.625 44.35 16.05 46.15 17.85C47.95 19.65 49.375 21.7667 50.425 24.2C51.475 26.6333 52 29.2333 52 32C52 34.7667 51.475 37.3667 50.425 39.8C49.375 42.2333 47.95 44.35 46.15 46.15C44.35 47.95 42.2333 49.375 39.8 50.425C37.3667 51.475 34.7667 52 32 52ZM32 48C36.4667 48 40.25 46.45 43.35 43.35C46.45 40.25 48 36.4667 48 32C48 27.5333 46.45 23.75 43.35 20.65C40.25 17.55 36.4667 16 32 16C27.5333 16 23.75 17.55 20.65 20.65C17.55 23.75 16 27.5333 16 32C16 36.4667 17.55 40.25 20.65 43.35C23.75 46.45 27.5333 48 32 48ZM22.85 42.15L35.35 36.3C35.55 36.2 35.7333 36.0667 35.9 35.9C36.0667 35.7333 36.2 35.55 36.3 35.35L42.15 22.85C42.3167 22.5167 42.275 22.225 42.025 21.975C41.775 21.725 41.4833 21.6833 41.15 21.85L28.65 27.7C28.45 27.8 28.2667 27.9333 28.1 28.1C27.9333 28.2667 27.8 28.45 27.7 28.65L21.85 41.15C21.6833 41.4833 21.725 41.775 21.975 42.025C22.225 42.275 22.5167 42.3167 22.85 42.15Z" fill="#A1A1AA"/>
</g>
</svg>
