<svg width="64" height="64" viewBox="0 0 64 64" fill="none" xmlns="http://www.w3.org/2000/svg">
<circle cx="31.6271" cy="31.6271" r="29.6271" fill="#4E10F9" stroke="#3107A1" stroke-width="4"/>
<mask id="mask0_708_1944" style="mask-type:alpha" maskUnits="userSpaceOnUse" x="8" y="8" width="48" height="48">
<rect x="8" y="8" width="48" height="48" fill="#D9D9D9"/>
</mask>
<g mask="url(#mask0_708_1944)">
<path d="M16 38C14.3333 38 12.9167 37.4167 11.75 36.25C10.5833 35.0833 10 33.6667 10 32C10 30.3333 10.5833 28.9167 11.75 27.75C12.9167 26.5833 14.3333 26 16 26V22C16 20.9 16.3917 19.9583 17.175 19.175C17.9583 18.3917 18.9 18 20 18H26C26 16.3333 26.5833 14.9167 27.75 13.75C28.9167 12.5833 30.3333 12 32 12C33.6667 12 35.0833 12.5833 36.25 13.75C37.4167 14.9167 38 16.3333 38 18H44C45.1 18 46.0417 18.3917 46.825 19.175C47.6083 19.9583 48 20.9 48 22V26C49.6667 26 51.0833 26.5833 52.25 27.75C53.4167 28.9167 54 30.3333 54 32C54 33.6667 53.4167 35.0833 52.25 36.25C51.0833 37.4167 49.6667 38 48 38V46C48 47.1 47.6083 48.0417 46.825 48.825C46.0417 49.6083 45.1 50 44 50H20C18.9 50 17.9583 49.6083 17.175 48.825C16.3917 48.0417 16 47.1 16 46V38ZM26 34C26.8333 34 27.5417 33.7083 28.125 33.125C28.7083 32.5417 29 31.8333 29 31C29 30.1667 28.7083 29.4583 28.125 28.875C27.5417 28.2917 26.8333 28 26 28C25.1667 28 24.4583 28.2917 23.875 28.875C23.2917 29.4583 23 30.1667 23 31C23 31.8333 23.2917 32.5417 23.875 33.125C24.4583 33.7083 25.1667 34 26 34ZM38 34C38.8333 34 39.5417 33.7083 40.125 33.125C40.7083 32.5417 41 31.8333 41 31C41 30.1667 40.7083 29.4583 40.125 28.875C39.5417 28.2917 38.8333 28 38 28C37.1667 28 36.4583 28.2917 35.875 28.875C35.2917 29.4583 35 30.1667 35 31C35 31.8333 35.2917 32.5417 35.875 33.125C36.4583 33.7083 37.1667 34 38 34ZM26 42H38C38.5667 42 39.0417 41.8083 39.425 41.425C39.8083 41.0417 40 40.5667 40 40C40 39.4333 39.8083 38.9583 39.425 38.575C39.0417 38.1917 38.5667 38 38 38H26C25.4333 38 24.9583 38.1917 24.575 38.575C24.1917 38.9583 24 39.4333 24 40C24 40.5667 24.1917 41.0417 24.575 41.425C24.9583 41.8083 25.4333 42 26 42Z" fill="#3107A1"/>
</g>
</svg>
