<svg width="64" height="64" viewBox="0 0 64 64" fill="none" xmlns="http://www.w3.org/2000/svg">
<circle cx="31.6271" cy="31.6271" r="29.6271" fill="#7813BD" stroke="#510F7D" stroke-width="4"/>
<mask id="mask0_708_1939" style="mask-type:alpha" maskUnits="userSpaceOnUse" x="8" y="8" width="48" height="48">
<rect x="8" y="8" width="48" height="48" fill="#D9D9D9"/>
</mask>
<g mask="url(#mask0_708_1939)">
<path d="M32 36C32.5667 36 33.0417 35.8083 33.425 35.425C33.8083 35.0417 34 34.5667 34 34V24C34 23.4333 33.8083 22.9583 33.425 22.575C33.0417 22.1917 32.5667 22 32 22C31.4333 22 30.9583 22.1917 30.575 22.575C30.1917 22.9583 30 23.4333 30 24V34C30 34.5667 30.1917 35.0417 30.575 35.425C30.9583 35.8083 31.4333 36 32 36ZM38 33C38.5667 33 39.0417 32.8083 39.425 32.425C39.8083 32.0417 40 31.5667 40 31V26C40 25.4333 39.8083 24.9583 39.425 24.575C39.0417 24.1917 38.5667 24 38 24C37.4333 24 36.9583 24.1917 36.575 24.575C36.1917 24.9583 36 25.4333 36 26V31C36 31.5667 36.1917 32.0417 36.575 32.425C36.9583 32.8083 37.4333 33 38 33ZM26 32C26.5667 32 27.0417 31.8083 27.425 31.425C27.8083 31.0417 28 30.5667 28 30V26C28 25.4333 27.8083 24.9583 27.425 24.575C27.0417 24.1917 26.5667 24 26 24C25.4333 24 24.9583 24.1917 24.575 24.575C24.1917 24.9583 24 25.4333 24 26V30C24 30.5667 24.1917 31.0417 24.575 31.425C24.9583 31.8083 25.4333 32 26 32ZM22 52C21.4333 52 20.9583 51.8083 20.575 51.425C20.1917 51.0417 20 50.5667 20 50V43.4C18.1 41.6667 16.625 39.6417 15.575 37.325C14.525 35.0083 14 32.5667 14 30C14 25 15.75 20.75 19.25 17.25C22.75 13.75 27 12 32 12C36.1667 12 39.8583 13.225 43.075 15.675C46.2917 18.125 48.3833 21.3167 49.35 25.25L51.95 35.5C52.1167 36.1333 52 36.7083 51.6 37.225C51.2 37.7417 50.6667 38 50 38H46V44C46 45.1 45.6083 46.0417 44.825 46.825C44.0417 47.6083 43.1 48 42 48H38V50C38 50.5667 37.8083 51.0417 37.425 51.425C37.0417 51.8083 36.5667 52 36 52H22Z" fill="#510F7D"/>
</g>
</svg>
