<svg width="68" height="68" viewBox="0 0 68 68" fill="none" xmlns="http://www.w3.org/2000/svg">
<path d="M10.8592 65.3687L34 42.2279L57.1408 65.3687C58.2389 66.4668 59.6377 67 61.2547 67C62.8718 67 64.2706 66.4668 65.3687 65.3687C66.4668 64.2706 67 62.8718 67 61.2547C67 59.6377 66.4668 58.2389 65.3687 57.1408L42.2279 34L65.3687 10.8592C66.4668 9.76107 67 8.36234 67 6.74525C67 5.12816 66.4668 3.72942 65.3687 2.6313C64.2706 1.53317 62.8718 1 61.2547 1C59.6377 1 58.2389 1.53317 57.1408 2.6313L34 25.7721L10.8592 2.6313C9.76107 1.53317 8.36233 1 6.74525 1C5.12816 1 3.72943 1.53317 2.6313 2.6313C1.53317 3.72943 1 5.12816 1 6.74525C1 8.36233 1.53317 9.76107 2.6313 10.8592L25.7721 34L2.6313 57.1408C1.53317 58.2389 1 59.6377 1 61.2547C1 62.8718 1.53317 64.2706 2.6313 65.3687C3.72942 66.4668 5.12816 67 6.74525 67C8.36234 67 9.76107 66.4668 10.8592 65.3687Z" fill="#FB2425" stroke="#FB2425" stroke-width="2"/>
</svg>
