<svg width="335" height="335" viewBox="0 0 335 335" fill="none" xmlns="http://www.w3.org/2000/svg">
<path d="M173.082 0H161.579C72.3415 0 0 72.2853 0 161.454V172.948C0 262.116 72.3415 334.401 161.579 334.401H173.082C262.32 334.401 334.661 262.116 334.661 172.948V161.454C334.661 72.2853 262.32 0 173.082 0Z" fill="#7813BD"/>
<path d="M64.1877 78.8662C64.1447 78.9904 64.0969 79.1146 64.0491 79.2388C64.0204 79.3296 64.0348 79.2914 64.1877 78.8662Z" fill="white"/>
<path d="M82.6616 257.026C82.6616 257.026 82.6467 257.016 82.6367 257.011C82.6467 257.016 82.6516 257.021 82.6616 257.026Z" fill="white"/>
<path d="M314.605 231.721C314.557 231.65 314.505 231.583 314.457 231.516C314.328 231.306 314.184 231.11 314.027 230.923C308.17 222.774 302.199 214.71 296.318 206.579C300.664 206.402 305.005 206.178 309.346 205.896C309.839 205.881 310.317 205.791 310.766 205.638C310.79 205.633 310.809 205.624 310.833 205.614C310.943 205.576 311.048 205.533 311.153 205.49C312.172 205.088 313.018 204.396 313.587 203.397C314.38 202.117 314.605 200.512 313.912 199.007C313.754 198.606 313.539 198.233 313.266 197.899C309.121 191.297 305.034 184.657 300.965 178.012C298.919 174.672 296.873 171.328 294.827 167.984C292.804 164.683 290.629 161.44 288.817 158.019C288.392 157.212 287.985 156.39 287.603 155.564C287.502 155.349 287.407 155.129 287.311 154.914C287.321 154.923 286.938 154.006 286.938 154.001C286.278 152.306 285.714 150.576 285.246 148.823C284.82 147.227 284.476 145.613 284.208 143.984C284.203 143.946 284.074 143.004 284.07 143.004C284.046 142.785 284.017 142.565 283.998 142.345C283.898 141.356 283.826 140.363 283.783 139.374C283.625 135.629 284.046 131.941 284.357 128.219C284.686 124.235 284.935 120.241 285.064 116.243C285.322 108.389 285.16 100.502 284.361 92.6818C283.654 85.8075 282.516 78.9092 279.375 72.6798C278.715 71.3756 277.955 70.1288 277.09 68.9488C275.842 67.2482 274.431 65.3086 272.629 64.1382C269.421 62.0554 265.367 61.1668 261.599 60.9614C254.777 60.5936 247.63 62.7051 241.324 65.1414C226.403 70.9027 213.279 80.1274 200.662 89.7821C191.096 89.6626 181.553 88.6594 171.987 88.6594C165.614 88.6594 159.274 88.7024 152.906 89.0368C146.925 89.3473 140.949 89.72 134.959 89.7916C123.948 81.3647 112.584 73.234 99.8862 67.5109C93.193 64.4965 86.1795 62.0315 78.8599 61.1525C75.3269 60.7273 71.6361 60.8754 68.2035 61.8739C66.4441 62.385 64.4982 63.0968 62.9731 64.1335C61.1803 65.3469 59.7795 67.2195 58.5126 68.9441C54.6975 74.1368 52.9333 80.5812 51.9866 86.868C50.8058 94.736 50.385 102.7 50.4281 110.649C50.4711 118.517 51.2695 126.289 51.762 134.128C51.8719 135.872 51.8911 137.621 51.8194 139.364C51.7859 140.191 51.7285 141.017 51.652 141.844C51.6233 142.173 51.5851 142.503 51.5516 142.832C51.5229 143.057 51.5085 143.2 51.499 143.277C51.4655 143.511 51.4321 143.745 51.3938 143.979C50.8345 147.404 49.9213 150.767 48.664 154.001C48.664 154.006 48.3436 154.775 48.2958 154.9C48.1285 155.272 47.9611 155.65 47.789 156.017C47.3635 156.92 46.9094 157.809 46.4265 158.683C45.3987 160.556 44.232 162.357 43.1133 164.177C40.7707 167.989 38.4329 171.806 36.095 175.628C31.5388 183.071 26.9731 190.509 22.3308 197.904C22.0679 198.224 21.8576 198.592 21.6999 198.978C20.9875 200.493 21.2074 202.112 22.0106 203.402C22.5556 204.358 23.3732 205.041 24.3437 205.452C24.4919 205.518 24.6449 205.576 24.8026 205.628C24.8026 205.628 24.8074 205.628 24.8122 205.628C25.2664 205.781 25.7493 205.877 26.2513 205.891C30.5923 206.173 34.9333 206.397 39.2792 206.574C33.3843 214.724 27.3986 222.812 21.5277 230.981C21.4082 231.129 21.2934 231.282 21.193 231.444C21.1261 231.535 21.0592 231.626 20.9923 231.716C19.8544 233.302 20.2751 235.772 21.3795 237.201C21.3938 237.215 21.4034 237.229 21.4177 237.244C22.3213 238.452 23.7269 239.312 25.2616 239.145C29.464 238.691 33.6042 237.931 37.7492 237.115C39.6854 236.732 41.6218 236.35 43.5676 236.021C44.9971 235.777 45.7763 235.653 46.7564 235.543C52.4313 241.443 57.5995 247.806 63.2983 253.687C64.9047 255.344 66.554 256.964 68.2608 258.521C69.2026 259.381 70.154 260.317 71.2153 261.029C71.5595 261.258 71.9325 261.464 72.291 261.684C72.4631 261.851 72.6401 262.013 72.8265 262.166C73.405 262.649 74.0074 263.112 74.6815 263.456C74.9444 263.59 75.5564 264.02 75.4129 263.795C75.5707 263.958 75.7237 264.115 75.805 264.187C77.66 265.825 80.0361 266.972 82.2927 267.956C86.7055 269.876 91.3572 271.644 96.1094 272.475C101.258 273.373 106.297 273.273 111.494 273.259C121.328 273.23 131.153 273.531 140.992 273.531C148.733 273.531 156.468 273.421 164.203 273.388C165.336 273.388 166.47 273.373 167.603 273.378C167.918 273.378 168.229 273.378 168.544 273.378C175.936 273.392 183.327 273.493 190.718 273.526C200.672 273.569 210.611 273.225 220.565 273.254C225.356 273.268 230.194 273.579 234.965 273.101C240.076 272.585 244.78 271.271 249.576 269.489C251.875 268.634 254.175 267.693 256.331 266.513C257.598 265.821 259.381 264.946 260.4 263.747C260.529 263.695 260.686 263.594 260.768 263.556C261.332 263.279 261.8 262.949 262.298 262.567C262.57 262.357 262.847 262.152 263.101 261.918C263.12 261.899 263.211 261.813 263.282 261.736C263.344 261.684 263.407 261.636 263.431 261.621C263.703 261.449 263.99 261.297 264.258 261.125C266.29 259.801 268.068 257.924 269.804 256.238C276.525 249.688 282.368 242.317 288.874 235.562C289.854 235.677 290.653 235.801 292.059 236.04C294.004 236.369 295.941 236.752 297.877 237.134C302.017 237.951 306.162 238.705 310.364 239.164C311.77 239.317 313.07 238.595 313.979 237.535C314.07 237.435 314.16 237.33 314.247 237.215C315.365 235.767 315.776 233.321 314.634 231.731L314.605 231.721ZM72.4871 261.822C72.554 261.865 72.5779 261.879 72.4871 261.822V261.822ZM294.659 226.509C293.163 226.256 291.657 226.041 290.151 225.845C288.21 225.592 286.259 225.205 284.438 226.165C283.195 226.825 282.114 228.272 281.153 229.28C280.231 230.245 279.327 231.224 278.423 232.213C274.996 235.973 271.697 239.842 268.255 243.588C266.476 245.518 264.664 247.414 262.785 249.249C261.858 250.151 260.921 251.035 259.96 251.9C259.701 252.134 259.443 252.363 259.18 252.593C259.147 252.621 258.956 252.75 258.846 252.831C258.736 252.889 258.626 252.951 258.588 252.975C258.286 253.171 258 253.381 257.713 253.596C257.263 253.935 256.799 254.265 256.384 254.642C256.369 254.656 256.331 254.685 256.288 254.723C256.078 254.819 255.537 255.12 255.403 255.182C254.514 255.597 253.759 256.199 253.099 256.921C253.08 256.94 253.07 256.954 253.056 256.973C253.008 256.997 252.96 257.021 252.898 257.054C252.358 257.336 251.851 257.69 251.316 257.986C250.714 258.316 250.102 258.626 249.48 258.918C249.251 259.027 249.016 259.133 248.787 259.238C248.691 259.281 248.615 259.314 248.548 259.348C248.519 259.357 248.457 259.381 248.337 259.429C245.913 260.394 243.423 261.325 240.917 262.056C239.593 262.443 238.231 262.73 236.868 262.969C236.71 262.997 235.577 263.16 235.601 263.164C234.846 263.255 234.086 263.322 233.325 263.37C227.823 263.738 222.219 263.394 216.702 263.379C210.922 263.365 205.152 263.614 199.372 263.657C191.263 263.714 183.16 263.609 175.051 263.547C174.994 263.547 174.937 263.537 174.879 263.537C172.36 263.513 169.835 263.513 167.316 263.518C165.112 263.518 162.908 263.518 160.709 263.537C160.651 263.537 160.599 263.547 160.541 263.547C153.834 263.594 147.121 263.676 140.414 263.671C134.701 263.671 128.997 263.556 123.289 263.389C117.638 263.222 111.963 263.442 106.312 263.485C105.05 263.494 103.792 263.465 102.535 263.389C101.813 263.346 101.096 263.274 100.374 263.207C100.336 263.207 99.9915 263.164 99.872 263.15C99.5756 263.107 99.2839 263.064 98.9923 263.012C96.2433 262.548 93.6616 261.731 91.0369 260.819C89.8465 260.403 88.6703 259.964 87.4895 259.524C87.4369 259.505 87.1596 259.391 87.0544 259.352C86.8919 259.281 86.7341 259.209 86.5716 259.137C85.8736 258.817 85.1803 258.483 84.5014 258.12C83.9659 257.833 83.4352 257.527 82.9189 257.203C82.8424 257.155 82.7707 257.112 82.6942 257.064C82.6847 257.054 82.6752 257.05 82.6656 257.045C82.7756 257.131 82.7994 257.269 82.5747 257.016C82.5699 257.011 82.5651 257.007 82.5556 256.997C82.589 257.002 82.6178 257.011 82.6465 257.031C82.5795 256.983 82.5221 256.945 82.4743 256.911C81.8624 256.247 81.1453 255.698 80.3564 255.273C80.0122 255.086 79.6489 254.929 79.2999 254.742C79.2712 254.718 79.2472 254.69 79.2137 254.661C78.8121 254.288 78.2816 253.911 77.8847 253.615C77.5118 253.338 77.1054 252.951 76.6752 252.784C76.5987 252.755 76.5604 252.741 76.5317 252.736C76.2927 252.531 76.0584 252.292 75.8337 252.091C73.8592 250.319 71.9565 248.46 70.1158 246.549C66.511 242.818 63.1261 238.887 59.6791 235.013C57.7955 232.896 55.8927 230.794 53.9277 228.75C52.3548 227.116 50.8918 225.444 48.401 225.53C46.6321 225.587 44.8202 225.926 43.0704 226.184C40.8042 226.519 38.5524 226.944 36.3053 227.383C41.8703 219.754 47.4735 212.154 52.938 204.448C54.989 201.553 52.2879 196.619 48.6687 197.015C44.0648 196.915 39.4608 196.738 34.8616 196.509C38.3373 190.91 41.7795 185.292 45.2217 179.669C49.8927 172.04 55.2042 164.588 58.3787 156.175C61.4624 148.006 62.1508 139.364 61.3572 130.732C60.5206 121.646 60.1142 112.507 60.425 103.383C60.5732 99.0259 60.8552 94.6548 61.4097 90.3267C61.4384 90.1403 61.5149 89.5957 61.5245 89.5098C61.5914 89.0703 61.6584 88.6355 61.7301 88.2008C61.8783 87.3314 62.0361 86.4619 62.2178 85.5973C62.6098 83.7389 63.0974 81.8949 63.7333 80.1035C63.8337 79.8169 63.9436 79.535 64.0536 79.2532C64.0823 79.172 64.1492 78.9809 64.1922 78.8806C64.1922 78.871 64.2018 78.8615 64.2018 78.8567C64.5699 78.0684 64.9476 77.285 65.3779 76.5254C65.813 75.7611 66.3006 75.0397 66.7882 74.3088C66.8504 74.218 66.8934 74.1464 66.9317 74.0891C66.9795 74.0413 67.0321 73.9792 67.0991 73.9028C67.4959 73.4537 67.9118 73.0142 68.3086 72.5604C68.4042 72.4505 68.4568 72.3741 68.4902 72.3215C68.5524 72.3072 68.6481 72.2785 68.7915 72.2212C68.8441 72.2021 69.7142 71.8056 69.6329 71.8199C70.3835 71.5381 71.1532 71.3136 71.9325 71.1416C72.2384 71.0747 72.5493 71.0126 72.8648 70.96C72.8792 70.9696 73.6823 70.8788 73.7779 70.874C74.8488 70.8071 75.9293 70.8119 77.0002 70.8836C77.464 70.9123 77.9277 70.96 78.3914 71.003C78.4966 71.0126 78.5827 71.0221 78.6496 71.0269C78.7261 71.0412 78.8122 71.0603 78.9365 71.0842C79.8688 71.261 80.801 71.4234 81.7285 71.6384C83.7364 72.1018 85.711 72.6894 87.6712 73.32C89.4258 73.8884 91.166 74.4856 92.8727 75.1878C93.0783 75.2786 93.7477 75.5604 93.7381 75.5557C94.0441 75.6894 94.3548 75.828 94.6608 75.9617C95.7317 76.4394 96.7931 76.9363 97.8449 77.4474C105.322 81.0828 112.369 85.5352 119.148 90.3314C122.567 92.7487 125.923 95.2567 129.255 97.8029C130.14 98.4765 130.938 99.2265 132.042 99.5322C133.324 99.8857 134.835 99.7042 136.154 99.6851C138.578 99.6421 141.002 99.5514 143.421 99.4415C150.54 99.1119 157.649 98.5672 164.777 98.5672C169.458 98.5672 174.129 98.5529 178.809 98.7583C183.451 98.959 188.084 99.2599 192.726 99.4701C194.964 99.5704 197.201 99.6517 199.439 99.6899C200.758 99.7138 202.269 99.8905 203.55 99.537C204.779 99.1978 205.749 98.2568 206.739 97.502C213.37 92.4477 220.121 87.532 227.254 83.2039C230.806 81.0494 234.449 79.0382 238.197 77.2372C239.101 76.8025 240.014 76.3773 240.932 75.9665C241.238 75.828 241.544 75.6942 241.855 75.5605C241.85 75.5605 242.505 75.2882 242.715 75.1974C244.57 74.4378 246.463 73.7929 248.371 73.1862C250.183 72.6082 252.009 72.0731 253.864 71.648C254.792 71.433 255.724 71.2705 256.656 71.0938C256.78 71.0699 256.871 71.0508 256.943 71.0365C257.015 71.0317 257.096 71.0221 257.201 71.0126C257.818 70.9553 258.435 70.8932 259.056 70.8645C259.974 70.8215 260.897 70.8215 261.815 70.8836C261.91 70.8884 262.709 70.9791 262.728 70.9696C263.039 71.0221 263.349 71.0842 263.66 71.1511C264.439 71.3279 265.209 71.5524 265.96 71.8295C265.878 71.8151 266.749 72.2069 266.801 72.2308C266.964 72.3311 267.074 72.3932 267.141 72.4314C267.294 72.5843 267.447 72.7419 267.599 72.8996C267.91 73.2292 268.197 73.5731 268.494 73.9123C268.565 73.9935 268.618 74.0508 268.661 74.0986C268.699 74.1559 268.742 74.2228 268.804 74.3184C269.292 75.0493 269.78 75.7706 270.215 76.535C270.607 77.2325 270.97 77.9442 271.3 78.6704C271.352 78.7802 271.462 79.0621 271.52 79.2007C271.687 79.6402 271.854 80.0796 272.003 80.5239C272.567 82.1864 273.011 83.887 273.375 85.6068C273.557 86.4715 273.719 87.3409 273.862 88.2104C273.934 88.6451 274.006 89.0846 274.068 89.5193C274.106 89.7868 274.149 90.0591 274.188 90.3267C274.188 90.3505 274.192 90.3649 274.197 90.3888C275.321 99.5131 275.483 108.757 275.11 117.934C274.761 126.557 273.184 135.227 274.278 143.84C274.838 148.231 275.794 152.516 277.4 156.648C278.997 160.756 281.058 164.487 283.362 168.233C288.253 176.177 293.101 184.145 297.996 192.085C298.91 193.566 299.827 195.042 300.741 196.518C296.141 196.743 291.542 196.92 286.938 197.025C283.319 196.628 280.618 201.563 282.669 204.458C288.129 212.163 293.732 219.764 299.302 227.393C297.757 227.092 296.213 226.796 294.664 226.533L294.659 226.509Z" fill="white"/>
<path d="M107.176 104.424C110.327 106.196 113.482 107.964 116.633 109.736C118.168 110.596 119.698 111.475 121.242 112.325C121.266 112.335 121.285 112.349 121.309 112.364C122.437 112.999 123.862 113.209 125.119 112.861C126.266 112.545 127.51 111.657 128.074 110.591C128.681 109.445 128.982 108.055 128.571 106.784C128.179 105.571 127.438 104.472 126.3 103.832L122.619 101.763C119.664 100.105 116.714 98.4478 113.76 96.7854L103.003 90.7423C99.876 88.9843 96.7494 87.231 93.6227 85.4778C92.0498 84.594 90.4768 83.7103 88.9039 82.8265C88.0959 82.3727 87.2211 81.9809 86.3271 81.7373C85.3278 81.4602 84.2282 81.3073 83.1908 81.3647C82.1868 81.422 81.0872 81.551 80.1311 81.9236C79.4904 82.172 78.8354 82.4252 78.2331 82.7596C77.6115 83.1036 77.033 83.5861 76.488 84.0208C75.6943 84.6609 75.0585 85.4874 74.4896 86.3282C74.3175 86.5813 74.1693 86.8489 74.0402 87.1259C73.7342 87.7947 73.4139 88.4779 73.2227 89.1897C73.0219 89.9349 72.9502 90.7231 72.8689 91.4875C72.6825 93.2885 72.5199 95.0943 72.3478 96.8952L71.2577 108.184C70.88 112.11 70.5024 116.037 70.1199 119.969C69.9 122.267 69.6752 124.565 69.4553 126.867C69.4457 126.977 69.4362 127.087 69.4218 127.197C69.3071 128.386 70.0577 129.877 70.8704 130.689C71.7262 131.544 73.1366 132.189 74.3653 132.136C75.6418 132.079 76.9709 131.659 77.8601 130.689C78.1183 130.355 78.3764 130.02 78.6346 129.69C79.084 128.921 79.3088 128.09 79.3088 127.197C79.4235 126.007 79.5382 124.818 79.653 123.628C79.9303 120.772 80.2028 117.915 80.48 115.063C80.8147 111.614 81.1445 108.165 81.4792 104.711C81.766 101.739 82.0529 98.7631 82.3398 95.7917C82.4593 94.5735 82.5692 93.3554 82.6935 92.1372C82.727 91.9891 82.7605 91.8362 82.8035 91.6929C82.8322 91.6451 82.8609 91.5974 82.8848 91.5496C82.9279 91.5066 82.9709 91.4636 83.0139 91.4206C83.0761 91.3824 83.143 91.3442 83.2051 91.3107C83.2768 91.2916 83.3437 91.2677 83.4155 91.2534C83.468 91.2534 83.5255 91.2486 83.578 91.2486C83.6545 91.2677 83.731 91.2868 83.8027 91.3107C84.0991 91.4684 84.386 91.6308 84.6777 91.798C85.5621 92.2948 86.4513 92.7917 87.3358 93.2933C90.3047 94.9605 93.2784 96.6325 96.2474 98.2997C99.8904 100.344 103.533 102.394 107.176 104.438V104.424Z" fill="white"/>
<path d="M267.682 122.3C267.323 118.603 266.97 114.905 266.611 111.212C266.228 107.243 265.846 103.278 265.463 99.3077C265.229 96.8618 264.99 94.4159 264.756 91.97C264.56 89.9492 264.23 87.9476 263.03 86.2374C262.633 85.6737 262.222 85.1195 261.749 84.6179C261.256 84.0924 260.659 83.672 260.085 83.2421C259.263 82.6258 258.311 82.2341 257.35 81.8806C256.385 81.5271 255.295 81.3933 254.286 81.3551C253.244 81.3121 252.144 81.465 251.145 81.7612C249.209 82.3344 247.401 83.5335 245.652 84.5176C242.802 86.118 239.953 87.7183 237.108 89.3187C233.532 91.3251 229.961 93.3363 226.385 95.3427C223.177 97.1437 219.969 98.9446 216.761 100.746C215.011 101.73 213.266 102.709 211.516 103.693C211.435 103.741 211.354 103.784 211.272 103.832C210.201 104.434 209.326 105.609 209.001 106.784C208.676 107.969 208.824 109.54 209.498 110.591C210.177 111.647 211.191 112.574 212.453 112.861C213.763 113.157 215.073 113.032 216.263 112.364C217.53 111.652 218.793 110.945 220.059 110.233C223.076 108.537 226.098 106.841 229.114 105.15C232.762 103.101 236.405 101.056 240.053 99.0067C243.166 97.2583 246.273 95.5146 249.385 93.7662C250.834 92.9541 252.278 92.1276 253.736 91.3251C253.736 91.3251 253.746 91.3251 253.75 91.3203C253.832 91.2964 253.918 91.2725 253.999 91.2486C254.052 91.2486 254.109 91.2486 254.162 91.2534C254.233 91.2725 254.3 91.2916 254.372 91.3107C254.439 91.349 254.501 91.3824 254.563 91.4206C254.606 91.4636 254.649 91.5066 254.692 91.5496C254.721 91.5974 254.75 91.6451 254.773 91.6929C254.821 91.8505 254.855 92.0082 254.888 92.1706C254.984 93.0926 255.065 94.0194 255.151 94.9414C255.424 97.779 255.696 100.617 255.973 103.454C256.308 106.903 256.638 110.352 256.973 113.802L257.838 122.768C257.977 124.225 258.115 125.682 258.259 127.139C258.259 127.159 258.259 127.182 258.263 127.202C258.24 127.88 258.378 128.515 258.689 129.103C258.89 129.714 259.229 130.245 259.712 130.694C260.568 131.549 261.978 132.194 263.207 132.141C264.483 132.084 265.813 131.663 266.702 130.694C267.538 129.781 268.275 128.487 268.15 127.202C267.993 125.573 267.835 123.939 267.677 122.31L267.682 122.3Z" fill="white"/>
<path d="M219.308 202.313C218.017 202.37 216.721 202.8 215.813 203.76C214.766 204.869 213.638 205.896 212.447 206.851C210.348 208.399 208.087 209.703 205.706 210.764C202.948 211.867 200.065 212.646 197.125 213.1C194.156 213.444 191.153 213.449 188.184 213.109C185.459 212.689 182.791 211.968 180.234 210.941C178.532 210.181 176.863 209.292 175.343 208.208C175.056 207.964 174.783 207.706 174.53 207.429C174.487 207.362 174.449 207.296 174.411 207.229C174.411 207.21 174.406 207.195 174.401 207.176C174.348 206.374 174.329 205.561 174.1 204.778C173.832 203.842 173.354 202.958 172.718 202.213L186.74 188.115H148.742L162.764 202.213C162.602 202.351 162.439 202.48 162.277 202.628C161.306 203.541 160.489 204.616 159.532 205.547C158.672 206.383 157.764 207.167 156.822 207.917C154.565 209.579 152.127 210.984 149.564 212.12C146.72 213.262 143.751 214.074 140.72 214.538C137.794 214.877 134.839 214.886 131.918 214.542C129.704 214.199 127.501 213.663 125.411 212.861C124.508 212.445 123.638 211.963 122.825 211.394C122.505 211.117 122.203 210.821 121.921 210.506C121.768 210.272 121.625 210.033 121.496 209.789C121.486 209.756 121.472 209.727 121.462 209.694C121.075 208.48 120.305 207.396 119.191 206.741C118.13 206.12 116.571 205.858 115.381 206.245C114.186 206.632 113.029 207.372 112.426 208.514C111.819 209.665 111.523 211.046 111.929 212.321C112.709 214.762 114.148 217.031 116.151 218.656C117.174 219.487 118.216 220.266 119.378 220.891C120.549 221.517 121.787 222.033 123.03 222.492C126.898 223.93 131.163 224.57 135.269 224.68C143.598 224.904 152.132 222.587 159.222 218.216C161.33 216.917 163.333 215.407 165.193 213.773C165.552 213.458 165.905 213.128 166.254 212.799C166.293 212.851 166.326 212.909 166.369 212.966C166.909 213.678 167.435 214.375 168.095 214.977C169.835 216.558 171.882 217.824 173.98 218.875C177.7 220.738 181.678 222.076 185.794 222.678C188.089 223.012 190.379 223.256 192.697 223.251C195.021 223.246 197.316 222.993 199.611 222.654C203.775 222.038 207.762 220.705 211.563 218.904C215.741 216.922 219.623 214.108 222.803 210.745C223.687 209.808 224.251 208.557 224.251 207.253C224.251 206.039 223.711 204.592 222.803 203.76C221.861 202.896 220.622 202.256 219.308 202.313Z" fill="white"/>
<path d="M110.925 167.105C112.374 166.542 113.875 166.135 115.41 165.878C116.839 165.734 118.278 165.729 119.712 165.873C120.898 166.078 122.06 166.389 123.183 166.809C123.891 167.139 124.584 167.497 125.244 167.917C126.305 168.591 127.859 168.744 129.054 168.414C130.201 168.099 131.445 167.21 132.009 166.145C132.616 164.999 132.917 163.608 132.506 162.338C132.1 161.086 131.359 160.097 130.235 159.385C128.959 158.573 127.586 157.976 126.181 157.412C125.158 157.002 124.092 156.681 123.011 156.462C120.463 155.936 117.819 155.717 115.228 156.008C113.712 156.175 112.202 156.39 110.724 156.777C109.257 157.164 107.865 157.723 106.474 158.325C104.079 159.357 101.932 160.809 99.9625 162.51C99.0207 163.322 98.1648 164.225 97.3951 165.204C96.3768 166.503 95.4255 167.808 94.6988 169.293C94.3354 169.862 94.1442 170.473 94.1107 171.128C93.9625 171.782 93.9912 172.441 94.1967 173.096C94.5123 174.242 95.4015 175.484 96.4677 176.048C97.6151 176.655 99.0063 176.956 100.278 176.545C101.449 176.168 102.673 175.422 103.233 174.276C103.658 173.406 104.155 172.58 104.715 171.792C105.484 170.86 106.345 170.005 107.277 169.231C108.42 168.405 109.644 167.693 110.925 167.105Z" fill="white"/>
<path d="M234.191 163.226C233.292 162.027 232.37 160.866 231.28 159.839C229.41 158.081 227.244 156.538 224.916 155.444C222.531 154.321 220.054 153.433 217.439 153.056C215.947 152.841 214.46 152.649 212.95 152.654C211.434 152.654 209.923 152.85 208.427 153.094C207.198 153.294 205.993 153.61 204.827 154.044C203.292 154.622 201.777 155.286 200.386 156.17C199.31 156.853 198.454 157.88 198.115 159.123C197.79 160.307 197.938 161.879 198.612 162.93C199.291 163.986 200.304 164.912 201.566 165.199C202.838 165.491 204.244 165.419 205.377 164.702C206.037 164.282 206.73 163.924 207.437 163.594C208.561 163.174 209.723 162.863 210.908 162.658C212.338 162.514 213.782 162.519 215.211 162.662C216.746 162.916 218.247 163.326 219.695 163.89C220.977 164.478 222.201 165.19 223.343 166.016C224.276 166.79 225.131 167.645 225.906 168.577C226.465 169.365 226.962 170.191 227.388 171.061C227.909 172.126 229.233 173.024 230.343 173.33C231.528 173.655 233.101 173.507 234.153 172.833C235.209 172.155 236.137 171.142 236.424 169.881C236.481 169.441 236.543 169.006 236.601 168.567C236.601 167.674 236.371 166.842 235.927 166.073C235.439 165.075 234.86 164.119 234.191 163.231V163.226Z" fill="white"/>
</svg>
