<svg width="110" height="110" viewBox="0 0 110 110" fill="none" xmlns="http://www.w3.org/2000/svg">
<mask id="mask0_624_2073" style="mask-type:alpha" maskUnits="userSpaceOnUse" x="0" y="0" width="110" height="110">
<rect width="110" height="110" fill="#D9D9D9"/>
</mask>
<g mask="url(#mask0_624_2073)">
<path d="M24.1595 85.7085L56.472 74.2501L35.6178 53.396L24.1595 85.7085ZM102.402 33.3439C101.861 33.9137 101.227 34.1987 100.502 34.1987C99.7761 34.1987 99.1432 33.9286 98.6031 33.3886L98.3029 33.0884C97.057 31.8425 95.5441 31.2195 93.7643 31.2195C91.9836 31.2195 90.4704 31.8425 89.2245 33.0884L66.0076 56.3052C65.4675 56.8453 64.8346 57.1226 64.109 57.1371C63.3833 57.1524 62.7355 56.8751 62.1656 56.3052C61.5958 55.7346 61.3108 55.0941 61.3108 54.3837C61.3108 53.6725 61.5958 53.032 62.1656 52.4621L85.3814 29.2452C87.6791 26.9482 90.4585 25.7997 93.7196 25.7997C96.9806 25.7997 99.76 26.9482 102.058 29.2452L102.402 29.589C102.942 30.1298 103.213 30.7558 103.213 31.467C103.213 32.1774 102.942 32.803 102.402 33.3439ZM45.2772 20.1668C45.847 19.5969 46.4876 19.312 47.1987 19.312C47.9099 19.312 48.5504 19.5969 49.1203 20.1668L50.0897 21.1362C52.5341 23.5806 53.7563 26.5128 53.7563 29.9327C53.7563 33.3527 52.5341 36.2848 50.0897 38.7293L49.2612 39.5577C48.7212 40.0986 48.0883 40.3762 47.3626 40.3907C46.6369 40.4053 45.9887 40.1276 45.4181 39.5577C44.8483 38.9879 44.5633 38.3474 44.5633 37.6362C44.5633 36.9258 44.8483 36.2852 45.4181 35.7146L46.2477 34.8862C47.6105 33.5234 48.2919 31.8722 48.2919 29.9327C48.2919 27.994 47.6105 26.3428 46.2477 24.9793L45.2772 24.0099C44.7371 23.4691 44.4594 22.8358 44.4442 22.1101C44.4296 21.3844 44.7073 20.7367 45.2772 20.1668ZM62.9585 12.2342C63.5284 11.6643 64.1689 11.3794 64.8801 11.3794C65.5913 11.3794 66.2318 11.6643 66.8017 12.2342L71.6841 17.1177C74.0116 19.4445 75.1754 22.2385 75.1754 25.4995C75.1754 28.7605 74.0116 31.5545 71.6841 33.8813L57.635 47.9315C57.0942 48.4723 56.4609 48.75 55.7352 48.7645C55.0095 48.779 54.3617 48.5013 53.7919 47.9315C53.222 47.3616 52.9371 46.7211 52.9371 46.0099C52.9371 45.2987 53.222 44.6582 53.7919 44.0884L67.8421 30.0393C69.0872 28.7934 69.7098 27.2801 69.7098 25.4995C69.7098 23.7189 69.0872 22.2056 67.8421 20.9597L62.9585 16.0773C62.4177 15.5365 62.14 14.9032 62.1255 14.1775C62.111 13.4518 62.3887 12.804 62.9585 12.2342ZM95.5701 64.6778C95.0002 65.2477 94.3597 65.5326 93.6485 65.5326C92.9381 65.5326 92.298 65.2477 91.7281 64.6778L88.1669 61.1177C86.7743 59.7244 85.0701 59.0277 83.0542 59.0277C81.039 59.0277 79.3352 59.7244 77.9426 61.1177L74.3814 64.6778C73.8405 65.2187 73.2072 65.4963 72.4816 65.5109C71.7559 65.5254 71.1081 65.2477 70.5382 64.6778C69.9684 64.108 69.6834 63.4675 69.6834 62.7563C69.6834 62.0459 69.9684 61.4053 70.5382 60.8347L74.0995 57.2746C76.5729 54.8004 79.5578 53.5632 83.0542 53.5632C86.5505 53.5632 89.5358 54.8004 92.01 57.2746L95.5701 60.8347C96.1109 61.3755 96.3886 62.0088 96.4031 62.7345C96.4176 63.4602 96.14 64.108 95.5701 64.6778ZM15.7238 88.7575L30.7343 47.024C31.0872 46.1188 31.6204 45.4282 32.3338 44.9523C33.0481 44.4764 33.8196 44.2385 34.6484 44.2385C35.2007 44.2385 35.7148 44.3309 36.1907 44.5158C36.6666 44.7014 37.1188 45.0085 37.5474 45.437L64.4309 72.3194C64.8595 72.7487 65.1662 73.2013 65.351 73.6772C65.5367 74.1531 65.6295 74.6672 65.6295 75.2195C65.6295 76.0483 65.3915 76.8195 64.9156 77.5329C64.4397 78.2472 63.7492 78.7804 62.844 79.1325L21.1093 94.1429C20.2812 94.4661 19.4837 94.5161 18.7168 94.293C17.9498 94.07 17.2902 93.6823 16.7379 93.13C16.1856 92.5777 15.7979 91.9181 15.5749 91.1512C15.3511 90.3842 15.4007 89.5863 15.7238 88.7575Z" fill="#EF6C00"/>
</g>
</svg>
