<svg width="64" height="64" viewBox="0 0 64 64" fill="none" xmlns="http://www.w3.org/2000/svg">
<circle cx="32" cy="32" r="32" fill="#95B334"/>
<path d="M32.097 40.0618C34.5212 40.0618 36.5819 39.2133 38.2788 37.5163C39.9758 35.8194 40.8243 33.7588 40.8243 31.3345C40.8243 28.9103 39.9758 26.8497 38.2788 25.1527C36.5819 23.4557 34.5212 22.6072 32.097 22.6072C29.6728 22.6072 27.6122 23.4557 25.9152 25.1527C24.2182 26.8497 23.3697 28.9103 23.3697 31.3345C23.3697 33.7588 24.2182 35.8194 25.9152 37.5163C27.6122 39.2133 29.6728 40.0618 32.097 40.0618ZM32.097 36.5709C30.6425 36.5709 29.4061 36.0618 28.3879 35.0436C27.3697 34.0254 26.8606 32.7891 26.8606 31.3345C26.8606 29.88 27.3697 28.6436 28.3879 27.6254C29.4061 26.6072 30.6425 26.0982 32.097 26.0982C33.5516 26.0982 34.7879 26.6072 35.8061 27.6254C36.8243 28.6436 37.3334 29.88 37.3334 31.3345C37.3334 32.7891 36.8243 34.0254 35.8061 35.0436C34.7879 36.0618 33.5516 36.5709 32.097 36.5709ZM32.097 45.88C27.3778 45.88 23.0788 44.5628 19.2 41.9285C15.3212 39.2941 12.5091 35.7628 10.7637 31.3345C12.5091 26.9062 15.3212 23.3749 19.2 20.7406C23.0788 18.1062 27.3778 16.7891 32.097 16.7891C36.8162 16.7891 41.1152 18.1062 44.994 20.7406C48.8728 23.3749 51.6849 26.9062 53.4303 31.3345C51.6849 35.7628 48.8728 39.2941 44.994 41.9285C41.1152 44.5628 36.8162 45.88 32.097 45.88ZM32.097 42.0012C35.7495 42.0012 39.1031 41.0396 42.1576 39.1163C45.2122 37.1931 47.5475 34.5992 49.1637 31.3345C47.5475 28.0699 45.2122 25.4759 42.1576 23.5527C39.1031 21.6295 35.7495 20.6679 32.097 20.6679C28.4445 20.6679 25.0909 21.6295 22.0364 23.5527C18.9819 25.4759 16.6465 28.0699 15.0303 31.3345C16.6465 34.5992 18.9819 37.1931 22.0364 39.1163C25.0909 41.0396 28.4445 42.0012 32.097 42.0012Z" fill="#E8EAED" stroke="#E8EAED"/>
</svg>
