<svg width="68" height="64" viewBox="0 0 68 64" fill="none" xmlns="http://www.w3.org/2000/svg">
<path d="M6.44204 36.3792L10.2351 32.2232C10.3853 39.147 12.7036 45.058 17.1961 49.9281C21.8447 54.9673 27.5035 57.5 34.1455 57.5C36.2304 57.5 38.2669 57.2007 40.2533 56.6022C42.2395 56.0037 44.1717 55.1072 46.0497 53.916L46.5528 53.5968L46.1511 53.1567L41.7875 48.3754L41.5226 48.0852L41.1779 48.274C40.0479 48.8931 38.8979 49.3555 37.7274 49.6633C36.557 49.9711 35.3634 50.125 34.1455 50.125C29.3933 50.125 25.3677 48.3279 22.0408 44.7085C18.8724 41.2614 17.2097 37.1154 17.057 32.2444L20.8307 36.3792L21.2 36.7839L21.5693 36.3792L25.642 31.9167L25.9497 31.5797L25.642 31.2426L14.0057 18.4926L13.6364 18.088L13.267 18.4926L1.63069 31.2426L1.32307 31.5797L1.63069 31.9167L5.70341 36.3792L6.07273 36.7839L6.44204 36.3792ZM53.9943 44.5074L54.3636 44.912L54.7329 44.5074L66.3693 31.7574L66.6769 31.4203L66.3693 31.0833L62.2966 26.6208L61.9273 26.2161L61.558 26.6208L57.7649 30.7768C57.6147 23.853 55.2964 17.942 50.8039 13.0719C46.1553 8.0327 40.4965 5.5 33.8545 5.5C31.7696 5.5 29.7331 5.79927 27.7467 6.39782C25.7605 6.9963 23.8283 7.89278 21.9503 9.08404L21.4472 9.40321L21.8489 9.84331L26.2125 14.6246L26.4774 14.9148L26.8221 14.726C27.9521 14.1069 29.1021 13.6445 30.2726 13.3367C31.443 13.0289 32.6366 12.875 33.8545 12.875C38.6067 12.875 42.6323 14.6721 45.9592 18.2915C49.1276 21.7386 50.7903 25.8846 50.943 30.7556L47.1693 26.6208L46.8 26.2161L46.4307 26.6208L42.358 31.0833L42.0503 31.4203L42.358 31.7574L53.9943 44.5074Z" fill="#EF6C00" stroke="#EF6C00"/>
</svg>
