<svg width="64" height="64" viewBox="0 0 64 64" fill="none" xmlns="http://www.w3.org/2000/svg">
<path d="M15.8704 60C15.0296 60 14.3248 59.7317 13.756 59.195C13.1872 58.6583 12.9028 57.9933 12.9028 57.2V47.96C10.0836 45.5333 7.89497 42.6983 6.33698 39.455C4.77899 36.2117 4 32.7933 4 29.2C4 22.2 6.59665 16.25 11.7899 11.35C16.9832 6.45 23.2894 4 30.7084 4C36.8909 4 42.3686 5.715 47.1415 9.145C51.9143 12.575 55.018 17.0433 56.4523 22.55L60.3102 36.9C60.5575 37.7867 60.3844 38.5917 59.7909 39.315C59.1973 40.0383 58.406 40.4 57.4168 40.4H51.4816V48.8C51.4816 50.34 50.9004 51.6583 49.7381 52.755C48.5758 53.8517 47.1786 54.4 45.5464 54.4H39.6112V57.2C39.6112 57.9933 39.3268 58.6583 38.758 59.195C38.1892 59.7317 37.4844 60 36.6436 60H15.8704ZM30.7084 43.2C31.5492 43.2 32.254 42.9317 32.8228 42.395C33.3916 41.8583 33.676 41.1933 33.676 40.4C33.676 39.6067 33.3916 38.9417 32.8228 38.405C32.254 37.8683 31.5492 37.6 30.7084 37.6C29.8676 37.6 29.1628 37.8683 28.594 38.405C28.0252 38.9417 27.7408 39.6067 27.7408 40.4C27.7408 41.1933 28.0252 41.8583 28.594 42.395C29.1628 42.9317 29.8676 43.2 30.7084 43.2ZM30.7826 34.24C31.3266 34.24 31.8336 34.065 32.3035 33.715C32.7733 33.365 33.0825 32.8867 33.2308 32.28C33.3792 31.72 33.6142 31.1717 33.9356 30.635C34.2571 30.0983 34.7641 29.48 35.4565 28.78C37.0393 27.1467 38.0779 25.91 38.5725 25.07C39.0671 24.23 39.3144 23.2733 39.3144 22.2C39.3144 20.24 38.5107 18.5833 36.9032 17.23C35.2958 15.8767 33.305 15.2 30.931 15.2C29.3482 15.2 27.8521 15.5617 26.4425 16.285C25.0329 17.0083 23.9076 18 23.0668 19.26C22.7701 19.7267 22.7577 20.2167 23.0297 20.73C23.3018 21.2433 23.7098 21.6167 24.2539 21.85C24.7979 22.0833 25.3296 22.1183 25.8489 21.955C26.3683 21.7917 26.8258 21.4533 27.2215 20.94C27.7161 20.38 28.2848 19.9483 28.9278 19.645C29.5708 19.3417 30.2385 19.19 30.931 19.19C32.0191 19.19 32.9217 19.47 33.6389 20.03C34.3561 20.59 34.7146 21.3133 34.7146 22.2C34.7146 22.9467 34.5044 23.6583 34.084 24.335C33.6636 25.0117 32.8352 25.9567 31.5987 27.17C30.6589 28.1033 29.9789 28.9317 29.5584 29.655C29.138 30.3783 28.8536 31.2067 28.7053 32.14C28.6063 32.7 28.7671 33.19 29.1875 33.61C29.6079 34.03 30.1396 34.24 30.7826 34.24Z" fill="#95B334"/>
</svg>
