<svg width="110" height="110" viewBox="0 0 110 110" fill="none" xmlns="http://www.w3.org/2000/svg">
<mask id="mask0_624_2088" style="mask-type:alpha" maskUnits="userSpaceOnUse" x="0" y="0" width="110" height="110">
<rect width="110" height="110" fill="#D9D9D9"/>
</mask>
<g mask="url(#mask0_624_2088)">
<path d="M28.4335 93.9585C26.7652 93.9585 25.1759 93.3913 23.6657 92.2569C22.1555 91.1233 21.1625 89.7365 20.6865 88.0964C18.7768 81.504 17.233 75.9177 16.0551 71.3375C14.8764 66.7564 13.9464 62.8075 13.265 59.4907C12.5836 56.1739 12.1119 53.2799 11.8499 50.8087C11.5886 48.3383 11.458 45.916 11.458 43.5418C11.458 37.1603 13.6821 31.7455 18.1302 27.2973C22.5783 22.8492 27.9931 20.6252 34.3747 20.6252H58.4372C60.4997 17.8752 63.0205 15.6599 65.9997 13.9793C68.9788 12.2988 72.1872 11.4585 75.6247 11.4585C76.8881 11.4585 77.9679 11.9065 78.864 12.8026C79.76 13.6986 80.208 14.7784 80.208 16.0418C80.208 16.3535 80.1652 16.6575 80.0797 16.9539C79.9949 17.2511 79.9055 17.5463 79.8116 17.8396C79.4762 18.7387 79.1531 19.7112 78.8422 20.7569C78.5305 21.8035 78.2395 23.1315 77.9691 24.741L89.8949 36.6668H94.398C95.5797 36.6668 96.5655 37.0621 97.3554 37.8528C98.146 38.6426 98.5413 39.6284 98.5413 40.8102V61.6552C98.5413 62.5596 98.2843 63.3644 97.7702 64.0694C97.2561 64.7745 96.5465 65.2886 95.6412 65.6117L86.0334 68.7765L80.2607 88.0437C79.7084 89.8541 78.7035 91.2925 77.246 92.3589C75.7893 93.4253 74.1324 93.9585 72.2754 93.9585H65.5769C63.2913 93.9585 61.3388 93.1492 59.7194 91.5305C58.1007 89.911 57.2913 87.9585 57.2913 85.673V84.7918H43.5413V85.673C43.5413 87.9585 42.732 89.911 41.1133 91.5305C39.4939 93.1492 37.5414 93.9585 35.2558 93.9585H28.4335ZM28.6455 87.0835H35.2558C35.6676 87.0835 36.0056 86.9513 36.2699 86.687C36.5342 86.4227 36.6663 86.0847 36.6663 85.673V77.9168H64.1663V85.673C64.1663 86.0847 64.2985 86.4227 64.5628 86.687C64.8271 86.9513 65.1651 87.0835 65.5769 87.0835H72.2754C72.5985 87.0835 72.885 86.9953 73.1348 86.8188C73.3846 86.6424 73.5534 86.3926 73.6412 86.0694L80.4372 63.4793L91.6663 59.6981V43.5418H87.083L71.0413 27.5002C71.0413 26.0602 71.1441 24.5852 71.3496 23.075C71.5551 21.5655 71.8637 20.1523 72.2754 18.8354C70.148 19.4175 68.2222 20.49 66.4981 22.0529C64.7733 23.6158 63.4995 25.4316 62.6768 27.5002H34.3747C29.9441 27.5002 26.1629 29.0661 23.0309 32.1981C19.899 35.33 18.333 39.1113 18.333 43.5418C18.333 46.615 19.1057 51.8491 20.651 59.2443C22.1964 66.6395 24.3765 75.5518 27.1914 85.9812C27.2793 86.3043 27.463 86.569 27.7426 86.7753C28.0214 86.9808 28.3224 87.0835 28.6455 87.0835ZM73.333 49.8875C74.4552 49.8875 75.4115 49.4925 76.2022 48.7027C76.992 47.912 77.387 46.9557 77.387 45.8335C77.387 44.7113 76.992 43.755 76.2022 42.9643C75.4115 42.1745 74.4552 41.7795 73.333 41.7795C72.2109 41.7795 71.2545 42.1745 70.4638 42.9643C69.674 43.755 69.2791 44.7113 69.2791 45.8335C69.2791 46.9557 69.674 47.912 70.4638 48.7027C71.2545 49.4925 72.2109 49.8875 73.333 49.8875ZM56.1455 40.1043C57.121 40.1043 57.9376 39.7751 58.5953 39.1166C59.2538 38.4589 59.583 37.6423 59.583 36.6668C59.583 35.6913 59.2538 34.8747 58.5953 34.217C57.9376 33.5586 57.121 33.2293 56.1455 33.2293H40.1038C39.1284 33.2293 38.3118 33.5586 37.654 34.217C36.9956 34.8747 36.6663 35.6913 36.6663 36.6668C36.6663 37.6423 36.9956 38.4589 37.654 39.1166C38.3118 39.7751 39.1284 40.1043 40.1038 40.1043H56.1455Z" fill="#EF6C00"/>
</g>
</svg>
