<svg width="66" height="54" viewBox="0 0 66 54" fill="none" xmlns="http://www.w3.org/2000/svg">
<path d="M33 42.6C36.6364 42.6 39.7273 41.0833 42.2727 38.05C44.8182 35.0167 46.0909 31.3333 46.0909 27C46.0909 22.6667 44.8182 18.9833 42.2727 15.95C39.7273 12.9167 36.6364 11.4 33 11.4C29.3636 11.4 26.2727 12.9167 23.7273 15.95C21.1818 18.9833 19.9091 22.6667 19.9091 27C19.9091 31.3333 21.1818 35.0167 23.7273 38.05C26.2727 41.0833 29.3636 42.6 33 42.6ZM33 36.36C30.8182 36.36 28.9636 35.45 27.4364 33.63C25.9091 31.81 25.1455 29.6 25.1455 27C25.1455 24.4 25.9091 22.19 27.4364 20.37C28.9636 18.55 30.8182 17.64 33 17.64C35.1818 17.64 37.0364 18.55 38.5636 20.37C40.0909 22.19 40.8545 24.4 40.8545 27C40.8545 29.6 40.0909 31.81 38.5636 33.63C37.0364 35.45 35.1818 36.36 33 36.36ZM33 53C25.9212 53 19.4727 50.6456 13.6545 45.9367C7.83636 41.2278 3.61818 34.9156 1 27C3.61818 19.0844 7.83636 12.7722 13.6545 8.06333C19.4727 3.35444 25.9212 1 33 1C40.0788 1 46.5273 3.35444 52.3455 8.06333C58.1636 12.7722 62.3818 19.0844 65 27C62.3818 34.9156 58.1636 41.2278 52.3455 45.9367C46.5273 50.6456 40.0788 53 33 53ZM33 46.0667C38.4788 46.0667 43.5091 44.3478 48.0909 40.91C52.6727 37.4722 56.1758 32.8356 58.6 27C56.1758 21.1644 52.6727 16.5278 48.0909 13.09C43.5091 9.65222 38.4788 7.93333 33 7.93333C27.5212 7.93333 22.4909 9.65222 17.9091 13.09C13.3273 16.5278 9.82424 21.1644 7.4 27C9.82424 32.8356 13.3273 37.4722 17.9091 40.91C22.4909 44.3478 27.5212 46.0667 33 46.0667Z" fill="#E8EAED" stroke="#E8EAED"/>
</svg>
