<svg width="64" height="64" viewBox="0 0 64 64" fill="none" xmlns="http://www.w3.org/2000/svg">
<circle cx="32" cy="32" r="32" fill="#EF6C00"/>
<path d="M35.4906 37.3951C35.9714 37.3951 36.3886 37.2183 36.7421 36.8648C37.0956 36.5112 37.2724 36.0941 37.2724 35.6133C37.2724 35.1325 37.0956 34.7153 36.7421 34.3617C36.3886 34.0082 35.9714 33.8314 35.4906 33.8314C35.0098 33.8314 34.5926 34.0082 34.2391 34.3617C33.8855 34.7153 33.7088 35.1325 33.7088 35.6133C33.7088 36.0941 33.8855 36.5112 34.2391 36.8648C34.5926 37.2183 35.0098 37.3951 35.4906 37.3951ZM34.2179 31.9648H36.7633C36.7633 31.1446 36.8482 30.5436 37.0179 30.1617C37.1876 29.7799 37.5835 29.2779 38.2057 28.6557C39.0542 27.8072 39.6199 27.1213 39.9027 26.5981C40.1855 26.0749 40.327 25.4597 40.327 24.7527C40.327 23.4799 39.8815 22.4405 38.9906 21.6345C38.0997 20.8284 36.933 20.4254 35.4906 20.4254C34.331 20.4254 33.3199 20.7506 32.4573 21.4011C31.5946 22.0516 30.9936 22.9143 30.6542 23.989L32.9451 24.9224C33.1997 24.2153 33.5461 23.685 33.9845 23.3314C34.4229 22.9779 34.9249 22.8011 35.4906 22.8011C36.1694 22.8011 36.7209 22.992 37.1451 23.3739C37.5694 23.7557 37.7815 24.2718 37.7815 24.9224C37.7815 25.3183 37.6684 25.6931 37.4421 26.0466C37.2158 26.4001 36.8199 26.8456 36.2542 27.383C35.3209 28.2032 34.7482 28.8466 34.536 29.3133C34.3239 29.7799 34.2179 30.6638 34.2179 31.9648ZM25.3088 42.486C24.3754 42.486 23.5764 42.1537 22.9118 41.489C22.2472 40.8244 21.9148 40.0254 21.9148 39.0921V18.7284C21.9148 17.7951 22.2472 16.9961 22.9118 16.3314C23.5764 15.6668 24.3754 15.3345 25.3088 15.3345H45.6724C46.6057 15.3345 47.4047 15.6668 48.0694 16.3314C48.734 16.9961 49.0663 17.7951 49.0663 18.7284V39.0921C49.0663 40.0254 48.734 40.8244 48.0694 41.489C47.4047 42.1537 46.6057 42.486 45.6724 42.486H25.3088ZM25.3088 39.0921H45.6724V18.7284H25.3088V39.0921ZM18.5209 49.2739C17.5876 49.2739 16.7886 48.9415 16.1239 48.2769C15.4593 47.6123 15.127 46.8133 15.127 45.8799V22.1224H18.5209V45.8799H42.2785V49.2739H18.5209Z" fill="#E8EAED"/>
</svg>
