<svg width="64" height="64" viewBox="0 0 64 64" fill="none" xmlns="http://www.w3.org/2000/svg">
<mask id="mask0_1073_4098" style="mask-type:alpha" maskUnits="userSpaceOnUse" x="1" y="0" width="63" height="64">
<rect x="1" width="63" height="64" fill="#D9D9D9"/>
</mask>
<g mask="url(#mask0_1073_4098)">
<path d="M11.6667 58.3333C10.9111 58.3333 10.2778 58.0778 9.76667 57.5667C9.25556 57.0556 9 56.4222 9 55.6667V42.3333C9 40.8667 9.52222 39.6111 10.5667 38.5667C11.6111 37.5222 12.8667 37 14.3333 37V26.3333C14.3333 24.8667 14.8556 23.6111 15.9 22.5667C16.9444 21.5222 18.2 21 19.6667 21H30.3333V17.1333C29.5333 16.6 28.8889 15.9556 28.4 15.2C27.9111 14.4444 27.6667 13.5333 27.6667 12.4667C27.6667 11.8 27.8 11.1444 28.0667 10.5C28.3333 9.85556 28.7333 9.26667 29.2667 8.73333L33 5L36.7333 8.73333C37.2667 9.26667 37.6667 9.85556 37.9333 10.5C38.2 11.1444 38.3333 11.8 38.3333 12.4667C38.3333 13.5333 38.0889 14.4444 37.6 15.2C37.1111 15.9556 36.4667 16.6 35.6667 17.1333V21H46.3333C47.8 21 49.0556 21.5222 50.1 22.5667C51.1444 23.6111 51.6667 24.8667 51.6667 26.3333V37C53.1333 37 54.3889 37.5222 55.4333 38.5667C56.4778 39.6111 57 40.8667 57 42.3333V55.6667C57 56.4222 56.7444 57.0556 56.2333 57.5667C55.7222 58.0778 55.0889 58.3333 54.3333 58.3333H11.6667ZM19.6667 37H46.3333V26.3333H19.6667V37ZM14.3333 53H51.6667V42.3333H14.3333V53Z" fill="#21643F"/>
</g>
</svg>
