<svg width="67" height="67" viewBox="0 0 67 67" fill="none" xmlns="http://www.w3.org/2000/svg">
<path d="M33.5717 65.6352L33.926 65.9798L34.2706 65.6415L38.8454 61.1495L38.8462 61.1487C44.1605 55.9043 48.5548 51.3751 52.0273 47.5621C55.5023 43.7466 58.2693 40.3088 60.3228 37.2502C62.3762 34.1917 63.8147 31.3573 64.6228 28.7488C65.4281 26.1495 65.8114 23.4859 65.7723 20.7597C65.6924 15.1845 63.9071 10.4818 60.3999 6.68735C56.8904 2.89035 52.5428 0.962945 47.391 0.916684C44.5376 0.891062 41.8294 1.52527 39.2723 2.8162C36.895 4.01643 34.8346 5.6837 33.0922 7.81238C31.2884 5.65186 29.1797 3.94715 26.7673 2.70391C24.1726 1.36672 21.4455 0.683707 18.5921 0.658084C13.4403 0.611824 9.14679 2.46163 5.74527 6.19658C2.34603 9.92903 0.695039 14.6009 0.774955 20.1761C0.814031 22.9022 1.27384 25.5734 2.15381 28.1878C3.03693 30.8116 4.55705 33.6725 6.69867 36.7686C8.84046 39.865 11.7067 43.3533 15.292 47.2323C18.8748 51.1086 23.4 55.7178 28.866 61.0591L28.8669 61.0599L33.5717 65.6352Z" fill="#EA3323" stroke="#EA3323"/>
</svg>