<svg width="64" height="64" viewBox="0 0 64 64" fill="none" xmlns="http://www.w3.org/2000/svg">
<g clip-path="url(#clip0_624_2062)">
<mask id="mask0_624_2062" style="mask-type:alpha" maskUnits="userSpaceOnUse" x="0" y="-1" width="64" height="64">
<rect y="-0.707275" width="64" height="62.8772" fill="#D9D9D9"/>
</mask>
<g mask="url(#mask0_624_2062)">
<path d="M4 51.408V43.1264C4 41.5621 4.49848 40.2508 5.49545 39.1926C6.49242 38.1344 7.69091 37.6053 9.09091 37.6053H17.4273C18.2758 37.6053 19.0818 37.8354 19.8455 38.2954C20.6091 38.7555 21.2242 39.3767 21.6909 40.1588C22.9212 41.9532 24.4379 43.3564 26.2409 44.3686C28.0439 45.3808 29.9636 45.8869 32 45.8869C34.0788 45.8869 36.0197 45.3808 37.8227 44.3686C39.6258 43.3564 41.1212 41.9532 42.3091 40.1588C42.8606 39.3767 43.5076 38.7555 44.25 38.2954C44.9924 37.8354 45.7667 37.6053 46.5727 37.6053H54.9091C56.3515 37.6053 57.5606 38.1344 58.5364 39.1926C59.5121 40.2508 60 41.5621 60 43.1264V51.408C60 52.1901 59.7561 52.8458 59.2682 53.3749C58.7803 53.904 58.1758 54.1685 57.4545 54.1685H44.7273C44.0061 54.1685 43.4015 53.904 42.9136 53.3749C42.4258 52.8458 42.1818 52.1901 42.1818 51.408V47.8883C40.697 49.0385 39.0955 49.9127 37.3773 50.5108C35.6591 51.1089 33.8667 51.408 32 51.408C30.1758 51.408 28.3939 51.0974 26.6545 50.4763C24.9152 49.8552 23.303 48.9695 21.8182 47.8193V51.408C21.8182 52.1901 21.5742 52.8458 21.0864 53.3749C20.5985 53.904 19.9939 54.1685 19.2727 54.1685H6.54545C5.82424 54.1685 5.2197 53.904 4.73182 53.3749C4.24394 52.8458 4 52.1901 4 51.408ZM32 43.1264C30.3879 43.1264 28.8606 42.7238 27.4182 41.9186C25.9758 41.1135 24.7667 39.9978 23.7909 38.5715C23.0697 37.4213 22.1682 36.5126 21.0864 35.8455C20.0045 35.1783 18.8273 34.8448 17.5545 34.8448C18.4879 33.1425 20.4606 31.7967 23.4727 30.8075C26.4848 29.8183 29.3273 29.3237 32 29.3237C34.6727 29.3237 37.5152 29.8183 40.5273 30.8075C43.5394 31.7967 45.5121 33.1425 46.4455 34.8448C45.2152 34.8448 44.0485 35.1783 42.9455 35.8455C41.8424 36.5126 40.9303 37.4213 40.2091 38.5715C39.2758 40.0438 38.0879 41.171 36.6455 41.9532C35.203 42.7353 33.6545 43.1264 32 43.1264ZM11.6364 34.8448C9.51515 34.8448 7.71212 34.0396 6.22727 32.4293C4.74242 30.819 4 28.8636 4 26.5632C4 24.2167 4.74242 22.2499 6.22727 20.6626C7.71212 19.0752 9.51515 18.2816 11.6364 18.2816C13.8 18.2816 15.6136 19.0752 17.0773 20.6626C18.5409 22.2499 19.2727 24.2167 19.2727 26.5632C19.2727 28.8636 18.5409 30.819 17.0773 32.4293C15.6136 34.0396 13.8 34.8448 11.6364 34.8448ZM52.3636 34.8448C50.2424 34.8448 48.4394 34.0396 46.9545 32.4293C45.4697 30.819 44.7273 28.8636 44.7273 26.5632C44.7273 24.2167 45.4697 22.2499 46.9545 20.6626C48.4394 19.0752 50.2424 18.2816 52.3636 18.2816C54.5273 18.2816 56.3409 19.0752 57.8045 20.6626C59.2682 22.2499 60 24.2167 60 26.5632C60 28.8636 59.2682 30.819 57.8045 32.4293C56.3409 34.0396 54.5273 34.8448 52.3636 34.8448ZM32 26.5632C29.8788 26.5632 28.0758 25.758 26.5909 24.1477C25.1061 22.5374 24.3636 20.582 24.3636 18.2816C24.3636 15.9351 25.1061 13.9683 26.5909 12.381C28.0758 10.7937 29.8788 10 32 10C34.1636 10 35.9773 10.7937 37.4409 12.381C38.9045 13.9683 39.6364 15.9351 39.6364 18.2816C39.6364 20.582 38.9045 22.5374 37.4409 24.1477C35.9773 25.758 34.1636 26.5632 32 26.5632Z" fill="#E56C25"/>
</g>
</g>
<defs>
<clipPath id="clip0_624_2062">
<rect width="64" height="64" fill="white"/>
</clipPath>
</defs>
</svg>
