<svg width="64" height="64" viewBox="0 0 64 64" fill="none" xmlns="http://www.w3.org/2000/svg">
<path d="M29.2 48.8C34.6133 48.8 39.2333 46.8983 43.06 43.095C46.8867 39.2917 48.8 34.66 48.8 29.2C48.8 23.7867 46.8867 19.1667 43.06 15.34C39.2333 11.5133 34.6133 9.6 29.2 9.6C23.74 9.6 19.1083 11.5133 15.305 15.34C11.5017 19.1667 9.6 23.7867 9.6 29.2C9.6 34.66 11.5017 39.2917 15.305 43.095C19.1083 46.8983 23.74 48.8 29.2 48.8ZM29.2 40.4C25.3267 40.4 21.885 39.3617 18.875 37.285C15.865 35.2083 13.7067 32.5133 12.4 29.2C13.7067 25.9333 15.865 23.25 18.875 21.15C21.885 19.05 25.3267 18 29.2 18C33.0267 18 36.445 19.05 39.455 21.15C42.465 23.25 44.6467 25.9333 46 29.2C44.6467 32.5133 42.465 35.2083 39.455 37.285C36.445 39.3617 33.0267 40.4 29.2 40.4ZM29.2 36.2C31.7667 36.2 34.1233 35.5817 36.27 34.345C38.4167 33.1083 40.0967 31.3933 41.31 29.2C40.0967 27.0533 38.4167 25.35 36.27 24.09C34.1233 22.83 31.7667 22.2 29.2 22.2C26.5867 22.2 24.2067 22.83 22.06 24.09C19.9133 25.35 18.2333 27.0533 17.02 29.2C18.2333 31.3933 19.9133 33.1083 22.06 34.345C24.2067 35.5817 26.5867 36.2 29.2 36.2ZM29.2 33.4C30.3667 33.4 31.3583 33.0033 32.175 32.21C32.9917 31.4167 33.4 30.4133 33.4 29.2C33.4 28.0333 32.9917 27.0417 32.175 26.225C31.3583 25.4083 30.3667 25 29.2 25C27.9867 25 26.9833 25.4083 26.19 26.225C25.3967 27.0417 25 28.0333 25 29.2C25 30.4133 25.3967 31.4167 26.19 32.21C26.9833 33.0033 27.9867 33.4 29.2 33.4ZM29.2 54.4C25.7 54.4 22.4217 53.735 19.365 52.405C16.3083 51.075 13.6483 49.2783 11.385 47.015C9.12167 44.7517 7.325 42.0917 5.995 39.035C4.665 35.9783 4 32.7 4 29.2C4 25.7467 4.665 22.4917 5.995 19.435C7.325 16.3783 9.12167 13.7067 11.385 11.42C13.6483 9.13333 16.3083 7.325 19.365 5.995C22.4217 4.665 25.7 4 29.2 4C32.6533 4 35.9083 4.665 38.965 5.995C42.0217 7.325 44.6933 9.13333 46.98 11.42C49.2667 13.7067 51.075 16.3783 52.405 19.435C53.735 22.4917 54.4 25.7467 54.4 29.2C54.4 32.1867 53.91 35.01 52.93 37.67C51.95 40.33 50.5967 42.7567 48.87 44.95L60 56.08L56.01 60L44.88 48.94C42.6867 50.6667 40.26 52.0083 37.6 52.965C34.94 53.9217 32.14 54.4 29.2 54.4Z" fill="#00B8F1"/>
</svg>
