<svg width="67" height="67" viewBox="0 0 67 67" fill="none" xmlns="http://www.w3.org/2000/svg">
<path d="M33.4549 65.6778L33.8086 66.0228L34.1537 65.685L38.7367 61.199L38.7376 61.1981C44.0614 55.9605 48.4638 51.4371 51.9433 47.6286C55.4252 43.8175 58.1984 40.3833 60.2575 37.3273C62.3164 34.2715 63.76 31.4389 64.5729 28.8314C65.3828 26.2332 65.771 23.5701 65.7368 20.8439C65.667 15.2685 63.8901 10.5635 60.3899 6.76441C56.8872 2.96284 52.543 1.02979 47.3913 0.976846C44.5379 0.947524 41.8286 1.57823 39.2692 2.86584C36.8896 4.063 34.8263 5.72761 33.08 7.85404C31.2801 5.69117 29.1745 3.98371 26.7643 2.73733C24.172 1.39678 21.4462 0.71022 18.5928 0.680897C13.4411 0.627955 9.14418 2.4722 5.73589 6.20276C2.32988 9.93082 0.670435 14.6006 0.740266 20.1759C0.774411 22.9021 1.22939 25.5739 2.10464 28.1895C2.98302 30.8144 4.49797 33.6773 6.63399 36.7762C8.77019 39.8754 11.6302 43.3674 15.2084 47.2511C18.7842 51.132 23.3011 55.7472 28.7575 61.0955L28.7583 61.0964L33.4549 65.6778ZM36.2344 17.0305L36.594 17.0342L36.7041 16.6945C37.4407 14.4231 38.8178 12.5601 40.852 11.099C42.886 9.63806 45.0951 8.92707 47.4912 8.9517C50.5532 8.98316 53.0992 10.1146 55.164 12.3556C57.2313 14.5993 58.2949 17.3912 58.3372 20.7678C58.3619 22.7398 58.0252 24.7275 57.322 26.7332C56.6221 28.7292 55.3462 31.0275 53.4746 33.6312C51.6033 36.2347 49.0431 39.3017 45.7889 42.8343C42.6092 46.2859 38.5711 50.4104 33.6731 55.2086C28.6537 50.3085 24.5113 46.0999 21.2443 42.582C17.9007 38.9817 15.263 35.8612 13.326 33.2187C11.3887 30.5757 10.0549 28.2507 9.30484 26.2397C8.55118 24.219 8.16457 22.2239 8.13988 20.252C8.09758 16.8754 9.09159 14.1046 11.1032 11.9028C13.1124 9.70364 15.6307 8.62428 18.6927 8.65575C21.0887 8.68037 23.3163 9.43695 25.3874 10.9401C27.4587 12.4434 28.8828 14.3351 29.6765 16.6223L29.7952 16.9643L30.1547 16.968L36.2344 17.0305Z" fill="#127A12" stroke="#127A12"/>
</svg>
