<svg width="110" height="110" viewBox="0 0 110 110" fill="none" xmlns="http://www.w3.org/2000/svg">
<mask id="mask0_624_2076" style="mask-type:alpha" maskUnits="userSpaceOnUse" x="0" y="0" width="110" height="110">
<rect width="110" height="110" fill="#D9D9D9"/>
</mask>
<g mask="url(#mask0_624_2076)">
<path d="M55 95.9855C53.1606 95.9855 51.5342 95.5008 50.121 94.5314C48.7079 93.5613 47.7194 92.289 47.1556 90.7147H45.8333C43.9588 90.7147 42.3443 90.0375 40.9899 88.6831C39.6355 87.3287 38.9583 85.7142 38.9583 83.8397V68.8029C34.3338 66.0002 30.695 62.2426 28.042 57.5302C25.389 52.817 24.0625 47.7722 24.0625 42.396C24.0625 33.7702 27.0623 26.4575 33.0619 20.4579C39.0615 14.4583 46.3742 11.4585 55 11.4585C63.6258 11.4585 70.9385 14.4583 76.9381 20.4579C82.9377 26.4575 85.9375 33.7702 85.9375 42.396C85.9375 47.8662 84.611 52.9342 81.958 57.6001C79.305 62.2659 75.6663 66.0002 71.0417 68.8029V83.8397C71.0417 85.7142 70.3645 87.3287 69.0101 88.6831C67.6557 90.0375 66.0413 90.7147 64.1667 90.7147H62.8444C62.2806 92.289 61.2922 93.5613 59.879 94.5314C58.4658 95.5008 56.8394 95.9855 55 95.9855ZM45.8333 83.8397H64.1667V79.5382H45.8333V83.8397ZM45.8333 75.4842H64.1667V71.0418H45.8333V75.4842ZM44.9167 64.1668H52.2672V50.8225L44.3701 42.9242C43.8293 42.3842 43.5516 41.7513 43.5371 41.0256C43.5226 40.2999 43.8002 39.6521 44.3701 39.0823C44.94 38.5124 45.5805 38.2275 46.2917 38.2275C47.0028 38.2275 47.6434 38.5124 48.2132 39.0823L55 45.869L61.7868 39.0823C62.3276 38.5414 62.9609 38.2637 63.6866 38.2492C64.4123 38.2347 65.06 38.5124 65.6299 39.0823C66.1998 39.6521 66.4847 40.2926 66.4847 41.0038C66.4847 41.7142 66.1998 42.3544 65.6299 42.9242L57.7328 50.8225V64.1668H65.0833C69.2083 62.1807 72.5694 59.2588 75.1667 55.4012C77.7639 51.5436 79.0625 47.2085 79.0625 42.396C79.0625 35.6738 76.7326 29.9828 72.0729 25.3231C67.4132 20.6634 61.7222 18.3335 55 18.3335C48.2778 18.3335 42.5868 20.6634 37.9271 25.3231C33.2674 29.9828 30.9375 35.6738 30.9375 42.396C30.9375 47.2085 32.2361 51.5436 34.8333 55.4012C37.4306 59.2588 40.7917 62.1807 44.9167 64.1668Z" fill="#EF6C00"/>
</g>
</svg>
