<svg width="64" height="64" viewBox="0 0 64 64" fill="none" xmlns="http://www.w3.org/2000/svg">
<circle cx="32" cy="32" r="32" fill="#D32F2F"/>
<path d="M26.5004 52L25.7004 45.6C25.2671 45.4333 24.8587 45.2333 24.4754 45C24.0921 44.7667 23.7171 44.5167 23.3504 44.25L17.4004 46.75L11.9004 37.25L17.0504 33.35C17.0171 33.1167 17.0004 32.8917 17.0004 32.675V31.325C17.0004 31.1083 17.0171 30.8833 17.0504 30.65L11.9004 26.75L17.4004 17.25L23.3504 19.75C23.7171 19.4833 24.1004 19.2333 24.5004 19C24.9004 18.7667 25.3004 18.5667 25.7004 18.4L26.5004 12H37.5004L38.3004 18.4C38.7337 18.5667 39.1421 18.7667 39.5254 19C39.9087 19.2333 40.2837 19.4833 40.6504 19.75L46.6004 17.25L52.1004 26.75L46.9504 30.65C46.9837 30.8833 47.0004 31.1083 47.0004 31.325V32.675C47.0004 32.8917 46.9671 33.1167 46.9004 33.35L52.0504 37.25L46.5504 46.75L40.6504 44.25C40.2837 44.5167 39.9004 44.7667 39.5004 45C39.1004 45.2333 38.7004 45.4333 38.3004 45.6L37.5004 52H26.5004ZM30.0004 48H33.9504L34.6504 42.7C35.6837 42.4333 36.6421 42.0417 37.5254 41.525C38.4087 41.0083 39.2171 40.3833 39.9504 39.65L44.9004 41.7L46.8504 38.3L42.5504 35.05C42.7171 34.5833 42.8337 34.0917 42.9004 33.575C42.9671 33.0583 43.0004 32.5333 43.0004 32C43.0004 31.4667 42.9671 30.9417 42.9004 30.425C42.8337 29.9083 42.7171 29.4167 42.5504 28.95L46.8504 25.7L44.9004 22.3L39.9504 24.4C39.2171 23.6333 38.4087 22.9917 37.5254 22.475C36.6421 21.9583 35.6837 21.5667 34.6504 21.3L34.0004 16H30.0504L29.3504 21.3C28.3171 21.5667 27.3587 21.9583 26.4754 22.475C25.5921 22.9917 24.7837 23.6167 24.0504 24.35L19.1004 22.3L17.1504 25.7L21.4504 28.9C21.2837 29.4 21.1671 29.9 21.1004 30.4C21.0337 30.9 21.0004 31.4333 21.0004 32C21.0004 32.5333 21.0337 33.05 21.1004 33.55C21.1671 34.05 21.2837 34.55 21.4504 35.05L17.1504 38.3L19.1004 41.7L24.0504 39.6C24.7837 40.3667 25.5921 41.0083 26.4754 41.525C27.3587 42.0417 28.3171 42.4333 29.3504 42.7L30.0004 48ZM32.1004 39C34.0337 39 35.6837 38.3167 37.0504 36.95C38.4171 35.5833 39.1004 33.9333 39.1004 32C39.1004 30.0667 38.4171 28.4167 37.0504 27.05C35.6837 25.6833 34.0337 25 32.1004 25C30.1337 25 28.4754 25.6833 27.1254 27.05C25.7754 28.4167 25.1004 30.0667 25.1004 32C25.1004 33.9333 25.7754 35.5833 27.1254 36.95C28.4754 38.3167 30.1337 39 32.1004 39Z" fill="#E8EAED"/>
</svg>
