<svg width="64" height="64" viewBox="0 0 64 64" fill="none" xmlns="http://www.w3.org/2000/svg">
<circle cx="32" cy="32" r="32" fill="#2E7D32"/>
<path d="M32.0004 47.9203C34.4246 47.9203 36.4852 47.0718 38.1822 45.3749C39.8792 43.6779 40.7277 41.6173 40.7277 39.193C40.7277 36.7688 39.8792 34.7082 38.1822 33.0112C36.4852 31.3143 34.4246 30.4658 32.0004 30.4658C29.5761 30.4658 27.5155 31.3143 25.8186 33.0112C24.1216 34.7082 23.2731 36.7688 23.2731 39.193C23.2731 41.6173 24.1216 43.6779 25.8186 45.3749C27.5155 47.0718 29.5761 47.9203 32.0004 47.9203ZM26.3277 27.9446C26.9741 27.589 27.661 27.3062 28.3883 27.0961C29.1155 26.886 29.8509 26.7486 30.5943 26.684L25.6974 16.89H20.8489L26.3277 27.9446ZM37.6731 27.9446L43.2004 16.89H38.3034L34.1822 25.1324L35.1034 26.9749C35.5559 27.1042 35.9923 27.2415 36.4125 27.387C36.8327 27.5324 37.2529 27.7183 37.6731 27.9446ZM21.1398 45.5931C20.5903 44.6557 20.162 43.6456 19.8549 42.5627C19.5479 41.4799 19.3943 40.3567 19.3943 39.193C19.3943 38.0294 19.5479 36.9062 19.8549 35.8234C20.162 34.7405 20.5903 33.7304 21.1398 32.793C19.7822 33.2456 18.6671 34.0456 17.7943 35.193C16.9216 36.3405 16.4852 37.6739 16.4852 39.193C16.4852 40.7122 16.9216 42.0456 17.7943 43.1931C18.6671 44.3405 19.7822 45.1405 21.1398 45.5931ZM42.861 45.5931C44.2186 45.1405 45.3337 44.3405 46.2064 43.1931C47.0792 42.0456 47.5155 40.7122 47.5155 39.193C47.5155 37.6739 47.0792 36.3405 46.2064 35.193C45.3337 34.0456 44.2186 33.2456 42.861 32.793C43.4105 33.7304 43.8388 34.7405 44.1458 35.8234C44.4529 36.9062 44.6064 38.0294 44.6064 39.193C44.6064 40.3567 44.4529 41.4799 44.1458 42.5627C43.8388 43.6456 43.4105 44.6557 42.861 45.5931ZM32.0004 51.7991C30.7075 51.7991 29.4711 51.6133 28.2913 51.2415C27.1115 50.8698 26.0206 50.3607 25.0186 49.7143C24.7277 49.7789 24.4367 49.8193 24.1458 49.8355C23.8549 49.8516 23.5479 49.8597 23.2246 49.8597C20.2832 49.8597 17.7782 48.8254 15.7095 46.7567C13.6408 44.688 12.6064 42.1829 12.6064 39.2415C12.6064 36.4294 13.5438 34.0213 15.4186 32.0173C17.2933 30.0133 19.6044 28.8981 22.3519 28.6718L14.5458 13.0112H28.1216L32.0004 20.7688L35.8792 13.0112H49.4549L41.6974 28.5749C44.4448 28.8335 46.7479 29.9648 48.6064 31.9688C50.465 33.9728 51.3943 36.3809 51.3943 39.193C51.3943 42.1668 50.36 44.688 48.2913 46.7567C46.2226 48.8254 43.7014 49.8597 40.7277 49.8597C40.4367 49.8597 40.1378 49.8516 39.8307 49.8355C39.5236 49.8193 39.2246 49.7789 38.9337 49.7143C37.9317 50.3607 36.8489 50.8698 35.6852 51.2415C34.5216 51.6133 33.2933 51.7991 32.0004 51.7991ZM28.4125 44.5264L29.7701 40.1143L26.1822 37.5446H30.5943L32.0004 32.89L33.4064 37.5446H37.8186L34.2307 40.1143L35.5883 44.5264L32.0004 41.8112L28.4125 44.5264Z" fill="#E8EAED"/>
</svg>
