<svg width="64" height="64" viewBox="0 0 64 64" fill="none" xmlns="http://www.w3.org/2000/svg">
<path d="M32 60C28.1267 60 24.4867 59.265 21.08 57.795C17.6733 56.325 14.71 54.33 12.19 51.81C9.67 49.29 7.675 46.3267 6.205 42.92C4.735 39.5133 4 35.8733 4 32C4 28.1267 4.735 24.4867 6.205 21.08C7.675 17.6733 9.67 14.71 12.19 12.19C14.71 9.67 17.6733 7.675 21.08 6.205C24.4867 4.735 28.1267 4 32 4C35.8733 4 39.5133 4.735 42.92 6.205C46.3267 7.675 49.29 9.67 51.81 12.19C54.33 14.71 56.325 17.6733 57.795 21.08C59.265 24.4867 60 28.1267 60 32C60 35.8733 59.265 39.5133 57.795 42.92C56.325 46.3267 54.33 49.29 51.81 51.81C49.29 54.33 46.3267 56.325 42.92 57.795C39.5133 59.265 35.8733 60 32 60ZM32 54.4C38.2533 54.4 43.55 52.23 47.89 47.89C52.23 43.55 54.4 38.2533 54.4 32C54.4 25.7467 52.23 20.45 47.89 16.11C43.55 11.77 38.2533 9.6 32 9.6C25.7467 9.6 20.45 11.77 16.11 16.11C11.77 20.45 9.6 25.7467 9.6 32C9.6 38.2533 11.77 43.55 16.11 47.89C20.45 52.23 25.7467 54.4 32 54.4ZM32 48.8C27.3333 48.8 23.3667 47.1667 20.1 43.9C16.8333 40.6333 15.2 36.6667 15.2 32C15.2 27.3333 16.8333 23.3667 20.1 20.1C23.3667 16.8333 27.3333 15.2 32 15.2C36.6667 15.2 40.6333 16.8333 43.9 20.1C47.1667 23.3667 48.8 27.3333 48.8 32C48.8 36.6667 47.1667 40.6333 43.9 43.9C40.6333 47.1667 36.6667 48.8 32 48.8ZM32 43.2C35.08 43.2 37.7167 42.1033 39.91 39.91C42.1033 37.7167 43.2 35.08 43.2 32C43.2 28.92 42.1033 26.2833 39.91 24.09C37.7167 21.8967 35.08 20.8 32 20.8C28.92 20.8 26.2833 21.8967 24.09 24.09C21.8967 26.2833 20.8 28.92 20.8 32C20.8 35.08 21.8967 37.7167 24.09 39.91C26.2833 42.1033 28.92 43.2 32 43.2ZM32 37.6C30.46 37.6 29.1417 37.0517 28.045 35.955C26.9483 34.8583 26.4 33.54 26.4 32C26.4 30.46 26.9483 29.1417 28.045 28.045C29.1417 26.9483 30.46 26.4 32 26.4C33.54 26.4 34.8583 26.9483 35.955 28.045C37.0517 29.1417 37.6 30.46 37.6 32C37.6 33.54 37.0517 34.8583 35.955 35.955C34.8583 37.0517 33.54 37.6 32 37.6Z" fill="#FF9D30"/>
</svg>
