<svg width="64" height="64" viewBox="0 0 64 64" fill="none" xmlns="http://www.w3.org/2000/svg">
<circle cx="32" cy="32" r="32" fill="#2196F3"/>
<path d="M32.0004 55.2727L29.0476 52.3874C25.6197 49.0212 22.7858 46.1174 20.5458 43.676C18.3058 41.2345 16.524 39.0428 15.2004 37.1008C13.8767 35.1587 12.9519 33.3739 12.4258 31.7463C11.8997 30.1187 11.6367 28.4541 11.6367 26.7525C11.6367 23.2753 12.7058 20.3715 14.844 18.0411C16.9822 15.7106 19.6464 14.5454 22.8367 14.5454C24.6016 14.5454 26.2816 14.9523 27.8767 15.7661C29.4719 16.5799 30.8464 17.7267 32.0004 19.2063C33.1543 17.7267 34.5288 16.5799 36.124 15.7661C37.7191 14.9523 39.3991 14.5454 41.164 14.5454C44.3543 14.5454 47.0185 15.7106 49.1567 18.0411C51.2949 20.3715 52.364 23.2753 52.364 26.7525C52.364 28.4541 52.101 30.1187 51.5749 31.7463C51.0488 33.3739 50.124 35.1587 48.8004 37.1008C47.4767 39.0428 45.6949 41.2345 43.4549 43.676C41.2149 46.1174 38.381 49.0212 34.9531 52.3874L32.0004 55.2727ZM32.0004 49.2801C35.2585 46.0989 37.9397 43.3708 40.044 41.0958C42.1482 38.8209 43.8113 36.8418 45.0331 35.1587C46.2549 33.4756 47.1034 31.9775 47.5785 30.6643C48.0537 29.3511 48.2913 28.0472 48.2913 26.7525C48.2913 24.533 47.6125 22.6835 46.2549 21.2038C44.8973 19.7242 43.2004 18.9843 41.164 18.9843C39.5688 18.9843 38.0925 19.4745 36.7349 20.4547C35.3773 21.435 34.444 22.6835 33.9349 24.2001H30.0658C29.5567 22.6835 28.6234 21.435 27.2658 20.4547C25.9082 19.4745 24.4319 18.9843 22.8367 18.9843C20.8004 18.9843 19.1034 19.7242 17.7458 21.2038C16.3882 22.6835 15.7094 24.533 15.7094 26.7525C15.7094 28.0472 15.947 29.3511 16.4222 30.6643C16.8973 31.9775 17.7458 33.4756 18.9676 35.1587C20.1894 36.8418 21.8525 38.8209 23.9567 41.0958C26.061 43.3708 28.7422 46.0989 32.0004 49.2801Z" fill="#E8EAED" stroke="#E8EAED"/>
</svg>
