<svg width="67" height="67" viewBox="0 0 67 67" fill="none" xmlns="http://www.w3.org/2000/svg">
<path d="M33.5717 65.6352L33.926 65.9798L34.2705 65.6415L38.8454 61.1495L38.8462 61.1487C44.1605 55.9043 48.5548 51.3751 52.0273 47.5621C55.5023 43.7466 58.2693 40.3088 60.3228 37.2502C62.3762 34.1917 63.8147 31.3573 64.6228 28.7488C65.4281 26.1495 65.8114 23.4859 65.7723 20.7597C65.6924 15.1845 63.9071 10.4818 60.3999 6.68735C56.8904 2.89034 52.5428 0.962945 47.391 0.916684C44.5376 0.891062 41.8294 1.52527 39.2723 2.8162C36.895 4.01643 34.8346 5.6837 33.0922 7.81238C31.2884 5.65186 29.1797 3.94715 26.7673 2.70391C24.1726 1.36672 21.4455 0.683707 18.5921 0.658084C13.4403 0.611824 9.14679 2.46163 5.74527 6.19658C2.34603 9.92903 0.695039 14.6009 0.774955 20.1761C0.814031 22.9022 1.27384 25.5734 2.15381 28.1878C3.03693 30.8116 4.55705 33.6725 6.69867 36.7686C8.84046 39.865 11.7067 43.3533 15.292 47.2323C18.8748 51.1086 23.4 55.7178 28.866 61.0591L28.8669 61.0599L33.5717 65.6352ZM36.2632 16.9847L36.6228 16.9879L36.7323 16.6481C37.4648 14.3757 38.8385 12.511 40.87 11.0472C42.9013 9.58367 45.1092 8.86983 47.5053 8.89134C50.5673 8.91884 53.1153 10.0469 55.1842 12.2853C57.2555 14.5263 58.3242 17.3168 58.3726 20.6933C58.4009 22.6652 58.0678 24.6533 57.3682 26.6599C56.6719 28.6569 55.4002 30.9567 53.5333 33.5629C51.6667 36.1688 49.1121 39.2391 45.8643 42.7758C42.6908 46.2316 38.6602 50.3613 33.771 55.1658C28.7428 50.2722 24.5927 46.0691 21.3194 42.5554C17.9693 38.9595 15.326 35.8424 13.3842 33.2024C11.4421 30.562 10.1041 28.2387 9.35045 26.2287C8.59313 24.2091 8.20292 22.2144 8.17466 20.2425C8.12626 16.8661 9.11524 14.094 11.1228 11.8896C13.1281 9.68786 15.6444 8.60525 18.7064 8.63274C21.1025 8.65426 23.3314 9.40794 25.4052 10.9084C27.4793 12.409 28.9068 14.2989 29.7046 16.585L29.8239 16.9269L30.1834 16.9301L36.2632 16.9847Z" fill="#EA3323" stroke="#EA3323"/>
</svg>
