<svg width="64" height="64" viewBox="0 0 64 64" fill="none" xmlns="http://www.w3.org/2000/svg">
<path d="M46.6667 60H17.3333V23.6L36 4L39.3333 7.5C39.6444 7.82667 39.9 8.27 40.1 8.83C40.3 9.39 40.4 9.92667 40.4 10.44V11.42L37.4667 23.6H54.6667C56.0889 23.6 57.3333 24.16 58.4 25.28C59.4667 26.4 60 27.7067 60 29.2V34.8C60 35.1267 59.9556 35.4767 59.8667 35.85C59.7778 36.2233 59.6889 36.5733 59.6 36.9L51.6 56.64C51.2 57.5733 50.5333 58.3667 49.6 59.02C48.6667 59.6733 47.6889 60 46.6667 60ZM22.6667 54.4H46.6667L54.6667 34.8V29.2H30.6667L34.2667 13.8L22.6667 25.98V54.4ZM17.3333 23.6V29.2H9.33333V54.4H17.3333V60H4V23.6H17.3333Z" fill="#44AA68"/>
</svg>
