<svg width="64" height="64" viewBox="0 0 64 64" fill="none" xmlns="http://www.w3.org/2000/svg">
<path d="M11 51.7503L17.9125 49.5131C17.3292 48.1615 16.7896 46.7865 16.2937 45.3883C15.7979 43.99 15.4042 42.5918 15.1125 41.1935L11 43.4307V51.7503ZM25 48.814H39C40.05 46.9496 40.8958 44.6775 41.5375 41.9975C42.1792 39.3175 42.5 36.5793 42.5 33.7828C42.5 29.1685 41.5375 24.799 39.6125 20.6742C37.6875 16.5493 35.15 13.3683 32 11.1311C28.85 13.3683 26.3125 16.5493 24.3875 20.6742C22.4625 24.799 21.5 29.1685 21.5 33.7828C21.5 36.5793 21.8208 39.3175 22.4625 41.9975C23.1042 44.6775 23.95 46.9496 25 48.814ZM32 34.8315C30.075 34.8315 28.4271 34.2838 27.0562 33.1885C25.6854 32.0932 25 30.7765 25 29.2385C25 27.7004 25.6854 26.3837 27.0562 25.2884C28.4271 24.1931 30.075 23.6454 32 23.6454C33.925 23.6454 35.5729 24.1931 36.9437 25.2884C38.3146 26.3837 39 27.7004 39 29.2385C39 30.7765 38.3146 32.0932 36.9437 33.1885C35.5729 34.2838 33.925 34.8315 32 34.8315ZM53 51.7503V43.4307L48.8875 41.1935C48.5958 42.5918 48.2021 43.99 47.7062 45.3883C47.2104 46.7865 46.6708 48.1615 46.0875 49.5131L53 51.7503ZM32 4C37.775 7.35581 42.1354 11.6205 45.0812 16.794C48.0271 21.9675 49.5 27.98 49.5 34.8315L56.85 38.7466C57.8417 39.2593 58.6146 39.9351 59.1687 40.774C59.7229 41.613 60 42.4985 60 43.4307V60L42.5875 54.407H21.4125L4 60V43.4307C4 42.4985 4.27708 41.613 4.83125 40.774C5.38542 39.9351 6.15833 39.2593 7.15 38.7466L14.5 34.8315C14.5 27.98 15.9729 21.9675 18.9187 16.794C21.8646 11.6205 26.225 7.35581 32 4Z" fill="#95B334"/>
</svg>
