<svg width="64" height="64" viewBox="0 0 64 64" fill="none" xmlns="http://www.w3.org/2000/svg">
<mask id="mask0_618_1707" style="mask-type:alpha" maskUnits="userSpaceOnUse" x="0" y="0" width="64" height="64">
<rect width="64" height="64" fill="#D9D9D9"/>
</mask>
<g mask="url(#mask0_618_1707)">
<path d="M15.488 59.6341C13.872 59.6341 12.4887 59.0587 11.338 57.9081C10.1869 56.757 9.61133 55.3734 9.61133 53.7574V26.3334C9.61133 24.7103 10.1869 23.321 11.338 22.1654C12.4887 21.0098 13.872 20.4321 15.488 20.4321H18.6467V15.3041C18.6467 11.5654 19.9436 8.38629 22.5373 5.76674C25.1311 3.14718 28.2849 1.8374 31.9987 1.8374C35.7124 1.8374 38.8667 3.14718 41.4613 5.76674C44.056 8.38629 45.3533 11.5654 45.3533 15.3041V20.4321H48.512C50.1351 20.4321 51.5244 21.0098 52.68 22.1654C53.8356 23.321 54.4133 24.7103 54.4133 26.3334V53.7574C54.4133 55.3734 53.8356 56.757 52.68 57.9081C51.5244 59.0587 50.1351 59.6341 48.512 59.6341H15.488ZM15.488 53.7574H48.512V26.3334H15.488V53.7574ZM32.0073 45.2454C33.4393 45.2454 34.6629 44.745 35.678 43.7441C36.6927 42.7432 37.2 41.5398 37.2 40.1341C37.2 38.7563 36.69 37.5305 35.67 36.4567C34.6504 35.3825 33.4247 34.8454 31.9927 34.8454C30.5607 34.8454 29.3371 35.3825 28.322 36.4567C27.3073 37.5305 26.8 38.7638 26.8 40.1567C26.8 41.5492 27.31 42.7454 28.33 43.7454C29.3496 44.7454 30.5753 45.2454 32.0073 45.2454ZM24.5227 20.4321H39.4773V15.3101C39.4773 13.1865 38.7571 11.3938 37.3167 9.93207C35.8767 8.47029 34.1082 7.7394 32.0113 7.7394C29.9144 7.7394 28.142 8.47029 26.694 9.93207C25.2464 11.3938 24.5227 13.1865 24.5227 15.3101V20.4321Z" fill="#21643F"/>
</g>
</svg>
