<svg width="296" height="43" viewBox="0 0 296 43" fill="none" xmlns="http://www.w3.org/2000/svg">
<path d="M188.606 27.0985C187.149 26.7427 186.271 26.0236 185.982 24.9495C185.886 24.602 185.789 24.1041 185.714 23.4639C185.189 19.0637 184.879 14.8048 184.782 10.6889C184.782 10.1835 185.286 9.81185 185.96 9.78857C186.646 9.79606 187.149 10.1602 187.182 10.6573C187.235 13.0673 187.353 15.3028 187.514 17.3803C187.685 19.4503 187.889 21.5045 188.135 23.5429C188.199 24.1988 188.317 24.6569 188.489 24.9337C188.671 25.2106 188.981 25.3602 189.442 25.4001C189.603 25.4159 189.807 25.4242 190.031 25.4242C190.416 25.4242 190.888 25.4001 191.456 25.361H191.52C191.83 25.361 192.109 25.4325 192.344 25.5822C192.612 25.7559 192.74 25.9696 192.74 26.2298C192.74 26.6961 192.301 27.0827 191.626 27.1226C191.583 27.1226 191.54 27.1226 191.508 27.1309C190.576 27.1783 189.933 27.2024 189.57 27.2024C189.206 27.2024 188.873 27.1708 188.605 27.0993L188.606 27.0985Z" fill="black"/>
<path d="M209.004 25.3927C209.004 24.7368 208.982 23.9312 208.951 22.9594C205.555 23.2836 202.588 23.528 200.071 23.686C200.071 23.9387 200.082 24.1914 200.092 24.4442V24.4674C200.092 24.6969 199.996 24.9022 199.793 25.076C199.568 25.2738 199.279 25.3686 198.936 25.3686C198.294 25.3686 197.747 25.0369 197.694 24.5314L197.672 23.8439H197.629C197.425 23.8439 197.254 23.7334 197.222 23.5671L197.104 22.3741C197.104 22.2237 197.254 22.0973 197.479 22.074L197.725 22.0657C198.079 17.8235 199.932 13.794 203.274 9.9624C203.478 9.74875 203.746 9.63818 204.078 9.63818C204.26 9.63818 204.442 9.67809 204.624 9.76455L205.288 9.21919C205.492 9.06872 205.717 8.98975 205.985 8.98975H206.209C206.348 8.98975 206.519 9.06872 206.723 9.23499C208.63 10.9018 209.936 13.4224 210.633 16.7959C211.147 19.3007 211.404 22.168 211.404 25.3836C211.393 25.889 210.879 26.2606 210.204 26.2681C209.519 26.2598 209.015 25.889 209.005 25.391L209.004 25.3927ZM208.832 21.1895C208.426 16.2356 207.268 12.7756 205.373 10.8237C202.277 14.3393 200.543 18.0288 200.146 21.9078C202.662 21.7415 205.565 21.5046 208.832 21.1887V21.1895Z" fill="black"/>
<path d="M219.557 25.5743C219.45 20.6836 219.172 16.4729 218.722 12.9256C218.583 11.8042 218.508 10.9429 218.508 10.3344C218.508 10.129 218.53 9.84471 218.561 9.4889C218.605 9.13309 218.915 8.86458 219.482 8.69083C219.739 8.60354 219.986 8.55615 220.232 8.55615C220.36 8.55615 220.542 8.58026 220.788 8.63512C221.035 8.68251 221.303 8.7856 221.581 8.93524C221.86 9.08571 222.063 9.20376 222.203 9.30684C223.992 10.5314 225.566 11.9222 226.927 13.4784C228.287 15.0347 229.369 16.6466 230.172 18.3135L230.269 17.7606C230.708 15.5327 231.008 13.9207 231.147 12.9173C231.19 12.7036 231.319 12.5224 231.523 12.3719C231.747 12.2057 232.015 12.1267 232.305 12.1267C232.669 12.1267 232.969 12.2215 233.215 12.4035C233.429 12.5698 233.536 12.7751 233.536 13.0196C233.536 13.2332 233.236 14.8917 232.647 17.9967C232.004 21.4492 231.629 23.5583 231.522 24.3248C231.479 24.5617 231.34 24.7513 231.104 24.8934C230.89 25.0123 230.643 25.0755 230.365 25.0755L230.172 25.0672C229.84 25.0356 229.583 24.9325 229.39 24.7588C229.219 24.6008 229.133 24.4187 229.133 24.2059L229.144 23.8027C229.144 21.741 228.405 19.5289 226.938 17.1504C225.47 14.772 223.446 12.6554 220.886 10.814L220.972 11.5647C221.497 15.4437 221.818 20.105 221.957 25.5485C221.957 26.0465 221.453 26.433 220.768 26.4414C220.093 26.4414 219.59 26.0698 219.557 25.5726V25.5743Z" fill="black"/>
<path d="M242.236 26.9812C241.99 26.8548 241.84 26.6495 241.797 26.3569V26.3012C241.797 25.9138 242.107 25.5663 242.665 25.4482C243.917 25.1639 245.021 24.587 245.963 23.7182C246.917 22.8653 247.666 21.8777 248.234 20.7554C249.047 19.1434 249.455 17.4999 249.455 15.8256C249.455 15.2013 249.369 14.498 249.187 13.7007C249.005 12.9026 248.598 12.1761 247.966 11.5201C247.334 10.8642 246.498 10.4851 245.448 10.3904L245.213 10.3821C244.409 10.3821 243.628 10.6273 243.295 11.156C243.274 11.1959 243.22 11.2192 243.145 11.2192H243.113C243.691 15.2561 244.034 19.3014 244.141 23.3541C244.13 23.8596 243.638 24.2312 242.952 24.2544C242.278 24.2461 241.774 23.8828 241.742 23.3857C241.624 19.1667 241.26 14.9635 240.639 10.7686V10.7054C240.639 10.4444 240.885 10.1842 241.313 10.1443C241.86 9.47259 242.652 9.02284 243.68 8.77759C244.151 8.66703 244.645 8.61133 245.148 8.61133C245.715 8.61133 246.444 8.71441 247.322 8.92723C248.2 9.14088 249.078 9.6854 249.968 10.5783C250.857 11.4711 251.446 12.7114 251.735 14.3151C251.81 14.8446 251.853 15.3734 251.853 15.9029C251.853 16.7168 251.724 17.6803 251.478 18.7868C251.231 19.885 250.728 21.0463 249.968 22.2634C249.218 23.4805 248.275 24.523 247.151 25.3842C246.026 26.2455 244.751 26.8382 243.316 27.1458C243.198 27.1699 243.091 27.1774 242.973 27.1774C242.727 27.1774 242.481 27.1142 242.234 26.9795L242.236 26.9812Z" fill="black"/>
<path d="M260.128 25.5744C260.02 20.5573 259.657 15.5561 259.046 10.5714V10.485C259.046 10.2713 259.143 10.0818 259.325 9.90802C259.549 9.71016 259.85 9.60791 260.214 9.60791C260.814 9.60791 261.35 9.90802 261.436 10.4135C262.057 15.4463 262.421 20.4867 262.528 25.5511C262.517 26.0491 262.014 26.4357 261.339 26.444C260.654 26.444 260.139 26.0724 260.129 25.5752L260.128 25.5744Z" fill="black"/>
<path d="M281.371 25.3927C281.371 24.7368 281.35 23.9312 281.318 22.9594C277.923 23.2836 274.956 23.528 272.439 23.686C272.439 23.9387 272.449 24.1914 272.46 24.4442V24.4674C272.46 24.6969 272.364 24.9022 272.161 25.076C271.936 25.2738 271.646 25.3686 271.304 25.3686C270.661 25.3686 270.115 25.0369 270.062 24.5314L270.04 23.8439H269.998C269.794 23.8439 269.622 23.7334 269.591 23.5671L269.473 22.3741C269.473 22.2237 269.622 22.0973 269.848 22.074L270.094 22.0657C270.448 17.8235 272.3 13.794 275.642 9.9624C275.846 9.74875 276.113 9.63818 276.445 9.63818C276.628 9.63818 276.81 9.67809 276.992 9.76455L277.656 9.21919C277.86 9.06872 278.084 8.98975 278.352 8.98975H278.577C278.716 8.98975 278.887 9.06872 279.091 9.23499C280.998 10.9018 282.304 13.4224 283 16.7959C283.515 19.3007 283.772 22.168 283.772 25.3836C283.761 25.889 283.247 26.2606 282.572 26.2681C281.886 26.2598 281.383 25.889 281.372 25.391L281.371 25.3927ZM281.2 21.1895C280.793 16.2356 279.636 12.7756 277.741 10.8237C274.645 14.3393 272.91 18.0288 272.513 21.9078C275.03 21.7415 277.933 21.5046 281.2 21.1887V21.1895Z" fill="black"/>
<path d="M175.529 13.5714L176.464 15.4643C176.576 15.6896 176.791 15.8459 177.04 15.8824L179.131 16.1859C179.758 16.2773 180.009 17.0471 179.554 17.4886L178.042 18.9617C177.861 19.1371 177.78 19.3898 177.822 19.6376L178.179 21.7175C178.286 22.3419 177.631 22.8174 177.07 22.5231L175.201 21.5413C174.978 21.4241 174.711 21.4241 174.489 21.5413L172.62 22.5231C172.059 22.8174 171.403 22.3419 171.511 21.7175L171.868 19.6376C171.91 19.3898 171.828 19.1371 171.648 18.9617L170.136 17.4886C169.682 17.0463 169.933 16.2765 170.559 16.1859L172.65 15.8824C172.899 15.8467 173.114 15.6904 173.225 15.4643L174.161 13.5714C174.441 13.0036 175.251 13.0036 175.532 13.5714H175.529Z" fill="black"/>
<path d="M291.743 13.5714L292.678 15.4643C292.789 15.6896 293.005 15.8459 293.254 15.8824L295.344 16.1859C295.972 16.2773 296.222 17.0471 295.768 17.4886L294.255 18.9617C294.075 19.1371 293.993 19.3898 294.036 19.6376L294.393 21.7175C294.5 22.3419 293.844 22.8174 293.284 22.5231L291.414 21.5413C291.191 21.4241 290.925 21.4241 290.703 21.5413L288.833 22.5231C288.273 22.8174 287.617 22.3419 287.724 21.7175L288.081 19.6376C288.124 19.3898 288.041 19.1371 287.862 18.9617L286.349 17.4886C285.896 17.0463 286.146 16.2765 286.773 16.1859L288.863 15.8824C289.112 15.8467 289.328 15.6904 289.439 15.4643L290.374 13.5714C290.655 13.0036 291.465 13.0036 291.745 13.5714H291.743Z" fill="black"/>
<path d="M105.873 5.18379C105.488 4.8737 104.973 4.71741 104.329 4.71492C103.105 4.70993 101.787 4.96431 100.376 5.47891C100.166 5.55539 99.9594 5.63769 99.7556 5.72415C98.5941 6.21713 97.5459 6.86556 96.6107 7.67195C95.5117 8.61967 94.6131 9.74778 93.916 11.0555C93.2179 12.364 92.485 14.4448 91.717 17.2979C91.0082 17.1923 90.4774 17.1383 90.123 17.1375C88.5289 17.1308 86.766 17.7734 84.8366 19.0661C82.9064 20.358 81.1518 22.3566 79.571 25.0609C79.3489 25.44 79.1442 25.8132 78.9537 26.1807C77.7848 28.4311 77.1134 31.0365 77.1067 32.8296C77.1017 34.1514 77.6974 37.1825 78.2748 37.8675C78.8522 38.5525 79.5552 39.4437 80.4088 39.4478C81.334 39.452 82.2001 39.6839 83.3357 39.1436L87.4598 39.166L103.096 39.2517C103.096 39.2517 106.448 6.71842 106.45 6.35263C106.451 5.88293 106.26 5.49387 105.875 5.18379H105.873Z" fill="#44AA68"/>
<path d="M96.604 32.3767L97.1939 33.169C95.3311 34.7535 93.9476 35.8059 93.0432 36.3263C91.7902 37.0429 90.801 37.4037 90.0755 37.4071C89.7411 37.4087 89.4682 37.3156 89.2577 37.1286C89.0472 36.9415 88.9416 36.7295 88.9407 36.4926C88.9399 36.2557 89.0148 35.865 89.1654 35.3196L89.8858 32.7608C88.2194 34.5689 86.83 35.7968 85.716 36.4444C84.6028 37.0912 83.5994 37.417 82.7059 37.4212C81.9663 37.4245 81.349 37.4353 80.8439 36.7886C80.3389 36.1418 80.0777 34.8574 80.0719 33.6013C80.0627 31.6185 80.7316 29.3365 82.0803 26.7544C83.4289 24.1723 84.9339 22.2594 86.5962 21.0166C88.2577 19.7729 89.7794 19.1478 91.1613 19.1419C91.4683 19.1403 91.9292 19.1877 92.544 19.2816C93.1871 16.564 93.8053 14.5813 94.4001 13.3318C94.9942 12.0831 95.7638 11.0041 96.708 10.0946C97.6523 9.18511 98.7347 8.48098 99.9536 7.98052C101.172 7.48089 102.312 7.22816 103.373 7.22318C103.931 7.22068 104.378 7.3645 104.715 7.6563C105.051 7.94726 105.221 8.31637 105.222 8.7628C105.224 9.19509 105.072 9.5484 104.766 9.82108C104.46 10.0946 104.04 10.2326 103.509 10.2351C103.159 10.2367 102.508 10.1702 101.556 10.0347C100.604 9.90006 99.9536 9.83355 99.6042 9.83521C99.1141 9.83771 98.6848 9.98901 98.3163 10.2899C97.9469 10.5909 97.5966 11.236 97.2655 12.2261C97.0458 12.8546 96.5475 14.8581 95.7712 18.2375L92.8693 30.887C92.5282 32.3809 92.3593 33.3726 92.3618 33.8606C92.3643 34.391 92.5681 34.6554 92.9725 34.6537C93.2237 34.6529 93.5166 34.5606 93.8502 34.3777C94.3228 34.1109 95.2413 33.4441 96.604 32.3784V32.3767ZM92.1155 21.5844C90.9974 21.3383 90.2087 21.2161 89.7486 21.2186C88.8134 21.2228 87.9008 21.5944 87.0114 22.3317C86.122 23.0691 85.2667 24.4949 84.4464 26.6073C83.6261 28.7197 83.2192 30.5586 83.2267 32.1223C83.23 32.8348 83.4247 33.4167 83.8108 33.8689C84.1968 34.3212 84.6336 34.5456 85.122 34.5431C85.7077 34.5406 86.3766 34.2796 87.1278 33.7584C88.1986 32.9852 89.0456 32.0458 89.6687 30.9393C90.0423 30.2394 90.5431 28.526 91.1729 25.7992L92.1155 21.5844Z" fill="white"/>
<path d="M78.1449 4.42799C77.8454 4.4255 77.5517 4.43963 77.2622 4.46873L77.4852 1.14258L59.2749 3.72967V26.7974L75.7014 27.7767L75.8512 25.5471L83.141 25.6161L83.2915 9.75182C83.3248 6.2353 81.6093 4.46124 78.1449 4.42799Z" fill="#95B334"/>
<path d="M81.6324 23.8768L75.0606 23.8144L75.1871 10.5015C75.1995 9.14643 74.8285 8.46474 74.0722 8.45809C73.3035 8.45061 72.6329 8.981 72.058 10.0493C71.4831 11.1175 71.1894 12.3828 71.1753 13.8468L71.0804 23.7778L64.5087 23.7155L64.6817 5.54511C66.938 5.56673 69.1303 5.43787 71.2577 5.15771L71.2252 8.55785C72.8792 6.31825 74.8826 5.21009 77.2346 5.23254C80.2829 5.26163 81.793 6.82287 81.7638 9.91791L81.6307 23.8784L81.6324 23.8768Z" fill="white"/>
<path d="M41.4324 39.5605C39.7077 38.0932 38.0204 36.0423 36.3715 33.4086C32.5286 27.3324 30.4977 21.001 30.2789 14.4144C32.3439 13.5523 32.6376 13.1084 33.9171 11.6411C35.2824 10.0541 34.794 7.61581 34.804 5.79769C34.8165 3.72269 33.8464 2.25124 31.8954 1.38167C30.64 0.815533 28.8529 0.435616 26.535 0.242748V0.1937H25.8728C24.9559 0.133844 23.9626 0.100591 22.8926 0.0939406L6.97362 0C7.03435 0.063181 7.0901 0.128856 7.14833 0.1937H0V39.5605H31.1941V39.4998L41.4324 39.5605Z" fill="#E56C25"/>
<path d="M15.9714 15.4322C14.1993 15.4214 13.3074 16.4622 13.2949 18.553C13.2441 27.2229 13.359 32.3298 13.6402 33.8727C13.8024 34.8047 14.0121 35.5005 14.2691 35.9602L14.9497 37.1781L5.21475 37.1207C5.71061 35.9635 5.55419 34.9934 5.64321 34.2153C5.7314 33.4371 5.80878 32.6058 5.87534 31.7213C6.00845 29.9214 6.08333 27.5023 6.10163 24.4646C6.12327 20.786 6.08167 17.4274 5.97767 14.3897L5.76302 8.09156C5.71144 6.50373 5.57998 5.39639 5.37033 4.76957C5.04003 3.7753 4.49509 2.87913 3.73633 2.08105L17.9057 2.16419C21.6022 2.1858 24.2736 2.56821 25.9193 3.31059C27.6565 4.08456 28.5192 5.39473 28.5084 7.24111C28.4992 8.85888 28.9335 11.0295 27.7189 12.4419C26.5807 13.7479 26.3186 14.1428 24.4808 14.9101C24.6755 20.7727 26.4825 26.4082 29.9036 31.8169C31.3712 34.1612 32.8729 35.9868 34.4088 37.2928L23.5432 37.2288C22.0581 35.1746 20.7003 31.0221 19.469 24.7722C19.0538 22.6024 18.7859 20.7993 18.6645 19.3636C18.543 17.9278 18.4407 17.0608 18.3591 16.7632C18.2768 16.4647 18.1445 16.2236 17.9623 16.0399C17.5979 15.6409 16.9348 15.4389 15.9722 15.433L15.9714 15.4322ZM21.2769 11.3761C21.6995 10.9289 21.9999 10.4459 22.1787 9.92714C22.3576 9.40922 22.4483 8.90959 22.4508 8.42908C22.4533 7.94858 22.3909 7.46724 22.2644 6.9859C22.1371 6.50456 21.8834 6.07892 21.504 5.71064C20.6687 4.8818 19.2044 4.46032 17.112 4.44868C16.3333 4.44369 15.7026 4.47113 15.2209 4.52932C14.7392 4.58751 14.3607 4.75295 14.0836 5.02645C13.6069 5.48119 13.3639 6.64755 13.3523 8.52552C13.3423 10.174 13.512 11.2282 13.8606 11.6879C14.4821 12.5009 15.4264 12.9108 16.6952 12.9183C17.9631 12.9257 18.9374 12.7828 19.6196 12.4893C20.301 12.1958 20.8534 11.8251 21.276 11.377L21.2769 11.3761Z" fill="white"/>
<path d="M62.4581 6.87744L48.7014 8.8319C47.9352 8.59331 47.1315 8.4711 46.2879 8.46861C44.5199 8.46362 42.9383 8.7737 41.5431 9.39886C40.1479 10.024 38.9665 10.8811 37.9997 11.9685C37.0321 13.0567 36.2917 14.3361 35.7784 15.8076C35.265 17.279 35.0063 18.8569 35.0013 20.5437C34.9963 22.2304 35.2467 23.8108 35.7517 25.2839C36.2567 26.7578 36.9897 28.0414 37.9515 29.1354C38.9132 30.2295 40.0888 31.0924 41.4807 31.725C42.8718 32.3577 44.4517 32.6769 46.2197 32.6819C47.5724 32.6852 48.8154 32.425 49.9494 31.8996C50.0659 31.8456 50.1807 31.7874 50.2938 31.7275L52.853 31.8805V32.2388L59.1635 32.2563L62.4581 32.4524V6.87744Z" fill="#44AA68"/>
<path d="M57.8532 30.474L51.9337 30.4574L51.9404 28.0424C51.2374 28.9967 50.3912 29.7034 49.4037 30.1614C48.4153 30.6195 47.3321 30.8464 46.1532 30.8431C44.6123 30.8389 43.2354 30.5604 42.0224 30.0093C40.8094 29.4573 39.7844 28.7049 38.9466 27.7522C38.1088 26.7995 37.4698 25.6805 37.0297 24.3953C36.5896 23.1109 36.3716 21.7334 36.3758 20.2636C36.38 18.7938 36.6054 17.418 37.053 16.1361C37.4998 14.8542 38.1454 13.7393 38.989 12.79C39.8326 11.8414 40.8618 11.0949 42.0773 10.5504C43.2928 10.0058 44.6714 9.73483 46.2122 9.73981C46.9943 9.74231 47.7381 9.86119 48.4444 10.0965C49.1499 10.3317 49.7972 10.6634 50.3854 11.0907C50.9736 11.518 51.492 12.0335 51.9396 12.6353C52.3872 13.2372 52.7382 13.9064 52.9937 14.6422L55.6327 10.2569L57.909 10.2636L57.8524 30.4748L57.8532 30.474ZM51.9279 20.3077C51.9296 19.7831 51.9046 19.2286 51.8539 18.645C51.8031 18.0614 51.7141 17.4836 51.5876 16.9117C51.4603 16.3397 51.284 15.7936 51.0585 15.274C50.8322 14.7544 50.5418 14.2922 50.1866 13.889C49.8313 13.4858 49.4037 13.1666 48.902 12.9313C48.4003 12.6969 47.8171 12.578 47.1515 12.5763C46.486 12.5746 45.9077 12.6927 45.4169 12.9305C44.926 13.1682 44.505 13.4874 44.1531 13.889C43.802 14.2905 43.5116 14.7536 43.282 15.2773C43.0532 15.8019 42.8735 16.3497 42.7429 16.9208C42.6123 17.492 42.5208 18.0664 42.4667 18.6442C42.4126 19.2211 42.3852 19.7673 42.3835 20.2802C42.3818 20.794 42.4068 21.3418 42.4575 21.9254C42.5083 22.509 42.5973 23.0868 42.7238 23.6588C42.8502 24.2307 43.0274 24.7794 43.2529 25.3048C43.4792 25.8302 43.7671 26.2949 44.1157 26.6981C44.4651 27.1013 44.8844 27.4238 45.3736 27.6641C45.8636 27.9052 46.441 28.0257 47.1066 28.0274C47.7131 28.0291 48.2539 27.9052 48.7273 27.6558C49.2007 27.4064 49.6158 27.0722 49.9736 26.6532C50.3305 26.2342 50.6325 25.757 50.8796 25.2208C51.1267 24.6854 51.3264 24.131 51.4795 23.5598C51.6326 22.9887 51.7457 22.4201 51.8173 21.8548C51.8888 21.2895 51.9254 20.7732 51.9271 20.306L51.9279 20.3077Z" fill="white"/>
<path d="M156.594 12.121C156.608 9.7234 156.368 7.96597 155.876 6.84617C155.312 5.60666 154.455 4.65063 153.302 3.97975C152.151 3.30887 150.776 2.96802 149.177 2.95722C147.808 2.94807 146.557 3.24486 145.426 3.8484C144.295 4.45195 143.234 5.38304 142.242 6.64333C141.565 5.38719 140.699 4.44696 139.647 3.8218C138.595 3.19664 137.334 2.87907 135.864 2.86993C134.451 2.86078 133.166 3.15424 132.006 3.74947C130.846 4.34554 128.483 4.19008 127.951 3.62062C127.42 3.05116 126.754 2.76435 125.955 2.75936C125.127 2.75354 124.459 3.05116 123.949 3.65138C123.439 4.2516 123.18 5.13197 123.173 6.29251L123.226 24.9808C123.231 26.7357 124.656 28.1565 126.413 28.1565H153.459C155.224 28.1565 156.653 26.7224 156.646 24.9583L156.592 12.121H156.594Z" fill="#95B334"/>
<path d="M142.88 16.639L142.843 22.9039C142.838 23.8932 142.602 24.6339 142.136 25.1252C141.67 25.6165 141.058 25.8601 140.298 25.8551C139.563 25.8501 138.968 25.599 138.514 25.1011C138.06 24.6031 137.836 23.8599 137.842 22.8706L137.886 15.3637C137.892 14.1791 137.857 13.258 137.778 12.6012C137.699 11.9445 137.476 11.4058 137.11 10.9834C136.745 10.5611 136.164 10.3475 135.37 10.3425C133.78 10.3317 132.73 10.8546 132.219 11.9095C131.708 12.9645 131.448 14.4817 131.436 16.4602L131.399 22.8282C131.393 23.8059 131.16 24.5441 130.701 25.0412C130.241 25.5392 129.638 25.7853 128.89 25.7803C128.143 25.7753 127.554 25.5217 127.088 25.0179C126.622 24.5142 126.393 23.7734 126.399 22.7958L126.478 9.31747C126.483 8.43127 126.697 7.76039 127.122 7.30232C127.545 6.84509 128.102 6.61814 128.79 6.62313C129.454 6.62728 130.008 6.84675 130.45 7.28154C130.892 7.71549 131.111 8.31239 131.107 9.07222L131.104 9.52114C131.952 8.54932 132.858 7.83604 133.822 7.3813C134.786 6.92739 135.856 6.7046 137.03 6.71208C138.252 6.72039 139.3 6.96314 140.175 7.44032C141.051 7.91834 141.77 8.63577 142.334 9.5943C143.159 8.63328 144.041 7.9225 144.981 7.46277C145.921 7.00305 146.961 6.77692 148.1 6.78441C149.429 6.79272 150.573 7.05376 151.53 7.56585C152.489 8.07878 153.202 8.80786 153.671 9.75475C154.081 10.6094 154.281 11.9503 154.27 13.78L154.216 22.9787C154.21 23.968 153.974 24.7087 153.509 25.2C153.043 25.6913 152.43 25.9349 151.671 25.9299C150.935 25.9249 150.335 25.6714 149.869 25.1676C149.403 24.6638 149.173 23.9231 149.178 22.9454L149.225 15.0245C149.231 14.012 149.191 13.2006 149.106 12.5904C149.02 11.9802 148.783 11.4665 148.394 11.05C148.004 10.6335 147.412 10.4223 146.617 10.4173C145.977 10.4132 145.367 10.5936 144.789 10.9577C144.212 11.3226 143.761 11.8139 143.438 12.4333C143.077 13.2247 142.891 14.6272 142.879 16.6406L142.88 16.639Z" fill="white"/>
<path d="M114.962 10.9292H113.889C105.555 10.9292 98.7987 17.6801 98.7987 26.0078V27.0803C98.7987 35.408 105.555 42.1589 113.889 42.1589H114.962C123.297 42.1589 130.053 35.408 130.053 27.0803V26.0078C130.053 17.6801 123.297 10.9292 114.962 10.9292Z" fill="#00B8F1"/>
<path d="M104.793 18.2944C104.789 18.3061 104.785 18.3177 104.78 18.3293C104.777 18.3377 104.779 18.3343 104.793 18.2944Z" fill="white"/>
<path d="M106.518 34.932C106.518 34.932 106.517 34.9313 106.517 34.9307C106.517 34.9307 106.518 34.9313 106.518 34.932Z" fill="white"/>
<path d="M128.18 32.5691C128.175 32.5624 128.171 32.5566 128.166 32.55C128.154 32.5308 128.14 32.5117 128.126 32.4943C127.578 31.7336 127.021 30.9804 126.472 30.2206C126.878 30.2039 127.283 30.1832 127.688 30.1566C127.734 30.1549 127.779 30.1466 127.82 30.1325C127.822 30.1325 127.825 30.1308 127.826 30.13C127.836 30.1266 127.846 30.1225 127.856 30.1183C127.951 30.0809 128.031 30.0161 128.083 29.923C128.157 29.8033 128.178 29.6536 128.113 29.5131C128.098 29.4757 128.078 29.4408 128.053 29.41C127.666 28.7932 127.285 28.1738 126.904 27.5528C126.713 27.2411 126.523 26.9285 126.331 26.6168C126.142 26.3083 125.939 26.0057 125.77 25.6865C125.73 25.6109 125.692 25.5344 125.657 25.4571C125.648 25.4371 125.639 25.4163 125.63 25.3964C125.631 25.3972 125.595 25.3116 125.595 25.3107C125.533 25.1528 125.48 24.9907 125.437 24.8269C125.397 24.6781 125.364 24.5268 125.34 24.3747C125.34 24.3713 125.328 24.2832 125.327 24.2832C125.324 24.2624 125.322 24.2425 125.32 24.2217C125.311 24.1294 125.305 24.0372 125.3 23.944C125.285 23.5949 125.325 23.2499 125.354 22.9024C125.384 22.53 125.408 22.1575 125.419 21.7842C125.443 21.051 125.428 20.3145 125.354 19.5837C125.288 18.9419 125.181 18.2977 124.888 17.7157C124.826 17.5935 124.755 17.4771 124.674 17.3674C124.557 17.2086 124.425 17.0274 124.257 16.9185C123.958 16.7239 123.579 16.6408 123.227 16.6217C122.59 16.5868 121.923 16.7846 121.333 17.0124C119.94 17.5503 118.714 18.4124 117.536 19.3135C116.643 19.3019 115.752 19.2088 114.858 19.2088C114.263 19.2088 113.671 19.2129 113.076 19.2437C112.518 19.2728 111.96 19.3077 111.4 19.3144C110.371 18.5271 109.31 17.7681 108.124 17.2336C107.499 16.9517 106.844 16.7223 106.161 16.64C105.83 16.6001 105.486 16.6142 105.166 16.7073C105.002 16.7547 104.82 16.822 104.677 16.9185C104.51 17.0315 104.379 17.2069 104.261 17.3674C103.904 17.8521 103.739 18.4539 103.651 19.0409C103.54 19.7758 103.501 20.5198 103.505 21.2622C103.509 21.9971 103.583 22.7228 103.63 23.4552C103.64 23.6182 103.642 23.7811 103.635 23.944C103.632 24.0214 103.627 24.0987 103.619 24.1752C103.617 24.2059 103.612 24.2367 103.61 24.2674C103.607 24.2882 103.606 24.3023 103.605 24.309C103.602 24.3306 103.598 24.3522 103.595 24.3747C103.543 24.6947 103.458 25.009 103.34 25.3107C103.34 25.3107 103.31 25.3831 103.306 25.3947C103.29 25.4296 103.275 25.4645 103.259 25.4995C103.219 25.5834 103.176 25.6666 103.132 25.7489C103.036 25.9234 102.927 26.0922 102.822 26.2618C102.603 26.6176 102.385 26.9742 102.166 27.3309C101.74 28.0259 101.315 28.7209 100.881 29.4109C100.856 29.4408 100.837 29.4749 100.822 29.5115C100.755 29.6528 100.776 29.8041 100.851 29.9246C100.902 30.0136 100.978 30.0776 101.069 30.1158C101.083 30.1225 101.097 30.1275 101.112 30.1325C101.154 30.1466 101.199 30.1557 101.246 30.1574C101.651 30.184 102.057 30.2048 102.463 30.2214C101.912 30.9829 101.353 31.7378 100.805 32.5009C100.794 32.515 100.783 32.5292 100.773 32.5441C100.767 32.5525 100.76 32.5616 100.755 32.5699C100.648 32.7179 100.687 32.949 100.79 33.082C100.791 33.0837 100.793 33.0845 100.794 33.0862C100.879 33.1992 101.009 33.279 101.153 33.2641C101.545 33.2217 101.933 33.151 102.32 33.0745C102.5 33.0388 102.681 33.003 102.863 32.9723C102.997 32.9498 103.069 32.9382 103.161 32.9274C103.691 33.4786 104.173 34.073 104.706 34.6216C104.855 34.7763 105.01 34.9276 105.169 35.073C105.257 35.1537 105.345 35.241 105.445 35.3067C105.478 35.3283 105.513 35.3474 105.546 35.3682C105.562 35.384 105.578 35.3989 105.596 35.4131C105.65 35.4579 105.707 35.5012 105.769 35.5336C105.793 35.5461 105.85 35.586 105.837 35.5652C105.851 35.5802 105.866 35.5951 105.874 35.6018C106.047 35.7547 106.269 35.862 106.479 35.9534C106.891 36.1322 107.326 36.2984 107.77 36.3757C108.251 36.4597 108.722 36.4506 109.207 36.4489C110.125 36.4464 111.043 36.4747 111.961 36.4747C112.684 36.4747 113.406 36.4647 114.129 36.4614C114.235 36.4614 114.341 36.4605 114.447 36.4605C114.476 36.4605 114.505 36.4605 114.535 36.4605C115.226 36.4622 115.916 36.4713 116.606 36.4747C117.536 36.4788 118.464 36.4464 119.393 36.4489C119.841 36.4497 120.293 36.4788 120.738 36.4348C121.215 36.3865 121.655 36.2643 122.102 36.0972C122.317 36.0174 122.532 35.9293 122.733 35.8196C122.851 35.7547 123.018 35.6733 123.113 35.561C123.126 35.556 123.14 35.5469 123.147 35.5427C123.2 35.517 123.244 35.4862 123.29 35.4505C123.316 35.4305 123.342 35.4122 123.365 35.3898C123.367 35.3881 123.375 35.3798 123.383 35.3732C123.388 35.3682 123.394 35.364 123.396 35.3623C123.421 35.3466 123.448 35.3324 123.473 35.3158C123.663 35.1919 123.829 35.0173 123.992 34.8594C124.62 34.2475 125.166 33.5592 125.773 32.9282C125.864 32.939 125.939 32.9507 126.07 32.9731C126.251 33.0039 126.433 33.0396 126.613 33.0754C127 33.1518 127.387 33.2225 127.78 33.2649C127.911 33.279 128.033 33.2117 128.117 33.1128C128.126 33.1036 128.134 33.0937 128.142 33.0828C128.247 32.9473 128.285 32.7196 128.178 32.5707L128.18 32.5691ZM105.568 35.3798C105.574 35.384 105.577 35.3848 105.568 35.3798V35.3798ZM126.317 32.0819C126.177 32.0578 126.037 32.0379 125.896 32.0196C125.715 31.9955 125.532 31.9597 125.363 32.0495C125.246 32.111 125.146 32.2457 125.056 32.3405C124.97 32.4311 124.885 32.5225 124.801 32.614C124.481 32.9648 124.173 33.3264 123.851 33.6764C123.685 33.8568 123.516 34.0339 123.34 34.2051C123.254 34.2891 123.166 34.3722 123.076 34.4529C123.052 34.4745 123.028 34.4961 123.004 34.5177C123.001 34.5202 122.983 34.5327 122.973 34.5402C122.963 34.546 122.953 34.5518 122.949 34.5535C122.921 34.5718 122.894 34.5917 122.868 34.6117C122.826 34.6432 122.782 34.674 122.744 34.7098C122.742 34.7114 122.739 34.7139 122.735 34.7172C122.715 34.7264 122.665 34.7538 122.652 34.7596C122.569 34.7987 122.498 34.8544 122.437 34.9217C122.435 34.9234 122.434 34.9251 122.433 34.9267C122.428 34.9284 122.423 34.9309 122.418 34.9342C122.367 34.9608 122.32 34.9941 122.27 35.0215C122.214 35.0523 122.157 35.0814 122.099 35.1088C122.077 35.1188 122.056 35.1287 122.034 35.1387C122.026 35.1429 122.018 35.1462 122.012 35.1487C122.009 35.1495 122.003 35.152 121.992 35.1562C121.765 35.246 121.532 35.3332 121.299 35.4014C121.175 35.4372 121.047 35.4646 120.921 35.4862C120.906 35.4887 120.8 35.5037 120.803 35.5045C120.732 35.5128 120.661 35.5195 120.591 35.5236C120.076 35.5577 119.553 35.5261 119.038 35.5245C118.498 35.5228 117.959 35.5461 117.42 35.5502C116.663 35.5552 115.906 35.5452 115.149 35.5403C115.143 35.5403 115.138 35.5394 115.132 35.5394C114.897 35.5369 114.661 35.5369 114.426 35.5378C114.22 35.5378 114.014 35.5378 113.808 35.5394C113.803 35.5394 113.797 35.5394 113.792 35.5403C113.166 35.5444 112.54 35.5519 111.913 35.5519C111.38 35.5519 110.846 35.5411 110.314 35.5253C109.786 35.5095 109.257 35.5303 108.728 35.5344C108.611 35.5353 108.493 35.5328 108.375 35.5253C108.308 35.5211 108.241 35.5145 108.174 35.5087C108.17 35.5087 108.138 35.5045 108.128 35.5037C108.1 35.4995 108.073 35.4954 108.045 35.4912C107.789 35.448 107.547 35.3715 107.302 35.2867C107.191 35.2476 107.081 35.2069 106.971 35.1653C106.966 35.1637 106.94 35.1529 106.93 35.1487C106.915 35.142 106.9 35.1354 106.885 35.1287C106.82 35.0988 106.756 35.0672 106.692 35.034C106.642 35.0074 106.593 34.9783 106.544 34.9483C106.538 34.9442 106.53 34.94 106.524 34.935C106.523 34.935 106.522 34.9334 106.521 34.9334C106.532 34.9417 106.533 34.9542 106.513 34.9309C106.513 34.9309 106.512 34.9301 106.511 34.9292C106.514 34.9292 106.517 34.9309 106.519 34.9326C106.514 34.9284 106.508 34.9242 106.504 34.9217C106.446 34.8594 106.38 34.8087 106.306 34.7688C106.273 34.7513 106.24 34.7364 106.207 34.7197C106.205 34.7172 106.202 34.7147 106.199 34.7122C106.162 34.6773 106.112 34.6424 106.075 34.6142C106.04 34.5884 106.002 34.5526 105.962 34.5368C105.954 34.5343 105.951 34.5327 105.949 34.5327C105.926 34.5136 105.905 34.4911 105.884 34.472C105.699 34.3066 105.522 34.1328 105.35 33.9549C105.013 33.6066 104.696 33.2391 104.375 32.8775C104.199 32.6796 104.021 32.4835 103.837 32.2931C103.691 32.1409 103.553 31.9847 103.321 31.9921C103.156 31.998 102.987 32.0296 102.824 32.0537C102.612 32.0852 102.402 32.1252 102.192 32.1659C102.712 31.4534 103.236 30.7435 103.746 30.0244C103.937 29.7542 103.685 29.2936 103.347 29.3302C102.917 29.3202 102.488 29.3045 102.057 29.2828C102.382 28.7599 102.704 28.2354 103.025 27.71C103.461 26.9975 103.958 26.3017 104.254 25.5161C104.542 24.7529 104.606 23.9457 104.532 23.1401C104.454 22.2914 104.415 21.4384 104.444 20.5863C104.459 20.179 104.484 19.7716 104.537 19.3667C104.539 19.3493 104.547 19.2986 104.548 19.2903C104.553 19.2495 104.56 19.2088 104.567 19.1681C104.58 19.0866 104.595 19.0059 104.612 18.9245C104.649 18.7507 104.695 18.5786 104.754 18.4115C104.763 18.3849 104.774 18.3583 104.784 18.3326C104.786 18.3251 104.793 18.3068 104.797 18.2977C104.797 18.2977 104.797 18.296 104.798 18.2952C104.832 18.2212 104.868 18.148 104.908 18.0774C104.949 18.0059 104.994 17.9385 105.039 17.8704C105.045 17.862 105.049 17.8554 105.053 17.8496C105.057 17.8446 105.062 17.8396 105.068 17.8321C105.106 17.7897 105.144 17.749 105.182 17.7066C105.191 17.6966 105.196 17.6891 105.199 17.6841C105.205 17.6825 105.214 17.68 105.227 17.675C105.232 17.6733 105.314 17.6359 105.305 17.6376C105.375 17.6118 105.448 17.5902 105.52 17.5744C105.549 17.5677 105.578 17.5628 105.607 17.5578C105.608 17.5586 105.683 17.5503 105.692 17.5495C105.791 17.5428 105.892 17.5436 105.993 17.5495C106.036 17.552 106.079 17.5569 106.122 17.5611C106.132 17.5619 106.14 17.5628 106.147 17.5628C106.153 17.5644 106.162 17.5661 106.173 17.5677C106.261 17.5844 106.347 17.5993 106.434 17.6193C106.621 17.6625 106.806 17.7174 106.989 17.7764C107.152 17.8296 107.315 17.8853 107.474 17.951C107.494 17.9593 107.556 17.9859 107.555 17.9851C107.584 17.9975 107.613 18.01 107.641 18.0233C107.741 18.0682 107.84 18.1148 107.938 18.1621C108.636 18.5022 109.294 18.917 109.928 19.3651C110.247 19.5912 110.561 19.8248 110.871 20.0626C110.954 20.1257 111.029 20.1956 111.132 20.2238C111.252 20.2571 111.393 20.2405 111.516 20.238C111.742 20.2338 111.969 20.2255 112.195 20.2147C112.86 20.1839 113.524 20.1332 114.189 20.1332C114.627 20.1332 115.063 20.1324 115.5 20.1507C115.933 20.1698 116.366 20.1972 116.799 20.2172C117.008 20.2263 117.217 20.2338 117.426 20.238C117.549 20.2405 117.69 20.2571 117.81 20.2238C117.925 20.1923 118.016 20.1041 118.108 20.0335C118.727 19.5613 119.358 19.1024 120.024 18.6984C120.356 18.4972 120.696 18.3093 121.046 18.1414C121.13 18.1006 121.215 18.0616 121.301 18.0225C121.329 18.01 121.358 17.9967 121.387 17.9842C121.387 17.9842 121.447 17.9585 121.467 17.9502C121.64 17.8795 121.818 17.8188 121.996 17.7623C122.165 17.7082 122.335 17.6584 122.509 17.6185C122.596 17.5985 122.683 17.5827 122.769 17.5669C122.781 17.5644 122.789 17.5628 122.796 17.5619C122.803 17.5619 122.81 17.5611 122.82 17.5603C122.878 17.5553 122.936 17.5495 122.993 17.547C123.079 17.5428 123.166 17.5428 123.251 17.5486C123.26 17.5486 123.335 17.5578 123.336 17.5569C123.365 17.5619 123.394 17.5677 123.423 17.5736C123.495 17.5902 123.567 17.611 123.637 17.6367C123.63 17.6351 123.711 17.6725 123.715 17.6742C123.73 17.6833 123.741 17.6891 123.747 17.6924C123.761 17.7066 123.776 17.7215 123.789 17.7365C123.819 17.7673 123.845 17.7997 123.873 17.8313C123.879 17.8388 123.884 17.8446 123.889 17.8487C123.892 17.8546 123.896 17.8604 123.902 17.8695C123.948 17.9377 123.993 18.005 124.033 18.0765C124.07 18.1414 124.104 18.2079 124.135 18.276C124.14 18.2868 124.15 18.3126 124.156 18.3259C124.171 18.3667 124.186 18.4082 124.2 18.4498C124.254 18.6052 124.295 18.764 124.329 18.9245C124.345 19.0051 124.361 19.0866 124.374 19.1681C124.381 19.2088 124.388 19.2495 124.394 19.2903C124.398 19.3152 124.401 19.341 124.404 19.3659C124.404 19.3676 124.404 19.3692 124.404 19.3717C124.509 20.2238 124.524 21.0868 124.489 21.9439C124.457 22.7494 124.309 23.5591 124.411 24.363C124.463 24.7729 124.552 25.1727 124.702 25.5593C124.851 25.9434 125.043 26.2917 125.259 26.6409C125.716 27.3824 126.168 28.1273 126.626 28.8688C126.711 29.0068 126.796 29.1448 126.882 29.2828C126.453 29.3036 126.023 29.3202 125.592 29.3302C125.255 29.2936 125.002 29.7542 125.194 30.0244C125.704 30.7435 126.227 31.4534 126.747 32.1659C126.603 32.1376 126.458 32.1102 126.315 32.0852L126.317 32.0819Z" fill="white"/>
<path d="M108.808 20.6812C109.103 20.8466 109.397 21.0121 109.692 21.1775C109.835 21.2581 109.978 21.3396 110.122 21.4194C110.124 21.4202 110.126 21.4219 110.128 21.4227C110.233 21.4818 110.366 21.5017 110.484 21.4693C110.591 21.4402 110.707 21.3571 110.76 21.2573C110.817 21.1501 110.845 21.0204 110.807 20.9015C110.77 20.7884 110.701 20.6853 110.594 20.6255L110.251 20.4326C109.975 20.278 109.699 20.1225 109.423 19.9679C109.088 19.78 108.753 19.5921 108.418 19.4034C108.126 19.2397 107.834 19.0759 107.542 18.9113C107.395 18.829 107.248 18.7459 107.101 18.6636C107.025 18.6212 106.944 18.5846 106.861 18.5613C106.767 18.5355 106.665 18.5214 106.568 18.5264C106.474 18.5314 106.371 18.5438 106.282 18.5788C106.222 18.602 106.162 18.6253 106.105 18.6569C106.047 18.6893 105.993 18.7342 105.942 18.775C105.868 18.8348 105.808 18.9121 105.756 18.9903C105.74 19.0135 105.726 19.0393 105.713 19.0651C105.685 19.1274 105.655 19.1914 105.637 19.258C105.618 19.3278 105.611 19.4009 105.603 19.4724C105.586 19.6404 105.571 19.8091 105.554 19.9779L105.453 21.032C105.418 21.3986 105.382 21.7652 105.347 22.1327C105.326 22.3472 105.306 22.5625 105.285 22.777C105.284 22.7869 105.283 22.7978 105.282 22.8077C105.271 22.9191 105.341 23.058 105.417 23.1336C105.497 23.2134 105.628 23.2741 105.743 23.2691C105.863 23.2641 105.986 23.2242 106.069 23.1336C106.094 23.1029 106.118 23.0713 106.142 23.0405C106.183 22.9682 106.204 22.8909 106.205 22.8077C106.216 22.6963 106.227 22.5858 106.237 22.4744C106.263 22.2075 106.289 21.9407 106.315 21.6746C106.346 21.3521 106.377 21.0303 106.408 20.7078C106.435 20.4301 106.461 20.1525 106.488 19.8748C106.499 19.7609 106.51 19.647 106.521 19.5331C106.524 19.519 106.527 19.5049 106.531 19.4916C106.534 19.4874 106.536 19.4824 106.539 19.4783C106.543 19.4741 106.547 19.4699 106.55 19.4658C106.556 19.4625 106.562 19.4591 106.569 19.455C106.575 19.4533 106.582 19.4508 106.588 19.4492C106.593 19.4492 106.598 19.4492 106.603 19.4492C106.609 19.4508 106.617 19.4525 106.623 19.455C106.651 19.4699 106.678 19.4849 106.705 19.4999C106.788 19.5464 106.871 19.593 106.954 19.6395C107.232 19.795 107.509 19.9513 107.787 20.1067C108.127 20.2979 108.467 20.4892 108.807 20.6804L108.808 20.6812Z" fill="white"/>
<path d="M123.797 22.3504C123.764 22.0054 123.731 21.6595 123.697 21.3145C123.662 20.9438 123.626 20.573 123.59 20.203C123.568 19.9744 123.546 19.7466 123.524 19.518C123.506 19.3293 123.475 19.1423 123.363 18.9827C123.326 18.9303 123.287 18.8779 123.243 18.8313C123.197 18.7823 123.141 18.7432 123.087 18.7033C123.011 18.646 122.922 18.6094 122.832 18.5761C122.742 18.5429 122.641 18.5304 122.546 18.5271C122.449 18.5229 122.346 18.5371 122.253 18.5645C122.072 18.6185 121.904 18.7299 121.74 18.8222C121.473 18.9718 121.208 19.1207 120.942 19.2703C120.608 19.4582 120.274 19.6452 119.94 19.8331C119.641 20.001 119.341 20.1698 119.042 20.3377C118.879 20.4292 118.715 20.5214 118.552 20.6129C118.544 20.617 118.537 20.6212 118.529 20.6254C118.429 20.6819 118.347 20.7908 118.317 20.9014C118.286 21.0119 118.3 21.1591 118.364 21.2572C118.427 21.3553 118.522 21.4426 118.64 21.4692C118.762 21.4974 118.884 21.485 118.996 21.4226C119.114 21.3561 119.232 21.2896 119.35 21.2239C119.632 21.066 119.914 20.9072 120.196 20.7492C120.536 20.558 120.877 20.3668 121.217 20.1756C121.508 20.0127 121.798 19.8489 122.088 19.686C122.224 19.6103 122.359 19.533 122.494 19.4582C122.494 19.4582 122.495 19.4582 122.496 19.4582C122.503 19.4557 122.512 19.454 122.519 19.4515C122.524 19.4515 122.529 19.4515 122.534 19.4515C122.541 19.4532 122.548 19.4548 122.553 19.4573C122.559 19.4607 122.566 19.464 122.572 19.4681C122.576 19.4723 122.58 19.4765 122.583 19.4806C122.586 19.4848 122.588 19.4898 122.591 19.4939C122.595 19.5089 122.598 19.5238 122.602 19.5388C122.611 19.6253 122.618 19.7117 122.627 19.7974C122.652 20.0625 122.677 20.3277 122.703 20.5921C122.734 20.9138 122.766 21.2364 122.796 21.5581C122.823 21.8374 122.85 22.1159 122.877 22.3953C122.89 22.5316 122.903 22.6671 122.916 22.8034C122.916 22.8051 122.916 22.8076 122.916 22.8093C122.914 22.8724 122.927 22.9323 122.956 22.9872C122.974 23.0445 123.007 23.0936 123.052 23.136C123.132 23.2158 123.263 23.2765 123.378 23.2715C123.498 23.2665 123.621 23.2266 123.704 23.136C123.782 23.0512 123.85 22.9298 123.84 22.8101C123.825 22.658 123.81 22.5058 123.795 22.3529L123.797 22.3504Z" fill="white"/>
<path d="M119.28 29.8234C119.16 29.8284 119.039 29.8683 118.954 29.9589C118.856 30.0628 118.751 30.1584 118.64 30.2474C118.444 30.392 118.233 30.5134 118.01 30.6123C117.752 30.7154 117.483 30.7886 117.209 30.8301C116.932 30.8617 116.651 30.8625 116.374 30.8301C116.119 30.7911 115.87 30.7237 115.631 30.6273C115.472 30.5566 115.315 30.4735 115.174 30.3721C115.147 30.3488 115.121 30.3255 115.098 30.2997C115.094 30.2939 115.091 30.2873 115.087 30.2806C115.087 30.279 115.087 30.2773 115.086 30.2756C115.081 30.2008 115.08 30.1252 115.058 30.052C115.033 29.9647 114.989 29.8816 114.929 29.8126L116.239 28.4966H112.69L113.999 29.8134C113.984 29.8259 113.968 29.8383 113.953 29.8525C113.863 29.9373 113.786 30.0379 113.697 30.1252C113.616 30.2033 113.531 30.2765 113.444 30.3463C113.234 30.5017 113.006 30.6331 112.767 30.7387C112.501 30.8451 112.224 30.9207 111.941 30.9648C111.668 30.9964 111.392 30.9972 111.119 30.9648C110.912 30.9324 110.706 30.8825 110.511 30.8077C110.427 30.7686 110.346 30.7237 110.27 30.6705C110.24 30.6447 110.212 30.6173 110.186 30.5874C110.172 30.5658 110.159 30.5433 110.146 30.52C110.145 30.5167 110.144 30.5142 110.143 30.5109C110.107 30.3978 110.035 30.2964 109.931 30.2349C109.832 30.1767 109.686 30.1526 109.575 30.1883C109.463 30.2241 109.355 30.2939 109.298 30.4003C109.242 30.5076 109.214 30.6364 109.252 30.7561C109.324 30.9839 109.459 31.1959 109.646 31.3472C109.742 31.4245 109.839 31.4977 109.947 31.5559C110.056 31.6141 110.172 31.6623 110.288 31.7055C110.65 31.8402 111.048 31.8992 111.432 31.91C112.209 31.9308 113.007 31.7147 113.669 31.3065C113.866 31.1851 114.053 31.0438 114.227 30.8916C114.26 30.8617 114.294 30.8318 114.326 30.8002C114.329 30.8052 114.333 30.811 114.337 30.816C114.388 30.8825 114.437 30.9473 114.498 31.0039C114.66 31.1518 114.852 31.2699 115.048 31.368C115.395 31.5417 115.767 31.6673 116.151 31.723C116.365 31.7546 116.58 31.777 116.796 31.7762C117.013 31.7762 117.227 31.7521 117.442 31.7205C117.83 31.6631 118.203 31.5384 118.557 31.3705C118.948 31.1851 119.31 30.9224 119.607 30.609C119.691 30.5217 119.743 30.4045 119.743 30.2831C119.743 30.17 119.693 30.0345 119.607 29.9572C119.519 29.8766 119.404 29.8167 119.281 29.8217L119.28 29.8234Z" fill="white"/>
<path d="M109.159 26.5357C109.294 26.4833 109.434 26.4451 109.577 26.421C109.711 26.4077 109.845 26.4068 109.979 26.421C110.09 26.4401 110.198 26.4692 110.303 26.5083C110.37 26.539 110.434 26.5723 110.496 26.6122C110.595 26.6745 110.74 26.6895 110.852 26.6587C110.959 26.6296 111.075 26.5465 111.128 26.4467C111.184 26.3395 111.213 26.2098 111.174 26.0909C111.137 25.9737 111.067 25.8814 110.962 25.8149C110.843 25.7393 110.715 25.6836 110.584 25.6304C110.488 25.5921 110.389 25.5622 110.288 25.5414C110.05 25.4924 109.803 25.4716 109.56 25.499C109.419 25.5148 109.278 25.5348 109.14 25.5705C109.003 25.6063 108.873 25.6586 108.743 25.7152C108.52 25.8116 108.319 25.9471 108.135 26.1059C108.047 26.1816 107.967 26.2663 107.896 26.3578C107.801 26.4792 107.712 26.6005 107.644 26.7394C107.609 26.7926 107.591 26.8491 107.589 26.9106C107.575 26.9721 107.578 27.0337 107.597 27.0943C107.626 27.2016 107.709 27.3171 107.809 27.3704C107.916 27.4269 108.046 27.4551 108.165 27.4169C108.275 27.3812 108.389 27.3122 108.441 27.2049C108.481 27.1234 108.527 27.0461 108.58 26.973C108.652 26.8857 108.732 26.8059 108.818 26.7336C108.925 26.6562 109.04 26.5897 109.159 26.5349L109.159 26.5357Z" fill="white"/>
<path d="M120.67 26.1728C120.586 26.0606 120.5 25.9525 120.398 25.8569C120.223 25.6923 120.021 25.5485 119.803 25.4463C119.58 25.3415 119.349 25.2584 119.105 25.2235C118.965 25.2035 118.827 25.1852 118.685 25.1861C118.544 25.1861 118.403 25.2044 118.264 25.2268C118.149 25.2451 118.037 25.275 117.928 25.3157C117.784 25.3698 117.642 25.4321 117.513 25.5144C117.413 25.5784 117.333 25.6741 117.301 25.7904C117.27 25.901 117.284 26.0481 117.348 26.1462C117.411 26.2443 117.506 26.3316 117.624 26.3582C117.743 26.3848 117.874 26.379 117.98 26.3117C118.042 26.2726 118.106 26.2385 118.172 26.2078C118.277 26.1687 118.386 26.1396 118.497 26.1205C118.631 26.1072 118.764 26.1072 118.898 26.1205C119.042 26.1446 119.182 26.1828 119.317 26.2352C119.437 26.2901 119.551 26.3566 119.658 26.4339C119.745 26.5062 119.825 26.586 119.897 26.6733C119.949 26.7465 119.995 26.8246 120.035 26.9053C120.083 27.005 120.207 27.089 120.311 27.1172C120.422 27.148 120.569 27.1339 120.667 27.0707C120.765 27.0075 120.853 26.9127 120.879 26.7947C120.885 26.7539 120.89 26.7132 120.896 26.6716C120.896 26.5885 120.874 26.5104 120.833 26.4389C120.787 26.3458 120.733 26.2568 120.671 26.1737L120.67 26.1728Z" fill="white"/>
<path d="M71.9673 20.7798C71.9599 20.8013 71.9516 20.8227 71.9434 20.8442C71.9384 20.8599 71.9409 20.8533 71.9673 20.7798Z" fill="white"/>
</svg>
