<svg width="80" height="80" viewBox="0 0 80 80" fill="none" xmlns="http://www.w3.org/2000/svg">
<g id="M _CIENCIA_GREY">
<g id="M CIENCIA">
<path id="Union" fill-rule="evenodd" clip-rule="evenodd" d="M57.389 55.705C64.454 50.2165 69 41.6391 69 32C69 15.4315 55.5685 2 39 2C22.4315 2 9 15.4315 9 32C9 41.6391 13.546 50.2165 20.611 55.705L16.1265 71.7927C15.4992 74.0432 17.5714 76.1154 19.8219 75.4881L38.1945 70.3667C38.7214 70.2198 39.2786 70.2198 39.8055 70.3667L58.1781 75.4881C60.4286 76.1154 62.5008 74.0432 61.8735 71.7927L57.389 55.705Z" fill="#A1A1AA"/>
<path id="Ellipse 2" d="M67 32C67 47.464 54.464 60 39 60C23.536 60 11 47.464 11 32C11 16.536 23.536 4 39 4C54.464 4 67 16.536 67 32Z" fill="#D4D4D8" stroke="#A1A1AA" stroke-width="4"/>
<g id="psychiatry">
<path id="psychiatry_2" d="M38.75 47.5C38.2542 47.5 37.8385 47.3323 37.5031 46.9969C37.1677 46.6615 37 46.2458 37 45.75V33.5438C35.1333 33.5438 33.3396 33.1865 31.6188 32.4719C29.8979 31.7573 28.3813 30.7438 27.0688 29.4313C25.7563 28.1188 24.75 26.6021 24.05 24.8813C23.35 23.1604 23 21.3667 23 19.5V17.75C23 17.2542 23.1677 16.8385 23.5031 16.5031C23.8385 16.1677 24.2542 16 24.75 16H26.5C28.3375 16 30.1167 16.3573 31.8375 17.0719C33.5583 17.7865 35.075 18.8 36.3875 20.1125C37.2917 21.0167 38.0427 22.0083 38.6406 23.0875C39.2385 24.1667 39.6979 25.3188 40.0188 26.5438C40.1646 26.3396 40.325 26.1427 40.5 25.9531C40.675 25.7635 40.8646 25.5667 41.0687 25.3625C42.3812 24.05 43.8979 23.0365 45.6188 22.3219C47.3396 21.6073 49.1333 21.25 51 21.25H52.75C53.2458 21.25 53.6615 21.4177 53.9969 21.7531C54.3323 22.0885 54.5 22.5042 54.5 23V24.75C54.5 26.6167 54.1427 28.4104 53.4281 30.1312C52.7135 31.8521 51.7 33.3688 50.3875 34.6813C49.075 35.9938 47.5656 37 45.8594 37.7C44.1531 38.4 42.3667 38.75 40.5 38.75V45.75C40.5 46.2458 40.3323 46.6615 39.9969 46.9969C39.6615 47.3323 39.2458 47.5 38.75 47.5ZM37 30C37 28.6 36.7302 27.2656 36.1906 25.9969C35.651 24.7281 34.8854 23.5979 33.8937 22.6063C32.9021 21.6146 31.7719 20.849 30.5031 20.3094C29.2344 19.7698 27.9 19.5 26.5 19.5C26.5 20.9 26.7625 22.2417 27.2875 23.525C27.8125 24.8083 28.5708 25.9458 29.5625 26.9375C30.5542 27.9292 31.6917 28.6875 32.975 29.2125C34.2583 29.7375 35.6 30 37 30ZM40.5 35.25C41.9 35.25 43.2344 34.9875 44.5031 34.4625C45.7719 33.9375 46.9021 33.1792 47.8938 32.1875C48.8854 31.1958 49.651 30.0583 50.1906 28.775C50.7302 27.4917 51 26.15 51 24.75C49.6 24.75 48.2583 25.0198 46.975 25.5594C45.6917 26.099 44.5542 26.8646 43.5625 27.8563C42.5708 28.8479 41.8125 29.9781 41.2875 31.2469C40.7625 32.5156 40.5 33.85 40.5 35.25Z" fill="#A1A1AA"/>
</g>
</g>
</g>
</svg>
