<svg width="80" height="80" viewBox="0 0 80 80" fill="none" xmlns="http://www.w3.org/2000/svg">
<g id="M_ARTE">
<g id="M ARTE">
<path id="Union" fill-rule="evenodd" clip-rule="evenodd" d="M57.389 55.705C64.454 50.2165 69 41.6391 69 32C69 15.4315 55.5685 2 39 2C22.4315 2 9 15.4315 9 32C9 41.6391 13.546 50.2165 20.611 55.705L16.1265 71.7927C15.4992 74.0432 17.5714 76.1154 19.8219 75.4881L38.1945 70.3667C38.7214 70.2198 39.2786 70.2198 39.8055 70.3667L58.1781 75.4881C60.4286 76.1154 62.5008 74.0432 61.8735 71.7927L57.389 55.705Z" fill="#801266"/>
<path id="Ellipse 2" d="M67 32C67 47.464 54.464 60 39 60C23.536 60 11 47.464 11 32C11 16.536 23.536 4 39 4C54.464 4 67 16.536 67 32Z" fill="#CB1BA1" stroke="#801266" stroke-width="4"/>
<g id="palette">
<mask id="mask0_858_1726" style="mask-type:alpha" maskUnits="userSpaceOnUse" x="18" y="11" width="42" height="42">
<rect id="Bounding box" x="18" y="11" width="42" height="42" fill="#D9D9D9"/>
</mask>
<g mask="url(#mask0_858_1726)">
<path id="palette_2" d="M39 49.5C36.6083 49.5 34.3479 49.0406 32.2188 48.1219C30.0896 47.2031 28.2302 45.949 26.6406 44.3594C25.051 42.7698 23.7969 40.9104 22.8781 38.7812C21.9594 36.6521 21.5 34.3917 21.5 32C21.5 29.5792 21.974 27.3042 22.9219 25.175C23.8698 23.0458 25.1531 21.1937 26.7719 19.6187C28.3906 18.0437 30.2792 16.7969 32.4375 15.8781C34.5958 14.9594 36.9 14.5 39.35 14.5C41.6833 14.5 43.8854 14.901 45.9563 15.7031C48.0271 16.5052 49.8427 17.6135 51.4031 19.0281C52.9635 20.4427 54.2031 22.1198 55.1219 24.0594C56.0406 25.999 56.5 28.0917 56.5 30.3375C56.5 33.6917 55.4792 36.2656 53.4375 38.0594C51.3958 39.8531 48.9167 40.75 46 40.75H42.7625C42.5 40.75 42.3177 40.8229 42.2156 40.9688C42.1135 41.1146 42.0625 41.275 42.0625 41.45C42.0625 41.8 42.2812 42.3031 42.7188 42.9594C43.1562 43.6156 43.375 44.3667 43.375 45.2125C43.375 46.6708 42.974 47.75 42.1719 48.45C41.3698 49.15 40.3125 49.5 39 49.5ZM29.375 33.75C30.1333 33.75 30.7604 33.5021 31.2563 33.0062C31.7521 32.5104 32 31.8833 32 31.125C32 30.3667 31.7521 29.7396 31.2563 29.2438C30.7604 28.7479 30.1333 28.5 29.375 28.5C28.6167 28.5 27.9896 28.7479 27.4937 29.2438C26.9979 29.7396 26.75 30.3667 26.75 31.125C26.75 31.8833 26.9979 32.5104 27.4937 33.0062C27.9896 33.5021 28.6167 33.75 29.375 33.75ZM34.625 26.75C35.3833 26.75 36.0104 26.5021 36.5062 26.0063C37.0021 25.5104 37.25 24.8833 37.25 24.125C37.25 23.3667 37.0021 22.7396 36.5062 22.2438C36.0104 21.7479 35.3833 21.5 34.625 21.5C33.8667 21.5 33.2396 21.7479 32.7438 22.2438C32.2479 22.7396 32 23.3667 32 24.125C32 24.8833 32.2479 25.5104 32.7438 26.0063C33.2396 26.5021 33.8667 26.75 34.625 26.75ZM43.375 26.75C44.1333 26.75 44.7604 26.5021 45.2562 26.0063C45.7521 25.5104 46 24.8833 46 24.125C46 23.3667 45.7521 22.7396 45.2562 22.2438C44.7604 21.7479 44.1333 21.5 43.375 21.5C42.6167 21.5 41.9896 21.7479 41.4938 22.2438C40.9979 22.7396 40.75 23.3667 40.75 24.125C40.75 24.8833 40.9979 25.5104 41.4938 26.0063C41.9896 26.5021 42.6167 26.75 43.375 26.75ZM48.625 33.75C49.3833 33.75 50.0104 33.5021 50.5063 33.0062C51.0021 32.5104 51.25 31.8833 51.25 31.125C51.25 30.3667 51.0021 29.7396 50.5063 29.2438C50.0104 28.7479 49.3833 28.5 48.625 28.5C47.8667 28.5 47.2396 28.7479 46.7438 29.2438C46.2479 29.7396 46 30.3667 46 31.125C46 31.8833 46.2479 32.5104 46.7438 33.0062C47.2396 33.5021 47.8667 33.75 48.625 33.75ZM39 46C39.2625 46 39.474 45.9271 39.6344 45.7812C39.7948 45.6354 39.875 45.4458 39.875 45.2125C39.875 44.8042 39.6562 44.3229 39.2188 43.7688C38.7812 43.2146 38.5625 42.3833 38.5625 41.275C38.5625 40.05 38.9854 39.0729 39.8313 38.3438C40.6771 37.6146 41.7125 37.25 42.9375 37.25H46C47.925 37.25 49.5729 36.6885 50.9438 35.5656C52.3146 34.4427 53 32.7 53 30.3375C53 26.8083 51.651 23.8698 48.9531 21.5219C46.2552 19.174 43.0542 18 39.35 18C35.3833 18 32 19.3563 29.2 22.0688C26.4 24.7813 25 28.0917 25 32C25 35.8792 26.3635 39.1823 29.0906 41.9094C31.8177 44.6365 35.1208 46 39 46Z" fill="#801266"/>
</g>
</g>
</g>
</g>
</svg>
