<svg width="80" height="80" viewBox="0 0 80 80" fill="none" xmlns="http://www.w3.org/2000/svg">
<g id="M_CIENCIA">
<g id="M CIENCIA">
<path id="Union" fill-rule="evenodd" clip-rule="evenodd" d="M57.389 55.705C64.454 50.2165 69 41.6391 69 32C69 15.4315 55.5685 2 39 2C22.4315 2 9 15.4315 9 32C9 41.6391 13.546 50.2165 20.611 55.705L16.1265 71.7927C15.4992 74.0432 17.5714 76.1154 19.8219 75.4881L38.1945 70.3667C38.7214 70.2198 39.2786 70.2198 39.8055 70.3667L58.1781 75.4881C60.4286 76.1154 62.5008 74.0432 61.8735 71.7927L57.389 55.705Z" fill="#127A12"/>
<path id="Ellipse 2" d="M67 32C67 47.464 54.464 60 39 60C23.536 60 11 47.464 11 32C11 16.536 23.536 4 39 4C54.464 4 67 16.536 67 32Z" fill="#1AAF19" stroke="#127A12" stroke-width="4"/>
<g id="psychiatry">
<mask id="mask0_858_1707" style="mask-type:alpha" maskUnits="userSpaceOnUse" x="18" y="11" width="42" height="42">
<rect id="Bounding box" x="18" y="11" width="42" height="42" fill="#D9D9D9"/>
</mask>
<g mask="url(#mask0_858_1707)">
<path id="psychiatry_2" d="M39 47.75C38.5042 47.75 38.0885 47.5823 37.7531 47.2469C37.4177 46.9115 37.25 46.4958 37.25 46V33.7938C35.3833 33.7938 33.5896 33.4365 31.8688 32.7219C30.1479 32.0073 28.6313 30.9938 27.3188 29.6813C26.0063 28.3688 25 26.8521 24.3 25.1313C23.6 23.4104 23.25 21.6167 23.25 19.75V18C23.25 17.5042 23.4177 17.0885 23.7531 16.7531C24.0885 16.4177 24.5042 16.25 25 16.25H26.75C28.5875 16.25 30.3667 16.6073 32.0875 17.3219C33.8083 18.0365 35.325 19.05 36.6375 20.3625C37.5417 21.2667 38.2927 22.2583 38.8906 23.3375C39.4885 24.4167 39.9479 25.5688 40.2688 26.7938C40.4146 26.5896 40.575 26.3927 40.75 26.2031C40.925 26.0135 41.1146 25.8167 41.3187 25.6125C42.6312 24.3 44.1479 23.2865 45.8688 22.5719C47.5896 21.8573 49.3833 21.5 51.25 21.5H53C53.4958 21.5 53.9115 21.6677 54.2469 22.0031C54.5823 22.3385 54.75 22.7542 54.75 23.25V25C54.75 26.8667 54.3927 28.6604 53.6781 30.3812C52.9635 32.1021 51.95 33.6188 50.6375 34.9313C49.325 36.2438 47.8156 37.25 46.1094 37.95C44.4031 38.65 42.6167 39 40.75 39V46C40.75 46.4958 40.5823 46.9115 40.2469 47.2469C39.9115 47.5823 39.4958 47.75 39 47.75ZM37.25 30.25C37.25 28.85 36.9802 27.5156 36.4406 26.2469C35.901 24.9781 35.1354 23.8479 34.1437 22.8563C33.1521 21.8646 32.0219 21.099 30.7531 20.5594C29.4844 20.0198 28.15 19.75 26.75 19.75C26.75 21.15 27.0125 22.4917 27.5375 23.775C28.0625 25.0583 28.8208 26.1958 29.8125 27.1875C30.8042 28.1792 31.9417 28.9375 33.225 29.4625C34.5083 29.9875 35.85 30.25 37.25 30.25ZM40.75 35.5C42.15 35.5 43.4844 35.2375 44.7531 34.7125C46.0219 34.1875 47.1521 33.4292 48.1438 32.4375C49.1354 31.4458 49.901 30.3083 50.4406 29.025C50.9802 27.7417 51.25 26.4 51.25 25C49.85 25 48.5083 25.2698 47.225 25.8094C45.9417 26.349 44.8042 27.1146 43.8125 28.1063C42.8208 29.0979 42.0625 30.2281 41.5375 31.4969C41.0125 32.7656 40.75 34.1 40.75 35.5Z" fill="#127A12"/>
</g>
</g>
</g>
</g>
</svg>
