<svg width="80" height="80" viewBox="0 0 80 80" fill="none" xmlns="http://www.w3.org/2000/svg">
<path fill-rule="evenodd" clip-rule="evenodd" d="M57.389 55.705C64.454 50.2165 69 41.6391 69 32C69 15.4315 55.5685 2 39 2C22.4315 2 9 15.4315 9 32C9 41.6391 13.546 50.2165 20.611 55.705L16.1265 71.7927C15.4992 74.0432 17.5714 76.1154 19.8219 75.4881L38.1945 70.3667C38.7214 70.2198 39.2786 70.2198 39.8055 70.3667L58.1781 75.4881C60.4286 76.1154 62.5008 74.0432 61.8735 71.7927L57.389 55.705Z" fill="#0374B5"/>
<path d="M67 32C67 47.464 54.464 60 39 60C23.536 60 11 47.464 11 32C11 16.536 23.536 4 39 4C54.464 4 67 16.536 67 32Z" fill="#00B8F1" stroke="#0374B5" stroke-width="4"/>
<mask id="mask0_858_1761" style="mask-type:alpha" maskUnits="userSpaceOnUse" x="18" y="11" width="42" height="42">
<rect x="18" y="11" width="42" height="42" fill="#D9D9D9"/>
</mask>
<g mask="url(#mask0_858_1761)">
<path d="M39 49.5C36.5792 49.5 34.3042 49.0406 32.175 48.1219C30.0458 47.2031 28.1937 45.9563 26.6187 44.3813C25.0437 42.8063 23.7969 40.9542 22.8781 38.825C21.9594 36.6958 21.5 34.4208 21.5 32C21.5 29.5792 21.9594 27.3042 22.8781 25.175C23.7969 23.0458 25.0437 21.1937 26.6187 19.6187C28.1937 18.0437 30.0458 16.7969 32.175 15.8781C34.3042 14.9594 36.5792 14.5 39 14.5C41.4208 14.5 43.6958 14.9594 45.825 15.8781C47.9542 16.7969 49.8063 18.0437 51.3813 19.6187C52.9563 21.1937 54.2031 23.0458 55.1219 25.175C56.0406 27.3042 56.5 29.5792 56.5 32C56.5 34.4208 56.0406 36.6958 55.1219 38.825C54.2031 40.9542 52.9563 42.8063 51.3813 44.3813C49.8063 45.9563 47.9542 47.2031 45.825 48.1219C43.6958 49.0406 41.4208 49.5 39 49.5ZM47.75 27.625L50.1125 26.8375L50.8125 24.475C49.8792 23.075 48.7562 21.8719 47.4437 20.8656C46.1312 19.8594 44.6875 19.1083 43.1125 18.6125L40.75 20.275V22.725L47.75 27.625ZM30.25 27.625L37.25 22.725V20.275L34.8875 18.6125C33.3125 19.1083 31.8688 19.8594 30.5563 20.8656C29.2438 21.8719 28.1208 23.075 27.1875 24.475L27.8875 26.8375L30.25 27.625ZM28.4125 41.1L30.425 40.925L31.7375 38.5625L29.2 30.95L26.75 30.075L25 31.3875C25 33.2833 25.2625 35.0115 25.7875 36.5719C26.3125 38.1323 27.1875 39.6417 28.4125 41.1ZM39 46C39.7583 46 40.5021 45.9417 41.2313 45.825C41.9604 45.7083 42.675 45.5333 43.375 45.3L44.6 42.675L43.4625 40.75H34.5375L33.4 42.675L34.625 45.3C35.325 45.5333 36.0396 45.7083 36.7688 45.825C37.4979 45.9417 38.2417 46 39 46ZM35.0625 37.25H42.9375L45.3875 30.25L39 25.7875L32.7 30.25L35.0625 37.25ZM49.5875 41.1C50.8125 39.6417 51.6875 38.1323 52.2125 36.5719C52.7375 35.0115 53 33.2833 53 31.3875L51.25 30.1625L48.8 30.95L46.2625 38.5625L47.575 40.925L49.5875 41.1Z" fill="#0374B5"/>
</g>
</svg>
