<svg width="80" height="80" viewBox="0 0 80 80" fill="none" xmlns="http://www.w3.org/2000/svg">
<path fill-rule="evenodd" clip-rule="evenodd" d="M57.389 55.705C64.454 50.2165 69 41.6391 69 32C69 15.4315 55.5685 2 39 2C22.4315 2 9 15.4315 9 32C9 41.6391 13.546 50.2165 20.611 55.705L16.1265 71.7927C15.4992 74.0432 17.5714 76.1154 19.8219 75.4881L38.1945 70.3667C38.7214 70.2198 39.2786 70.2198 39.8055 70.3667L58.1781 75.4881C60.4286 76.1154 62.5008 74.0432 61.8735 71.7927L57.389 55.705Z" fill="#BAC408"/>
<path d="M67 32C67 47.464 54.464 60 39 60C23.536 60 11 47.464 11 32C11 16.536 23.536 4 39 4C54.464 4 67 16.536 67 32Z" fill="#E2EC0A" stroke="#BAC408" stroke-width="4"/>
<path d="M54.6833 47.6833L49.6108 37.8332L55.5681 31.8759L50.6725 26.9803V20.0793H43.7715L38.8759 15.1837L33.9803 20.0793H27.0793V26.9803L22.1837 31.8759L27.0793 36.7715V43.6725H33.9803L38.8759 48.568L44.7742 42.6698L54.6833 47.6833ZM59.4019 52.4019C59.1023 52.7012 58.737 52.9023 58.306 53.0053C57.8751 53.108 57.4266 53.0368 56.9606 52.7918L45.4908 46.9389L40.3687 52.0616C39.9421 52.4879 39.4445 52.701 38.8759 52.701C38.3073 52.701 37.8097 52.4879 37.383 52.0616L32.5222 47.2114H25.6731C25.0688 47.2114 24.5623 47.007 24.1537 46.598C23.7448 46.1895 23.5403 45.683 23.5403 45.0786V38.2295L18.6902 33.3687C18.2639 32.9421 18.0508 32.4445 18.0508 31.8759C18.0508 31.3073 18.2639 30.8097 18.6902 30.383L23.5403 25.5222V18.6731C23.5403 18.0688 23.7448 17.5623 24.1537 17.1537C24.5623 16.7448 25.0688 16.5403 25.6731 16.5403H32.5222L37.383 11.6902C37.8097 11.2639 38.3073 11.0508 38.8759 11.0508C39.4445 11.0508 39.9421 11.2639 40.3687 11.6902L45.2295 16.5403H52.0786C52.683 16.5403 53.1895 16.7448 53.598 17.1537C54.007 17.5623 54.2114 18.0688 54.2114 18.6731V25.5222L59.0616 30.383C59.4879 30.8097 59.701 31.3073 59.701 31.8759C59.701 32.4445 59.4879 32.9421 59.0616 33.3687L53.9389 38.4908L59.7918 49.9606C60.0368 50.4266 60.108 50.8751 60.0053 51.306C59.9023 51.737 59.7012 52.1023 59.4019 52.4019Z" fill="#BAC408"/>
</svg>
