<svg width="80" height="80" viewBox="0 0 80 80" fill="none" xmlns="http://www.w3.org/2000/svg">
<path fill-rule="evenodd" clip-rule="evenodd" d="M57.389 55.705C64.454 50.2165 69 41.6391 69 32C69 15.4315 55.5685 2 39 2C22.4315 2 9 15.4315 9 32C9 41.6391 13.546 50.2165 20.611 55.705L16.1265 71.7927C15.4992 74.0432 17.5714 76.1154 19.8219 75.4881L38.1945 70.3667C38.7214 70.2198 39.2786 70.2198 39.8055 70.3667L58.1781 75.4881C60.4286 76.1154 62.5008 74.0432 61.8735 71.7927L57.389 55.705Z" fill="#C20A0A"/>
<path d="M67 32C67 47.464 54.464 60 39 60C23.536 60 11 47.464 11 32C11 16.536 23.536 4 39 4C54.464 4 67 16.536 67 32Z" fill="#FB2425" stroke="#C20A0A" stroke-width="4"/>
<mask id="mask0_858_1800" style="mask-type:alpha" maskUnits="userSpaceOnUse" x="18" y="11" width="42" height="42">
<rect x="18" y="11" width="42" height="42" fill="#D9D9D9"/>
</mask>
<g mask="url(#mask0_858_1800)">
<path d="M32 39V41.1875C32 41.5667 32.124 41.8802 32.3719 42.1281C32.6198 42.376 32.9333 42.5 33.3125 42.5C33.6917 42.5 34.0052 42.376 34.2531 42.1281C34.501 41.8802 34.625 41.5667 34.625 41.1875V39H36.8125C37.1917 39 37.5052 38.876 37.7531 38.6281C38.001 38.3802 38.125 38.0667 38.125 37.6875C38.125 37.3083 38.001 36.9948 37.7531 36.7469C37.5052 36.499 37.1917 36.375 36.8125 36.375H34.625V34.1875C34.625 33.8083 34.501 33.4948 34.2531 33.2469C34.0052 32.999 33.6917 32.875 33.3125 32.875C32.9333 32.875 32.6198 32.999 32.3719 33.2469C32.124 33.4948 32 33.8083 32 34.1875V36.375H29.8125C29.4333 36.375 29.1198 36.499 28.8719 36.7469C28.624 36.9948 28.5 37.3083 28.5 37.6875C28.5 38.0667 28.624 38.3802 28.8719 38.6281C29.1198 38.876 29.4333 39 29.8125 39H32ZM42.0625 41.1875H48.1875C48.5667 41.1875 48.8802 41.0635 49.1281 40.8156C49.376 40.5677 49.5 40.2542 49.5 39.875C49.5 39.4958 49.376 39.1823 49.1281 38.9344C48.8802 38.6865 48.5667 38.5625 48.1875 38.5625H42.0625C41.6833 38.5625 41.3698 38.6865 41.1219 38.9344C40.874 39.1823 40.75 39.4958 40.75 39.875C40.75 40.2542 40.874 40.5677 41.1219 40.8156C41.3698 41.0635 41.6833 41.1875 42.0625 41.1875ZM42.0625 36.8125H48.1875C48.5667 36.8125 48.8802 36.6885 49.1281 36.4406C49.376 36.1927 49.5 35.8792 49.5 35.5C49.5 35.1208 49.376 34.8073 49.1281 34.5594C48.8802 34.3115 48.5667 34.1875 48.1875 34.1875H42.0625C41.6833 34.1875 41.3698 34.3115 41.1219 34.5594C40.874 34.8073 40.75 35.1208 40.75 35.5C40.75 35.8792 40.874 36.1927 41.1219 36.4406C41.3698 36.6885 41.6833 36.8125 42.0625 36.8125ZM45.125 27.7125L46.6562 29.2438C46.9188 29.5063 47.225 29.6375 47.575 29.6375C47.925 29.6375 48.2313 29.5063 48.4938 29.2438C48.7271 29.0104 48.851 28.7115 48.8656 28.3469C48.8802 27.9823 48.7708 27.6688 48.5375 27.4062L46.9625 25.7875L48.4938 24.2563C48.7563 23.9938 48.8875 23.6875 48.8875 23.3375C48.8875 22.9875 48.7563 22.6813 48.4938 22.4188C48.2313 22.1563 47.925 22.025 47.575 22.025C47.225 22.025 46.9188 22.1563 46.6562 22.4188L45.125 23.95L43.5938 22.4188C43.3312 22.1563 43.025 22.025 42.675 22.025C42.325 22.025 42.0187 22.1563 41.7562 22.4188C41.4937 22.6813 41.3625 22.9875 41.3625 23.3375C41.3625 23.6875 41.4937 23.9938 41.7562 24.2563L43.2875 25.7875L41.7125 27.4062C41.4792 27.6688 41.3625 27.975 41.3625 28.325C41.3625 28.675 41.4937 28.9813 41.7562 29.2438C42.0187 29.5063 42.325 29.6375 42.675 29.6375C43.025 29.6375 43.3312 29.5063 43.5938 29.2438L45.125 27.7125ZM30.25 27.1H36.375C36.7542 27.1 37.0677 26.976 37.3156 26.7281C37.5635 26.4802 37.6875 26.1667 37.6875 25.7875C37.6875 25.4083 37.5635 25.0948 37.3156 24.8469C37.0677 24.599 36.7542 24.475 36.375 24.475H30.25C29.8708 24.475 29.5573 24.599 29.3094 24.8469C29.0615 25.0948 28.9375 25.4083 28.9375 25.7875C28.9375 26.1667 29.0615 26.4802 29.3094 26.7281C29.5573 26.976 29.8708 27.1 30.25 27.1ZM26.75 47.75C25.7875 47.75 24.9635 47.4073 24.2781 46.7219C23.5927 46.0365 23.25 45.2125 23.25 44.25V19.75C23.25 18.7875 23.5927 17.9635 24.2781 17.2781C24.9635 16.5927 25.7875 16.25 26.75 16.25H51.25C52.2125 16.25 53.0365 16.5927 53.7219 17.2781C54.4073 17.9635 54.75 18.7875 54.75 19.75V44.25C54.75 45.2125 54.4073 46.0365 53.7219 46.7219C53.0365 47.4073 52.2125 47.75 51.25 47.75H26.75ZM26.75 44.25H51.25V19.75H26.75V44.25Z" fill="#C20A0A"/>
</g>
</svg>
