<svg width="80" height="80" viewBox="0 0 80 80" fill="none" xmlns="http://www.w3.org/2000/svg">
<path fill-rule="evenodd" clip-rule="evenodd" d="M57.389 55.705C64.454 50.2165 69 41.6391 69 32C69 15.4315 55.5685 2 39 2C22.4315 2 9 15.4315 9 32C9 41.6391 13.546 50.2165 20.611 55.705L16.1265 71.7927C15.4992 74.0432 17.5714 76.1154 19.8219 75.4881L38.1945 70.3667C38.7214 70.2198 39.2786 70.2198 39.8055 70.3667L58.1781 75.4881C60.4286 76.1154 62.5008 74.0432 61.8735 71.7927L57.389 55.705Z" fill="#462896"/>
<path d="M67 32C67 47.464 54.464 60 39 60C23.536 60 11 47.464 11 32C11 16.536 23.536 4 39 4C54.464 4 67 16.536 67 32Z" fill="#7645FA" stroke="#462896" stroke-width="4"/>
<mask id="mask0_858_1804" style="mask-type:alpha" maskUnits="userSpaceOnUse" x="18" y="11" width="42" height="42">
<rect x="18" y="11" width="42" height="42" fill="#D9D9D9"/>
</mask>
<g mask="url(#mask0_858_1804)">
<path d="M39 33.75C38.5042 33.75 38.0885 33.5823 37.7531 33.2469C37.4177 32.9115 37.25 32.4958 37.25 32C37.25 31.5042 37.4177 31.0885 37.7531 30.7531C38.0885 30.4177 38.5042 30.25 39 30.25C39.4958 30.25 39.9115 30.4177 40.2469 30.7531C40.5823 31.0885 40.75 31.5042 40.75 32C40.75 32.4958 40.5823 32.9115 40.2469 33.2469C39.9115 33.5823 39.4958 33.75 39 33.75ZM39 49.5C36.5792 49.5 34.3042 49.0406 32.175 48.1219C30.0458 47.2031 28.1938 45.9563 26.6188 44.3813C25.0438 42.8063 23.7969 40.9542 22.8781 38.825C21.9594 36.6958 21.5 34.4208 21.5 32C21.5 29.5792 21.9594 27.3042 22.8781 25.175C23.7969 23.0458 25.0438 21.1938 26.6188 19.6188C28.1938 18.0438 30.0458 16.7969 32.175 15.8781C34.3042 14.9594 36.5792 14.5 39 14.5C41.4208 14.5 43.6958 14.9594 45.825 15.8781C47.9542 16.7969 49.8063 18.0438 51.3813 19.6188C52.9563 21.1938 54.2031 23.0458 55.1219 25.175C56.0406 27.3042 56.5 29.5792 56.5 32C56.5 34.4208 56.0406 36.6958 55.1219 38.825C54.2031 40.9542 52.9563 42.8063 51.3813 44.3813C49.8063 45.9563 47.9542 47.2031 45.825 48.1219C43.6958 49.0406 41.4208 49.5 39 49.5ZM39 46C42.9083 46 46.2187 44.6437 48.9312 41.9312C51.6437 39.2187 53 35.9083 53 32C53 28.0917 51.6437 24.7813 48.9312 22.0688C46.2187 19.3563 42.9083 18 39 18C35.0917 18 31.7813 19.3563 29.0688 22.0688C26.3563 24.7813 25 28.0917 25 32C25 35.9083 26.3563 39.2187 29.0688 41.9312C31.7813 44.6437 35.0917 46 39 46ZM39 46C35.0917 46 31.7813 44.6437 29.0688 41.9312C26.3563 39.2187 25 35.9083 25 32C25 28.0917 26.3563 24.7813 29.0688 22.0688C31.7813 19.3563 35.0917 18 39 18C42.9083 18 46.2187 19.3563 48.9312 22.0688C51.6437 24.7813 53 28.0917 53 32C53 35.9083 51.6437 39.2187 48.9312 41.9312C46.2187 44.6437 42.9083 46 39 46ZM41.9312 35.7625C42.1062 35.675 42.2667 35.5583 42.4125 35.4125C42.5583 35.2667 42.675 35.1062 42.7625 34.9312L47.8813 23.9938C48.0271 23.7021 47.9906 23.4469 47.7719 23.2281C47.5531 23.0094 47.2979 22.9729 47.0063 23.1188L36.0687 28.2375C35.8937 28.325 35.7333 28.4417 35.5875 28.5875C35.4417 28.7333 35.325 28.8937 35.2375 29.0687L30.1188 40.0063C29.9729 40.2979 30.0094 40.5531 30.2281 40.7719C30.4469 40.9906 30.7021 41.0271 30.9938 40.8813L41.9312 35.7625Z" fill="#462896"/>
</g>
</svg>
