<svg width="80" height="80" viewBox="0 0 80 80" fill="none" xmlns="http://www.w3.org/2000/svg">
<path fill-rule="evenodd" clip-rule="evenodd" d="M57.389 55.705C64.454 50.2165 69 41.6391 69 32C69 15.4315 55.5685 2 39 2C22.4315 2 9 15.4315 9 32C9 41.6391 13.546 50.2165 20.611 55.705L16.1265 71.7927C15.4992 74.0432 17.5714 76.1154 19.8219 75.4881L38.1945 70.3667C38.7214 70.2198 39.2786 70.2198 39.8055 70.3667L58.1781 75.4881C60.4286 76.1154 62.5008 74.0432 61.8735 71.7927L57.389 55.705Z" fill="#A1A1AA"/>
<path d="M67 32C67 47.464 54.464 60 39 60C23.536 60 11 47.464 11 32C11 16.536 23.536 4 39 4C54.464 4 67 16.536 67 32Z" fill="#D4D4D8" stroke="#A1A1AA" stroke-width="4"/>
<mask id="mask0_858_1806" style="mask-type:alpha" maskUnits="userSpaceOnUse" x="18" y="11" width="42" height="42">
<rect x="18" y="11" width="42" height="42" fill="#D9D9D9"/>
</mask>
<g mask="url(#mask0_858_1806)">
<path d="M25 37.25C23.5417 37.25 22.3021 36.7396 21.2812 35.7188C20.2604 34.6979 19.75 33.4583 19.75 32C19.75 30.5417 20.2604 29.3021 21.2812 28.2812C22.3021 27.2604 23.5417 26.75 25 26.75V23.25C25 22.2875 25.3427 21.4635 26.0281 20.7781C26.7135 20.0927 27.5375 19.75 28.5 19.75H33.75C33.75 18.2917 34.2604 17.0521 35.2812 16.0312C36.3021 15.0104 37.5417 14.5 39 14.5C40.4583 14.5 41.6979 15.0104 42.7188 16.0312C43.7396 17.0521 44.25 18.2917 44.25 19.75H49.5C50.4625 19.75 51.2865 20.0927 51.9719 20.7781C52.6573 21.4635 53 22.2875 53 23.25V26.75C54.4583 26.75 55.6979 27.2604 56.7188 28.2812C57.7396 29.3021 58.25 30.5417 58.25 32C58.25 33.4583 57.7396 34.6979 56.7188 35.7188C55.6979 36.7396 54.4583 37.25 53 37.25V44.25C53 45.2125 52.6573 46.0365 51.9719 46.7219C51.2865 47.4073 50.4625 47.75 49.5 47.75H28.5C27.5375 47.75 26.7135 47.4073 26.0281 46.7219C25.3427 46.0365 25 45.2125 25 44.25V37.25ZM33.75 33.75C34.4792 33.75 35.099 33.4948 35.6094 32.9844C36.1198 32.474 36.375 31.8542 36.375 31.125C36.375 30.3958 36.1198 29.776 35.6094 29.2656C35.099 28.7552 34.4792 28.5 33.75 28.5C33.0208 28.5 32.401 28.7552 31.8906 29.2656C31.3802 29.776 31.125 30.3958 31.125 31.125C31.125 31.8542 31.3802 32.474 31.8906 32.9844C32.401 33.4948 33.0208 33.75 33.75 33.75ZM44.25 33.75C44.9792 33.75 45.599 33.4948 46.1094 32.9844C46.6198 32.474 46.875 31.8542 46.875 31.125C46.875 30.3958 46.6198 29.776 46.1094 29.2656C45.599 28.7552 44.9792 28.5 44.25 28.5C43.5208 28.5 42.901 28.7552 42.3906 29.2656C41.8802 29.776 41.625 30.3958 41.625 31.125C41.625 31.8542 41.8802 32.474 42.3906 32.9844C42.901 33.4948 43.5208 33.75 44.25 33.75ZM33.75 40.75H44.25C44.7458 40.75 45.1615 40.5823 45.4969 40.2469C45.8323 39.9115 46 39.4958 46 39C46 38.5042 45.8323 38.0885 45.4969 37.7531C45.1615 37.4177 44.7458 37.25 44.25 37.25H33.75C33.2542 37.25 32.8385 37.4177 32.5031 37.7531C32.1677 38.0885 32 38.5042 32 39C32 39.4958 32.1677 39.9115 32.5031 40.2469C32.8385 40.5823 33.2542 40.75 33.75 40.75ZM28.5 44.25H49.5V23.25H28.5V44.25Z" fill="#A1A1AA"/>
</g>
</svg>
