<svg width="80" height="80" viewBox="0 0 80 80" fill="none" xmlns="http://www.w3.org/2000/svg">
<path fill-rule="evenodd" clip-rule="evenodd" d="M57.389 55.705C64.454 50.2165 69 41.6391 69 32C69 15.4315 55.5685 2 39 2C22.4315 2 9 15.4315 9 32C9 41.6391 13.546 50.2165 20.611 55.705L16.1265 71.7927C15.4992 74.0432 17.5714 76.1154 19.8219 75.4881L38.1945 70.3667C38.7214 70.2198 39.2786 70.2198 39.8055 70.3667L58.1781 75.4881C60.4286 76.1154 62.5008 74.0432 61.8735 71.7927L57.389 55.705Z" fill="#510F7D"/>
<path d="M67 32C67 47.464 54.464 60 39 60C23.536 60 11 47.464 11 32C11 16.536 23.536 4 39 4C54.464 4 67 16.536 67 32Z" fill="#7813BD" stroke="#510F7D" stroke-width="4"/>
<mask id="mask0_858_1812" style="mask-type:alpha" maskUnits="userSpaceOnUse" x="18" y="11" width="42" height="42">
<rect x="18" y="11" width="42" height="42" fill="#D9D9D9"/>
</mask>
<g mask="url(#mask0_858_1812)">
<path d="M39 35.5C39.4958 35.5 39.9115 35.3323 40.2469 34.9969C40.5823 34.6615 40.75 34.2458 40.75 33.75V25C40.75 24.5042 40.5823 24.0885 40.2469 23.7531C39.9115 23.4177 39.4958 23.25 39 23.25C38.5042 23.25 38.0885 23.4177 37.7531 23.7531C37.4177 24.0885 37.25 24.5042 37.25 25V33.75C37.25 34.2458 37.4177 34.6615 37.7531 34.9969C38.0885 35.3323 38.5042 35.5 39 35.5ZM44.25 32.875C44.7458 32.875 45.1615 32.7073 45.4969 32.3719C45.8323 32.0365 46 31.6208 46 31.125V26.75C46 26.2542 45.8323 25.8385 45.4969 25.5031C45.1615 25.1677 44.7458 25 44.25 25C43.7542 25 43.3385 25.1677 43.0031 25.5031C42.6677 25.8385 42.5 26.2542 42.5 26.75V31.125C42.5 31.6208 42.6677 32.0365 43.0031 32.3719C43.3385 32.7073 43.7542 32.875 44.25 32.875ZM33.75 32C34.2458 32 34.6615 31.8323 34.9969 31.4969C35.3323 31.1615 35.5 30.7458 35.5 30.25V26.75C35.5 26.2542 35.3323 25.8385 34.9969 25.5031C34.6615 25.1677 34.2458 25 33.75 25C33.2542 25 32.8385 25.1677 32.5031 25.5031C32.1677 25.8385 32 26.2542 32 26.75V30.25C32 30.7458 32.1677 31.1615 32.5031 31.4969C32.8385 31.8323 33.2542 32 33.75 32ZM28.5 41.975C26.8375 40.4583 25.5469 38.6865 24.6281 36.6594C23.7094 34.6323 23.25 32.4958 23.25 30.25C23.25 25.875 24.7812 22.1562 27.8438 19.0938C30.9062 16.0312 34.625 14.5 39 14.5C42.6458 14.5 45.876 15.5719 48.6906 17.7156C51.5052 19.8594 53.3354 22.6521 54.1813 26.0938L56.4563 35.0625C56.6021 35.6167 56.5 36.1198 56.15 36.5719C55.8 37.024 55.3333 37.25 54.75 37.25H51.25V42.5C51.25 43.4625 50.9073 44.2865 50.2219 44.9719C49.5365 45.6573 48.7125 46 47.75 46H44.25V47.75C44.25 48.2458 44.0823 48.6615 43.7469 48.9969C43.4115 49.3323 42.9958 49.5 42.5 49.5C42.0042 49.5 41.5885 49.3323 41.2531 48.9969C40.9177 48.6615 40.75 48.2458 40.75 47.75V44.25C40.75 43.7542 40.9177 43.3385 41.2531 43.0031C41.5885 42.6677 42.0042 42.5 42.5 42.5H47.75V35.5C47.75 35.0042 47.9177 34.5885 48.2531 34.2531C48.5885 33.9177 49.0042 33.75 49.5 33.75H52.475L50.8125 26.9688C50.1417 24.3146 48.7125 22.1562 46.525 20.4937C44.3375 18.8312 41.8292 18 39 18C35.6167 18 32.7292 19.1813 30.3375 21.5438C27.9458 23.9063 26.75 26.7792 26.75 30.1625C26.75 31.9125 27.1073 33.575 27.8219 35.15C28.5365 36.725 29.55 38.125 30.8625 39.35L32 40.4V47.75C32 48.2458 31.8323 48.6615 31.4969 48.9969C31.1615 49.3323 30.7458 49.5 30.25 49.5C29.7542 49.5 29.3385 49.3323 29.0031 48.9969C28.6677 48.6615 28.5 48.2458 28.5 47.75V41.975Z" fill="#510F7D"/>
</g>
</svg>
