<svg width="64" height="64" viewBox="0 0 64 64" fill="none" xmlns="http://www.w3.org/2000/svg">
<mask id="mask0_618_1689" style="mask-type:alpha" maskUnits="userSpaceOnUse" x="0" y="0" width="64" height="64">
<rect width="64" height="64" fill="#D9D9D9"/>
</mask>
<g mask="url(#mask0_618_1689)">
<path d="M10.154 54.3889C8.53446 54.3889 7.15023 53.8143 6.00134 52.6649C4.85201 51.516 4.27734 50.1318 4.27734 48.5123V15.4882C4.27734 13.8616 4.85201 12.4714 6.00134 11.3176C7.15023 10.1638 8.53446 9.58691 10.154 9.58691H53.8447C55.4713 9.58691 56.8616 10.1638 58.0153 11.3176C59.1691 12.4714 59.746 13.8616 59.746 15.4882V48.5123C59.746 50.1318 59.1691 51.516 58.0153 52.6649C56.8616 53.8143 55.4713 54.3889 53.8447 54.3889H10.154ZM31.9993 35.0329L10.154 20.6776V48.5123H53.8447V20.6776L31.9993 35.0329ZM31.9993 29.6216L53.6667 15.4882H10.376L31.9993 29.6216ZM10.154 20.6776V15.4882V48.5123V20.6776Z" fill="#21643F"/>
</g>
</svg>
