<svg width="64" height="64" viewBox="0 0 64 64" fill="none" xmlns="http://www.w3.org/2000/svg">
<rect width="54" height="46" transform="translate(5 9)" fill="#21643F"/>
<path d="M9.41834 44.9023V40.9755H54.582V44.9023H9.41834ZM12.0152 33.0236L9.07961 31.5511L10.9991 28.6059H7.16016V25.6608H10.9991L9.07961 22.8139L12.0152 21.3413L13.9347 24.1883L15.8542 21.3413L18.7898 22.8139L16.8703 25.6608H20.7092V28.6059H16.8703L18.7898 31.5511L15.8542 33.0236L13.9347 30.0785L12.0152 33.0236ZM30.0807 33.0236L27.1451 31.5511L29.0645 28.6059H25.2256V25.6608H29.0645L27.1451 22.8139L30.0807 21.3413L32.0002 24.1883L33.9196 21.3413L36.8552 22.8139L34.9358 25.6608H38.7747V28.6059H34.9358L36.8552 31.5511L33.9196 33.0236L32.0002 30.0785L30.0807 33.0236ZM48.1462 33.0236L45.2105 31.5511L47.13 28.6059H43.2911V25.6608H47.13L45.2105 22.8139L48.1462 21.3413L50.0656 24.1883L51.9851 21.3413L54.9207 22.8139L53.0012 25.6608H56.8402V28.6059H53.0012L54.9207 31.5511L51.9851 33.0236L50.0656 30.0785L48.1462 33.0236Z" fill="#E8EAED"/>
</svg>
