<svg width="76" height="75" viewBox="0 0 76 75" fill="none" xmlns="http://www.w3.org/2000/svg">
<path d="M38.8191 0H36.2392C16.2249 0 0 16.2122 0 36.2111V38.7889C0 58.7878 16.2249 75 36.2392 75H38.8191C58.8335 75 75.0583 58.7878 75.0583 38.7889V36.2111C75.0583 16.2122 58.8335 0 38.8191 0Z" fill="#21643F"/>
<path d="M14.3971 17.6882C14.3874 17.7161 14.3767 17.7439 14.366 17.7718C14.3595 17.7922 14.3628 17.7836 14.3971 17.6882Z" fill="white"/>
<path d="M18.5403 57.6465C18.5403 57.6465 18.5366 57.644 18.5342 57.6428C18.5366 57.644 18.5378 57.6453 18.5403 57.6465Z" fill="white"/>
<path d="M70.5606 51.9707C70.5499 51.9546 70.5381 51.9396 70.5274 51.9246C70.4984 51.8775 70.4663 51.8335 70.4309 51.7918C69.1174 49.9639 67.7781 48.1553 66.4592 46.3318C67.4339 46.2921 68.4075 46.2418 69.3811 46.1786C69.4916 46.1753 69.5988 46.155 69.6996 46.1207C69.705 46.1196 69.7093 46.1175 69.7146 46.1153C69.7393 46.1068 69.7629 46.0971 69.7865 46.0875C70.0149 45.9975 70.2047 45.8421 70.3323 45.6182C70.5103 45.3311 70.5606 44.971 70.4052 44.6335C70.3698 44.5435 70.3215 44.46 70.2604 44.385C69.3307 42.9043 68.414 41.415 67.5015 39.9246C67.0425 39.1757 66.5836 38.4257 66.1247 37.6757C65.6711 36.9353 65.1833 36.2078 64.7769 35.4407C64.6814 35.2596 64.5903 35.0753 64.5045 34.89C64.482 34.8418 64.4605 34.7925 64.4391 34.7443C64.4412 34.7464 64.3554 34.5407 64.3554 34.5396C64.2075 34.1593 64.081 33.7714 63.9759 33.3782C63.8805 33.0203 63.8032 32.6582 63.7432 32.2928C63.7421 32.2843 63.7132 32.0732 63.7121 32.0732C63.7067 32.0239 63.7003 31.9746 63.696 31.9253C63.6735 31.7035 63.6574 31.4807 63.6478 31.2589C63.6124 30.4189 63.7067 29.5918 63.7764 28.7571C63.8504 27.8636 63.9062 26.9678 63.9351 26.071C63.993 24.3096 63.9566 22.5407 63.7775 20.7868C63.6188 19.245 63.3636 17.6978 62.6591 16.3007C62.5112 16.0082 62.3407 15.7285 62.1466 15.4639C61.8667 15.0825 61.5504 14.6475 61.1462 14.385C60.4267 13.9178 59.5174 13.7185 58.6725 13.6725C57.1423 13.59 55.5393 14.0635 54.125 14.61C50.7785 15.9021 47.8351 17.971 45.0054 20.1364C42.8598 20.1096 40.7196 19.8846 38.574 19.8846C37.1447 19.8846 35.7229 19.8943 34.2946 19.9693C32.9532 20.0389 31.6129 20.1225 30.2693 20.1385C27.7999 18.2485 25.2511 16.425 22.4032 15.1414C20.902 14.4653 19.329 13.9125 17.6874 13.7153C16.895 13.62 16.0672 13.6532 15.2974 13.8771C14.9028 13.9918 14.4663 14.1514 14.1243 14.3839C13.7222 14.656 13.408 15.076 13.1239 15.4628C12.2682 16.6275 11.8725 18.0728 11.6602 19.4828C11.3954 21.2475 11.301 23.0335 11.3107 24.8164C11.3203 26.581 11.4994 28.3243 11.6098 30.0825C11.6345 30.4735 11.6388 30.8657 11.6227 31.2568C11.6152 31.4421 11.6023 31.6275 11.5852 31.8128C11.5787 31.8868 11.5702 31.9607 11.5627 32.0346C11.5562 32.085 11.553 32.1171 11.5508 32.1343C11.5433 32.1868 11.5358 32.2393 11.5273 32.2918C11.4018 33.06 11.197 33.8143 10.915 34.5396C10.915 34.5407 10.8432 34.7132 10.8324 34.741C10.7949 34.8246 10.7574 34.9093 10.7188 34.9918C10.6233 35.1943 10.5215 35.3936 10.4132 35.5896C10.1827 36.0096 9.92101 36.4136 9.6701 36.8218C9.14469 37.6768 8.62036 38.5328 8.09602 39.39C7.07416 41.0593 6.05015 42.7275 5.00898 44.3861C4.95001 44.4578 4.90284 44.5403 4.86746 44.6271C4.70769 44.9668 4.75701 45.33 4.93715 45.6193C5.05938 45.8336 5.24275 45.9868 5.46042 46.0789C5.49366 46.0939 5.52797 46.1068 5.56336 46.1186C5.56336 46.1186 5.56443 46.1186 5.5655 46.1186C5.66737 46.1528 5.77567 46.1743 5.88826 46.1775C6.86187 46.2407 7.83548 46.2911 8.81017 46.3307C7.48807 48.1586 6.14558 49.9725 4.82885 51.8046C4.80204 51.8378 4.77631 51.8721 4.75379 51.9085C4.73878 51.9289 4.72378 51.9493 4.70877 51.9696C4.45357 52.3253 4.54791 52.8793 4.7956 53.1996C4.79882 53.2028 4.80097 53.2061 4.80419 53.2093C5.00684 53.4803 5.32209 53.6732 5.66629 53.6357C6.60881 53.5339 7.53737 53.3635 8.46702 53.1803C8.90129 53.0946 9.33557 53.0089 9.77198 52.935C10.0926 52.8803 10.2674 52.8525 10.4872 52.8278C11.7599 54.1511 12.9191 55.5782 14.1972 56.8971C14.5575 57.2689 14.9274 57.6321 15.3102 57.9814C15.5214 58.1743 15.7348 58.3843 15.9729 58.5439C16.0501 58.5953 16.1337 58.6414 16.2141 58.6907C16.2527 58.7282 16.2924 58.7646 16.3342 58.7989C16.464 58.9071 16.5991 59.011 16.7502 59.0882C16.8092 59.1182 16.9465 59.2146 16.9143 59.1643C16.9497 59.2007 16.984 59.2361 17.0022 59.2521C17.4183 59.6196 17.9512 59.8768 18.4573 60.0975C19.447 60.5282 20.4903 60.9246 21.5561 61.111C22.711 61.3125 23.8411 61.29 25.0067 61.2868C27.2123 61.2803 29.4158 61.3478 31.6225 61.3478C33.3585 61.3478 35.0934 61.3232 36.8283 61.3157C37.0825 61.3157 37.3366 61.3125 37.5907 61.3136C37.6615 61.3136 37.7312 61.3136 37.802 61.3136C39.4597 61.3168 41.1174 61.3393 42.7751 61.3468C45.0076 61.3564 47.2368 61.2793 49.4692 61.2857C50.5437 61.2889 51.6288 61.3586 52.6989 61.2514C53.8451 61.1357 54.9002 60.841 55.9757 60.4414C56.4915 60.2496 57.0073 60.0386 57.4908 59.7739C57.775 59.6186 58.1749 59.4225 58.4033 59.1535C58.4323 59.1418 58.4677 59.1193 58.4859 59.1107C58.6124 59.0486 58.7175 58.9746 58.829 58.8889C58.8901 58.8418 58.9523 58.7957 59.0092 58.7432C59.0134 58.7389 59.0338 58.7196 59.0499 58.7025C59.0638 58.6907 59.0778 58.68 59.0831 58.6768C59.1443 58.6382 59.2086 58.6039 59.2686 58.5653C59.7243 58.2685 60.1232 57.8475 60.5125 57.4693C62.0201 56.0003 63.3304 54.3471 64.7897 52.8321C65.0095 52.8578 65.1886 52.8857 65.5039 52.9393C65.9403 53.0132 66.3745 53.0989 66.8088 53.1846C67.7374 53.3678 68.667 53.5371 69.6095 53.64C69.9248 53.6743 70.2164 53.5125 70.4202 53.2746C70.4405 53.2521 70.4609 53.2286 70.4802 53.2028C70.7311 52.8782 70.8233 52.3296 70.5671 51.9728L70.5606 51.9707ZM16.2581 58.7218C16.2731 58.7314 16.2785 58.7346 16.2581 58.7218V58.7218ZM66.0872 50.8018C65.7515 50.745 65.4138 50.6968 65.076 50.6528C64.6407 50.5961 64.2032 50.5093 63.7947 50.7246C63.5159 50.8725 63.2735 51.1971 63.058 51.4232C62.8511 51.6396 62.6484 51.8593 62.4458 52.081C61.677 52.9243 60.9371 53.7921 60.1651 54.6321C59.7662 55.065 59.3598 55.4903 58.9384 55.9018C58.7304 56.1043 58.5202 56.3025 58.3047 56.4964C58.2468 56.5489 58.1889 56.6003 58.1299 56.6518C58.1224 56.6582 58.0795 56.6871 58.0549 56.7053C58.0302 56.7182 58.0055 56.7321 57.997 56.7375C57.9294 56.7814 57.8651 56.8285 57.8007 56.8768C57.6999 56.9528 57.5959 57.0268 57.5026 57.1114C57.4994 57.1146 57.4908 57.121 57.4812 57.1296C57.434 57.151 57.3128 57.2186 57.2828 57.2325C57.0834 57.3257 56.914 57.4607 56.766 57.6225C56.7617 57.6268 56.7596 57.63 56.7563 57.6343C56.7456 57.6396 56.7349 57.645 56.7209 57.6525C56.5998 57.7157 56.4861 57.795 56.366 57.8614C56.2309 57.9353 56.0937 58.005 55.9543 58.0703C55.9028 58.095 55.8503 58.1186 55.7988 58.1421C55.7774 58.1518 55.7602 58.1593 55.7452 58.1668C55.7388 58.1689 55.7248 58.1743 55.698 58.185C55.1544 58.4014 54.5957 58.6103 54.0339 58.7743C53.7369 58.8611 53.4312 58.9253 53.1256 58.9789C53.0903 58.9853 52.8361 59.0218 52.8415 59.0228C52.6721 59.0432 52.5016 59.0582 52.3311 59.0689C51.0969 59.1514 49.8402 59.0743 48.6029 59.071C47.3065 59.0678 46.0123 59.1236 44.7159 59.1332C42.8974 59.1461 41.0799 59.1225 39.2613 59.1086C39.2485 59.1086 39.2356 59.1064 39.2227 59.1064C38.6576 59.1011 38.0915 59.1011 37.5264 59.1021C37.0321 59.1021 36.5378 59.1021 36.0445 59.1064C36.0317 59.1064 36.0199 59.1086 36.007 59.1086C34.5026 59.1193 32.9972 59.1375 31.4928 59.1364C30.2114 59.1364 28.9322 59.1107 27.6519 59.0732C26.3845 59.0357 25.1118 59.085 23.8443 59.0946C23.5613 59.0968 23.2792 59.0903 22.9972 59.0732C22.8353 59.0635 22.6745 59.0475 22.5126 59.0325C22.504 59.0325 22.4268 59.0228 22.4 59.0196C22.3335 59.01 22.2681 59.0003 22.2027 58.9886C21.5862 58.8846 21.0071 58.7014 20.4185 58.4968C20.1515 58.4035 19.8877 58.305 19.6228 58.2064C19.611 58.2021 19.5489 58.1764 19.5253 58.1678C19.4888 58.1518 19.4534 58.1357 19.417 58.1196C19.2604 58.0478 19.1049 57.9728 18.9527 57.8914C18.8326 57.8271 18.7136 57.7586 18.5977 57.6857C18.5806 57.675 18.5645 57.6653 18.5474 57.6546C18.5452 57.6525 18.5431 57.6514 18.5409 57.6503C18.5656 57.6696 18.5709 57.7007 18.5205 57.6439C18.5195 57.6428 18.5184 57.6418 18.5163 57.6396C18.5238 57.6407 18.5302 57.6428 18.5366 57.6471C18.5216 57.6364 18.5088 57.6278 18.498 57.6203C18.3608 57.4714 18.2 57.3482 18.023 57.2528C17.9458 57.211 17.8643 57.1757 17.7861 57.1339C17.7796 57.1286 17.7743 57.1221 17.7667 57.1157C17.6767 57.0321 17.5577 56.9475 17.4687 56.8811C17.385 56.8189 17.2939 56.7321 17.1974 56.6946C17.1802 56.6882 17.1717 56.685 17.1652 56.6839C17.1116 56.6378 17.0591 56.5843 17.0087 56.5393C16.5658 56.1418 16.1391 55.725 15.7263 55.2964C14.9178 54.4596 14.1586 53.5778 13.3855 52.7089C12.963 52.2343 12.5363 51.7628 12.0956 51.3043C11.7428 50.9378 11.4147 50.5628 10.856 50.5821C10.4593 50.595 10.0529 50.671 9.66046 50.7289C9.15221 50.8039 8.64716 50.8993 8.1432 50.9978C9.39131 49.2868 10.648 47.5821 11.8736 45.8539C12.3336 45.2046 11.7278 44.0978 10.9161 44.1868C9.88349 44.1643 8.85091 44.1246 7.8194 44.0732C8.59893 42.8175 9.37095 41.5575 10.143 40.2964C11.1906 38.5853 12.3819 36.9139 13.0938 35.0271C13.7855 33.195 13.9399 31.2568 13.7619 29.3207C13.5742 27.2828 13.4831 25.2332 13.5528 23.1868C13.586 22.2096 13.6493 21.2293 13.7736 20.2585C13.7801 20.2168 13.7972 20.0946 13.7994 20.0753C13.8144 19.9768 13.8294 19.8793 13.8455 19.7818C13.8787 19.5868 13.9141 19.3918 13.9549 19.1978C14.0428 18.781 14.1522 18.3675 14.2948 17.9657C14.3173 17.9014 14.3419 17.8382 14.3666 17.775C14.373 17.7568 14.3881 17.7139 14.3977 17.6914C14.3977 17.6893 14.3999 17.6871 14.3999 17.686C14.4824 17.5093 14.5671 17.3335 14.6636 17.1632C14.7612 16.9918 14.8706 16.83 14.9799 16.666C14.9939 16.6457 15.0035 16.6296 15.0121 16.6168C15.0228 16.606 15.0346 16.5921 15.0497 16.575C15.1386 16.4743 15.2319 16.3757 15.3209 16.2739C15.3424 16.2493 15.3542 16.2321 15.3617 16.2203C15.3756 16.2171 15.3971 16.2107 15.4292 16.1978C15.441 16.1935 15.6362 16.1046 15.618 16.1078C15.7863 16.0446 15.9589 15.9943 16.1337 15.9557C16.2023 15.9407 16.272 15.9268 16.3428 15.915C16.346 15.9171 16.5262 15.8968 16.5476 15.8957C16.7878 15.8807 17.0301 15.8818 17.2703 15.8978C17.3743 15.9043 17.4783 15.915 17.5823 15.9246C17.6059 15.9268 17.6252 15.9289 17.6402 15.93C17.6574 15.9332 17.6767 15.9375 17.7046 15.9428C17.9137 15.9825 18.1227 16.0189 18.3308 16.0671C18.7811 16.171 19.224 16.3028 19.6636 16.4443C20.0571 16.5718 20.4474 16.7057 20.8302 16.8632C20.8763 16.8835 21.0264 16.9468 21.0243 16.9457C21.0929 16.9757 21.1626 17.0068 21.2312 17.0368C21.4714 17.1439 21.7095 17.2553 21.9454 17.37C23.6224 18.1853 25.2029 19.1839 26.7234 20.2596C27.49 20.8018 28.2428 21.3643 28.9901 21.9353C29.1885 22.0864 29.3675 22.2546 29.6152 22.3232C29.9026 22.4025 30.2414 22.3618 30.5374 22.3575C31.081 22.3478 31.6247 22.3275 32.1672 22.3028C33.7638 22.2289 35.3583 22.1068 36.957 22.1068C38.0068 22.1068 39.0544 22.1035 40.1041 22.1496C41.1453 22.1946 42.1843 22.2621 43.2255 22.3093C43.7273 22.3318 44.2291 22.35 44.7309 22.3586C45.0269 22.3639 45.3657 22.4035 45.6531 22.3243C45.9286 22.2482 46.1463 22.0371 46.3683 21.8678C47.8555 20.7343 49.3695 19.6318 50.9693 18.6611C51.766 18.1778 52.5831 17.7268 53.4237 17.3228C53.6264 17.2253 53.8312 17.13 54.0371 17.0378C54.1057 17.0068 54.1743 16.9768 54.244 16.9468C54.243 16.9468 54.3898 16.8857 54.437 16.8653C54.8531 16.695 55.2777 16.5503 55.7055 16.4143C56.1119 16.2846 56.5215 16.1646 56.9375 16.0693C57.1456 16.0211 57.3547 15.9846 57.5638 15.945C57.5916 15.9396 57.612 15.9353 57.6281 15.9321C57.6442 15.931 57.6624 15.9289 57.686 15.9268C57.8243 15.9139 57.9626 15.9 58.102 15.8935C58.3079 15.8839 58.5149 15.8839 58.7207 15.8978C58.7422 15.8989 58.9212 15.9193 58.9255 15.9171C58.9952 15.9289 59.0649 15.9428 59.1346 15.9578C59.3094 15.9975 59.482 16.0478 59.6504 16.11C59.6321 16.1068 59.8273 16.1946 59.8391 16.2C59.8755 16.2225 59.9002 16.2364 59.9152 16.245C59.9495 16.2793 59.9838 16.3146 60.0182 16.35C60.0878 16.4239 60.1522 16.501 60.2187 16.5771C60.2348 16.5953 60.2465 16.6082 60.2562 16.6189C60.2648 16.6318 60.2744 16.6468 60.2884 16.6682C60.3977 16.8321 60.5071 16.9939 60.6047 17.1653C60.6926 17.3218 60.7741 17.4814 60.8481 17.6443C60.8599 17.6689 60.8845 17.7321 60.8974 17.7632C60.9349 17.8618 60.9725 17.9603 61.0057 18.06C61.1322 18.4328 61.232 18.8143 61.3134 19.2C61.3542 19.3939 61.3907 19.5889 61.4228 19.7839C61.4389 19.8814 61.455 19.98 61.4689 20.0775C61.4775 20.1375 61.4872 20.1985 61.4957 20.2585C61.4957 20.2639 61.4968 20.2671 61.4979 20.2725C61.7499 22.3189 61.7863 24.3921 61.7027 26.4503C61.6244 28.3843 61.2705 30.3289 61.5161 32.2607C61.6416 33.2453 61.856 34.2064 62.2163 35.1332C62.5744 36.0546 63.0366 36.8914 63.5534 37.7314C64.6503 39.5132 65.7376 41.3003 66.8356 43.081C67.0404 43.4132 67.2463 43.7443 67.4511 44.0753C66.4196 44.1257 65.388 44.1653 64.3554 44.1889C63.5437 44.1 62.9379 45.2068 63.3979 45.856C64.6224 47.5843 65.8791 49.2889 67.1283 51C66.782 50.9325 66.4356 50.8661 66.0882 50.8071L66.0872 50.8018Z" fill="white"/>
<path d="M24.0386 23.4203C24.7452 23.8178 25.4529 24.2142 26.1596 24.6117C26.5038 24.8046 26.8469 25.0017 27.1932 25.1925C27.1986 25.1946 27.2029 25.1978 27.2082 25.201C27.4613 25.3435 27.7808 25.3907 28.0628 25.3125C28.3202 25.2417 28.599 25.0425 28.7255 24.8035C28.8617 24.5464 28.9292 24.2346 28.837 23.9496C28.7491 23.6775 28.5829 23.431 28.3277 23.2875L27.502 22.8235C26.8394 22.4517 26.1778 22.08 25.5151 21.7071L23.1025 20.3517C22.4013 19.9575 21.7 19.5642 20.9988 19.171C20.646 18.9728 20.2932 18.7746 19.9404 18.5764C19.7592 18.4746 19.563 18.3867 19.3625 18.3321C19.1384 18.27 18.8918 18.2357 18.6591 18.2485C18.4339 18.2614 18.1873 18.2903 17.9729 18.3739C17.8292 18.4296 17.6823 18.4864 17.5472 18.5614C17.4078 18.6385 17.278 18.7467 17.1558 18.8442C16.9778 18.9878 16.8352 19.1732 16.7076 19.3617C16.669 19.4185 16.6357 19.4785 16.6068 19.5407C16.5382 19.6907 16.4663 19.8439 16.4234 20.0035C16.3784 20.1707 16.3623 20.3475 16.3441 20.5189C16.3023 20.9228 16.2658 21.3278 16.2272 21.7317L15.9827 24.2635C15.898 25.1442 15.8133 26.025 15.7275 26.9067C15.6782 27.4221 15.6278 27.9375 15.5785 28.4539C15.5763 28.4785 15.5742 28.5032 15.571 28.5278C15.5452 28.7946 15.7136 29.1289 15.8959 29.311C16.0878 29.5028 16.4041 29.6475 16.6797 29.6357C16.966 29.6228 17.2641 29.5285 17.4635 29.311C17.5214 29.236 17.5793 29.161 17.6372 29.0871C17.738 28.9146 17.7884 28.7282 17.7884 28.5278C17.8142 28.261 17.8399 27.9942 17.8656 27.7275C17.9278 27.0867 17.9889 26.446 18.0511 25.8064C18.1262 25.0328 18.2002 24.2593 18.2752 23.4846C18.3396 22.8182 18.4039 22.1507 18.4682 21.4842C18.495 21.211 18.5197 20.9378 18.5476 20.6646C18.5551 20.6314 18.5626 20.5971 18.5722 20.565C18.5787 20.5542 18.5851 20.5435 18.5905 20.5328C18.6001 20.5232 18.6098 20.5135 18.6194 20.5039C18.6334 20.4953 18.6484 20.4867 18.6623 20.4792C18.6784 20.475 18.6934 20.4696 18.7095 20.4664C18.7213 20.4664 18.7342 20.4653 18.746 20.4653C18.7631 20.4696 18.7803 20.4739 18.7963 20.4792C18.8628 20.5146 18.9272 20.551 18.9926 20.5885C19.1909 20.7 19.3904 20.8114 19.5887 20.9239C20.2546 21.2978 20.9216 21.6728 21.5874 22.0467C22.4045 22.5053 23.2216 22.965 24.0386 23.4235V23.4203Z" fill="white"/>
<path d="M60.0369 27.4296C59.9565 26.6003 59.8771 25.771 59.7967 24.9428C59.7109 24.0524 59.6251 23.1631 59.5394 22.2728C59.4868 21.7242 59.4332 21.1756 59.3807 20.6271C59.3367 20.1739 59.2627 19.7249 58.9936 19.3414C58.9046 19.2149 58.8124 19.0906 58.7062 18.9781C58.5958 18.8603 58.4617 18.766 58.3331 18.6696C58.1486 18.5314 57.9353 18.4435 57.7197 18.3642C57.5031 18.2849 57.2587 18.2549 57.0324 18.2464C56.7987 18.2367 56.552 18.271 56.3279 18.3374C55.8937 18.466 55.4884 18.7349 55.0959 18.9556C54.4569 19.3146 53.8178 19.6735 53.1798 20.0324C52.3777 20.4824 51.5768 20.9335 50.7747 21.3835C50.0552 21.7874 49.3357 22.1914 48.6162 22.5953C48.2238 22.816 47.8324 23.0356 47.44 23.2564C47.4218 23.2671 47.4035 23.2767 47.3853 23.2874C47.1451 23.4224 46.9489 23.686 46.876 23.9496C46.8031 24.2153 46.8363 24.5678 46.9875 24.8035C47.1397 25.0403 47.3671 25.2481 47.6501 25.3124C47.9439 25.3789 48.2377 25.351 48.5047 25.201C48.7889 25.0414 49.0719 24.8828 49.3561 24.7231C50.0327 24.3428 50.7104 23.9624 51.387 23.5831C52.2051 23.1235 53.0222 22.6649 53.8403 22.2053C54.5383 21.8131 55.2353 21.4221 55.9334 21.0299C56.2583 20.8478 56.5821 20.6624 56.9091 20.4824C56.9091 20.4824 56.9113 20.4824 56.9123 20.4814C56.9306 20.476 56.9499 20.4706 56.9681 20.4653C56.9799 20.4653 56.9928 20.4653 57.0045 20.4664C57.0206 20.4706 57.0356 20.4749 57.0517 20.4792C57.0667 20.4878 57.0807 20.4953 57.0946 20.5039C57.1043 20.5135 57.1139 20.5231 57.1236 20.5328C57.13 20.5435 57.1364 20.5542 57.1418 20.5649C57.1525 20.6003 57.16 20.6356 57.1675 20.6721C57.189 20.8789 57.2072 21.0867 57.2265 21.2935C57.2876 21.9299 57.3488 22.5664 57.4109 23.2028C57.486 23.9764 57.56 24.7499 57.635 25.5235L57.8291 27.5346C57.8602 27.8614 57.8913 28.1881 57.9235 28.5149C57.9235 28.5192 57.9235 28.5246 57.9245 28.5289C57.9192 28.681 57.9503 28.8235 58.02 28.9553C58.065 29.0924 58.1411 29.2114 58.2494 29.3121C58.4414 29.5039 58.7577 29.6485 59.0333 29.6367C59.3196 29.6239 59.6176 29.5296 59.8171 29.3121C60.0047 29.1074 60.1699 28.8171 60.142 28.5289C60.1066 28.1635 60.0712 27.7971 60.0358 27.4317L60.0369 27.4296Z" fill="white"/>
<path d="M49.1874 45.375C48.8979 45.3878 48.6074 45.4842 48.4036 45.6996C48.1688 45.9482 47.9158 46.1785 47.6488 46.3928C47.178 46.74 46.6708 47.0325 46.1369 47.2703C45.5182 47.5178 44.8716 47.6925 44.2122 47.7942C43.5463 47.8714 42.8729 47.8725 42.207 47.7964C41.5958 47.7021 40.9975 47.5403 40.4238 47.31C40.0421 47.1396 39.6679 46.9403 39.3269 46.6971C39.2626 46.6425 39.2015 46.5846 39.1446 46.5225C39.135 46.5075 39.1264 46.4925 39.1178 46.4775C39.1178 46.4732 39.1168 46.47 39.1157 46.4657C39.1039 46.2857 39.0996 46.1035 39.0482 45.9278C38.9881 45.7178 38.8809 45.5196 38.7383 45.3525L41.8832 42.1907H33.3609L36.5058 45.3525C36.4693 45.3835 36.4329 45.4125 36.3964 45.4457C36.1788 45.6503 35.9954 45.8914 35.7809 46.1003C35.5879 46.2878 35.3842 46.4635 35.173 46.6317C34.6669 47.0046 34.12 47.3196 33.5453 47.5746C32.9073 47.8307 32.2414 48.0128 31.5616 48.1167C30.9054 48.1928 30.2427 48.195 29.5876 48.1178C29.0911 48.0407 28.5968 47.9207 28.1282 47.7407C27.9256 47.6475 27.7304 47.5392 27.5481 47.4117C27.4763 47.3496 27.4087 47.2832 27.3455 47.2125C27.3112 47.16 27.279 47.1064 27.2501 47.0517C27.2479 47.0442 27.2447 47.0378 27.2425 47.0303C27.1557 46.7582 26.9831 46.515 26.7332 46.3682C26.4952 46.2289 26.1456 46.17 25.8786 46.2567C25.6106 46.3435 25.3511 46.5096 25.216 46.7657C25.0798 47.0239 25.0133 47.3335 25.1045 47.6196C25.2792 48.1671 25.602 48.676 26.0512 49.0403C26.2807 49.2267 26.5145 49.4014 26.775 49.5417C27.0377 49.6821 27.3155 49.7978 27.5942 49.9007C28.4617 50.2232 29.4181 50.3667 30.3392 50.3914C32.2071 50.4417 34.1211 49.9221 35.7113 48.9417C36.1841 48.6503 36.6334 48.3117 37.0505 47.9453C37.1309 47.8746 37.2103 47.8007 37.2886 47.7267C37.2971 47.7385 37.3046 47.7514 37.3143 47.7642C37.4355 47.9239 37.5534 48.0803 37.7014 48.2153C38.0917 48.57 38.5506 48.8539 39.0213 49.0896C39.8556 49.5075 40.7477 49.8075 41.6709 49.9425C42.1856 50.0175 42.6992 50.0721 43.2192 50.071C43.7404 50.07 44.255 50.0132 44.7697 49.9371C45.7037 49.7989 46.5979 49.5 47.4504 49.096C48.3875 48.6514 49.2582 48.0203 49.9713 47.266C50.1696 47.056 50.2962 46.7753 50.2962 46.4828C50.2962 46.2107 50.175 45.886 49.9713 45.6996C49.76 45.5057 49.4823 45.3621 49.1874 45.375Z" fill="white"/>
<path d="M24.8789 37.4785C25.2038 37.3521 25.5405 37.261 25.8847 37.2031C26.2053 37.171 26.5281 37.1699 26.8498 37.2021C27.1157 37.2481 27.3763 37.3178 27.6282 37.4121C27.7869 37.486 27.9424 37.5663 28.0904 37.6606C28.3284 37.8117 28.6769 37.846 28.9449 37.7721C29.2023 37.7013 29.4811 37.5021 29.6076 37.2631C29.7438 37.006 29.8114 36.6942 29.7191 36.4092C29.628 36.1285 29.4618 35.9067 29.2098 35.7471C28.9235 35.5649 28.6158 35.431 28.3005 35.3046C28.0711 35.2124 27.832 35.1406 27.5896 35.0913C27.0181 34.9735 26.4251 34.9242 25.844 34.9896C25.5041 35.0271 25.1652 35.0753 24.8339 35.1621C24.5047 35.2489 24.1927 35.3742 23.8807 35.5092C23.3435 35.7406 22.862 36.0664 22.4203 36.4478C22.209 36.6299 22.0171 36.8324 21.8444 37.0521C21.616 37.3435 21.4027 37.636 21.2397 37.9692C21.1582 38.0967 21.1153 38.2338 21.1078 38.3806C21.0746 38.5274 21.081 38.6753 21.1271 38.8221C21.1979 39.0792 21.3973 39.3578 21.6364 39.4842C21.8938 39.6203 22.2058 39.6878 22.491 39.5956C22.7537 39.511 23.0282 39.3439 23.1537 39.0867C23.2491 38.8917 23.3606 38.7063 23.4861 38.5296C23.6587 38.3206 23.8517 38.1288 24.0608 37.9553C24.3171 37.7699 24.5916 37.6103 24.8789 37.4785Z" fill="white"/>
<path d="M52.5249 36.6086C52.3233 36.3397 52.1163 36.0793 51.8719 35.849C51.4526 35.4547 50.9669 35.1086 50.4447 34.8633C49.9096 34.6115 49.3542 34.4122 48.7677 34.3276C48.4331 34.2794 48.0997 34.2365 47.7608 34.2376C47.4209 34.2376 47.0821 34.2815 46.7464 34.3361C46.4709 34.3811 46.2007 34.4518 45.939 34.5493C45.5948 34.679 45.2549 34.8279 44.9429 35.0261C44.7017 35.1794 44.5097 35.4097 44.4336 35.6883C44.3607 35.954 44.3939 36.3065 44.5451 36.5422C44.6973 36.779 44.9247 36.9869 45.2078 37.0511C45.493 37.1165 45.8082 37.1004 46.0623 36.9397C46.2103 36.8454 46.3658 36.7651 46.5245 36.6911C46.7765 36.5969 47.037 36.5272 47.303 36.4811C47.6236 36.449 47.9474 36.4501 48.268 36.4822C48.6122 36.539 48.9489 36.6311 49.2738 36.7576C49.5611 36.8894 49.8356 37.049 50.0919 37.2344C50.301 37.4079 50.4929 37.5997 50.6666 37.8086C50.7921 37.9854 50.9036 38.1708 50.999 38.3658C51.1159 38.6047 51.4129 38.8061 51.6617 38.8747C51.9276 38.9476 52.2804 38.9144 52.5163 38.7633C52.7533 38.6111 52.9613 38.384 53.0256 38.1011C53.0385 38.0026 53.0524 37.9051 53.0653 37.8065C53.0653 37.6061 53.0138 37.4197 52.9141 37.2472C52.8047 37.0233 52.675 36.809 52.5249 36.6097V36.6086Z" fill="white"/>
</svg>
