<svg width="64" height="64" viewBox="0 0 64 64" fill="none" xmlns="http://www.w3.org/2000/svg">
<g filter="url(#filter0_d_620_2113)">
<path fill-rule="evenodd" clip-rule="evenodd" d="M6.03 25.5108C7.38333 26.7672 9.04 27.3954 11 27.3954C12.96 27.3954 14.6167 26.7672 15.97 25.5108C17.3233 24.2543 18 22.7163 18 20.8967C18 19.077 17.3233 17.539 15.97 16.2826C14.6167 15.0262 12.96 14.3979 11 14.3979C9.04 14.3979 7.38333 15.0262 6.03 16.2826C4.67667 17.539 4 19.077 4 20.8967C4 22.7163 4.67667 24.2543 6.03 25.5108ZM18.63 15.1128C19.9833 16.3692 21.64 16.9974 23.6 16.9974C25.56 16.9974 27.2167 16.3692 28.57 15.1128C29.9233 13.8564 30.6 12.3184 30.6 10.4987C30.6 8.67908 29.9233 7.14105 28.57 5.88463C27.2167 4.62821 25.56 4 23.6 4C21.64 4 19.9833 4.62821 18.63 5.88463C17.2767 7.14105 16.6 8.67908 16.6 10.4987C16.6 12.3184 17.2767 13.8564 18.63 15.1128ZM35.43 15.1128C36.7833 16.3692 38.44 16.9974 40.4 16.9974C42.36 16.9974 44.0167 16.3692 45.37 15.1128C46.7233 13.8564 47.4 12.3184 47.4 10.4987C47.4 8.67908 46.7233 7.14105 45.37 5.88463C44.0167 4.62821 42.36 4 40.4 4C38.44 4 36.7833 4.62821 35.43 5.88463C34.0767 7.14105 33.4 8.67908 33.4 10.4987C33.4 12.3184 34.0767 13.8564 35.43 15.1128ZM48.03 25.5108C49.3833 26.7672 51.04 27.3954 53 27.3954C54.96 27.3954 56.6167 26.7672 57.97 25.5108C59.3233 24.2543 60 22.7163 60 20.8967C60 19.077 59.3233 17.539 57.97 16.2826C56.6167 15.0262 54.96 14.3979 53 14.3979C51.04 14.3979 49.3833 15.0262 48.03 16.2826C46.6767 17.539 46 19.077 46 20.8967C46 22.7163 46.6767 24.2543 48.03 25.5108Z" fill="#0491E1"/>
<path d="M23.4562 32.5935L23.1706 32.6828L14.063 35.5317C13.3735 35.7533 12.8826 36.1094 12.5363 36.5852C12.1672 37.0924 12 37.6097 12 38.1597C12 38.4202 12.0407 38.6865 12.1273 38.9618L23.4562 32.5935ZM23.4562 32.5935L23.6458 32.3619M23.4562 32.5935L23.6458 32.3619M23.6458 32.3619L29.6177 25.0683L29.6177 25.0683M23.6458 32.3619L29.6177 25.0683M29.6177 25.0683L29.6237 25.0609M29.6177 25.0683L29.6237 25.0609M29.6237 25.0609C29.9241 24.6869 30.2643 24.4303 30.647 24.268L30.6474 24.2678M29.6237 25.0609L30.6474 24.2678M30.6474 24.2678C31.0661 24.0899 31.5084 24 31.9832 24C32.4579 24 32.9002 24.0899 33.3189 24.2678L33.3194 24.268M30.6474 24.2678L33.3194 24.268M33.3194 24.268C33.702 24.4303 34.0423 24.6869 34.3427 25.0609L34.3426 25.061M33.3194 24.268L34.3426 25.061M34.3426 25.061L34.3486 25.0683M34.3426 25.061L34.3486 25.0683M34.3486 25.0683L40.3205 32.3619L40.5097 32.5929M34.3486 25.0683L40.5097 32.5929M40.5097 32.5929L40.7945 32.6824M40.5097 32.5929L40.7945 32.6824M40.7945 32.6824L49.9266 35.552L49.9266 35.5521M40.7945 32.6824L49.9266 35.5521M49.9266 35.5521L49.9397 35.556M49.9266 35.5521L49.9397 35.556M49.9397 35.556C50.629 35.7623 51.1181 36.107 51.4635 36.5737L51.4635 36.5738M49.9397 35.556L51.4635 36.5738M51.4635 36.5738C51.8286 37.0669 52 37.5882 52 38.1649C52 38.4267 51.9592 38.6923 51.8731 38.9649C51.7977 39.2033 51.6693 39.4479 51.4713 39.6991L51.4713 39.6991M51.4635 36.5738L51.4713 39.6991M51.4713 39.6991L51.466 39.7059M51.4713 39.6991L51.466 39.7059M51.466 39.7059L45.5195 47.3864L45.3009 47.6688M51.466 39.7059L45.3009 47.6688M45.3009 47.6688L45.3106 48.0257M45.3009 47.6688L45.3106 48.0257M45.3106 48.0257L45.5315 56.177L45.5317 56.1839M45.3106 48.0257L45.5317 56.1839M45.5317 56.1839C45.5585 56.9721 45.2949 57.6047 44.7025 58.1517L44.7022 58.152M45.5317 56.1839L44.7022 58.152M44.7022 58.152C44.0898 58.718 43.4076 58.9905 42.6146 58.9998C42.6094 58.9992 42.6035 58.9985 42.5968 58.9978C42.5514 58.9927 42.4838 58.9847 42.3924 58.9736C42.2219 58.9529 41.9768 58.9224 41.6563 58.8818L32.241 56.3693L31.9832 56.3005M44.7022 58.152L31.9832 56.3005M31.9832 56.3005L31.7253 56.3693M31.9832 56.3005L31.7253 56.3693M31.7253 56.3693L22.2448 58.8992L22.1986 58.9115M31.7253 56.3693L22.1986 58.9115M22.1986 58.9115L22.1538 58.9282M22.1986 58.9115L22.1538 58.9282M22.1538 58.9282C22.0641 58.9616 21.9736 58.9804 21.8786 58.9855C21.6974 58.9954 21.5361 59 21.3938 59C20.5704 59 19.8742 58.7264 19.2586 58.1541L19.2584 58.1539M22.1538 58.9282L19.2584 58.1539M19.2584 58.1539C18.6706 57.6076 18.4077 56.9744 18.4347 56.1839L18.4348 56.1769M19.2584 58.1539L18.4348 56.1769M18.4348 56.1769L18.6557 47.9742L18.6653 47.617M18.4348 56.1769L18.6653 47.617M18.6653 47.617L18.4465 47.3347M18.6653 47.617L18.4465 47.3347M18.4465 47.3347L12.5337 39.7055L12.5337 39.7055M18.4465 47.3347L12.5337 39.7055M12.5337 39.7055L12.5299 39.7007M12.5337 39.7055L12.5299 39.7007M12.5299 39.7007C12.3317 39.4482 12.2029 39.2021 12.1273 38.962L12.5299 39.7007Z" fill="#0374B5" stroke="#0491E1" stroke-width="2"/>
<path fill-rule="evenodd" clip-rule="evenodd" d="M6.03 25.5108C7.38333 26.7672 9.04 27.3954 11 27.3954C12.96 27.3954 14.6167 26.7672 15.97 25.5108C17.3233 24.2543 18 22.7163 18 20.8967C18 19.077 17.3233 17.539 15.97 16.2826C14.6167 15.0262 12.96 14.3979 11 14.3979C9.04 14.3979 7.38333 15.0262 6.03 16.2826C4.67667 17.539 4 19.077 4 20.8967C4 22.7163 4.67667 24.2543 6.03 25.5108ZM18.63 15.1128C19.9833 16.3692 21.64 16.9974 23.6 16.9974C25.56 16.9974 27.2167 16.3692 28.57 15.1128C29.9233 13.8564 30.6 12.3184 30.6 10.4987C30.6 8.67908 29.9233 7.14105 28.57 5.88463C27.2167 4.62821 25.56 4 23.6 4C21.64 4 19.9833 4.62821 18.63 5.88463C17.2767 7.14105 16.6 8.67908 16.6 10.4987C16.6 12.3184 17.2767 13.8564 18.63 15.1128ZM35.43 15.1128C36.7833 16.3692 38.44 16.9974 40.4 16.9974C42.36 16.9974 44.0167 16.3692 45.37 15.1128C46.7233 13.8564 47.4 12.3184 47.4 10.4987C47.4 8.67908 46.7233 7.14105 45.37 5.88463C44.0167 4.62821 42.36 4 40.4 4C38.44 4 36.7833 4.62821 35.43 5.88463C34.0767 7.14105 33.4 8.67908 33.4 10.4987C33.4 12.3184 34.0767 13.8564 35.43 15.1128ZM48.03 25.5108C49.3833 26.7672 51.04 27.3954 53 27.3954C54.96 27.3954 56.6167 26.7672 57.97 25.5108C59.3233 24.2543 60 22.7163 60 20.8967C60 19.077 59.3233 17.539 57.97 16.2826C56.6167 15.0262 54.96 14.3979 53 14.3979C51.04 14.3979 49.3833 15.0262 48.03 16.2826C46.6767 17.539 46 19.077 46 20.8967C46 22.7163 46.6767 24.2543 48.03 25.5108Z" fill="#0374B5"/>
<path d="M23.4562 32.5935L23.1706 32.6828L14.063 35.5317C13.3735 35.7533 12.8826 36.1094 12.5363 36.5852C12.1672 37.0924 12 37.6097 12 38.1597C12 38.4202 12.0407 38.6865 12.1273 38.9618L23.4562 32.5935ZM23.4562 32.5935L23.6458 32.3619M23.4562 32.5935L23.6458 32.3619M23.6458 32.3619L29.6177 25.0683L29.6177 25.0683M23.6458 32.3619L29.6177 25.0683M29.6177 25.0683L29.6237 25.0609M29.6177 25.0683L29.6237 25.0609M29.6237 25.0609C29.9241 24.6869 30.2643 24.4303 30.647 24.268L30.6474 24.2678M29.6237 25.0609L30.6474 24.2678M30.6474 24.2678C31.0661 24.0899 31.5084 24 31.9832 24C32.4579 24 32.9002 24.0899 33.3189 24.2678L33.3194 24.268M30.6474 24.2678L33.3194 24.268M33.3194 24.268C33.702 24.4303 34.0423 24.6869 34.3427 25.0609L34.3426 25.061M33.3194 24.268L34.3426 25.061M34.3426 25.061L34.3486 25.0683M34.3426 25.061L34.3486 25.0683M34.3486 25.0683L40.3205 32.3619L40.5097 32.5929M34.3486 25.0683L40.5097 32.5929M40.5097 32.5929L40.7945 32.6824M40.5097 32.5929L40.7945 32.6824M40.7945 32.6824L49.9266 35.552L49.9266 35.5521M40.7945 32.6824L49.9266 35.5521M49.9266 35.5521L49.9397 35.556M49.9266 35.5521L49.9397 35.556M49.9397 35.556C50.629 35.7623 51.1181 36.107 51.4635 36.5737L51.4635 36.5738M49.9397 35.556L51.4635 36.5738M51.4635 36.5738C51.8286 37.0669 52 37.5882 52 38.1649C52 38.4267 51.9592 38.6923 51.8731 38.9649C51.7977 39.2033 51.6693 39.4479 51.4713 39.6991L51.4713 39.6991M51.4635 36.5738L51.4713 39.6991M51.4713 39.6991L51.466 39.7059M51.4713 39.6991L51.466 39.7059M51.466 39.7059L45.5195 47.3864L45.3009 47.6688M51.466 39.7059L45.3009 47.6688M45.3009 47.6688L45.3106 48.0257M45.3009 47.6688L45.3106 48.0257M45.3106 48.0257L45.5315 56.177L45.5317 56.1839M45.3106 48.0257L45.5317 56.1839M45.5317 56.1839C45.5585 56.9721 45.2949 57.6047 44.7025 58.1517L44.7022 58.152M45.5317 56.1839L44.7022 58.152M44.7022 58.152C44.0898 58.718 43.4076 58.9905 42.6146 58.9998C42.6094 58.9992 42.6035 58.9985 42.5968 58.9978C42.5514 58.9927 42.4838 58.9847 42.3924 58.9736C42.2219 58.9529 41.9768 58.9224 41.6563 58.8818L32.241 56.3693L31.9832 56.3005M44.7022 58.152L31.9832 56.3005M31.9832 56.3005L31.7253 56.3693M31.9832 56.3005L31.7253 56.3693M31.7253 56.3693L22.2448 58.8992L22.1986 58.9115M31.7253 56.3693L22.1986 58.9115M22.1986 58.9115L22.1538 58.9282M22.1986 58.9115L22.1538 58.9282M22.1538 58.9282C22.0641 58.9616 21.9736 58.9804 21.8786 58.9855C21.6974 58.9954 21.5361 59 21.3938 59C20.5704 59 19.8742 58.7264 19.2586 58.1541L19.2584 58.1539M22.1538 58.9282L19.2584 58.1539M19.2584 58.1539C18.6706 57.6076 18.4077 56.9744 18.4347 56.1839L18.4348 56.1769M19.2584 58.1539L18.4348 56.1769M18.4348 56.1769L18.6557 47.9742L18.6653 47.617M18.4348 56.1769L18.6653 47.617M18.6653 47.617L18.4465 47.3347M18.6653 47.617L18.4465 47.3347M18.4465 47.3347L12.5337 39.7055L12.5337 39.7055M18.4465 47.3347L12.5337 39.7055M12.5337 39.7055L12.5299 39.7007M12.5337 39.7055L12.5299 39.7007M12.5299 39.7007C12.3317 39.4482 12.2029 39.2021 12.1273 38.962L12.5299 39.7007Z" fill="#0491E1" stroke="#0374B5" stroke-width="2"/>
</g>
<defs>
<filter id="filter0_d_620_2113" x="-2" y="0" width="68" height="68" filterUnits="userSpaceOnUse" color-interpolation-filters="sRGB">
<feFlood flood-opacity="0" result="BackgroundImageFix"/>
<feColorMatrix in="SourceAlpha" type="matrix" values="0 0 0 0 0 0 0 0 0 0 0 0 0 0 0 0 0 0 127 0" result="hardAlpha"/>
<feOffset dy="2"/>
<feGaussianBlur stdDeviation="1"/>
<feComposite in2="hardAlpha" operator="out"/>
<feColorMatrix type="matrix" values="0 0 0 0 0 0 0 0 0 0 0 0 0 0 0 0 0 0 0.35 0"/>
<feBlend mode="normal" in2="BackgroundImageFix" result="effect1_dropShadow_620_2113"/>
<feBlend mode="normal" in="SourceGraphic" in2="effect1_dropShadow_620_2113" result="shape"/>
</filter>
</defs>
</svg>
