<svg width="56" height="56" viewBox="0 0 56 56" fill="none" xmlns="http://www.w3.org/2000/svg">
<g id="Group 632917">
<g id="Group 632897">
<path id="pets" fill-rule="evenodd" clip-rule="evenodd" d="M2.03 21.5108C3.38333 22.7672 5.04 23.3954 7 23.3954C8.96 23.3954 10.6167 22.7672 11.97 21.5108C13.3233 20.2543 14 18.7163 14 16.8967C14 15.077 13.3233 13.539 11.97 12.2826C10.6167 11.0262 8.96 10.3979 7 10.3979C5.04 10.3979 3.38333 11.0262 2.03 12.2826C0.676667 13.539 0 15.077 0 16.8967C0 18.7163 0.676667 20.2543 2.03 21.5108ZM14.63 11.1128C15.9833 12.3692 17.64 12.9974 19.6 12.9974C21.56 12.9974 23.2167 12.3692 24.57 11.1128C25.9233 9.85639 26.6 8.31836 26.6 6.49872C26.6 4.67908 25.9233 3.14105 24.57 1.88463C23.2167 0.628209 21.56 0 19.6 0C17.64 0 15.9833 0.628209 14.63 1.88463C13.2767 3.14105 12.6 4.67908 12.6 6.49872C12.6 8.31836 13.2767 9.85639 14.63 11.1128ZM31.43 11.1128C32.7833 12.3692 34.44 12.9974 36.4 12.9974C38.36 12.9974 40.0167 12.3692 41.37 11.1128C42.7233 9.85639 43.4 8.31836 43.4 6.49872C43.4 4.67908 42.7233 3.14105 41.37 1.88463C40.0167 0.628209 38.36 0 36.4 0C34.44 0 32.7833 0.628209 31.43 1.88463C30.0767 3.14105 29.4 4.67908 29.4 6.49872C29.4 8.31836 30.0767 9.85639 31.43 11.1128ZM44.03 21.5108C45.3833 22.7672 47.04 23.3954 49 23.3954C50.96 23.3954 52.6167 22.7672 53.97 21.5108C55.3233 20.2543 56 18.7163 56 16.8967C56 15.077 55.3233 13.539 53.97 12.2826C52.6167 11.0262 50.96 10.3979 49 10.3979C47.04 10.3979 45.3833 11.0262 44.03 12.2826C42.6767 13.539 42 15.077 42 16.8967C42 18.7163 42.6767 20.2543 44.03 21.5108Z" fill="#A1A1AA"/>
</g>
<g id="kid_star">
<mask id="path-2-inside-1_841_1671" fill="white">
<path d="M18.8721 27.7284L24.844 20.4348C25.2404 19.9411 25.7113 19.5786 26.2565 19.3474C26.8017 19.1158 27.3772 19 27.9832 19C28.5891 19 29.1647 19.1158 29.7099 19.3474C30.255 19.5786 30.7259 19.9411 31.1223 20.4348L37.0943 27.7284L46.2264 30.598C47.0988 30.859 47.7791 31.3193 48.2673 31.9788C48.7558 32.6386 49 33.3673 49 34.1649C49 34.5331 48.9422 34.9002 48.8266 35.2661C48.711 35.632 48.5211 35.9827 48.2568 36.3181L42.3102 43.9986L42.5311 52.1499C42.5679 53.2322 42.1845 54.1443 41.3809 54.8864C40.5777 55.6288 39.6415 56 38.5725 56C38.5412 56 38.1716 55.9551 37.4637 55.8654L27.9832 53.3355L18.5026 55.8654C18.3186 55.9339 18.1286 55.9734 17.9328 55.9841C17.7369 55.9947 17.5573 56 17.3938 56C16.3149 56 15.3761 55.6288 14.5777 54.8864C13.7792 54.1443 13.3984 53.2322 13.4352 52.1499L13.6561 43.9473L7.74325 36.3181C7.47893 35.9813 7.28898 35.6293 7.17339 35.262C7.0578 34.8944 7 34.527 7 34.1597C7 33.3844 7.24259 32.6634 7.72778 31.9968C8.21297 31.3301 8.89069 30.8573 9.76094 30.5784L18.8721 27.7284Z"/>
</mask>
<path d="M18.8721 27.7284L24.844 20.4348C25.2404 19.9411 25.7113 19.5786 26.2565 19.3474C26.8017 19.1158 27.3772 19 27.9832 19C28.5891 19 29.1647 19.1158 29.7099 19.3474C30.255 19.5786 30.7259 19.9411 31.1223 20.4348L37.0943 27.7284L46.2264 30.598C47.0988 30.859 47.7791 31.3193 48.2673 31.9788C48.7558 32.6386 49 33.3673 49 34.1649C49 34.5331 48.9422 34.9002 48.8266 35.2661C48.711 35.632 48.5211 35.9827 48.2568 36.3181L42.3102 43.9986L42.5311 52.1499C42.5679 53.2322 42.1845 54.1443 41.3809 54.8864C40.5777 55.6288 39.6415 56 38.5725 56C38.5412 56 38.1716 55.9551 37.4637 55.8654L27.9832 53.3355L18.5026 55.8654C18.3186 55.9339 18.1286 55.9734 17.9328 55.9841C17.7369 55.9947 17.5573 56 17.3938 56C16.3149 56 15.3761 55.6288 14.5777 54.8864C13.7792 54.1443 13.3984 53.2322 13.4352 52.1499L13.6561 43.9473L7.74325 36.3181C7.47893 35.9813 7.28898 35.6293 7.17339 35.262C7.0578 34.8944 7 34.527 7 34.1597C7 33.3844 7.24259 32.6634 7.72778 31.9968C8.21297 31.3301 8.89069 30.8573 9.76094 30.5784L18.8721 27.7284Z" fill="#D4D4D8" stroke="#A1A1AA" stroke-width="4" mask="url(#path-2-inside-1_841_1671)"/>
</g>
<g id="Group 632898">
<path id="pets_2" fill-rule="evenodd" clip-rule="evenodd" d="M2.03 21.5108C3.38333 22.7672 5.04 23.3954 7 23.3954C8.96 23.3954 10.6167 22.7672 11.97 21.5108C13.3233 20.2543 14 18.7163 14 16.8967C14 15.077 13.3233 13.539 11.97 12.2826C10.6167 11.0262 8.96 10.3979 7 10.3979C5.04 10.3979 3.38333 11.0262 2.03 12.2826C0.676667 13.539 0 15.077 0 16.8967C0 18.7163 0.676667 20.2543 2.03 21.5108ZM14.63 11.1128C15.9833 12.3692 17.64 12.9974 19.6 12.9974C21.56 12.9974 23.2167 12.3692 24.57 11.1128C25.9233 9.85639 26.6 8.31836 26.6 6.49872C26.6 4.67908 25.9233 3.14105 24.57 1.88463C23.2167 0.628209 21.56 0 19.6 0C17.64 0 15.9833 0.628209 14.63 1.88463C13.2767 3.14105 12.6 4.67908 12.6 6.49872C12.6 8.31836 13.2767 9.85639 14.63 11.1128ZM31.43 11.1128C32.7833 12.3692 34.44 12.9974 36.4 12.9974C38.36 12.9974 40.0167 12.3692 41.37 11.1128C42.7233 9.85639 43.4 8.31836 43.4 6.49872C43.4 4.67908 42.7233 3.14105 41.37 1.88463C40.0167 0.628209 38.36 0 36.4 0C34.44 0 32.7833 0.628209 31.43 1.88463C30.0767 3.14105 29.4 4.67908 29.4 6.49872C29.4 8.31836 30.0767 9.85639 31.43 11.1128ZM44.03 21.5108C45.3833 22.7672 47.04 23.3954 49 23.3954C50.96 23.3954 52.6167 22.7672 53.97 21.5108C55.3233 20.2543 56 18.7163 56 16.8967C56 15.077 55.3233 13.539 53.97 12.2826C52.6167 11.0262 50.96 10.3979 49 10.3979C47.04 10.3979 45.3833 11.0262 44.03 12.2826C42.6767 13.539 42 15.077 42 16.8967C42 18.7163 42.6767 20.2543 44.03 21.5108Z" fill="#A1A1AA"/>
</g>
<g id="kid_star_2">
<mask id="path-4-inside-2_841_1671" fill="white">
<path d="M18.8721 27.7284L24.844 20.4348C25.2404 19.9411 25.7113 19.5786 26.2565 19.3474C26.8017 19.1158 27.3772 19 27.9832 19C28.5891 19 29.1647 19.1158 29.7099 19.3474C30.255 19.5786 30.7259 19.9411 31.1223 20.4348L37.0943 27.7284L46.2264 30.598C47.0988 30.859 47.7791 31.3193 48.2673 31.9788C48.7558 32.6386 49 33.3673 49 34.1649C49 34.5331 48.9422 34.9002 48.8266 35.2661C48.711 35.632 48.5211 35.9827 48.2568 36.3181L42.3102 43.9986L42.5311 52.1499C42.5679 53.2322 42.1845 54.1443 41.3809 54.8864C40.5777 55.6288 39.6415 56 38.5725 56C38.5412 56 38.1716 55.9551 37.4637 55.8654L27.9832 53.3355L18.5026 55.8654C18.3186 55.9339 18.1286 55.9734 17.9328 55.9841C17.7369 55.9947 17.5573 56 17.3938 56C16.3149 56 15.3761 55.6288 14.5777 54.8864C13.7792 54.1443 13.3984 53.2322 13.4352 52.1499L13.6561 43.9473L7.74325 36.3181C7.47893 35.9813 7.28898 35.6293 7.17339 35.262C7.0578 34.8944 7 34.527 7 34.1597C7 33.3844 7.24259 32.6634 7.72778 31.9968C8.21297 31.3301 8.89069 30.8573 9.76094 30.5784L18.8721 27.7284Z"/>
</mask>
<path d="M18.8721 27.7284L24.844 20.4348C25.2404 19.9411 25.7113 19.5786 26.2565 19.3474C26.8017 19.1158 27.3772 19 27.9832 19C28.5891 19 29.1647 19.1158 29.7099 19.3474C30.255 19.5786 30.7259 19.9411 31.1223 20.4348L37.0943 27.7284L46.2264 30.598C47.0988 30.859 47.7791 31.3193 48.2673 31.9788C48.7558 32.6386 49 33.3673 49 34.1649C49 34.5331 48.9422 34.9002 48.8266 35.2661C48.711 35.632 48.5211 35.9827 48.2568 36.3181L42.3102 43.9986L42.5311 52.1499C42.5679 53.2322 42.1845 54.1443 41.3809 54.8864C40.5777 55.6288 39.6415 56 38.5725 56C38.5412 56 38.1716 55.9551 37.4637 55.8654L27.9832 53.3355L18.5026 55.8654C18.3186 55.9339 18.1286 55.9734 17.9328 55.9841C17.7369 55.9947 17.5573 56 17.3938 56C16.3149 56 15.3761 55.6288 14.5777 54.8864C13.7792 54.1443 13.3984 53.2322 13.4352 52.1499L13.6561 43.9473L7.74325 36.3181C7.47893 35.9813 7.28898 35.6293 7.17339 35.262C7.0578 34.8944 7 34.527 7 34.1597C7 33.3844 7.24259 32.6634 7.72778 31.9968C8.21297 31.3301 8.89069 30.8573 9.76094 30.5784L18.8721 27.7284Z" fill="#D4D4D8" stroke="#A1A1AA" stroke-width="4" mask="url(#path-4-inside-2_841_1671)"/>
</g>
</g>
</svg>
