<svg width="64" height="64" viewBox="0 0 64 64" fill="none" xmlns="http://www.w3.org/2000/svg">
<g id="starlang">
<g id="Group 632897">
<path id="pets" fill-rule="evenodd" clip-rule="evenodd" d="M6.03 25.5108C7.38333 26.7672 9.04 27.3954 11 27.3954C12.96 27.3954 14.6167 26.7672 15.97 25.5108C17.3233 24.2543 18 22.7163 18 20.8967C18 19.077 17.3233 17.539 15.97 16.2826C14.6167 15.0262 12.96 14.3979 11 14.3979C9.04 14.3979 7.38333 15.0262 6.03 16.2826C4.67667 17.539 4 19.077 4 20.8967C4 22.7163 4.67667 24.2543 6.03 25.5108ZM18.63 15.1128C19.9833 16.3692 21.64 16.9974 23.6 16.9974C25.56 16.9974 27.2167 16.3692 28.57 15.1128C29.9233 13.8564 30.6 12.3184 30.6 10.4987C30.6 8.67908 29.9233 7.14105 28.57 5.88463C27.2167 4.62821 25.56 4 23.6 4C21.64 4 19.9833 4.62821 18.63 5.88463C17.2767 7.14105 16.6 8.67908 16.6 10.4987C16.6 12.3184 17.2767 13.8564 18.63 15.1128ZM35.43 15.1128C36.7833 16.3692 38.44 16.9974 40.4 16.9974C42.36 16.9974 44.0167 16.3692 45.37 15.1128C46.7233 13.8564 47.4 12.3184 47.4 10.4987C47.4 8.67908 46.7233 7.14105 45.37 5.88463C44.0167 4.62821 42.36 4 40.4 4C38.44 4 36.7833 4.62821 35.43 5.88463C34.0767 7.14105 33.4 8.67908 33.4 10.4987C33.4 12.3184 34.0767 13.8564 35.43 15.1128ZM48.03 25.5108C49.3833 26.7672 51.04 27.3954 53 27.3954C54.96 27.3954 56.6167 26.7672 57.97 25.5108C59.3233 24.2543 60 22.7163 60 20.8967C60 19.077 59.3233 17.539 57.97 16.2826C56.6167 15.0262 54.96 14.3979 53 14.3979C51.04 14.3979 49.3833 15.0262 48.03 16.2826C46.6767 17.539 46 19.077 46 20.8967C46 22.7163 46.6767 24.2543 48.03 25.5108Z" fill="#BAC408"/>
</g>
<g id="kid_star">
<mask id="path-2-inside-1_633_1749" fill="white">
<path d="M22.8721 31.7284L28.844 24.4348C29.2404 23.9411 29.7113 23.5786 30.2565 23.3474C30.8017 23.1158 31.3772 23 31.9832 23C32.5891 23 33.1647 23.1158 33.7099 23.3474C34.255 23.5786 34.7259 23.9411 35.1223 24.4348L41.0943 31.7284L50.2264 34.598C51.0988 34.859 51.7791 35.3193 52.2673 35.9788C52.7558 36.6386 53 37.3673 53 38.1649C53 38.5331 52.9422 38.9002 52.8266 39.2661C52.711 39.632 52.5211 39.9827 52.2568 40.3181L46.3102 47.9986L46.5311 56.1499C46.5679 57.2322 46.1845 58.1443 45.3809 58.8864C44.5777 59.6288 43.6415 60 42.5725 60C42.5412 60 42.1716 59.9551 41.4637 59.8654L31.9832 57.3355L22.5026 59.8654C22.3186 59.9339 22.1286 59.9734 21.9328 59.9841C21.7369 59.9947 21.5573 60 21.3938 60C20.3149 60 19.3761 59.6288 18.5777 58.8864C17.7792 58.1443 17.3984 57.2322 17.4352 56.1499L17.6561 47.9473L11.7432 40.3181C11.4789 39.9813 11.289 39.6293 11.1734 39.262C11.0578 38.8944 11 38.527 11 38.1597C11 37.3844 11.2426 36.6634 11.7278 35.9968C12.213 35.3301 12.8907 34.8573 13.7609 34.5784L22.8721 31.7284Z"/>
</mask>
<path d="M22.8721 31.7284L28.844 24.4348C29.2404 23.9411 29.7113 23.5786 30.2565 23.3474C30.8017 23.1158 31.3772 23 31.9832 23C32.5891 23 33.1647 23.1158 33.7099 23.3474C34.255 23.5786 34.7259 23.9411 35.1223 24.4348L41.0943 31.7284L50.2264 34.598C51.0988 34.859 51.7791 35.3193 52.2673 35.9788C52.7558 36.6386 53 37.3673 53 38.1649C53 38.5331 52.9422 38.9002 52.8266 39.2661C52.711 39.632 52.5211 39.9827 52.2568 40.3181L46.3102 47.9986L46.5311 56.1499C46.5679 57.2322 46.1845 58.1443 45.3809 58.8864C44.5777 59.6288 43.6415 60 42.5725 60C42.5412 60 42.1716 59.9551 41.4637 59.8654L31.9832 57.3355L22.5026 59.8654C22.3186 59.9339 22.1286 59.9734 21.9328 59.9841C21.7369 59.9947 21.5573 60 21.3938 60C20.3149 60 19.3761 59.6288 18.5777 58.8864C17.7792 58.1443 17.3984 57.2322 17.4352 56.1499L17.6561 47.9473L11.7432 40.3181C11.4789 39.9813 11.289 39.6293 11.1734 39.262C11.0578 38.8944 11 38.527 11 38.1597C11 37.3844 11.2426 36.6634 11.7278 35.9968C12.213 35.3301 12.8907 34.8573 13.7609 34.5784L22.8721 31.7284Z" fill="#E2EC0A" stroke="#BAC408" stroke-width="4" mask="url(#path-2-inside-1_633_1749)"/>
</g>
<g id="Group 632898">
<path id="pets_2" fill-rule="evenodd" clip-rule="evenodd" d="M6.03 25.5108C7.38333 26.7672 9.04 27.3954 11 27.3954C12.96 27.3954 14.6167 26.7672 15.97 25.5108C17.3233 24.2543 18 22.7163 18 20.8967C18 19.077 17.3233 17.539 15.97 16.2826C14.6167 15.0262 12.96 14.3979 11 14.3979C9.04 14.3979 7.38333 15.0262 6.03 16.2826C4.67667 17.539 4 19.077 4 20.8967C4 22.7163 4.67667 24.2543 6.03 25.5108ZM18.63 15.1128C19.9833 16.3692 21.64 16.9974 23.6 16.9974C25.56 16.9974 27.2167 16.3692 28.57 15.1128C29.9233 13.8564 30.6 12.3184 30.6 10.4987C30.6 8.67908 29.9233 7.14105 28.57 5.88463C27.2167 4.62821 25.56 4 23.6 4C21.64 4 19.9833 4.62821 18.63 5.88463C17.2767 7.14105 16.6 8.67908 16.6 10.4987C16.6 12.3184 17.2767 13.8564 18.63 15.1128ZM35.43 15.1128C36.7833 16.3692 38.44 16.9974 40.4 16.9974C42.36 16.9974 44.0167 16.3692 45.37 15.1128C46.7233 13.8564 47.4 12.3184 47.4 10.4987C47.4 8.67908 46.7233 7.14105 45.37 5.88463C44.0167 4.62821 42.36 4 40.4 4C38.44 4 36.7833 4.62821 35.43 5.88463C34.0767 7.14105 33.4 8.67908 33.4 10.4987C33.4 12.3184 34.0767 13.8564 35.43 15.1128ZM48.03 25.5108C49.3833 26.7672 51.04 27.3954 53 27.3954C54.96 27.3954 56.6167 26.7672 57.97 25.5108C59.3233 24.2543 60 22.7163 60 20.8967C60 19.077 59.3233 17.539 57.97 16.2826C56.6167 15.0262 54.96 14.3979 53 14.3979C51.04 14.3979 49.3833 15.0262 48.03 16.2826C46.6767 17.539 46 19.077 46 20.8967C46 22.7163 46.6767 24.2543 48.03 25.5108Z" fill="#BAC408"/>
</g>
<g id="kid_star_2">
<mask id="path-4-inside-2_633_1749" fill="white">
<path d="M22.8721 31.7284L28.844 24.4348C29.2404 23.9411 29.7113 23.5786 30.2565 23.3474C30.8017 23.1158 31.3772 23 31.9832 23C32.5891 23 33.1647 23.1158 33.7099 23.3474C34.255 23.5786 34.7259 23.9411 35.1223 24.4348L41.0943 31.7284L50.2264 34.598C51.0988 34.859 51.7791 35.3193 52.2673 35.9788C52.7558 36.6386 53 37.3673 53 38.1649C53 38.5331 52.9422 38.9002 52.8266 39.2661C52.711 39.632 52.5211 39.9827 52.2568 40.3181L46.3102 47.9986L46.5311 56.1499C46.5679 57.2322 46.1845 58.1443 45.3809 58.8864C44.5777 59.6288 43.6415 60 42.5725 60C42.5412 60 42.1716 59.9551 41.4637 59.8654L31.9832 57.3355L22.5026 59.8654C22.3186 59.9339 22.1286 59.9734 21.9328 59.9841C21.7369 59.9947 21.5573 60 21.3938 60C20.3149 60 19.3761 59.6288 18.5777 58.8864C17.7792 58.1443 17.3984 57.2322 17.4352 56.1499L17.6561 47.9473L11.7432 40.3181C11.4789 39.9813 11.289 39.6293 11.1734 39.262C11.0578 38.8944 11 38.527 11 38.1597C11 37.3844 11.2426 36.6634 11.7278 35.9968C12.213 35.3301 12.8907 34.8573 13.7609 34.5784L22.8721 31.7284Z"/>
</mask>
<path d="M22.8721 31.7284L28.844 24.4348C29.2404 23.9411 29.7113 23.5786 30.2565 23.3474C30.8017 23.1158 31.3772 23 31.9832 23C32.5891 23 33.1647 23.1158 33.7099 23.3474C34.255 23.5786 34.7259 23.9411 35.1223 24.4348L41.0943 31.7284L50.2264 34.598C51.0988 34.859 51.7791 35.3193 52.2673 35.9788C52.7558 36.6386 53 37.3673 53 38.1649C53 38.5331 52.9422 38.9002 52.8266 39.2661C52.711 39.632 52.5211 39.9827 52.2568 40.3181L46.3102 47.9986L46.5311 56.1499C46.5679 57.2322 46.1845 58.1443 45.3809 58.8864C44.5777 59.6288 43.6415 60 42.5725 60C42.5412 60 42.1716 59.9551 41.4637 59.8654L31.9832 57.3355L22.5026 59.8654C22.3186 59.9339 22.1286 59.9734 21.9328 59.9841C21.7369 59.9947 21.5573 60 21.3938 60C20.3149 60 19.3761 59.6288 18.5777 58.8864C17.7792 58.1443 17.3984 57.2322 17.4352 56.1499L17.6561 47.9473L11.7432 40.3181C11.4789 39.9813 11.289 39.6293 11.1734 39.262C11.0578 38.8944 11 38.527 11 38.1597C11 37.3844 11.2426 36.6634 11.7278 35.9968C12.213 35.3301 12.8907 34.8573 13.7609 34.5784L22.8721 31.7284Z" fill="#E2EC0A" stroke="#BAC408" stroke-width="4" mask="url(#path-4-inside-2_633_1749)"/>
</g>
</g>
</svg>
