<svg width="64" height="64" viewBox="0 0 64 64" fill="none" xmlns="http://www.w3.org/2000/svg">
<g id="LOGROS">
<rect width="64" height="64" rx="32" fill="#FF9D30"/>
<path id="sports_score" d="M23.8571 16.25H29.2857V11H23.8571V16.25ZM34.7143 16.25V11H40.1429V16.25H34.7143ZM23.8571 37.25V32H29.2857V37.25H23.8571ZM45.5714 26.75V21.5H51V26.75H45.5714ZM45.5714 37.25V32H51V37.25H45.5714ZM34.7143 37.25V32H40.1429V37.25H34.7143ZM45.5714 16.25V11H51V16.25H45.5714ZM29.2857 21.5V16.25H34.7143V21.5H29.2857ZM13 53V11H18.4286V16.25H23.8571V21.5H18.4286V26.75H23.8571V32H18.4286V53H13ZM40.1429 32V26.75H45.5714V32H40.1429ZM29.2857 32V26.75H34.7143V32H29.2857ZM23.8571 26.75V21.5H29.2857V26.75H23.8571ZM34.7143 26.75V21.5H40.1429V26.75H34.7143ZM40.1429 21.5V16.25H45.5714V21.5H40.1429Z" fill="white"/>
</g>
</svg>
