<svg width="64" height="64" viewBox="0 0 64 64" fill="none" xmlns="http://www.w3.org/2000/svg">
<g id="MEDALLA_1LUGAR">
<g id="Group 632923">
<g id="M CIENCIA">
<path id="Union" fill-rule="evenodd" clip-rule="evenodd" d="M46.1945 45.0189C51.5524 40.8565 55 34.3516 55 27.0415C55 14.4763 44.8139 4.29022 32.2487 4.29022C19.6835 4.29022 9.49738 14.4763 9.49738 27.0415C9.49738 34.3516 12.945 40.8565 18.3029 45.0189L15.2471 55.9814C14.6197 58.2319 16.6919 60.3041 18.9424 59.6768L31.4431 56.1922C31.9701 56.0453 32.5272 56.0453 33.0542 56.1922L45.5549 59.6768C47.8054 60.3041 49.8776 58.2319 49.2503 55.9814L46.1945 45.0189Z" fill="url(#paint0_linear_1116_2333)"/>
<path id="Ellipse 2" d="M53 27.0415C53 38.5022 43.7093 47.7928 32.2487 47.7928C20.7881 47.7928 11.4974 38.5022 11.4974 27.0415C11.4974 15.5809 20.7881 6.29022 32.2487 6.29022C43.7093 6.29022 53 15.5809 53 27.0415Z" fill="url(#paint1_radial_1116_2333)" stroke="url(#paint2_linear_1116_2333)" stroke-width="4"/>
</g>
</g>
<path id="1" d="M38.1875 14.7227L37.168 39.7188L29.5039 39.3672L29.9258 22.7383L27.1133 24.6719L24.4766 18.6602L30.207 14.3711L38.1875 14.7227Z" fill="url(#paint3_linear_1116_2333)"/>
<path id="Star 5" d="M8.5 56L10.4304 51.4304L15 49.5L10.4304 47.5696L8.5 43L6.5696 47.5696L2 49.5L6.5696 51.4304L8.5 56Z" fill="url(#paint4_angular_1116_2333)"/>
<path id="Star 6" d="M55.5 15L57.4304 10.4304L62 8.5L57.4304 6.5696L55.5 2L53.5696 6.5696L49 8.5L53.5696 10.4304L55.5 15Z" fill="url(#paint5_angular_1116_2333)"/>
<path id="Star 4" d="M49.5 47L52.0244 41.0244L58 38.5L52.0244 35.9756L49.5 30L46.9756 35.9756L41 38.5L46.9756 41.0244L49.5 47Z" fill="url(#paint6_angular_1116_2333)"/>
</g>
<defs>
<linearGradient id="paint0_linear_1116_2333" x1="32.2487" y1="4.29022" x2="32.2487" y2="59.7904" gradientUnits="userSpaceOnUse">
<stop stop-color="#E2B31F"/>
<stop offset="1" stop-color="#D6AB12"/>
</linearGradient>
<radialGradient id="paint1_radial_1116_2333" cx="0" cy="0" r="1" gradientUnits="userSpaceOnUse" gradientTransform="translate(32.2487 27.0415) rotate(90) scale(22.7513 22.7513)">
<stop stop-color="#FFD84E"/>
<stop offset="1" stop-color="#AA880C"/>
</radialGradient>
<linearGradient id="paint2_linear_1116_2333" x1="32.2487" y1="4.29022" x2="32.2487" y2="49.7928" gradientUnits="userSpaceOnUse">
<stop stop-color="#E2B31F"/>
<stop offset="1" stop-color="#D6AB12"/>
</linearGradient>
<linearGradient id="paint3_linear_1116_2333" x1="32" y1="25" x2="32" y2="40" gradientUnits="userSpaceOnUse">
<stop stop-color="#AB8305"/>
<stop offset="1" stop-color="#453502"/>
</linearGradient>
<radialGradient id="paint4_angular_1116_2333" cx="0" cy="0" r="1" gradientUnits="userSpaceOnUse" gradientTransform="translate(8.5 49.5) rotate(-90) scale(6.5)">
<stop offset="0.184" stop-color="#AB8305"/>
<stop offset="0.944" stop-color="#7E6103"/>
</radialGradient>
<radialGradient id="paint5_angular_1116_2333" cx="0" cy="0" r="1" gradientUnits="userSpaceOnUse" gradientTransform="translate(55.5 8.5) rotate(-90) scale(6.5)">
<stop offset="0.184" stop-color="#AB8305"/>
<stop offset="0.944" stop-color="#7E6103"/>
</radialGradient>
<radialGradient id="paint6_angular_1116_2333" cx="0" cy="0" r="1" gradientUnits="userSpaceOnUse" gradientTransform="translate(49.5 38.5) rotate(-90) scale(8.5)">
<stop offset="0.184" stop-color="#AB8305"/>
<stop offset="0.944" stop-color="#7E6103"/>
</radialGradient>
</defs>
</svg>
