<svg width="64" height="64" viewBox="0 0 64 64" fill="none" xmlns="http://www.w3.org/2000/svg">
<g id="MEDALLA_3LUGAR">
<g id="Group 632923">
<g id="M CIENCIA">
<path id="Union" fill-rule="evenodd" clip-rule="evenodd" d="M46.1945 45.0189C51.5524 40.8565 55 34.3516 55 27.0415C55 14.4763 44.8139 4.29022 32.2487 4.29022C19.6835 4.29022 9.49738 14.4763 9.49738 27.0415C9.49738 34.3516 12.945 40.8565 18.3029 45.0189L15.2471 55.9814C14.6197 58.2319 16.6919 60.3041 18.9424 59.6768L31.4431 56.1922C31.9701 56.0453 32.5272 56.0453 33.0542 56.1922L45.5549 59.6768C47.8054 60.3041 49.8776 58.2319 49.2503 55.9814L46.1945 45.0189Z" fill="url(#paint0_linear_1116_2376)"/>
<path id="Ellipse 2" d="M53 27.0415C53 38.5022 43.7093 47.7928 32.2487 47.7928C20.7881 47.7928 11.4974 38.5022 11.4974 27.0415C11.4974 15.5809 20.7881 6.29022 32.2487 6.29022C43.7093 6.29022 53 15.5809 53 27.0415Z" fill="url(#paint1_radial_1116_2376)" stroke="url(#paint2_linear_1116_2376)" stroke-width="4"/>
</g>
</g>
<path id="3" d="M40.877 31.1406C40.877 32.6992 40.625 34.0527 40.1211 35.2012C39.6289 36.3379 38.9375 37.2871 38.0469 38.0488C37.1562 38.7988 36.0898 39.3613 34.8477 39.7363C33.6172 40.0996 32.2637 40.2812 30.7871 40.2812C30.1191 40.2812 29.4336 40.2168 28.7305 40.0879C28.0273 39.959 27.3301 39.7832 26.6387 39.5605C25.9473 39.3379 25.2734 39.0742 24.6172 38.7695C23.9727 38.4648 23.3691 38.1367 22.8066 37.7852L23.4746 30.7188C23.9199 31.0234 24.418 31.3164 24.9688 31.5977C25.5195 31.8672 26.0879 32.1133 26.6738 32.3359C27.2715 32.5469 27.8691 32.7168 28.4668 32.8457C29.0762 32.9746 29.6621 33.0391 30.2246 33.0391C30.5527 33.0391 30.8867 33.0156 31.2266 32.9688C31.5781 32.9102 31.8945 32.8105 32.1758 32.6699C32.457 32.5293 32.6855 32.3301 32.8613 32.0723C33.0488 31.8145 33.1426 31.4805 33.1426 31.0703C33.1426 30.8125 33.0254 30.5723 32.791 30.3496C32.5566 30.127 32.2754 29.9395 31.9473 29.7871C31.6191 29.623 31.2793 29.5 30.9277 29.418C30.5762 29.3242 30.2832 29.2773 30.0488 29.2773C29.8848 29.2773 29.6855 29.2891 29.4512 29.3125C29.2285 29.3242 29 29.3477 28.7656 29.3828C28.5312 29.418 28.3027 29.4707 28.0801 29.541C27.8691 29.5996 27.7051 29.6758 27.5879 29.7695L27.6934 24.7422C27.8926 24.7656 28.0801 24.7832 28.2559 24.7949C28.4316 24.8066 28.6191 24.8125 28.8184 24.8125C29.2285 24.8125 29.6738 24.7773 30.1543 24.707C30.6348 24.625 31.0801 24.4902 31.4902 24.3027C31.9004 24.1035 32.2402 23.834 32.5098 23.4941C32.791 23.1543 32.9316 22.7148 32.9316 22.1758C32.9316 21.7891 32.8262 21.4785 32.6152 21.2441C32.4043 20.998 32.1406 20.8105 31.8242 20.6816C31.5195 20.5527 31.1855 20.4648 30.8223 20.418C30.459 20.3711 30.1309 20.3477 29.8379 20.3477C28.8887 20.3477 27.9512 20.5117 27.0254 20.8398C26.1113 21.168 25.3027 21.6484 24.5996 22.2812L23.123 15.8828C24.2012 15.0039 25.4258 14.3359 26.7969 13.8789C28.1797 13.4102 29.5684 13.1758 30.9629 13.1758C32.2402 13.1758 33.459 13.3633 34.6191 13.7383C35.791 14.1016 36.8223 14.6465 37.7129 15.373C38.6035 16.0879 39.3125 16.9727 39.8398 18.0273C40.3672 19.082 40.6309 20.3008 40.6309 21.6836C40.6309 22.082 40.5723 22.4863 40.4551 22.8965C40.3379 23.3066 40.1797 23.7051 39.9805 24.0918C39.7812 24.4785 39.5469 24.8418 39.2773 25.1816C39.0078 25.5098 38.7207 25.7969 38.416 26.043C38.9082 26.2656 39.3125 26.5645 39.6289 26.9395C39.9453 27.3145 40.1973 27.7305 40.3848 28.1875C40.5723 28.6445 40.7012 29.1309 40.7715 29.6465C40.8418 30.1504 40.877 30.6484 40.877 31.1406Z" fill="url(#paint3_linear_1116_2376)"/>
<path id="Star 5" d="M8.5 56L10.4304 51.4304L15 49.5L10.4304 47.5696L8.5 43L6.5696 47.5696L2 49.5L6.5696 51.4304L8.5 56Z" fill="url(#paint4_angular_1116_2376)"/>
<path id="Star 6" d="M55.5 15L57.4304 10.4304L62 8.5L57.4304 6.5696L55.5 2L53.5696 6.5696L49 8.5L53.5696 10.4304L55.5 15Z" fill="url(#paint5_angular_1116_2376)"/>
<path id="Star 4" d="M49.5 47L52.0244 41.0244L58 38.5L52.0244 35.9756L49.5 30L46.9756 35.9756L41 38.5L46.9756 41.0244L49.5 47Z" fill="url(#paint6_angular_1116_2376)"/>
</g>
<defs>
<linearGradient id="paint0_linear_1116_2376" x1="32.2487" y1="4.29022" x2="32.2487" y2="59.7904" gradientUnits="userSpaceOnUse">
<stop stop-color="#E27C1F"/>
<stop offset="1" stop-color="#623210"/>
</linearGradient>
<radialGradient id="paint1_radial_1116_2376" cx="0" cy="0" r="1" gradientUnits="userSpaceOnUse" gradientTransform="translate(32.2487 27.0415) rotate(90) scale(22.7513 22.7513)">
<stop stop-color="#F3E19E"/>
<stop offset="1" stop-color="#71360C"/>
</radialGradient>
<linearGradient id="paint2_linear_1116_2376" x1="32.2487" y1="4.29022" x2="32.2487" y2="49.7928" gradientUnits="userSpaceOnUse">
<stop stop-color="#E27C1F"/>
<stop offset="1" stop-color="#623210"/>
</linearGradient>
<linearGradient id="paint3_linear_1116_2376" x1="32" y1="25" x2="32" y2="40" gradientUnits="userSpaceOnUse">
<stop stop-color="#AB5505"/>
<stop offset="1" stop-color="#450A02"/>
</linearGradient>
<radialGradient id="paint4_angular_1116_2376" cx="0" cy="0" r="1" gradientUnits="userSpaceOnUse" gradientTransform="translate(8.5 49.5) rotate(-90) scale(6.5)">
<stop offset="0.184" stop-color="#CE6503"/>
<stop offset="0.944" stop-color="#4A2103"/>
</radialGradient>
<radialGradient id="paint5_angular_1116_2376" cx="0" cy="0" r="1" gradientUnits="userSpaceOnUse" gradientTransform="translate(55.5 8.5) rotate(-90) scale(6.5)">
<stop offset="0.184" stop-color="#CE6503"/>
<stop offset="0.944" stop-color="#4A2103"/>
</radialGradient>
<radialGradient id="paint6_angular_1116_2376" cx="0" cy="0" r="1" gradientUnits="userSpaceOnUse" gradientTransform="translate(49.5 38.5) rotate(-90) scale(8.5)">
<stop offset="0.184" stop-color="#CE6503"/>
<stop offset="0.944" stop-color="#4A2103"/>
</radialGradient>
</defs>
</svg>
