<?xml version="1.0" encoding="UTF-8"?>
<svg id="Layer_2" data-name="Layer 2" xmlns="http://www.w3.org/2000/svg" viewBox="0 0 100 100">
  <defs>
    <style>
      .cls-1 {
        fill: #fb2425;
      }

      .cls-2 {
        fill: #c20a0a;
      }
    </style>
  </defs>
  <g id="ALL">
    <g>
      <circle class="cls-1" cx="50" cy="50" r="50"/>
      <g>
        <path class="cls-2" d="m45.93,58.18c1.02.86,2.05,1.72,3.07,2.58.23.2.47.39.7.59.06.06.13.1.2.14.09.05.19.07.3.07.17,0,.38-.08.5-.21.64-.54,1.29-1.08,1.93-1.62,1.02-.86,2.05-1.72,3.07-2.58.23-.2.47-.39.7-.59.22-.18.25-.54.15-.78-.11-.26-.37-.44-.65-.44h-9.99c-.46,0-.92-.01-1.38,0,0,0-.01,0-.02,0-.28,0-.54.18-.65.44-.1.24-.07.6.15.78.64.54,1.29,1.08,1.93,1.62Z"/>
        <path class="cls-2" d="m64.73,68.81c-.68-.55-1.38-1.07-2.12-1.54-.91-.57-1.85-1.08-2.84-1.51-1.29-.57-2.62-1.04-3.99-1.37-1.59-.38-3.23-.6-4.87-.64-1.7-.05-3.41.09-5.09.4-1.36.25-2.69.63-3.98,1.13-1.15.45-2.27.97-3.34,1.6-.83.49-1.61,1.03-2.37,1.62-.4.31-.79.63-1.16.98-.04.04-.09.08-.13.13-.23.23-.37.58-.37.9s.14.69.37.9c.52.47,1.3.5,1.81,0,.36-.35.75-.68,1.15-.99,1.01-.76,2.09-1.43,3.22-2,.36-.18.73-.35,1.1-.51,1.31-.54,2.67-.96,4.06-1.23.4-.08.8-.15,1.2-.2,1.88-.24,3.79-.24,5.67,0,1.48.21,2.94.57,4.35,1.07.31.11.62.23.92.36,1.31.57,2.56,1.26,3.73,2.07.21.15.42.3.62.45.4.31.78.64,1.14.99.24.23.57.37.9.37.31,0,.69-.14.9-.37.22-.24.39-.56.37-.9-.02-.34-.13-.66-.37-.9-.29-.28-.59-.54-.9-.8Z"/>
        <path class="cls-2" d="m38.48,51.66c.07.07.14.15.21.22.31.32.62.64.93.96,0,0,0,0,.01.01.25.26.65.42,1.01.42s.77-.16,1.01-.42c.25-.27.43-.63.42-1.01-.02-.38-.15-.73-.42-1.01-.26-.26-.51-.52-.77-.79-.61-.63-1.23-1.26-1.84-1.89-.74-.76-1.48-1.51-2.22-2.27-.64-.66-1.28-1.31-1.92-1.97-.31-.32-.62-.64-.93-.96,0,0,0,0-.01-.01-.25-.26-.65-.42-1.01-.42s-.77.16-1.01.42c-.25.27-.43.63-.42,1.01.02.38.15.73.42,1.01.26.26.51.52.77.79.22.22.43.45.65.67-1.07.66-1.78,1.84-1.78,3.19,0,2.07,1.68,3.75,3.75,3.75,1.31,0,2.47-.68,3.14-1.7Z"/>
        <path class="cls-2" d="m68.87,44.98s0,0,.01-.01c.26-.26.42-.64.42-1.01,0-.35-.16-.77-.42-1.01-.27-.25-.63-.43-1.01-.42-.38.02-.74.14-1.01.42-.26.26-.51.52-.77.79-.61.63-1.23,1.26-1.84,1.89-.74.76-1.48,1.51-2.22,2.27-.64.66-1.28,1.31-1.92,1.97-.31.32-.63.63-.93.96,0,0,0,0-.01.01-.26.26-.42.64-.42,1.01,0,.35.16.77.42,1.01.27.25.63.43,1.01.42.38-.02.74-.14,1.01-.42.26-.26.51-.52.77-.79.13-.13.26-.27.39-.4.67,1.02,1.83,1.7,3.14,1.7,2.07,0,3.75-1.68,3.75-3.75,0-1.35-.71-2.53-1.78-3.19l.47-.48c.31-.32.63-.63.93-.96Z"/>
        <path class="cls-2" d="m19.05,28.74s0,.02,0,.03c0-.02,0-.03,0-.05,0,0,0,.01,0,.02Z"/>
        <path class="cls-2" d="m16.49,42.69c0,.06-.01.09-.02.1,0-.03,0-.06.01-.09,0,0,0,0,0,0Z"/>
        <path class="cls-2" d="m92.3,68.46s-.03-.04-.04-.06c-.04-.06-.08-.11-.12-.16-1.69-2.35-3.41-4.68-5.11-7.03,1.25-.05,2.5-.12,3.76-.2.29,0,.54-.09.75-.23.24-.15.43-.36.55-.65.18-.42.15-.98-.13-1.37-1.28-2.39-2.87-4.59-4.35-6.85-.76-1.16-1.49-2.33-2.14-3.55-.31-.59-.61-1.19-.88-1.81,0,0,0-.01,0-.02-.03-.07-.05-.13-.08-.2-.06-.15-.12-.3-.17-.45-.13-.34-.24-.68-.35-1.02-.2-.65-.35-1.31-.46-1.98-.01-.06-.02-.13-.03-.19,0,0,0-.02,0-.03-.02-.16-.03-.32-.05-.48-.03-.35-.04-.69-.04-1.04,0-1.42.27-2.84.39-4.26.21-2.35.31-4.73.11-7.09-.28-3.29-1.07-6.94-3.85-9.03-2.37-1.78-5.57-1.52-8.24-.65-4.09,1.34-7.77,3.87-11.15,6.47-.4.31-.8.62-1.2.94-6.31-.33-12.63-.33-18.94,0-3.45-2.74-7.1-5.34-11.21-6.98-2.73-1.1-6.02-1.71-8.72-.21-2.78,1.54-3.91,4.84-4.32,7.81-.32,2.26-.35,4.53-.23,6.81.08,1.37.2,2.73.37,4.09.09.72.17,1.44.17,2.17,0,.33-.02.65-.04.98-.01.16-.03.32-.05.48,0,0,0,.02,0,.03,0-.02,0-.03,0-.05,0,.02,0,.04,0,.06,0,.05-.02.11-.01.09,0,.05-.01.1-.02.15-.11.65-.26,1.29-.45,1.92-.1.33-.21.65-.32.97-.06.15-.11.3-.17.45-.03.07-.06.15-.09.22,0,0,0,.01,0,.02,0,0,0,.02-.01.03-.55,1.25-1.21,2.45-1.92,3.62-1.44,2.37-3.08,4.6-4.52,6.97-.32.53-.63,1.07-.93,1.62-.27.39-.3.95-.13,1.37.11.26.28.46.48.6,0,0,.02.01.03.02,0,0,.01,0,.02.01.22.14.48.23.77.24,1.25.08,2.5.15,3.76.2-1.7,2.35-3.43,4.69-5.12,7.04-.03.04-.06.08-.09.12-.02.03-.04.06-.06.08-.33.46-.21,1.17.11,1.58,0,0,0,0,.01.01.26.35.67.6,1.11.55,1.21-.13,2.4-.35,3.6-.58.56-.11,1.12-.22,1.68-.32.36-.06.58-.1.82-.13,2.57,3.2,6.26,5.28,10.02,6.81,4.91,2,10.17,3.04,15.42,3.65,5.65.65,11.37.71,17.03.21,5.39-.48,10.81-1.42,15.91-3.26,4.08-1.47,8.29-3.54,11.17-6.9.14-.17.28-.34.42-.51.24.03.46.07.82.13.56.1,1.12.21,1.68.32,1.19.23,2.39.45,3.6.58.41.04.78-.16,1.04-.47.03-.03.05-.06.08-.09.32-.42.44-1.12.11-1.58Zm-7.72-21.97c-.05-.11-.03-.06,0,0h0Zm-.25,20.17c-.48-.04-.94.26-1.2.67,0,.01-.02.02-.03.03-.07.1-.14.19-.21.29,0,.01-.01.02-.02.03,0,0,0,0-.01.01-.15.19-.31.37-.47.56-.32.36-.65.7-1,1.02-.35.33-.71.63-1.08.93.01,0,.02-.02.04-.03-.02.02-.05.03-.07.05,0,0,0,0-.01,0-.01,0-.02.02-.04.03-.01.01-.03.02-.04.03-.11.08-.21.16-.32.24-.22.16-.44.31-.67.47-.91.61-1.86,1.15-2.84,1.64-.54.27-1.09.53-1.64.77-.12.05-.23.11-.35.15.47-.15-.05.02-.16.07-.29.12-.59.23-.88.35-2.44.93-4.97,1.63-7.52,2.17-1.38.29-2.77.54-4.17.75-.17.02-.33.05-.5.07-.11.02-.68.08-.21.03-.37.04-.74.1-1.1.14-.73.09-1.46.16-2.18.23-5.86.53-11.79.46-17.63-.25-.18-.02-.37-.05-.55-.07-.11-.01-.62-.11-.17-.02-.36-.07-.73-.1-1.09-.16-.72-.11-1.43-.23-2.15-.36-1.33-.24-2.65-.53-3.97-.86-1.28-.32-2.55-.69-3.8-1.11-.59-.2-1.17-.41-1.74-.63-.27-.1-.54-.21-.81-.32-.06-.03-.12-.05-.19-.08-.16-.07-.31-.14-.47-.2-1.03-.46-2.05-.97-3.03-1.54-.47-.28-.93-.57-1.39-.87-.21-.15-.43-.3-.64-.45-.07-.05-.14-.1-.2-.15,0,0,0,0,.01.01-.01-.01-.02-.02-.03-.03-.01-.01-.03-.02-.04-.03-.02-.01-.04-.03-.06-.05-.02-.02-.05-.04-.07-.05-.76-.61-1.48-1.28-2.12-2.02-.12-.14-.23-.28-.34-.42-.02-.02-.03-.04-.05-.05-.02-.02-.03-.04-.05-.06,0,.01.02.02.03.03,0,0-.01-.02-.02-.03-.2-.28-.38-.57-.68-.75-.65-.38-1.64-.1-2.33,0-.61.09-1.22.2-1.83.32-.04,0-.08.02-.12.02,1.6-2.2,3.22-4.39,4.79-6.61.59-.84-.19-2.26-1.23-2.14-1.36-.03-2.71-.08-4.07-.15,2.71-4.41,6.18-8.48,7.4-13.6.36-1.51.52-3.08.39-4.63-.12-1.5-.35-2.99-.45-4.5-.09-1.29-.13-2.59-.1-3.88.01-.56.04-1.11.08-1.66.02-.25.04-.5.07-.76.01-.13.03-.26.04-.39,0-.04,0-.07.01-.11-.01.09-.02.15,0-.02,0,0,0-.01,0-.02,0-.02,0-.05,0-.07,0,.02,0,.04,0,.06.14-.89.31-1.77.59-2.62.06-.18.12-.36.19-.54.03-.07.06-.14.08-.21.01-.02.02-.05.03-.07.15-.33.32-.65.51-.95.08-.12.16-.24.24-.36.06-.06.11-.14.16-.2.2-.23.42-.44.65-.64,0,0,0,0,.01-.01.03-.03.07-.05.1-.07.12-.09.25-.17.38-.24.12-.07.25-.13.37-.19.05-.02.1-.04.15-.06.29-.1.59-.18.9-.23.01,0,.04,0,.07-.01.03,0,.06,0,.08,0,.17-.02.33-.02.5-.03.35,0,.7,0,1.05.04.06,0,.11.01.17.02.02,0,.04,0,.07.01.19.03.38.07.57.11.83.18,1.64.44,2.44.74.1.04.19.08.29.11.03.01.06.03.1.04.22.1.45.2.67.3.47.22.93.45,1.38.69,2.15,1.15,4.18,2.51,6.13,3.97.26.2.52.39.78.59.06.05.12.1.19.14,0,0,0,0,.01.01,0,0,.02.01.03.02.16.12.32.25.47.37.31.25.62.54.96.75.54.35,1.41.16,2.03.13,1.92-.09,3.85-.15,5.78-.18,3.9-.06,7.8,0,11.7.2.59.03,1.24.15,1.78-.14.39-.2.75-.59,1.1-.87.11-.09.23-.18.34-.27.02-.02.21-.16.26-.2.29-.22.58-.44.87-.66,1.02-.76,2.06-1.48,3.13-2.17.96-.62,1.93-1.2,2.94-1.73.45-.24.91-.47,1.38-.69.21-.1.44-.24.67-.3-.01,0-.34.14-.12.05.05-.02.1-.04.14-.06.12-.05.24-.1.36-.14.79-.3,1.6-.56,2.43-.73.18-.04.35-.07.53-.1-.01,0-.02,0-.04,0,.02,0,.03,0,.05,0,0,0,.02,0,.02,0,.03,0,.07,0,.1-.01.04,0,.09-.01.13-.02.35-.03.69-.05,1.04-.04.15,0,.3.01.45.03-.02,0-.04,0-.07-.01.04,0,.08.01.12.02.01,0,.03,0,.04,0,.03,0,.07,0,.1.02.3.06.6.13.9.24.04.01.08.03.12.04.14.07.28.14.41.21.12.07.24.15.36.23.04.03.09.07.13.1.24.2.46.43.66.67.02.02.04.05.06.07,0,0,.02.02.02.03.02.02.04.05.06.07-.01-.01-.02-.02-.03-.03.1.14.2.29.29.44.19.31.35.63.5.96.03.07.05.13.08.2.08.21.15.42.22.64.27.85.44,1.73.57,2.61,0,.04,0,.07.01.11.01.11.03.23.04.34.03.28.05.56.07.85.04.57.07,1.15.07,1.72.02,1.3-.03,2.61-.12,3.91-.1,1.49-.34,2.97-.45,4.46-.45,6.27,3.51,11.51,6.77,16.47.35.54.7,1.08,1.04,1.63-1.36.07-2.71.12-4.07.15-1.04-.11-1.82,1.31-1.23,2.14,1.57,2.22,3.19,4.41,4.79,6.61-1.18-.23-2.36-.44-3.56-.54Z"/>
        <path class="cls-2" d="m19.7,70.22s.07.05.1.08c0,0,.01.01.02.02-.24-.22-.19-.16-.12-.1Z"/>
        <path class="cls-2" d="m80.23,70.27s.03-.02.05-.04c.01,0,.02-.02.03-.03-.28.19-.17.13-.08.06Z"/>
        <path class="cls-2" d="m17.09,67.64s.02.02.02.03c.02.02.03.04.05.05.08.09.14.15-.07-.08Z"/>
        <path class="cls-2" d="m76.51,22.31s-.03,0-.04,0c-.01,0-.02,0-.04,0,0,0-.01,0-.02,0,.34.07.22.03.09.01Z"/>
        <path class="cls-2" d="m79.3,23.96s0,0,0-.01c0,0-.01-.01-.02-.02,0,0-.02-.02-.02-.03-.09-.1-.19-.18.05.06Z"/>
        <path class="cls-2" d="m74.8,22.32s-.08.01-.13.01c0,0,0,0-.01,0,.34-.02.25-.02.14-.02Z"/>
      </g>
    </g>
  </g>
</svg>