<?xml version="1.0" encoding="UTF-8"?>
<svg id="Layer_2" data-name="Layer 2" xmlns="http://www.w3.org/2000/svg" viewBox="0 0 1555.67 264.28">
  <defs>
    <style>
      .cls-1 {
        fill: #fff;
      }
    </style>
  </defs>
  <g id="Layer_1-2" data-name="Layer 1">
    <g>
      <path d="m256.42,264.28c-6.33,0-11.73-.6-16.51-1.85-31.06-7.65-42.11-25.93-45.91-39.96-1.56-5.64-2.83-12.64-3.79-20.81-6.35-53.28-10.16-105.62-11.33-155.53,0-.16,0-.31,0-.47,0-16.9,14.38-30.15,33.46-30.82.23,0,.47-.01.7-.01.08,0,.15,0,.23,0,18.86.21,33.33,12.48,34.41,29.17.02.28.03.56.04.84.6,26.83,1.92,53.65,3.93,79.73,2.15,25.99,4.57,49.97,7.39,73.32.02.15.03.3.05.45.18,1.86.39,3.35.59,4.54.65.02,1.42.03,2.29.03,3.76,0,8.76-.23,15.73-.71.46-.03.92-.05,1.39-.05h.77c7.68,0,14.64,1.95,20.67,5.8.05.03.09.06.14.09,8.94,5.81,13.87,14.53,13.87,24.56,0,16.7-13.55,29.61-32.22,30.71-.18.01-.36.02-.55.02-.34.04-.68.06-1.02.08-11.65.59-19.6.88-24.32.88Z"/>
      <path d="m289.76,224.8c-2.83-1.81-6.18-2.66-9.91-2.66h-.77c-6.82.48-12.49.76-17.12.76-2.7,0-5.15-.1-7.08-.29-5.54-.48-9.27-2.28-11.46-5.61-2.06-3.33-3.48-8.84-4.25-16.73-2.96-24.52-5.41-49.23-7.47-74.13-1.93-24.99-3.35-51.89-3.99-80.88-.39-5.99-6.44-10.36-14.68-10.45-8.11.28-14.16,4.75-14.16,10.83,1.16,49.51,4.89,100.74,11.2,153.67.9,7.7,2.06,13.69,3.22,17.87,3.48,12.92,14.03,21.57,31.54,25.85,3.22.85,7.08,1.24,11.59,1.24s12.1-.29,23.3-.86c.39-.1.9-.1,1.42-.1,8.11-.48,13.39-5.13,13.39-10.74,0-3.14-1.54-5.7-4.76-7.79Z"/>
      <path d="m504.19,253.07c-19.12-.22-33.82-13.17-34.18-30.12,0-.14,0-.29,0-.43,0-2.31-.02-4.79-.06-7.37-25.44,2.32-48.13,4.19-68.6,5.63-1.69,4.94-4.73,9.41-8.96,13.05-6.31,5.5-14.4,8.4-23.4,8.4-17.98,0-32.33-11.15-34.66-26.7-2.78-3.1-4.75-6.92-5.57-11.17-.12-.61-.21-1.22-.27-1.84l-1.42-14.35c-.06-.65-.1-1.31-.1-1.96,0-7.37,3.41-13.89,8.96-18.21,7.02-50.4,30.57-98.86,70.11-144.24.2-.23.4-.45.6-.66,6.3-6.6,14.64-10.09,24.13-10.09.41,0,.82,0,1.23.02l.62-.51c.27-.22.54-.43.82-.64,5.99-4.42,12.8-6.66,20.24-6.66h2.7c6.43,0,12.76,2.51,18.82,7.45.18.15.35.29.53.45,26.22,22.94,44.19,57.25,53.41,101.96,6.43,31.32,9.68,67.43,9.68,107.34,0,.14,0,.28,0,.42-.36,17-15.06,30-34.18,30.22-.08,0-.16,0-.23,0s-.15,0-.23,0Zm-58.69-172.96c-18.84,25.48-31.56,51.83-38.02,78.76,18.48-1.39,38.03-3.03,58.49-4.92-3.95-31.16-10.8-55.86-20.47-73.84Z"/>
      <path d="m462.58,28.17c-2.45-2-4.51-2.95-6.18-2.95h-2.7c-3.22,0-5.92.95-8.37,2.76l-7.98,6.56c-2.19-1.05-4.38-1.52-6.57-1.52-3.99,0-7.21,1.33-9.66,3.9-40.17,46.09-62.44,94.56-66.69,145.59l-2.96.09c-2.7.29-4.51,1.81-4.51,3.61l1.42,14.35c.39,2,2.45,3.33,4.89,3.33h.52l.26,8.27c.64,6.08,7.21,10.07,14.93,10.07,4.12,0,7.6-1.14,10.3-3.52,2.45-2.09,3.6-4.56,3.6-7.32v-.28c-.13-3.04-.26-6.08-.26-9.12,30.25-1.9,65.92-4.85,106.73-8.74.39,11.69.64,21.38.64,29.27.13,5.99,6.18,10.45,14.42,10.55,8.11-.1,14.29-4.56,14.42-10.64,0-38.68-3.09-73.18-9.27-103.3-8.37-40.58-24.07-70.9-46.99-90.95Zm-79.05,152.44c4.76-46.66,25.62-91.04,62.83-133.33,22.79,23.47,36.69,65.1,41.58,124.69-39.27,3.8-74.16,6.65-104.41,8.65Z"/>
      <path d="m631.4,255.16c-18.6,0-33.43-12.54-34.51-29.17-.02-.28-.03-.57-.04-.85-1.26-57.79-4.59-108.28-9.89-150.08-1.87-15.05-2.73-25.74-2.73-33.69,0-3.27.29-7.15.72-11.97.02-.2.04-.4.06-.59.87-7.2,5.25-20.14,24.79-26.24,5.21-1.73,10.17-2.58,15.15-2.58,3.08,0,6.62.45,10.81,1.38,4.82.97,9.84,2.85,14.91,5.59,4.4,2.38,7.21,4.06,9.52,5.74,22.69,15.57,42.97,33.52,60.29,53.35,4.84,5.55,9.43,11.18,13.76,16.88.91-5.3,1.6-9.63,2.09-13.22.06-.4.12-.79.2-1.19,1.49-7.44,5.72-13.91,12.24-18.71,6.07-4.48,13.43-6.85,21.27-6.85,8.64,0,16.31,2.43,22.82,7.23.13.09.25.19.38.29,7.49,5.8,11.61,14.05,11.61,23.22,0,3.01,0,5.39-11.04,63.6-7.62,40.98-12.12,66.29-13.36,75.16-.04.26-.08.52-.13.79-1.53,8.49-6.63,15.74-14.36,20.41-.22.13-.43.26-.66.38-5.62,3.11-11.87,4.69-18.57,4.69-.27,0-.54,0-.82-.02l-2.32-.09c-.36-.01-.72-.04-1.08-.07-8.29-.79-15.32-3.74-20.9-8.76-.06-.05-.11-.1-.17-.15-6.14-5.67-9.53-13.25-9.53-21.35,0-.18,0-.35,0-.53l.12-4.57c-.06-20.73-7.98-44.03-23.54-69.27-8.32-13.5-18.37-26.33-30.06-38.41,3.59,37.47,5.97,79.89,7.21,128.43,0,.17,0,.34,0,.51,0,17.3-14.64,30.51-34.06,30.74-.08,0-.15,0-.23,0Z"/>
      <path d="m781,66.28c-2.96-2.19-6.57-3.33-10.94-3.33-3.48,0-6.69.95-9.4,2.95-2.45,1.81-3.99,3.99-4.51,6.56-1.67,12.07-5.28,31.46-10.56,58.26l-1.16,6.65c-9.65-20.05-22.66-39.44-39.01-58.16-16.35-18.72-35.28-35.45-56.78-50.18-1.67-1.24-4.12-2.66-7.47-4.47-3.35-1.81-6.57-3.04-9.53-3.61-2.96-.66-5.15-.95-6.69-.95-2.96,0-5.92.57-9.01,1.62-6.82,2.09-10.56,5.32-11.07,9.6-.39,4.28-.64,7.7-.64,10.17,0,7.32.9,17.68,2.57,31.17,5.41,42.67,8.75,93.32,10.04,152.15.39,5.99,6.44,10.45,14.55,10.45,8.24-.09,14.29-4.75,14.29-10.74-1.67-65.48-5.54-121.55-11.84-168.21l-1.03-9.03c30.77,22.14,55.1,47.61,72.74,76.22,17.64,28.61,26.52,55.22,26.52,80.02l-.13,4.85c0,2.57,1.03,4.75,3.09,6.65,2.32,2.09,5.41,3.33,9.4,3.71l2.32.1c3.35,0,6.31-.76,8.88-2.19,2.83-1.71,4.51-3.99,5.02-6.84,1.29-9.22,5.79-34.59,13.52-76.12,7.08-37.35,10.69-57.31,10.69-59.87,0-2.95-1.29-5.42-3.86-7.41Z"/>
      <path d="m898.33,264c-6.32,0-12.46-1.58-18.26-4.71-8.68-4.55-14.25-12.45-15.69-22.28-.14-.96-.21-1.93-.21-2.9v-.67c0-6.43,2.08-12.37,5.76-17.28-3.68-4.61-5.96-10.25-6.37-16.5-.02-.24-.03-.49-.03-.73-1.4-50.04-5.79-100.3-13.05-149.4-.14-.97-.22-1.95-.22-2.93v-.76c0-10.86,6.98-20.27,17.25-24.47,8.88-8.69,20.51-14.8,34.68-18.17,7.19-1.69,14.67-2.54,22.27-2.54,8.56,0,18.94,1.47,30.86,4.37,14.17,3.44,28.05,11.92,41.25,25.19,13.57,13.64,22.57,32.31,26.75,55.51.04.25.08.49.12.74,1.09,7.67,1.61,14.83,1.61,21.91,0,11.2-1.63,23.96-4.98,39.03-3.45,15.42-10.41,31.56-20.68,48.01-10.25,16.63-23.27,31.05-38.69,42.88-15.96,12.23-34.14,20.59-54.05,24.87-.08.02-.17.04-.25.05-2.62.53-5.18.77-8.07.77Zm23.27-201.79c5.02,37.85,8.38,76.09,10.02,114.11,4.65-5.67,8.65-11.83,12.08-18.61,8.31-16.46,12.52-33.38,12.52-50.28,0-6.1-.91-13.21-2.72-21.12-1.38-6.04-4.51-11.54-9.58-16.8-4.19-4.35-9.64-6.74-17.14-7.5l-1.84-.06c-1.29.01-2.4.11-3.35.25Z"/>
      <path d="m982.4,44.33c-10.69-10.74-21.24-17.3-31.8-19.86-10.56-2.57-19.31-3.8-26.13-3.8-6.05,0-11.97.66-17.64,2-12.36,2.95-21.89,8.36-28.45,16.44-5.15.48-8.11,3.61-8.11,6.75v.76c7.47,50.46,11.84,101.02,13.26,151.77.39,5.99,6.44,10.36,14.55,10.45,8.24-.29,14.16-4.75,14.29-10.83-1.29-48.75-5.41-97.41-12.36-145.97h.39c.9,0,1.55-.29,1.8-.76,3.99-6.37,13.39-9.31,23.05-9.31l2.83.1c12.62,1.14,22.66,5.7,30.26,13.59,7.6,7.89,12.49,16.63,14.68,26.23,2.19,9.6,3.22,18.06,3.22,25.56,0,20.15-4.89,39.92-14.68,59.3-6.82,13.5-15.84,25.37-27.29,35.64-11.33,10.45-24.59,17.39-39.65,20.81-6.69,1.43-10.43,5.61-10.43,10.26v.67c.51,3.52,2.32,5.99,5.28,7.51,2.96,1.62,5.92,2.38,8.88,2.38,1.42,0,2.7-.09,4.12-.38,17.25-3.71,32.57-10.83,46.09-21.19,13.52-10.36,24.85-22.9,33.86-37.54,9.14-14.64,15.19-28.61,18.15-41.82,2.96-13.3,4.51-24.9,4.51-34.69,0-6.37-.51-12.73-1.42-19.1-3.48-19.29-10.56-34.21-21.24-44.95Z"/>
      <path d="m1119.04,255.16c-19.33,0-34.18-12.91-34.54-30.03-1.26-58.98-5.58-119.03-12.86-178.47-.1-.81-.15-1.62-.15-2.43v-1.04c0-5.61,1.65-13.88,9.54-21.4.2-.19.4-.37.61-.55,6.39-5.62,14.65-8.59,23.89-8.59,17.62,0,31.77,10.84,34.4,26.36.05.3.09.59.13.89,7.52,60.93,11.98,122.88,13.28,184.11,0,.28,0,.57,0,.85-.37,17.06-15.01,30.08-34.05,30.31-.08,0-.16,0-.23,0Z"/>
      <path d="m1105.52,32.64c-4.38,0-7.98,1.24-10.69,3.61-2.19,2.09-3.35,4.37-3.35,6.94v1.04c7.34,59.97,11.72,120.12,13,180.47.13,5.99,6.31,10.45,14.55,10.45,8.11-.09,14.16-4.75,14.29-10.74-1.29-60.92-5.66-121.55-13.13-182.09-1.03-6.08-7.47-9.69-14.68-9.69Z"/>
      <path d="m1374.02,253.07c-19.12-.22-33.82-13.17-34.18-30.12,0-.14,0-.29,0-.43,0-2.31-.02-4.79-.06-7.37-25.44,2.32-48.14,4.19-68.6,5.63-1.69,4.94-4.73,9.41-8.96,13.05-6.31,5.5-14.4,8.4-23.4,8.4-17.98,0-32.33-11.15-34.66-26.7-2.78-3.1-4.75-6.92-5.57-11.17-.12-.61-.21-1.23-.27-1.85l-1.42-14.35c-.06-.65-.1-1.31-.1-1.96,0-7.37,3.41-13.89,8.96-18.21,7.02-50.4,30.57-98.86,70.11-144.24.2-.22.4-.45.6-.66,6.3-6.6,14.64-10.1,24.13-10.1.41,0,.82,0,1.23.02l.62-.51c.27-.22.54-.43.82-.64,5.99-4.42,12.8-6.66,20.24-6.66h2.7c6.43,0,12.76,2.51,18.82,7.45.18.15.35.29.53.44,26.22,22.94,44.19,57.25,53.41,101.96,6.43,31.33,9.68,67.44,9.68,107.34,0,.14,0,.28,0,.43-.36,17-15.06,29.99-34.18,30.22-.08,0-.16,0-.23,0s-.15,0-.23,0Zm-58.69-172.96c-18.84,25.48-31.56,51.83-38.02,78.76,18.48-1.39,38.03-3.03,58.49-4.92-3.95-31.16-10.8-55.86-20.47-73.84Z"/>
      <path d="m1332.41,28.17c-2.45-2-4.51-2.95-6.18-2.95h-2.7c-3.22,0-5.92.95-8.37,2.76l-7.98,6.56c-2.19-1.05-4.38-1.52-6.57-1.52-3.99,0-7.21,1.33-9.65,3.9-40.17,46.09-62.44,94.56-66.69,145.59l-2.96.09c-2.7.29-4.51,1.81-4.51,3.61l1.42,14.35c.39,2,2.45,3.33,4.89,3.33h.51l.26,8.27c.64,6.08,7.21,10.07,14.93,10.07,4.12,0,7.6-1.14,10.3-3.52,2.45-2.09,3.6-4.56,3.6-7.32v-.28c-.13-3.04-.26-6.08-.26-9.12,30.26-1.9,65.92-4.85,106.73-8.74.39,11.69.64,21.38.64,29.27.13,5.99,6.18,10.45,14.42,10.55,8.11-.1,14.29-4.56,14.42-10.64,0-38.68-3.09-73.18-9.27-103.3-8.37-40.58-24.07-70.9-46.99-90.95Zm-79.05,152.44c4.76-46.66,25.62-91.04,62.83-133.33,22.79,23.47,36.69,65.1,41.58,124.69-39.27,3.8-74.16,6.65-104.41,8.65Z"/>
      <path d="m110.43,209.08c-4.69,0-9.38-1.17-13.58-3.37l-17.44-9.17-17.44,9.17c-4.2,2.21-8.9,3.37-13.58,3.37-8.62,0-16.76-3.8-22.35-10.43-5.54-6.57-7.88-15.21-6.42-23.72l3.33-19.42-14.11-13.75c-8.02-7.81-10.85-19.28-7.39-29.92s12.49-18.26,23.56-19.86l19.5-2.83,8.72-17.67c4.95-10.04,14.98-16.27,26.17-16.27s21.22,6.23,26.18,16.27l8.72,17.67,19.5,2.83c11.07,1.61,20.1,9.22,23.56,19.86s.63,22.11-7.39,29.92l-14.11,13.75,3.33,19.42c1.46,8.51-.88,17.15-6.42,23.72-5.59,6.62-13.73,10.42-22.35,10.42h0Z"/>
      <path d="m130.93,111.77l-25.12-3.65c-2.99-.43-5.58-2.31-6.92-5.03l-11.24-22.77c-3.37-6.83-13.11-6.83-16.48,0l-11.24,22.77c-1.34,2.71-3.93,4.59-6.92,5.03l-25.12,3.65c-7.54,1.1-10.55,10.36-5.09,15.67l18.18,17.72c2.17,2.11,3.15,5.15,2.64,8.13l-4.29,25.02c-1.29,7.51,6.59,13.23,13.33,9.69l22.47-11.81c2.68-1.41,5.88-1.41,8.55,0l22.47,11.81c6.74,3.54,14.62-2.18,13.33-9.69l-4.29-25.02c-.51-2.98.48-6.02,2.64-8.13l18.18-17.72c5.45-5.32,2.44-14.58-5.09-15.67Z"/>
      <path d="m1507.28,209.08c-4.69,0-9.38-1.17-13.58-3.37l-17.44-9.17-17.44,9.17c-4.2,2.21-8.9,3.37-13.58,3.37-8.62,0-16.76-3.8-22.35-10.43-5.54-6.57-7.88-15.21-6.42-23.72l3.33-19.42-14.11-13.75c-8.02-7.81-10.85-19.28-7.39-29.92s12.49-18.26,23.56-19.86l19.5-2.83,8.72-17.67c4.95-10.04,14.98-16.27,26.17-16.27s21.22,6.23,26.18,16.27l8.72,17.67,19.5,2.83c11.07,1.61,20.1,9.22,23.56,19.86s.63,22.11-7.39,29.92l-14.11,13.75,3.33,19.42c1.46,8.51-.88,17.15-6.42,23.72-5.59,6.62-13.73,10.43-22.35,10.43h0Z"/>
      <path d="m1532.87,127.44c5.45-5.32,2.44-14.58-5.09-15.67l-25.13-3.65c-2.99-.43-5.58-2.31-6.92-5.03l-11.24-22.77c-3.37-6.83-13.11-6.83-16.48,0l-11.24,22.77c-1.34,2.71-3.93,4.59-6.92,5.03l-25.13,3.65c-7.54,1.1-10.55,10.36-5.09,15.67l18.18,17.72c2.17,2.11,3.15,5.15,2.64,8.13l-4.29,25.02c-1.29,7.51,6.59,13.23,13.33,9.69l22.47-11.81c2.68-1.41,5.88-1.41,8.55,0l22.47,11.81c6.74,3.54,14.62-2.18,13.33-9.69l-4.29-25.02c-.51-2.98.48-6.02,2.64-8.13l18.18-17.72Z"/>
      <g>
        <g>
          <path class="cls-1" d="m244.84,243.05c-17.51-4.28-28.07-12.93-31.54-25.85-1.16-4.18-2.32-10.17-3.22-17.87-6.31-52.93-10.04-104.16-11.2-153.67,0-6.08,6.05-10.55,14.16-10.83,8.24.09,14.29,4.47,14.68,10.45.64,28.99,2.06,55.88,3.99,80.87,2.06,24.9,4.51,49.61,7.47,74.13.77,7.89,2.19,13.4,4.25,16.73,2.19,3.33,5.92,5.13,11.46,5.61,1.93.19,4.38.29,7.08.29,4.63,0,10.3-.29,17.12-.76h.77c3.73,0,7.08.86,9.91,2.66,3.22,2.09,4.76,4.66,4.76,7.79,0,5.61-5.28,10.26-13.39,10.74-.52,0-1.03,0-1.42.1-11.2.57-18.93.86-23.3.86s-8.37-.38-11.59-1.24Z"/>
          <path class="cls-1" d="m490.01,222.52c0-7.89-.26-17.58-.64-29.27-40.81,3.9-76.47,6.84-106.73,8.74,0,3.04.13,6.08.26,9.12v.28c0,2.76-1.16,5.23-3.6,7.32-2.7,2.38-6.18,3.52-10.3,3.52-7.72,0-14.29-3.99-14.93-10.07l-.26-8.27h-.52c-2.45,0-4.51-1.33-4.89-3.33l-1.42-14.35c0-1.81,1.8-3.33,4.51-3.61l2.96-.1c4.25-51.03,26.52-99.5,66.69-145.59,2.45-2.57,5.67-3.9,9.66-3.9,2.19,0,4.38.48,6.57,1.52l7.98-6.56c2.45-1.81,5.15-2.76,8.37-2.76h2.7c1.67,0,3.73.95,6.18,2.95,22.92,20.05,38.62,50.37,46.99,90.95,6.18,30.13,9.27,64.62,9.27,103.3-.13,6.08-6.31,10.55-14.42,10.64-8.24-.1-14.29-4.56-14.42-10.55Zm-2.06-50.56c-4.89-59.59-18.8-101.21-41.58-124.69-37.21,42.29-58.06,86.67-62.83,133.33,30.25-2,65.14-4.85,104.41-8.65Z"/>
          <path class="cls-1" d="m616.86,224.71c-1.29-58.83-4.63-109.48-10.04-152.15-1.67-13.49-2.57-23.85-2.57-31.17,0-2.47.26-5.89.64-10.17.52-4.28,4.25-7.51,11.07-9.6,3.09-1.05,6.05-1.62,9.01-1.62,1.54,0,3.73.29,6.69.95,2.96.57,6.18,1.81,9.53,3.61,3.35,1.81,5.79,3.23,7.47,4.47,21.5,14.73,40.42,31.46,56.78,50.18,16.35,18.72,29.35,38.11,39.01,58.16l1.16-6.65c5.28-26.8,8.88-46.19,10.56-58.26.51-2.57,2.06-4.75,4.51-6.56,2.7-2,5.92-2.95,9.4-2.95,4.38,0,7.98,1.14,10.94,3.33,2.57,2,3.86,4.47,3.86,7.41,0,2.57-3.61,22.52-10.69,59.87-7.72,41.53-12.23,66.9-13.52,76.12-.51,2.85-2.19,5.13-5.02,6.84-2.57,1.43-5.54,2.19-8.88,2.19l-2.32-.1c-3.99-.38-7.08-1.62-9.4-3.71-2.06-1.9-3.09-4.09-3.09-6.65l.13-4.85c0-24.8-8.88-51.41-26.52-80.02-17.64-28.61-41.97-54.07-72.74-76.22l1.03,9.03c6.31,46.66,10.17,102.73,11.84,168.21,0,5.99-6.05,10.64-14.29,10.74-8.11,0-14.16-4.47-14.55-10.45Z"/>
          <path class="cls-1" d="m889.45,241.62c-2.96-1.52-4.76-3.99-5.28-7.51v-.67c0-4.66,3.73-8.84,10.43-10.26,15.06-3.42,28.32-10.36,39.65-20.81,11.46-10.26,20.47-22.14,27.29-35.64,9.78-19.39,14.68-39.16,14.68-59.3,0-7.51-1.03-15.97-3.22-25.56-2.19-9.6-7.08-18.34-14.68-26.23-7.6-7.89-17.64-12.45-30.26-13.59l-2.83-.1c-9.66,0-19.05,2.95-23.05,9.31-.26.48-.9.76-1.8.76h-.39c6.95,48.56,11.07,97.22,12.36,145.97-.13,6.08-6.05,10.55-14.29,10.83-8.11-.1-14.16-4.47-14.55-10.45-1.42-50.75-5.79-101.31-13.26-151.77v-.76c0-3.14,2.96-6.27,8.11-6.75,6.57-8.08,16.09-13.49,28.45-16.44,5.66-1.33,11.59-2,17.64-2,6.82,0,15.58,1.24,26.13,3.8,10.56,2.57,21.11,9.12,31.8,19.86,10.69,10.74,17.77,25.66,21.24,44.95.9,6.37,1.42,12.73,1.42,19.1,0,9.79-1.55,21.38-4.51,34.69-2.96,13.21-9.01,27.18-18.15,41.82-9.01,14.64-20.34,27.18-33.86,37.54-13.52,10.36-28.84,17.49-46.09,21.19-1.42.29-2.7.38-4.12.38-2.96,0-5.92-.76-8.88-2.38Z"/>
          <path class="cls-1" d="m1104.49,224.71c-1.29-60.35-5.66-120.51-13-180.47v-1.04c0-2.57,1.16-4.85,3.35-6.94,2.7-2.38,6.31-3.61,10.69-3.61,7.21,0,13.65,3.61,14.68,9.69,7.47,60.54,11.84,121.17,13.13,182.09-.13,5.99-6.18,10.64-14.29,10.74-8.24,0-14.42-4.47-14.55-10.45Z"/>
          <path class="cls-1" d="m1359.84,222.52c0-7.89-.26-17.58-.64-29.27-40.81,3.9-76.47,6.84-106.73,8.74,0,3.04.13,6.08.26,9.12v.28c0,2.76-1.16,5.23-3.6,7.32-2.7,2.38-6.18,3.52-10.3,3.52-7.72,0-14.29-3.99-14.93-10.07l-.26-8.27h-.51c-2.45,0-4.51-1.33-4.89-3.33l-1.42-14.35c0-1.81,1.8-3.33,4.51-3.61l2.96-.1c4.25-51.03,26.52-99.5,66.69-145.59,2.45-2.57,5.66-3.9,9.65-3.9,2.19,0,4.38.48,6.57,1.52l7.98-6.56c2.45-1.81,5.15-2.76,8.37-2.76h2.7c1.67,0,3.73.95,6.18,2.95,22.92,20.05,38.62,50.37,46.99,90.95,6.18,30.13,9.27,64.62,9.27,103.3-.13,6.08-6.31,10.55-14.42,10.64-8.24-.1-14.29-4.56-14.42-10.55Zm-2.06-50.56c-4.89-59.59-18.8-101.21-41.58-124.69-37.21,42.29-58.06,86.67-62.83,133.33,30.25-2,65.14-4.85,104.41-8.65Z"/>
        </g>
        <path class="cls-1" d="m87.66,80.32l11.24,22.77c1.34,2.71,3.93,4.59,6.92,5.03l25.13,3.65c7.54,1.1,10.55,10.36,5.09,15.67l-18.18,17.72c-2.17,2.11-3.15,5.15-2.64,8.13l4.29,25.02c1.29,7.51-6.59,13.23-13.33,9.69l-22.47-11.81c-2.68-1.41-5.88-1.41-8.55,0l-22.47,11.81c-6.74,3.54-14.62-2.18-13.33-9.69l4.29-25.02c.51-2.98-.48-6.02-2.64-8.13l-18.18-17.72c-5.45-5.32-2.44-14.58,5.09-15.67l25.13-3.65c2.99-.43,5.58-2.31,6.92-5.03l11.24-22.77c3.37-6.83,13.11-6.83,16.48,0Z"/>
        <path class="cls-1" d="m1484.5,80.32l11.24,22.77c1.34,2.71,3.93,4.59,6.92,5.03l25.13,3.65c7.54,1.1,10.55,10.36,5.09,15.67l-18.18,17.72c-2.17,2.11-3.15,5.15-2.64,8.13l4.29,25.02c1.29,7.51-6.59,13.23-13.33,9.69l-22.47-11.81c-2.68-1.41-5.88-1.41-8.55,0l-22.47,11.81c-6.74,3.54-14.62-2.18-13.33-9.69l4.29-25.02c.51-2.98-.48-6.02-2.64-8.13l-18.18-17.72c-5.45-5.32-2.44-14.58,5.09-15.67l25.13-3.65c2.99-.43,5.58-2.31,6.92-5.03l11.24-22.77c3.37-6.83,13.11-6.83,16.48,0Z"/>
      </g>
    </g>
  </g>
</svg>