<?xml version="1.0" encoding="UTF-8"?>
<svg id="Layer_2" data-name="Layer 2" xmlns="http://www.w3.org/2000/svg" viewBox="0 0 1922.84 547.13">
  <defs>
    <style>
      .cls-1 {
        fill: #fff;
      }

      .cls-2 {
        fill: #44aa68;
      }

      .cls-3 {
        fill: #00b8f1;
      }

      .cls-4 {
        fill: #e56c25;
      }

      .cls-5 {
        fill: #95b334;
      }
    </style>
  </defs>
  <g id="Layer_1-2" data-name="Layer 1">
    <g>
      <path d="m400.18,515.18c-1.67.45-3.43.69-5.24.69H20c-11.05,0-20-8.95-20-20V22.33C0,11.28,8.95,2.33,20,2.33h74.45c2.83-1.5,6.03-2.33,9.36-2.33.04,0,191.46,1.13,191.46,1.13,12.91.08,25.14.48,36.35,1.2h7.32c2.29,0,4.49.39,6.54,1.1,28.06,2.66,49.72,7.56,66.11,14.97,30.74,13.7,46.93,38.43,46.73,71.46-.02,3.97.19,8.47.41,13.23,1.03,21.73,2.3,48.78-15.91,69.98-.03.03-1.98,2.28-2.87,3.3-12.02,13.87-18.92,21.32-35.38,29.59,4.68,70.64,28.02,139.61,69.49,205.22,18.69,29.88,37.82,53.22,56.89,69.46,6.4,5.45,8.71,14.31,5.78,22.19-2.91,7.84-10.39,13.04-18.75,13.04-.04,0-117.81-.69-117.81-.69Z"/>
      <path d="m457.17,421.87c-46.19-73.09-70.6-149.25-73.23-228.48,24.82-10.37,28.35-15.71,43.72-33.36,16.41-19.09,10.54-48.42,10.66-70.29.15-24.96-11.51-42.66-34.96-53.12-15.09-6.81-36.57-11.38-64.43-13.7v-.59h-7.96c-11.02-.72-22.96-1.12-35.82-1.2l-191.34-1.13c.73.76,1.4,1.55,2.1,2.33H20v473.54h374.94v-.73l123.06.73c-20.73-17.65-41.01-42.32-60.83-74Z"/>
      <path d="m1388.89,547.13c-43.14,0-84.23-13.49-118.44-38.47-3.23,2.21-7.13,3.5-11.3,3.5-.04,0-233.47-1.28-233.47-1.28-9.78,3.78-18.1,4.27-23.78,4.27-3.29,0-6.4-.19-9.13-.36-2.27-.14-4.42-.27-6.38-.28-19.03-.08-31.56-15.02-39.84-24.91l-1.02-1.22c-12.49-14.85-18.79-58.29-18.73-73.56.05-12.31,2.16-26.42,5.94-40.9-.92.13-1.86.2-2.81.2-.4,0-.8-.01-1.21-.04l-137.99-8.24v44.53c0,5.51-2.27,10.78-6.29,14.56-3.72,3.5-8.63,5.44-13.71,5.44-.4,0-.79-.01-1.19-.04l-39.03-2.33-75.29-.21c-4.9-.01-9.62-1.83-13.26-5.07l-13.31-.79c-16.09,7.43-33.84,11.2-52.76,11.2h-.39c-24.01-.07-45.95-4.55-65.2-13.31-19.24-8.76-35.78-20.92-49.16-36.16-13.24-15.07-23.44-32.92-30.33-53.05-6.76-19.74-10.16-41.12-10.09-63.55.06-22.42,3.58-43.79,10.45-63.5,7-20.09,17.31-37.88,30.63-52.87,13.47-15.16,30.08-27.23,49.36-35.88,19.15-8.59,40.92-12.94,64.7-12.94h.57c10.42.03,20.61,1.36,30.37,3.97l105.67-15.02v-25.95c0-9.96,7.33-18.4,17.19-19.8l218.88-31.12c.94-.13,1.88-.2,2.82-.2,5.01,0,9.88,1.89,13.61,5.34,4.42,4.1,6.75,9.98,6.35,15.99l-1.25,18.71c21.25,1.95,38.14,9.29,50.31,21.89,14.04,14.53,21.03,35.33,20.78,61.82l-.84,87.91c22.03-12.78,43.06-19.25,62.65-19.25h.37c1.34,0,2.8.06,4.39.15,8.03-27.63,15.74-48.24,23.46-62.72,9.5-17.84,21.94-33.47,36.97-46.44,12.75-11,27.23-19.98,43.05-26.7,2.86-1.22,5.7-2.34,8.43-3.33,18.92-6.9,37.06-10.4,53.93-10.4h.52c12.35.05,22.78,3.43,31.01,10.05,9.32,7.5,14.42,18.06,14.38,29.72,0,1.26,0,2.3-4.73,49.08,23.45-9.29,48.57-14.11,74.17-14.11h12.91c27.32,0,54.07,5.48,78.85,16.04,0,0-.15-51.88-.15-51.94.11-18.73,4.85-33.74,14.08-44.6,9.88-11.63,23.4-17.78,39.09-17.78h.4c14.25.09,26.94,5.28,36.84,15.03,1.94.61,6.23,1.44,12.06,1.44,6.91,0,12.29-1.18,14.56-2.34,16.52-8.49,34.93-12.79,54.73-12.79h.92c21.18.14,39.87,4.94,55.55,14.26,8.53,5.07,16.24,11.51,23.09,19.24,8.52-7.94,17.46-14.42,26.73-19.37,16.25-8.68,34.35-13.08,53.78-13.08h.86c22.65.15,42.68,5.2,59.52,15.02,17.43,10.16,30.57,24.79,39.06,43.49.03.07.07.15.1.22,7.13,16.2,10.5,39.59,10.32,71.51l.65,154.32c.07,15.62-5.97,30.32-16.99,41.39-11.02,11.07-25.7,17.17-41.32,17.17h-264.05c-7.17,43.58-28.47,83.57-61.12,114.12-37.43,35.03-86.28,54.32-137.57,54.32h-12.91Z"/>
      <path d="m1893.56,102.35c-6.77-14.91-17.08-26.41-30.93-34.48-13.84-8.07-30.37-12.17-49.58-12.3-16.46-.11-31.5,3.47-45.09,10.72-13.59,7.26-26.35,18.46-38.27,33.62-8.14-15.11-18.54-26.42-31.19-33.94-12.65-7.52-27.8-11.34-45.47-11.45-16.98-.11-32.43,3.42-46.37,10.58-13.94,7.17-42.35,5.3-48.74-1.55s-14.39-10.3-23.99-10.36c-9.95-.07-17.99,3.51-24.12,10.73-6.13,7.22-9.24,17.81-9.32,31.77l.24,85.14c-28.46-18.56-62.44-29.35-98.94-29.35h-12.91c-36,0-69.55,10.49-97.76,28.58,4.88-47.98,8.32-82.34,8.33-83.62.02-5.65-2.28-10.33-6.91-14.06-4.63-3.73-10.82-5.61-18.56-5.64-14.71-.06-30.55,3-47.51,9.19-2.53.92-5.01,1.91-7.46,2.95-13.96,5.93-26.56,13.73-37.8,23.43-13.21,11.4-24.01,24.97-32.39,40.7-8.39,15.74-17.2,40.77-26.43,75.09-8.52-1.27-14.9-1.92-19.16-1.93-19.16-.08-40.35,7.65-63.54,23.2-6.78,4.54-13.37,9.83-19.79,15.82l1.22-127.86c.4-42.3-20.22-63.64-61.86-64.04-3.6-.03-7.13.14-10.61.49l2.68-40.01-218.88,31.12v43.31l-127.09,18.07c-9.21-2.87-18.87-4.34-29.01-4.37-21.25-.06-40.26,3.67-57.03,11.19-16.77,7.52-30.97,17.83-42.59,30.91-11.63,13.09-20.53,28.48-26.7,46.18-6.17,17.7-9.28,36.68-9.34,56.97-.06,20.29,2.95,39.3,9.02,57.02,6.07,17.73,14.88,33.17,26.44,46.33,11.56,13.16,25.69,23.54,42.42,31.15,16.72,7.61,35.71,11.45,56.96,11.51,16.26.04,31.2-3.09,44.83-9.41,1.4-.65,2.78-1.35,4.14-2.07l30.76,1.84v4.31s75.85.21,75.85.21l39.6,2.36v-65.76l159.19,9.5,1.8-26.82,41.17.39c-1.34,2.43-2.64,4.84-3.88,7.23-14.05,27.07-22.12,58.41-22.2,79.98-.06,15.9,7.1,52.36,14.04,60.6,6.94,8.24,15.39,18.96,25.65,19.01,11.12.05,21.53,2.84,35.18-3.66l49.57.27,187.94,1.03s.67-6.5,1.83-17.82c32.8,32.62,78,52.79,127.91,52.79h12.91c95.82,0,174.28-74.31,180.91-168.44h281.82c21.22,0,38.4-17.25,38.31-38.47l-.65-154.42c.17-28.84-2.71-49.98-8.63-63.45Z"/>
      <g>
        <g>
          <path class="cls-2" d="m1292.55,82.36c-4.63-3.73-10.82-5.61-18.56-5.64-14.71-.06-30.55,3-47.51,9.19-2.53.92-5.01,1.91-7.46,2.95-13.96,5.93-26.56,13.73-37.8,23.43-13.21,11.4-24.01,24.97-32.39,40.7-8.39,15.74-17.2,40.77-26.43,75.09-8.52-1.27-14.9-1.92-19.16-1.93-19.16-.08-40.35,7.65-63.54,23.2-23.2,15.54-44.29,39.58-63.29,72.11-2.67,4.56-5.13,9.05-7.42,13.47-14.05,27.07-22.12,58.41-22.2,79.98-.06,15.9,7.1,52.36,14.04,60.6,6.94,8.24,15.39,18.96,25.65,19.01,11.12.05,21.53,2.84,35.18-3.66l49.57.27,187.94,1.03s40.29-391.34,40.31-395.74c.02-5.65-2.28-10.33-6.91-14.06Z"/>
          <path class="cls-1" d="m1181.14,409.46l7.09,9.53c-22.39,19.06-39.02,31.72-49.89,37.98-15.06,8.62-26.95,12.96-35.67,13-4.02.02-7.3-1.1-9.83-3.35-2.53-2.25-3.8-4.8-3.81-7.65-.01-2.85.89-7.55,2.7-14.11l8.66-30.78c-20.03,21.75-36.73,36.52-50.12,44.31-13.38,7.78-25.44,11.7-36.18,11.75-8.89.04-16.31.17-22.38-7.61-6.07-7.78-9.21-23.23-9.28-38.34-.11-23.85,7.93-51.3,24.14-82.36,16.21-31.06,34.3-54.07,54.28-69.02,19.97-14.96,38.26-22.48,54.87-22.55,3.69-.02,9.23.55,16.62,1.68,7.73-32.69,15.16-56.54,22.31-71.57,7.14-15.02,16.39-28,27.74-38.94,11.35-10.94,24.36-19.41,39.01-25.43,14.65-6.01,28.35-9.05,41.1-9.11,6.71-.03,12.08,1.7,16.13,5.21,4.04,3.5,6.08,7.94,6.1,13.31.02,5.2-1.81,9.45-5.49,12.73-3.68,3.29-8.72,4.95-15.11,4.98-4.2.02-12.03-.78-23.47-2.41-11.44-1.62-19.26-2.42-23.46-2.4-5.89.03-11.05,1.85-15.48,5.47-4.44,3.62-8.65,11.38-12.63,23.29-2.64,7.56-8.63,31.66-17.96,72.31l-34.88,152.16c-4.1,17.97-6.13,29.9-6.1,35.77.03,6.38,2.48,9.56,7.34,9.54,3.02-.01,6.54-1.12,10.55-3.32,5.68-3.21,16.72-11.23,33.1-24.05Zm-53.95-129.82c-13.44-2.96-22.92-4.43-28.45-4.4-11.24.05-22.21,4.52-32.9,13.39-10.69,8.87-20.97,26.02-30.83,51.43-9.86,25.41-14.75,47.53-14.66,66.34.04,8.57,2.38,15.57,7.02,21.01,4.64,5.44,9.89,8.14,15.76,8.11,7.04-.03,15.08-3.17,24.11-9.44,12.87-9.3,23.05-20.6,30.54-33.91,4.49-8.42,10.51-29.03,18.08-61.83l11.33-50.7Z"/>
        </g>
        <g>
          <path class="cls-5" d="m959.28,73.26c-3.6-.03-7.13.14-10.61.49l2.68-40.01-218.88,31.12v277.48l197.44,11.78,1.8-26.82,87.62.83,1.81-190.83c.4-42.3-20.22-63.64-61.86-64.04Z"/>
          <path class="cls-1" d="m1001.19,307.21l-78.99-.75,1.52-160.14c.15-16.3-4.31-24.5-13.4-24.58-9.24-.09-17.3,6.29-24.21,19.14-6.91,12.85-10.44,28.07-10.61,45.68l-1.14,119.46-78.99-.75,2.08-218.57c27.12.26,53.47-1.29,79.04-4.66l-.39,40.9c19.88-26.94,43.96-40.27,72.23-40,36.64.35,54.79,19.13,54.44,56.36l-1.6,167.93Z"/>
        </g>
        <g>
          <path class="cls-4" d="m518,495.87c-20.73-17.65-41.01-42.32-60.83-74-46.19-73.09-70.6-149.25-73.23-228.48,24.82-10.37,28.35-15.71,43.73-33.36,16.41-19.09,10.54-48.42,10.66-70.29.15-24.96-11.51-42.66-34.96-53.12-15.09-6.81-36.57-11.38-64.43-13.7v-.59h-7.96c-11.02-.72-22.96-1.12-35.82-1.2l-191.34-1.13c.73.76,1.4,1.55,2.1,2.33H20.01v473.54h374.94v-.73l123.06.73Z"/>
          <path class="cls-1" d="m211.97,205.63c-21.3-.13-32.02,12.39-32.17,37.54-.61,104.29.77,165.72,4.15,184.28,1.95,11.21,4.47,19.58,7.56,25.11l8.18,14.65-117.01-.69c5.96-13.92,4.08-25.59,5.15-34.95,1.06-9.36,1.99-19.36,2.79-30,1.6-21.65,2.5-50.75,2.72-87.29.26-44.25-.24-84.65-1.49-121.19l-2.58-75.76c-.62-19.1-2.2-32.42-4.72-39.96-3.97-11.96-10.52-22.74-19.64-32.34l170.31,1c44.43.26,76.54,4.86,96.32,13.79,20.88,9.31,31.25,25.07,31.12,47.28-.11,19.46,5.11,45.57-9.49,62.56-13.68,15.71-16.83,20.46-38.92,29.69,2.34,70.52,24.06,138.31,65.18,203.37,17.64,28.2,35.69,50.16,54.15,65.87l-130.6-.77c-17.85-24.71-34.17-74.66-48.97-149.84-4.99-26.1-8.21-47.79-9.67-65.06-1.46-17.27-2.69-27.7-3.67-31.28-.99-3.59-2.58-6.49-4.77-8.7-4.38-4.8-12.35-7.23-23.92-7.3Zm63.77-48.79c5.08-5.38,8.69-11.19,10.84-17.43,2.15-6.23,3.24-12.24,3.27-18.02.03-5.78-.72-11.57-2.24-17.36-1.53-5.79-4.58-10.91-9.14-15.34-10.04-9.97-27.64-15.04-52.79-15.18-9.36-.06-16.94.27-22.73.97-5.79.7-10.34,2.69-13.67,5.98-5.73,5.47-8.65,19.5-8.79,42.09-.12,19.83,1.92,32.51,6.11,38.04,7.47,9.78,18.82,14.71,34.07,14.8,15.24.09,26.95-1.63,35.15-5.16,8.19-3.53,14.83-7.99,19.91-13.38Z"/>
        </g>
        <g>
          <path class="cls-2" d="m770.72,102.73l-165.35,23.51c-9.21-2.87-18.87-4.34-29.01-4.37-21.25-.06-40.26,3.67-57.03,11.19-16.77,7.52-30.97,17.83-42.59,30.91-11.63,13.09-20.53,28.48-26.7,46.18-6.17,17.7-9.28,36.68-9.34,56.97-.06,20.29,2.95,39.3,9.02,57.02,6.07,17.73,14.88,33.17,26.44,46.33,11.56,13.16,25.69,23.54,42.42,31.15,16.72,7.61,35.71,11.45,56.96,11.51,16.26.04,31.2-3.09,44.83-9.41,1.4-.65,2.78-1.35,4.14-2.07l30.76,1.84v4.31s75.85.21,75.85.21l39.6,2.36V102.73Z"/>
          <path class="cls-1" d="m715.37,386.57l-71.15-.2.08-29.05c-8.45,11.48-18.62,19.98-30.49,25.49-11.88,5.51-24.9,8.24-39.07,8.2-18.52-.05-35.07-3.4-49.65-10.03-14.58-6.64-26.9-15.69-36.97-27.15-10.07-11.46-17.75-24.92-23.04-40.38-5.29-15.45-7.91-32.02-7.86-49.7.05-17.68,2.76-34.23,8.14-49.65,5.37-15.42,13.13-28.83,23.27-40.25,10.14-11.41,22.51-20.39,37.12-26.94,14.61-6.55,31.18-9.81,49.7-9.75,9.4.03,18.34,1.46,26.83,4.29,8.48,2.83,16.26,6.82,23.33,11.96,7.07,5.14,13.3,11.34,18.68,18.58,5.38,7.24,9.6,15.29,12.67,24.14l31.72-52.75,27.36.08-.68,243.12Zm-71.22-122.29c.02-6.31-.28-12.98-.89-20-.61-7.02-1.68-13.97-3.2-20.85-1.53-6.88-3.65-13.45-6.36-19.7-2.72-6.25-6.21-11.81-10.48-16.66-4.27-4.85-9.41-8.69-15.44-11.52-6.03-2.82-13.04-4.25-21.04-4.27s-14.95,1.4-20.85,4.26c-5.9,2.86-10.96,6.7-15.19,11.53-4.22,4.83-7.71,10.4-10.47,16.7-2.75,6.31-4.91,12.9-6.48,19.77-1.57,6.87-2.67,13.78-3.32,20.73-.65,6.94-.98,13.51-1,19.68-.02,6.18.28,12.77.89,19.79.61,7.02,1.68,13.97,3.2,20.85,1.52,6.88,3.65,13.48,6.36,19.8,2.72,6.32,6.18,11.91,10.37,16.76,4.2,4.85,9.24,8.73,15.12,11.62,5.89,2.9,12.83,4.35,20.83,4.37,7.29.02,13.79-1.47,19.48-4.47,5.69-3,10.68-7.02,14.98-12.06,4.29-5.04,7.92-10.78,10.89-17.23,2.97-6.44,5.37-13.11,7.21-19.98,1.84-6.87,3.2-13.71,4.06-20.51.86-6.8,1.3-13.01,1.32-18.63Z"/>
        </g>
        <g>
          <path class="cls-5" d="m1902.19,165.8c.17-28.84-2.71-49.98-8.63-63.45-6.77-14.91-17.08-26.41-30.93-34.48-13.84-8.07-30.37-12.17-49.58-12.3-16.46-.11-31.5,3.46-45.09,10.72-13.59,7.26-26.35,18.46-38.27,33.62-8.14-15.11-18.54-26.42-31.19-33.94-12.65-7.52-27.8-11.34-45.47-11.45-16.98-.11-32.43,3.42-46.37,10.58-13.94,7.17-42.35,5.3-48.74-1.55s-14.39-10.3-23.99-10.36c-9.95-.07-17.99,3.51-24.12,10.73-6.13,7.22-9.24,17.81-9.32,31.77l.63,224.8c.06,21.11,17.19,38.2,38.31,38.2h325.08c21.22,0,38.4-17.25,38.31-38.47l-.65-154.42Z"/>
          <path class="cls-1" d="m1737.36,220.15l-.44,75.36c-.07,11.9-2.9,20.81-8.5,26.72-5.6,5.91-12.96,8.84-22.09,8.78-8.84-.06-15.99-3.08-21.45-9.07-5.46-5.99-8.15-14.93-8.08-26.83l.53-90.3c.08-14.25-.35-25.33-1.3-33.23-.95-7.9-3.63-14.38-8.02-19.46-4.39-5.08-11.37-7.65-20.92-7.71-19.11-.13-31.73,6.16-37.87,18.85-6.14,12.69-9.27,30.94-9.41,54.74l-.45,76.6c-.07,11.76-2.87,20.64-8.39,26.62-5.53,5.99-12.78,8.95-21.76,8.89-8.85-.06-16.06-3.11-21.66-9.17-5.6-6.06-8.36-14.97-8.29-26.73l.95-162.13c.06-10.66,2.64-18.73,7.74-24.24,5.09-5.5,11.78-8.23,20.05-8.17,7.98.05,14.64,2.69,19.95,7.92,5.32,5.22,7.95,12.4,7.9,21.54l-.03,5.4c10.19-11.69,21.08-20.27,32.67-25.74,11.58-5.46,24.44-8.14,38.55-8.05,14.69.1,27.29,3.02,37.81,8.76,10.52,5.75,19.17,14.38,25.95,25.91,9.91-11.56,20.51-20.11,31.81-25.64,11.3-5.53,23.8-8.25,37.49-8.16,15.97.1,29.72,3.24,41.23,9.4,11.52,6.17,20.09,14.94,25.73,26.33,4.93,10.28,7.33,26.41,7.2,48.42l-.65,110.65c-.07,11.9-2.9,20.81-8.5,26.72-5.6,5.91-12.96,8.84-22.09,8.78-8.84-.06-16.06-3.11-21.66-9.17-5.6-6.06-8.36-14.97-8.3-26.73l.56-95.28c.07-12.18-.41-21.94-1.43-29.28-1.03-7.34-3.88-13.52-8.56-18.53-4.68-5.01-11.8-7.55-21.35-7.61-7.7-.05-15.03,2.12-21.97,6.5-6.94,4.39-12.36,10.3-16.25,17.75-4.33,9.52-6.57,26.39-6.71,50.61Z"/>
        </g>
        <g>
          <rect class="cls-3" x="1207.52" y="151.47" width="375.66" height="375.66" rx="181.38" ry="181.38"/>
          <g>
            <path class="cls-1" d="m1279.58,240.06s0,0,0,0c-.05.14-.1.28-.16.42-.03.1-.01.06.16-.42Z"/>
            <path class="cls-1" d="m1300.31,440.2s-.02-.01-.02-.02c0,0,.02.01.02.02Z"/>
            <path class="cls-1" d="m1560.67,411.78c-.06-.08-.11-.15-.17-.23-.14-.23-.31-.46-.48-.67-6.58-9.15-13.28-18.21-19.88-27.35,4.88-.2,9.75-.45,14.62-.77.55-.02,1.09-.12,1.59-.29.02,0,.05-.02.07-.03.12-.04.24-.09.36-.14,1.14-.45,2.1-1.23,2.73-2.35.89-1.44,1.14-3.24.36-4.93-.18-.45-.42-.87-.72-1.24-4.65-7.42-9.24-14.87-13.81-22.34-2.3-3.75-4.59-7.51-6.89-11.26-2.27-3.71-4.71-7.35-6.74-11.19-.48-.91-.94-1.83-1.36-2.76-.11-.24-.22-.49-.33-.73.01.01-.42-1.02-.42-1.03-.74-1.9-1.38-3.85-1.9-5.82-.48-1.79-.87-3.61-1.16-5.44,0-.04-.15-1.1-.16-1.1-.03-.25-.06-.49-.08-.74-.11-1.11-.19-2.22-.24-3.34-.18-4.2.3-8.35.64-12.53.37-4.48.65-8.96.79-13.45.29-8.82.11-17.68-.79-26.47-.79-7.72-2.07-15.47-5.6-22.47-.74-1.47-1.6-2.87-2.57-4.19-1.4-1.91-2.99-4.09-5.01-5.4-3.6-2.34-8.15-3.34-12.38-3.57-7.66-.42-15.68,1.96-22.76,4.7-16.75,6.47-31.48,16.84-45.64,27.68-10.74-.14-21.45-1.26-32.19-1.26-7.15,0-14.27.05-21.42.42-6.71.35-13.42.77-20.15.85-12.36-9.47-25.12-18.6-39.37-25.03-7.51-3.39-15.39-6.15-23.6-7.14-3.97-.48-8.11-.31-11.96.81-1.97.57-4.16,1.38-5.87,2.54-2.01,1.36-3.59,3.47-5.01,5.4-4.28,5.83-6.27,13.07-7.33,20.13-1.33,8.84-1.8,17.79-1.75,26.72.05,8.84.94,17.57,1.5,26.38.12,1.96.15,3.92.06,5.88-.04.93-.1,1.86-.19,2.78-.03.37-.08.74-.11,1.11-.03.25-.05.42-.06.5-.04.26-.08.52-.12.79-.63,3.85-1.65,7.63-3.06,11.26,0,0-.36.87-.41,1.01-.19.42-.37.84-.57,1.26-.48,1.01-.99,2.01-1.53,3-1.15,2.1-2.46,4.13-3.72,6.17-2.63,4.28-5.25,8.57-7.88,12.86-5.12,8.36-10.24,16.72-15.45,25.02-.3.36-.53.77-.71,1.21-.8,1.7-.55,3.52.35,4.97.61,1.07,1.53,1.84,2.62,2.3.17.08.34.14.51.2,0,0,0,0,0,0,.51.17,1.05.28,1.62.3,4.87.32,9.75.57,14.62.77-6.62,9.16-13.34,18.24-19.93,27.42-.13.17-.26.34-.38.52-.07.1-.15.21-.22.31-1.28,1.78-.81,4.56.43,6.16.01.02.03.03.04.05,1.02,1.36,2.59,2.32,4.32,2.14,4.71-.51,9.37-1.36,14.02-2.28,2.17-.43,4.35-.86,6.53-1.23,1.61-.27,2.48-.41,3.58-.54,6.37,6.63,12.17,13.78,18.57,20.38,1.8,1.86,3.66,3.68,5.57,5.43,1.06.97,2.12,2.02,3.32,2.81.39.26.81.49,1.21.74.19.19.39.37.6.54.65.54,1.33,1.06,2.08,1.45.29.15.98.63.82.38.17.18.35.36.44.44,2.08,1.84,4.75,3.13,7.28,4.23,4.95,2.15,10.18,4.15,15.51,5.08,5.78,1.01,11.44.9,17.27.88,11.04-.03,22.07.31,33.11.31,8.69,0,17.37-.12,26.06-.16,1.27,0,2.54-.01,3.82-.01.35,0,.7,0,1.06,0,8.3.02,16.59.13,24.89.17,11.17.05,22.33-.34,33.5-.31,5.38.01,10.81.36,16.16-.17,5.74-.58,11.02-2.05,16.4-4.06,2.58-.96,5.16-2.02,7.58-3.34,1.42-.78,3.43-1.76,4.57-3.11.15-.06.32-.17.41-.22.63-.31,1.16-.68,1.72-1.11.31-.24.62-.46.9-.73.02-.02.12-.12.21-.2.07-.06.14-.11.16-.13.3-.19.63-.36.93-.56,2.28-1.49,4.28-3.59,6.23-5.49,7.55-7.36,14.11-15.64,21.41-23.23,1.1.13,2,.27,3.57.54,2.18.37,4.36.8,6.53,1.23,4.65.92,9.3,1.77,14.02,2.28,1.58.17,3.04-.64,4.06-1.83.1-.11.2-.23.3-.36,1.26-1.63,1.72-4.37.43-6.16Zm-271.78,33.81c.1.06.07.05,0,0h0Zm249.39-39.67c-1.68-.29-3.37-.53-5.06-.75-2.18-.29-4.37-.72-6.41.36-1.4.74-2.61,2.36-3.69,3.5-1.03,1.09-2.05,2.19-3.06,3.29-3.85,4.22-7.55,8.57-11.42,12.78-1.99,2.17-4.03,4.3-6.14,6.36-1.04,1.01-2.1,2.01-3.17,2.98-.29.26-.58.52-.87.78-.04.03-.25.18-.37.27-.12.07-.25.14-.29.16-.34.22-.66.46-.98.7-.5.38-1.03.75-1.49,1.18-.02.02-.06.05-.11.09-.24.11-.84.44-.99.51-1,.47-1.85,1.14-2.59,1.95-.02.02-.03.04-.05.06-.05.02-.11.05-.18.09-.61.32-1.17.72-1.77,1.05-.68.37-1.36.72-2.06,1.05-.26.12-.52.24-.78.36-.1.05-.19.09-.27.12-.03.01-.1.04-.24.09-2.72,1.08-5.52,2.13-8.33,2.95-1.49.43-3.02.76-4.54,1.02-.18.03-1.45.21-1.42.22-.85.1-1.7.18-2.55.23-6.18.41-12.47.03-18.66.01-6.49-.02-12.97.26-19.45.31-9.1.06-18.2-.06-27.3-.12-.07,0-.13-.01-.2-.01-2.83-.03-5.66-.03-8.49-.02-2.47,0-4.95,0-7.42.02-.06,0-.13,0-.19.01-7.53.05-15.06.14-22.59.14-6.41,0-12.82-.13-19.22-.32-6.35-.19-12.71.06-19.06.11-1.41.01-2.83-.02-4.24-.11-.81-.05-1.62-.13-2.42-.2-.05,0-.43-.05-.56-.06-.33-.05-.66-.1-.99-.15-3.08-.52-5.99-1.44-8.93-2.46-1.34-.47-2.66-.96-3.98-1.46-.06-.02-.37-.15-.49-.2-.18-.08-.36-.16-.54-.24-.79-.36-1.56-.74-2.32-1.14-.6-.32-1.2-.67-1.78-1.03-.08-.05-.17-.1-.25-.16-.01,0-.02-.02-.03-.02.13.1.15.25-.1-.03,0,0-.01-.01-.02-.02.04,0,.07.02.1.04-.07-.05-.14-.1-.19-.13-.69-.75-1.49-1.36-2.38-1.84-.39-.21-.79-.39-1.18-.59-.03-.03-.06-.06-.1-.09-.45-.42-1.05-.84-1.49-1.18-.42-.31-.88-.74-1.36-.93-.09-.03-.13-.05-.16-.05-.27-.23-.53-.5-.78-.73-2.22-1.99-4.35-4.08-6.42-6.22-4.04-4.19-7.85-8.61-11.72-12.96-2.11-2.38-4.25-4.74-6.46-7.03-1.76-1.83-3.41-3.71-6.2-3.62-1.99.07-4.02.45-5.98.74-2.54.38-5.07.86-7.59,1.35,6.25-8.57,12.54-17.11,18.67-25.76,2.3-3.25-.73-8.79-4.79-8.35-5.17-.12-10.33-.31-15.5-.57,3.9-6.29,7.77-12.6,11.63-18.92,5.24-8.57,11.21-16.94,14.77-26.39,3.46-9.18,4.23-18.89,3.34-28.58-.94-10.21-1.4-20.47-1.05-30.72.17-4.9.48-9.8,1.11-14.67.03-.21.12-.82.13-.92.07-.49.15-.98.23-1.47.16-.98.34-1.95.55-2.93.44-2.09.99-4.16,1.7-6.17.11-.32.24-.64.36-.95.03-.09.11-.31.16-.42,0,0,0,0,0,0,0,0,0,0,0,0,0,0,0-.02.01-.03.41-.89.84-1.77,1.32-2.62.49-.86,1.04-1.67,1.58-2.49.07-.1.12-.18.16-.25.05-.06.11-.12.19-.21.45-.51.91-1,1.36-1.51.11-.12.17-.21.21-.27.07-.02.18-.05.34-.11.06-.02,1.04-.47.94-.45.84-.31,1.71-.57,2.58-.76.35-.08.69-.14,1.04-.2.02.01.92-.09,1.02-.1,1.2-.08,2.41-.07,3.62,0,.52.03,1.04.09,1.56.14.12.01.21.02.29.02.08.02.18.04.32.06,1.05.2,2.09.38,3.13.62,2.25.52,4.47,1.18,6.67,1.89,1.97.64,3.92,1.31,5.84,2.1.23.1.98.42.97.41.35.15.69.3,1.03.46,1.2.54,2.39,1.1,3.57,1.67,8.39,4.09,16.3,9.08,23.92,14.47,3.84,2.72,7.61,5.53,11.34,8.39.99.76,1.89,1.6,3.13,1.94,1.44.4,3.14.2,4.62.17,2.72-.05,5.44-.15,8.16-.28,7.99-.37,15.97-.98,23.97-.98,5.26,0,10.5-.01,15.75.21,5.21.23,10.41.56,15.62.8,2.51.11,5.02.2,7.53.25,1.48.03,3.18.23,4.62-.17,1.38-.38,2.47-1.44,3.58-2.29,7.44-5.68,15.02-11.2,23.03-16.06,3.99-2.42,8.08-4.68,12.28-6.7,1.02-.49,2.04-.96,3.07-1.43.34-.15.69-.31,1.03-.46,0,0,.73-.31.97-.41,2.08-.85,4.21-1.58,6.35-2.26,2.03-.65,4.08-1.25,6.17-1.73,1.04-.24,2.09-.43,3.13-.62.14-.03.24-.05.32-.06.08,0,.17-.01.29-.02.69-.06,1.39-.13,2.08-.16,1.03-.05,2.07-.05,3.1.02.1,0,1.01.11,1.02.1.35.06.7.13,1.04.2.87.2,1.74.45,2.58.76-.09-.02.89.43.94.45.18.11.31.18.38.22.17.17.35.35.51.53.35.37.67.76,1,1.14.08.09.14.16.19.21.04.07.09.14.16.25.55.82,1.1,1.63,1.58,2.49.44.78.85,1.58,1.22,2.4.06.13.18.44.25.6.19.49.37.99.54,1.49.64,1.87,1.13,3.78,1.54,5.71.2.97.39,1.95.55,2.93.08.49.16.98.23,1.47.05.3.09.61.13.91,0,.02,0,.04,0,.07,1.26,10.25,1.44,20.63,1.02,30.94-.39,9.69-2.16,19.43-.94,29.1.63,4.93,1.7,9.74,3.5,14.39,1.79,4.62,4.1,8.81,6.69,13.01,5.49,8.92,10.93,17.88,16.43,26.8,1.02,1.66,2.05,3.32,3.08,4.98-5.16.25-10.33.45-15.5.57-4.06-.44-7.1,5.1-4.79,8.35,6.13,8.65,12.42,17.19,18.67,25.76-1.73-.34-3.47-.67-5.2-.97Z"/>
            <path class="cls-1" d="m1327.83,268.77c3.54,1.99,7.08,3.98,10.62,5.97,1.72.97,3.44,1.95,5.17,2.91.02.01.05.03.07.04,1.27.71,2.86.95,4.28.56,1.29-.35,2.68-1.35,3.32-2.55.68-1.29,1.02-2.85.56-4.28-.44-1.36-1.27-2.6-2.55-3.32-1.38-.77-2.76-1.55-4.13-2.32-3.32-1.86-6.63-3.73-9.95-5.59-4.03-2.26-8.05-4.52-12.08-6.79-3.51-1.97-7.02-3.94-10.53-5.92-1.77-.99-3.53-1.99-5.3-2.98-.91-.51-1.89-.95-2.89-1.23-1.12-.31-2.35-.48-3.52-.42-1.13.06-2.36.21-3.43.63-.72.28-1.45.56-2.13.94-.7.39-1.35.93-1.96,1.42-.89.72-1.61,1.65-2.24,2.59-.19.28-.36.59-.51.9-.34.75-.7,1.52-.92,2.32-.23.84-.31,1.72-.4,2.58-.21,2.02-.39,4.05-.59,6.08l-1.22,12.68c-.42,4.41-.85,8.82-1.27,13.24-.25,2.58-.5,5.17-.75,7.75-.01.12-.02.25-.04.37-.13,1.34.71,3.01,1.63,3.92.96.96,2.54,1.69,3.92,1.63,1.44-.06,2.92-.54,3.92-1.63.29-.37.58-.75.87-1.12.5-.87.75-1.8.76-2.8.13-1.34.26-2.67.39-4.01.31-3.21.62-6.42.93-9.62.37-3.88.75-7.75,1.12-11.63.32-3.34.64-6.68.96-10.02.13-1.37.26-2.74.4-4.11.04-.17.07-.34.12-.5.03-.05.06-.11.09-.16.05-.05.1-.1.14-.15.07-.04.14-.08.22-.13.08-.02.16-.05.23-.07.06,0,.12,0,.18,0,.08.02.17.04.25.07.33.18.66.36.98.54,1,.56,1.99,1.12,2.99,1.68,3.34,1.87,6.67,3.75,10.01,5.62,4.09,2.3,8.18,4.6,12.27,6.9Z"/>
            <path class="cls-1" d="m1508,288.86c-.4-4.15-.8-8.31-1.2-12.46-.43-4.46-.86-8.92-1.29-13.37-.26-2.75-.53-5.49-.79-8.24-.22-2.27-.59-4.52-1.94-6.44-.44-.63-.91-1.26-1.44-1.82-.55-.59-1.23-1.06-1.87-1.54-.92-.69-1.99-1.13-3.07-1.53-1.08-.4-2.3-.55-3.44-.59-1.17-.05-2.4.12-3.52.45-2.17.65-4.2,1.99-6.17,3.1-3.2,1.8-6.39,3.59-9.59,5.39-4.01,2.26-8.03,4.51-12.04,6.77-3.6,2.02-7.2,4.05-10.8,6.07-1.96,1.1-3.92,2.21-5.89,3.31-.09.05-.18.1-.27.15-1.2.68-2.19,1.99-2.55,3.32-.37,1.33-.2,3.1.56,4.28.76,1.18,1.9,2.23,3.32,2.55,1.47.34,2.94.19,4.28-.56,1.42-.8,2.84-1.6,4.26-2.39,3.39-1.9,6.78-3.81,10.16-5.71,4.09-2.3,8.19-4.6,12.28-6.9,3.49-1.96,6.98-3.93,10.47-5.89,1.63-.91,3.25-1.84,4.88-2.74,0,0,.01,0,.02,0,.09-.03.19-.05.28-.08.06,0,.12,0,.18,0,.08.02.16.04.23.07.07.04.15.08.22.13.05.05.1.1.14.15.03.05.06.11.09.16.05.18.09.36.13.54.11,1.04.2,2.08.3,3.11.31,3.19.61,6.38.92,9.56.37,3.87.75,7.75,1.12,11.62.32,3.36.65,6.71.97,10.07.16,1.64.31,3.27.47,4.91,0,.02,0,.05,0,.07-.03.76.13,1.48.48,2.14.22.69.61,1.28,1.15,1.79.96.96,2.54,1.69,3.92,1.63,1.44-.06,2.92-.54,3.92-1.63.94-1.02,1.76-2.48,1.63-3.92-.18-1.83-.35-3.66-.53-5.5Z"/>
            <path class="cls-1" d="m1453.7,378.74c-1.45.06-2.9.54-3.92,1.63-1.18,1.25-2.44,2.4-3.78,3.47-2.35,1.74-4.89,3.2-7.57,4.39-3.1,1.24-6.33,2.12-9.63,2.62-3.33.38-6.7.39-10.04,0-3.06-.47-6.05-1.28-8.93-2.44-1.91-.85-3.79-1.85-5.49-3.07-.32-.28-.63-.56-.91-.87-.05-.07-.09-.15-.13-.23,0-.02,0-.04-.01-.06-.06-.9-.08-1.81-.34-2.69-.3-1.05-.83-2.05-1.55-2.88l15.74-15.83h-42.66l15.74,15.84c-.18.15-.37.3-.55.47-1.09,1.02-2.01,2.23-3.08,3.28-.97.94-1.99,1.82-3.04,2.66-2.53,1.87-5.27,3.45-8.14,4.72-3.19,1.28-6.52,2.19-9.93,2.72-3.28.38-6.6.39-9.88,0-2.49-.39-4.96-.99-7.3-1.89-1.01-.47-1.99-1.01-2.9-1.65-.36-.31-.7-.64-1.01-1-.17-.26-.33-.53-.48-.81-.01-.04-.03-.07-.04-.11-.43-1.36-1.3-2.58-2.55-3.32-1.19-.7-2.94-.99-4.28-.56-1.34.43-2.64,1.27-3.32,2.55-.68,1.29-1.02,2.84-.56,4.28.87,2.74,2.49,5.29,4.74,7.11,1.15.93,2.32,1.81,3.62,2.51,1.31.7,2.7,1.28,4.1,1.8,4.34,1.62,9.13,2.33,13.74,2.46,9.35.25,18.93-2.35,26.89-7.26,2.37-1.46,4.62-3.16,6.71-4.99.4-.36.8-.72,1.19-1.1.04.06.08.13.13.19.61.8,1.2,1.58,1.94,2.26,1.95,1.78,4.25,3.2,6.61,4.38,4.17,2.09,8.64,3.6,13.26,4.27,2.57.38,5.15.65,7.75.64,2.61,0,5.18-.29,7.76-.67,4.67-.69,9.15-2.19,13.41-4.21,4.69-2.23,9.05-5.39,12.62-9.16,1-1.05,1.63-2.46,1.63-3.92,0-1.36-.6-2.99-1.63-3.92-1.06-.97-2.45-1.69-3.92-1.63Z"/>
            <path class="cls-1" d="m1332.04,339.19c1.63-.63,3.31-1.09,5.03-1.38,1.61-.16,3.22-.17,4.83,0,1.33.23,2.63.58,3.9,1.05.8.37,1.57.77,2.31,1.25,1.19.75,2.94.93,4.28.56,1.29-.35,2.68-1.35,3.32-2.55.68-1.29,1.02-2.85.56-4.28-.45-1.41-1.29-2.52-2.55-3.32-1.44-.91-2.97-1.58-4.55-2.22-1.15-.46-2.34-.82-3.56-1.07-2.86-.59-5.83-.84-8.74-.51-1.7.19-3.4.43-5.05.86-1.65.43-3.21,1.06-4.77,1.74-2.69,1.16-5.1,2.79-7.31,4.7-1.06.91-2.02,1.93-2.88,3.03-1.14,1.46-2.21,2.92-3.03,4.59-.41.64-.63,1.32-.66,2.06-.17.74-.13,1.48.1,2.21.35,1.29,1.35,2.68,2.55,3.32,1.29.68,2.85,1.02,4.28.56,1.32-.43,2.69-1.26,3.32-2.55.48-.98,1.03-1.91,1.66-2.79.87-1.05,1.83-2.01,2.87-2.88,1.28-.93,2.66-1.73,4.1-2.39Z"/>
            <path class="cls-1" d="m1470.41,334.83c-1.01-1.35-2.04-2.65-3.27-3.8-2.1-1.98-4.53-3.71-7.15-4.94-2.68-1.26-5.46-2.26-8.39-2.68-1.68-.24-3.34-.46-5.04-.45-1.7,0-3.4.22-5.07.49-1.38.22-2.73.58-4.04,1.07-1.72.65-3.43,1.4-4.98,2.39-1.21.77-2.17,1.92-2.55,3.32-.37,1.33-.2,3.1.56,4.28.76,1.18,1.9,2.23,3.32,2.55,1.43.32,3.01.25,4.28-.56.74-.47,1.52-.88,2.31-1.25,1.26-.47,2.57-.82,3.9-1.05,1.61-.16,3.22-.16,4.83,0,1.72.29,3.41.75,5.03,1.38,1.44.66,2.81,1.46,4.1,2.39,1.05.87,2.01,1.83,2.87,2.88.63.88,1.18,1.82,1.66,2.79.58,1.2,2.07,2.21,3.32,2.55,1.33.37,3.1.2,4.28-.56,1.18-.76,2.23-1.9,2.55-3.32.07-.49.13-.98.2-1.48,0-1-.26-1.94-.76-2.8-.55-1.12-1.2-2.19-1.95-3.19Z"/>
          </g>
        </g>
      </g>
    </g>
  </g>
</svg>