<svg width="76" height="48" viewBox="0 0 76 48" fill="none" xmlns="http://www.w3.org/2000/svg">
<path id="Vector" d="M15.0417 39.6303C13.8467 39.1517 12.9177 38.5031 12.2548 37.6846C11.592 36.866 11.2553 35.9437 11.2449 34.9178L11.1146 22.0711L2.51047 18.6118C1.85324 18.3508 1.37384 18.0211 1.07226 17.6226C0.77068 17.2242 0.617403 16.7796 0.612427 16.289C0.60745 15.7983 0.75168 15.3507 1.04512 14.9463C1.33855 14.5418 1.81117 14.2024 2.46297 13.9281L32.5053 1.31081C33.0385 1.08235 33.5872 0.909494 34.1514 0.792246C34.7155 0.674997 35.2951 0.613355 35.8901 0.607321C36.4851 0.601286 37.0658 0.651161 37.6322 0.756944C38.1986 0.862727 38.7507 1.02442 39.2884 1.24202L73.4346 14.8144C74.0319 15.0313 74.4963 15.3501 74.8278 15.7705C75.1594 16.191 75.3277 16.6465 75.3326 17.1372L75.5064 34.266C75.514 35.0243 75.1784 35.6635 74.4993 36.1834C73.8202 36.7033 72.9749 36.9684 71.9634 36.9786C70.9519 36.9889 70.1014 36.741 69.4119 36.235C68.7225 35.7289 68.3739 35.0968 68.3662 34.3385L68.206 18.5478L61.0957 21.5642L61.226 34.4109C61.2364 35.4368 60.9186 36.3657 60.2724 37.1976C59.6263 38.0294 58.7107 38.6967 57.5256 39.1995L39.7485 46.6067C39.2153 46.8352 38.6666 47.0081 38.1024 47.1253C37.5383 47.2426 36.9587 47.3042 36.3637 47.3102C35.7687 47.3163 35.188 47.2664 34.6216 47.1606C34.0552 47.0548 33.5031 46.8931 32.9654 46.6755L15.0417 39.6303ZM36.1459 25.8322L60.5005 15.6816L35.945 6.027L11.5904 16.1776L36.1459 25.8322ZM36.3094 41.9575L54.0866 34.5502L53.9841 24.4468L39.6749 30.5475C39.1417 30.776 38.5781 30.949 37.9842 31.0666C37.3903 31.1841 36.7959 31.2459 36.2009 31.2519C35.6059 31.258 35.0103 31.2082 34.4141 31.1028C33.818 30.9973 33.251 30.8357 32.7133 30.6181L18.2833 24.8089L18.3858 34.9123L36.3094 41.9575Z" fill="#86C095"/>
</svg>
