<svg width="67" height="66" viewBox="0 0 67 66" fill="none" xmlns="http://www.w3.org/2000/svg">
<g id="Clip path group">
<mask id="mask0_706_2572" style="mask-type:luminance" maskUnits="userSpaceOnUse" x="0" y="0" width="67" height="66">
<g id="clip0_953_533">
<path id="Vector" d="M66.9336 0H0.933594V66H66.9336V0Z" fill="white"/>
</g>
</mask>
<g mask="url(#mask0_706_2572)">
<g id="Group">
<path id="Vector_2" d="M33.9336 33.5534C46.7454 33.5534 57.1549 43.7517 57.3733 56.3792C63.2939 50.4142 66.9336 42.2364 66.9336 33.1926C66.9336 14.9849 52.1564 0.240723 33.9336 0.240723C15.7108 0.240723 0.933594 14.9849 0.933594 33.1926C0.933594 42.2364 4.59756 50.4382 10.4939 56.3792C10.7123 43.7517 21.1218 33.5534 33.9336 33.5534Z" fill="#86C095"/>
<path id="Vector_3" d="M33.9339 66.1443C43.1059 66.1443 51.3802 62.4162 57.3736 56.379C57.1552 43.7274 46.7456 33.5532 33.9339 33.5532C21.1221 33.5532 10.7125 43.7515 10.4941 56.379C16.4875 62.4162 24.7618 66.1443 33.9339 66.1443Z" fill="#B3ECE0"/>
<path id="Vector_4" d="M33.9328 36.6802C40.7539 36.6802 46.2835 31.199 46.2835 24.4375C46.2835 17.6761 40.7539 12.1948 33.9328 12.1948C27.1117 12.1948 21.582 17.6761 21.582 24.4375C21.582 31.199 27.1117 36.6802 33.9328 36.6802Z" fill="#F8E3FE"/>
</g>
</g>
</g>
</svg>
