<svg width="73" height="57" viewBox="0 0 73 57" fill="none" xmlns="http://www.w3.org/2000/svg">
<path id="Vector" d="M54.3616 38.7552C51.8286 38.7433 49.6915 37.8874 47.9505 36.1875C46.2095 34.4876 45.3447 32.4127 45.3563 29.9627C45.3678 27.5127 46.2521 25.4461 48.009 23.7626C49.766 22.0792 51.911 21.2435 54.444 21.2554C56.9771 21.2674 59.1141 22.1233 60.8551 23.8231C62.5961 25.523 63.4609 27.598 63.4494 30.0479C63.4378 32.4979 62.5536 34.5646 60.7966 36.248C59.0396 37.9314 56.8946 38.7672 54.3616 38.7552ZM36.2026 52.6699L36.2092 51.2699C36.2158 49.8699 36.5988 48.5738 37.3583 47.3815C38.1178 46.1892 39.1924 45.3339 40.582 44.8154C42.7573 43.9506 45.0069 43.305 47.3309 42.8784C49.655 42.4519 51.993 42.2441 54.3451 42.2552C56.6972 42.2663 59.0332 42.496 61.3531 42.9445C63.673 43.3929 65.9164 44.0597 68.0835 44.9449C69.4682 45.4765 70.5346 46.3419 71.2829 47.5413C72.0311 48.7406 72.4019 50.0403 72.3953 51.4403L72.3887 52.8403C72.3841 53.832 72.0334 54.6616 71.3366 55.3291C70.6399 55.9967 69.7789 56.328 68.7536 56.3232L39.8047 56.1869C38.7794 56.182 37.9216 55.8426 37.2312 55.1685C36.5408 54.4944 36.1979 53.6615 36.2026 52.6699ZM29.0807 28.136C25.1003 28.1173 21.6992 26.7304 18.8775 23.9754C16.0558 21.2205 14.6541 17.918 14.6722 14.068C14.6903 10.2181 16.1231 6.92894 18.9706 4.20066C21.8181 1.47237 25.2321 0.117602 29.2126 0.13635C33.1931 0.155099 36.5942 1.54197 39.4158 4.29695C42.2375 7.05194 43.6393 10.3544 43.6211 14.2044C43.603 18.0543 42.1702 21.3435 39.3227 24.0717C36.4752 26.8 33.0612 28.1548 29.0807 28.136ZM0.0460708 46.1995C0.0554122 44.2162 0.576636 42.3957 1.60974 40.738C2.64285 39.0804 4.06611 37.8183 5.87954 36.9519C9.5064 35.2189 13.267 33.895 17.1614 32.98C21.0559 32.065 25.0235 31.617 29.0642 31.636C31.1751 31.6459 33.2851 31.8309 35.3944 32.1908C37.5036 32.5508 39.6125 32.969 41.7212 33.4456L38.6313 36.4061L35.5415 39.3666C34.4573 39.0698 33.3726 38.8751 32.2874 38.7825C31.2022 38.6899 30.1169 38.641 29.0313 38.6359C25.5333 38.6194 22.1087 39.0117 18.7577 39.8125C15.4066 40.6134 12.1896 41.765 9.10663 43.2671C8.50215 43.556 8.0479 43.9622 7.74387 44.4857C7.43985 45.0093 7.28633 45.5919 7.28331 46.2336L7.27012 49.0335L28.9818 49.1358L28.9657 52.5483C28.9622 53.3066 29.1097 53.9927 29.4084 54.6066C29.7071 55.2205 30.1268 55.7329 30.6677 56.1438L7.23715 56.0335C5.24691 56.0241 3.54637 55.3307 2.13554 53.9532C0.7247 52.5757 0.0238161 50.9244 0.0328828 48.9995L0.0460708 46.1995ZM29.1137 21.1361C31.1039 21.1455 32.8109 20.4681 34.2347 19.104C35.6584 17.7398 36.3748 16.0953 36.3839 14.1703C36.393 12.2453 35.6921 10.5941 34.2813 9.21657C32.8704 7.83908 31.1699 7.14565 29.1796 7.13627C27.1894 7.1269 25.4824 7.80428 24.0587 9.16843C22.6349 10.5326 21.9185 12.1771 21.9094 14.1021C21.9004 16.0271 22.6013 17.6783 24.0121 19.0558C25.4229 20.4333 27.1235 21.1267 29.1137 21.1361Z" fill="#2196F3"/>
</svg>
